{
 "cells": [
  {
   "cell_type": "markdown",
   "metadata": {},
   "source": [
    "Pode ser útil:\n",
    "https://mido.readthedocs.io/en/latest/installing.html e \n",
    "https://mido.readthedocs.io/en/latest/midi_files.html"
   ]
  },
  {
   "cell_type": "markdown",
   "metadata": {},
   "source": [
    "Atributos:\n",
    "- velocity: how hard the note is hit\n",
    "- time : \n",
    "\n",
    "\n",
    "- mid.ticks_per_beat :o tamnho de um tick (é fixo para cada música) \n"
   ]
  },
  {
   "cell_type": "markdown",
   "metadata": {},
   "source": [
    "You can use tick2second() and second2tick() to convert to and from seconds and ticks. \n",
    "\n",
    "Pygame uses the pygame.midi."
   ]
  },
  {
   "cell_type": "code",
   "execution_count": 1,
   "metadata": {
    "collapsed": true
   },
   "outputs": [],
   "source": [
    "import mido\n",
    "import time"
   ]
  },
  {
   "cell_type": "code",
   "execution_count": 2,
   "metadata": {},
   "outputs": [
    {
     "data": {
      "text/plain": [
       "60"
      ]
     },
     "execution_count": 2,
     "metadata": {},
     "output_type": "execute_result"
    }
   ],
   "source": [
    "msg = mido.Message('note_on', note=60)\n",
    "msg.note"
   ]
  },
  {
   "cell_type": "markdown",
   "metadata": {},
   "source": [
    "Para abrir um arquivo .mid"
   ]
  },
  {
   "cell_type": "code",
   "execution_count": 3,
   "metadata": {},
   "outputs": [
    {
     "data": {
      "text/plain": [
       "157.3299999999979"
      ]
     },
     "execution_count": 3,
     "metadata": {},
     "output_type": "execute_result"
    }
   ],
   "source": [
    "from mido import MidiFile\n",
    "\n",
    "mid = MidiFile('song.mid')\n",
    "\n",
    "mid.length #total playback time in seconds "
   ]
  },
  {
   "cell_type": "code",
   "execution_count": 4,
   "metadata": {},
   "outputs": [
    {
     "data": {
      "text/plain": [
       "120"
      ]
     },
     "execution_count": 4,
     "metadata": {},
     "output_type": "execute_result"
    }
   ],
   "source": [
    "mid.ticks_per_beat "
   ]
  },
  {
   "cell_type": "code",
   "execution_count": 5,
   "metadata": {},
   "outputs": [
    {
     "name": "stdout",
     "output_type": "stream",
     "text": [
      "Track 0: untitled\n",
      "<meta message track_name name='untitled' time=0>\n",
      "<meta message time_signature numerator=4 denominator=4 clocks_per_click=24 notated_32nd_notes_per_beat=8 time=0>\n",
      "<meta message key_signature key='F' time=0>\n",
      "<meta message set_tempo tempo=400000 time=0>\n",
      "<meta message marker text='sequenced by: Don Carroll  donniec@ix.netcom.com' time=0>\n",
      "<meta message end_of_track time=0>\n",
      "Track 1: PIANO/LEFT\n",
      "<meta message midi_port port=0 time=0>\n",
      "<meta message track_name name='PIANO/LEFT' time=0>\n",
      "program_change channel=0 program=0 time=0\n",
      "control_change channel=0 control=7 value=120 time=0\n",
      "control_change channel=0 control=10 value=52 time=0\n",
      "control_change channel=0 control=64 value=0 time=0\n",
      "pitchwheel channel=0 pitch=0 time=0\n",
      "note_on channel=0 note=45 velocity=18 time=480\n",
      "note_on channel=0 note=45 velocity=0 time=19\n",
      "note_on channel=0 note=48 velocity=20 time=1\n",
      "note_on channel=0 note=48 velocity=0 time=19\n",
      "note_on channel=0 note=45 velocity=23 time=1\n",
      "note_on channel=0 note=45 velocity=0 time=19\n",
      "note_on channel=0 note=48 velocity=25 time=1\n",
      "note_on channel=0 note=48 velocity=0 time=19\n",
      "note_on channel=0 note=45 velocity=28 time=1\n",
      "note_on channel=0 note=45 velocity=0 time=19\n",
      "note_on channel=0 note=48 velocity=31 time=1\n",
      "note_on channel=0 note=48 velocity=0 time=19\n",
      "note_on channel=0 note=45 velocity=33 time=1\n",
      "note_on channel=0 note=45 velocity=0 time=19\n",
      "note_on channel=0 note=48 velocity=36 time=1\n",
      "note_on channel=0 note=48 velocity=0 time=19\n",
      "note_on channel=0 note=45 velocity=38 time=1\n",
      "note_on channel=0 note=45 velocity=0 time=19\n",
      "note_on channel=0 note=48 velocity=41 time=1\n",
      "note_on channel=0 note=48 velocity=0 time=19\n",
      "note_on channel=0 note=45 velocity=44 time=1\n",
      "note_on channel=0 note=45 velocity=0 time=19\n",
      "note_on channel=0 note=48 velocity=46 time=1\n",
      "note_on channel=0 note=48 velocity=0 time=19\n",
      "note_on channel=0 note=45 velocity=49 time=1\n",
      "note_on channel=0 note=45 velocity=0 time=19\n",
      "note_on channel=0 note=48 velocity=52 time=1\n",
      "note_on channel=0 note=48 velocity=0 time=19\n",
      "note_on channel=0 note=45 velocity=54 time=1\n",
      "note_on channel=0 note=45 velocity=0 time=19\n",
      "note_on channel=0 note=48 velocity=57 time=1\n",
      "note_on channel=0 note=48 velocity=0 time=19\n",
      "note_on channel=0 note=45 velocity=59 time=1\n",
      "note_on channel=0 note=45 velocity=0 time=19\n",
      "note_on channel=0 note=48 velocity=62 time=1\n",
      "note_on channel=0 note=48 velocity=0 time=19\n",
      "note_on channel=0 note=45 velocity=65 time=1\n",
      "note_on channel=0 note=45 velocity=0 time=19\n",
      "note_on channel=0 note=48 velocity=67 time=1\n",
      "note_on channel=0 note=48 velocity=0 time=19\n",
      "note_on channel=0 note=45 velocity=70 time=1\n",
      "note_on channel=0 note=45 velocity=0 time=19\n",
      "note_on channel=0 note=48 velocity=72 time=1\n",
      "note_on channel=0 note=48 velocity=0 time=19\n",
      "note_on channel=0 note=45 velocity=75 time=1\n",
      "note_on channel=0 note=45 velocity=0 time=19\n",
      "note_on channel=0 note=48 velocity=78 time=1\n",
      "note_on channel=0 note=48 velocity=0 time=19\n",
      "note_on channel=0 note=41 velocity=63 time=1\n",
      "note_on channel=0 note=41 velocity=0 time=19\n",
      "note_on channel=0 note=51 velocity=17 time=1\n",
      "note_on channel=0 note=51 velocity=0 time=19\n",
      "note_on channel=0 note=41 velocity=19 time=1\n",
      "note_on channel=0 note=41 velocity=0 time=19\n",
      "note_on channel=0 note=51 velocity=22 time=1\n",
      "note_on channel=0 note=51 velocity=0 time=19\n",
      "note_on channel=0 note=41 velocity=25 time=1\n",
      "note_on channel=0 note=41 velocity=0 time=19\n",
      "note_on channel=0 note=51 velocity=28 time=1\n",
      "note_on channel=0 note=51 velocity=0 time=19\n",
      "note_on channel=0 note=41 velocity=31 time=1\n",
      "note_on channel=0 note=41 velocity=0 time=19\n",
      "note_on channel=0 note=51 velocity=33 time=1\n",
      "note_on channel=0 note=51 velocity=0 time=19\n",
      "note_on channel=0 note=41 velocity=36 time=1\n",
      "note_on channel=0 note=41 velocity=0 time=19\n",
      "note_on channel=0 note=51 velocity=39 time=1\n",
      "note_on channel=0 note=51 velocity=0 time=19\n",
      "note_on channel=0 note=41 velocity=42 time=1\n",
      "note_on channel=0 note=41 velocity=0 time=19\n",
      "note_on channel=0 note=51 velocity=45 time=1\n",
      "note_on channel=0 note=51 velocity=0 time=19\n",
      "note_on channel=0 note=41 velocity=48 time=1\n",
      "note_on channel=0 note=41 velocity=0 time=19\n",
      "note_on channel=0 note=51 velocity=50 time=1\n",
      "note_on channel=0 note=51 velocity=0 time=19\n",
      "note_on channel=0 note=41 velocity=53 time=1\n",
      "note_on channel=0 note=41 velocity=0 time=19\n",
      "note_on channel=0 note=51 velocity=56 time=1\n",
      "note_on channel=0 note=51 velocity=0 time=19\n",
      "note_on channel=0 note=41 velocity=59 time=1\n",
      "note_on channel=0 note=41 velocity=0 time=19\n",
      "note_on channel=0 note=51 velocity=62 time=1\n",
      "note_on channel=0 note=51 velocity=0 time=19\n",
      "note_on channel=0 note=41 velocity=64 time=1\n",
      "note_on channel=0 note=41 velocity=0 time=19\n",
      "note_on channel=0 note=51 velocity=67 time=1\n",
      "note_on channel=0 note=51 velocity=0 time=19\n",
      "note_on channel=0 note=41 velocity=70 time=1\n",
      "note_on channel=0 note=41 velocity=0 time=19\n",
      "note_on channel=0 note=51 velocity=73 time=1\n",
      "note_on channel=0 note=51 velocity=0 time=19\n",
      "note_on channel=0 note=41 velocity=76 time=1\n",
      "note_on channel=0 note=41 velocity=0 time=19\n",
      "note_on channel=0 note=51 velocity=78 time=1\n",
      "note_on channel=0 note=51 velocity=0 time=19\n",
      "note_on channel=0 note=41 velocity=81 time=1\n",
      "note_on channel=0 note=41 velocity=0 time=19\n",
      "note_on channel=0 note=48 velocity=13 time=1\n",
      "note_on channel=0 note=48 velocity=0 time=19\n",
      "note_on channel=0 note=41 velocity=16 time=1\n",
      "note_on channel=0 note=41 velocity=0 time=19\n",
      "note_on channel=0 note=48 velocity=18 time=1\n",
      "note_on channel=0 note=48 velocity=0 time=19\n",
      "note_on channel=0 note=41 velocity=21 time=1\n",
      "note_on channel=0 note=41 velocity=0 time=19\n",
      "note_on channel=0 note=48 velocity=24 time=1\n",
      "note_on channel=0 note=48 velocity=0 time=19\n",
      "note_on channel=0 note=41 velocity=27 time=1\n",
      "note_on channel=0 note=41 velocity=0 time=19\n",
      "note_on channel=0 note=48 velocity=30 time=1\n",
      "note_on channel=0 note=48 velocity=0 time=19\n",
      "note_on channel=0 note=41 velocity=33 time=1\n",
      "note_on channel=0 note=41 velocity=0 time=19\n",
      "note_on channel=0 note=48 velocity=36 time=1\n",
      "note_on channel=0 note=48 velocity=0 time=19\n",
      "note_on channel=0 note=41 velocity=39 time=1\n",
      "note_on channel=0 note=41 velocity=0 time=19\n",
      "note_on channel=0 note=48 velocity=41 time=1\n",
      "note_on channel=0 note=48 velocity=0 time=19\n",
      "note_on channel=0 note=41 velocity=44 time=1\n",
      "note_on channel=0 note=41 velocity=0 time=19\n",
      "note_on channel=0 note=48 velocity=47 time=1\n",
      "note_on channel=0 note=48 velocity=0 time=19\n",
      "note_on channel=0 note=41 velocity=50 time=1\n",
      "note_on channel=0 note=41 velocity=0 time=19\n",
      "note_on channel=0 note=48 velocity=53 time=1\n",
      "note_on channel=0 note=48 velocity=0 time=19\n",
      "note_on channel=0 note=41 velocity=56 time=1\n",
      "note_on channel=0 note=41 velocity=0 time=19\n",
      "note_on channel=0 note=48 velocity=59 time=1\n",
      "note_on channel=0 note=48 velocity=0 time=19\n",
      "note_on channel=0 note=41 velocity=62 time=1\n",
      "note_on channel=0 note=41 velocity=0 time=19\n",
      "note_on channel=0 note=48 velocity=65 time=1\n",
      "note_on channel=0 note=48 velocity=0 time=19\n",
      "note_on channel=0 note=41 velocity=67 time=1\n",
      "note_on channel=0 note=41 velocity=0 time=19\n",
      "note_on channel=0 note=48 velocity=70 time=1\n",
      "note_on channel=0 note=48 velocity=0 time=19\n",
      "note_on channel=0 note=41 velocity=73 time=1\n",
      "note_on channel=0 note=41 velocity=0 time=19\n",
      "note_on channel=0 note=48 velocity=76 time=1\n",
      "note_on channel=0 note=48 velocity=0 time=19\n",
      "note_on channel=0 note=41 velocity=79 time=1\n",
      "note_on channel=0 note=41 velocity=0 time=19\n",
      "note_on channel=0 note=51 velocity=17 time=1\n",
      "note_on channel=0 note=51 velocity=0 time=19\n",
      "note_on channel=0 note=41 velocity=20 time=1\n",
      "note_on channel=0 note=41 velocity=0 time=19\n",
      "note_on channel=0 note=51 velocity=23 time=1\n",
      "note_on channel=0 note=51 velocity=0 time=19\n",
      "note_on channel=0 note=41 velocity=25 time=1\n",
      "note_on channel=0 note=41 velocity=0 time=19\n",
      "note_on channel=0 note=51 velocity=28 time=1\n",
      "note_on channel=0 note=51 velocity=0 time=19\n",
      "note_on channel=0 note=41 velocity=31 time=1\n",
      "note_on channel=0 note=41 velocity=0 time=19\n",
      "note_on channel=0 note=51 velocity=33 time=1\n",
      "note_on channel=0 note=51 velocity=0 time=19\n",
      "note_on channel=0 note=41 velocity=36 time=1\n",
      "note_on channel=0 note=41 velocity=0 time=19\n",
      "note_on channel=0 note=51 velocity=38 time=1\n",
      "note_on channel=0 note=51 velocity=0 time=19\n",
      "note_on channel=0 note=41 velocity=41 time=1\n",
      "note_on channel=0 note=41 velocity=0 time=19\n",
      "note_on channel=0 note=51 velocity=44 time=1\n",
      "note_on channel=0 note=51 velocity=0 time=19\n",
      "note_on channel=0 note=41 velocity=46 time=1\n",
      "note_on channel=0 note=41 velocity=0 time=19\n",
      "note_on channel=0 note=51 velocity=49 time=1\n",
      "note_on channel=0 note=51 velocity=0 time=19\n",
      "note_on channel=0 note=41 velocity=52 time=1\n",
      "note_on channel=0 note=41 velocity=0 time=19\n",
      "note_on channel=0 note=51 velocity=54 time=1\n",
      "note_on channel=0 note=51 velocity=0 time=19\n",
      "note_on channel=0 note=41 velocity=57 time=1\n",
      "note_on channel=0 note=41 velocity=0 time=19\n",
      "note_on channel=0 note=51 velocity=60 time=1\n",
      "note_on channel=0 note=51 velocity=0 time=19\n",
      "note_on channel=0 note=41 velocity=62 time=1\n",
      "note_on channel=0 note=41 velocity=0 time=19\n",
      "note_on channel=0 note=51 velocity=65 time=1\n",
      "note_on channel=0 note=51 velocity=0 time=19\n",
      "note_on channel=0 note=41 velocity=67 time=1\n",
      "note_on channel=0 note=41 velocity=0 time=19\n",
      "note_on channel=0 note=51 velocity=70 time=1\n",
      "note_on channel=0 note=51 velocity=0 time=19\n",
      "note_on channel=0 note=41 velocity=73 time=1\n",
      "note_on channel=0 note=41 velocity=0 time=19\n",
      "note_on channel=0 note=51 velocity=75 time=1\n",
      "note_on channel=0 note=51 velocity=0 time=19\n",
      "note_on channel=0 note=46 velocity=78 time=1\n",
      "note_on channel=0 note=46 velocity=0 time=19\n",
      "note_on channel=0 note=53 velocity=13 time=1\n",
      "note_on channel=0 note=53 velocity=0 time=19\n",
      "note_on channel=0 note=46 velocity=16 time=1\n",
      "note_on channel=0 note=46 velocity=0 time=19\n",
      "note_on channel=0 note=53 velocity=18 time=1\n",
      "note_on channel=0 note=53 velocity=0 time=19\n",
      "note_on channel=0 note=46 velocity=21 time=1\n",
      "note_on channel=0 note=46 velocity=0 time=19\n",
      "note_on channel=0 note=53 velocity=24 time=1\n",
      "note_on channel=0 note=53 velocity=0 time=19\n",
      "note_on channel=0 note=46 velocity=27 time=1\n",
      "note_on channel=0 note=46 velocity=0 time=19\n",
      "note_on channel=0 note=53 velocity=30 time=1\n",
      "note_on channel=0 note=53 velocity=0 time=19\n",
      "note_on channel=0 note=46 velocity=33 time=1\n",
      "note_on channel=0 note=46 velocity=0 time=19\n",
      "note_on channel=0 note=53 velocity=36 time=1\n",
      "note_on channel=0 note=53 velocity=0 time=19\n",
      "note_on channel=0 note=46 velocity=39 time=1\n",
      "note_on channel=0 note=46 velocity=0 time=19\n",
      "note_on channel=0 note=53 velocity=42 time=1\n",
      "note_on channel=0 note=53 velocity=0 time=19\n",
      "note_on channel=0 note=46 velocity=45 time=1\n",
      "note_on channel=0 note=46 velocity=0 time=19\n",
      "note_on channel=0 note=53 velocity=47 time=1\n",
      "note_on channel=0 note=53 velocity=0 time=19\n",
      "note_on channel=0 note=46 velocity=50 time=1\n",
      "note_on channel=0 note=46 velocity=0 time=19\n",
      "note_on channel=0 note=53 velocity=53 time=1\n",
      "note_on channel=0 note=53 velocity=0 time=19\n",
      "note_on channel=0 note=46 velocity=56 time=1\n",
      "note_on channel=0 note=46 velocity=0 time=19\n",
      "note_on channel=0 note=53 velocity=59 time=1\n",
      "note_on channel=0 note=53 velocity=0 time=19\n",
      "note_on channel=0 note=46 velocity=62 time=1\n",
      "note_on channel=0 note=46 velocity=0 time=19\n",
      "note_on channel=0 note=53 velocity=65 time=1\n",
      "note_on channel=0 note=53 velocity=0 time=19\n",
      "note_on channel=0 note=46 velocity=68 time=1\n",
      "note_on channel=0 note=46 velocity=0 time=19\n",
      "note_on channel=0 note=53 velocity=71 time=1\n",
      "note_on channel=0 note=53 velocity=0 time=19\n",
      "note_on channel=0 note=46 velocity=74 time=1\n",
      "note_on channel=0 note=46 velocity=0 time=19\n",
      "note_on channel=0 note=53 velocity=76 time=1\n",
      "note_on channel=0 note=53 velocity=0 time=19\n",
      "note_on channel=0 note=46 velocity=78 time=1\n",
      "note_on channel=0 note=46 velocity=0 time=19\n",
      "note_on channel=0 note=56 velocity=12 time=1\n",
      "note_on channel=0 note=56 velocity=0 time=19\n",
      "note_on channel=0 note=46 velocity=15 time=1\n",
      "note_on channel=0 note=46 velocity=0 time=19\n",
      "note_on channel=0 note=56 velocity=18 time=1\n",
      "note_on channel=0 note=56 velocity=0 time=19\n",
      "note_on channel=0 note=46 velocity=21 time=1\n",
      "note_on channel=0 note=46 velocity=0 time=19\n",
      "note_on channel=0 note=56 velocity=24 time=1\n",
      "note_on channel=0 note=56 velocity=0 time=19\n",
      "note_on channel=0 note=46 velocity=27 time=1\n",
      "note_on channel=0 note=46 velocity=0 time=19\n",
      "note_on channel=0 note=56 velocity=30 time=1\n",
      "note_on channel=0 note=56 velocity=0 time=19\n",
      "note_on channel=0 note=46 velocity=33 time=1\n",
      "note_on channel=0 note=46 velocity=0 time=19\n",
      "note_on channel=0 note=56 velocity=36 time=1\n",
      "note_on channel=0 note=56 velocity=0 time=19\n",
      "note_on channel=0 note=46 velocity=39 time=1\n",
      "note_on channel=0 note=46 velocity=0 time=19\n",
      "note_on channel=0 note=56 velocity=42 time=1\n",
      "note_on channel=0 note=56 velocity=0 time=19\n",
      "note_on channel=0 note=46 velocity=45 time=1\n",
      "note_on channel=0 note=46 velocity=0 time=19\n",
      "note_on channel=0 note=56 velocity=48 time=1\n",
      "note_on channel=0 note=56 velocity=0 time=19\n",
      "note_on channel=0 note=46 velocity=51 time=1\n",
      "note_on channel=0 note=46 velocity=0 time=19\n",
      "note_on channel=0 note=56 velocity=54 time=1\n",
      "note_on channel=0 note=56 velocity=0 time=19\n",
      "note_on channel=0 note=46 velocity=57 time=1\n",
      "note_on channel=0 note=46 velocity=0 time=19\n",
      "note_on channel=0 note=56 velocity=60 time=1\n",
      "note_on channel=0 note=56 velocity=0 time=19\n",
      "note_on channel=0 note=46 velocity=63 time=1\n",
      "note_on channel=0 note=46 velocity=0 time=19\n",
      "note_on channel=0 note=56 velocity=66 time=1\n",
      "note_on channel=0 note=56 velocity=0 time=19\n",
      "note_on channel=0 note=46 velocity=69 time=1\n",
      "note_on channel=0 note=46 velocity=0 time=19\n",
      "note_on channel=0 note=56 velocity=72 time=1\n",
      "note_on channel=0 note=56 velocity=0 time=19\n",
      "note_on channel=0 note=46 velocity=75 time=1\n",
      "note_on channel=0 note=46 velocity=0 time=19\n",
      "note_on channel=0 note=56 velocity=78 time=1\n",
      "note_on channel=0 note=56 velocity=0 time=19\n",
      "note_on channel=0 note=41 velocity=58 time=76\n",
      "note_on channel=0 note=48 velocity=68 time=0\n",
      "note_on channel=0 note=48 velocity=0 time=45\n",
      "note_on channel=0 note=41 velocity=0 time=0\n",
      "note_on channel=0 note=44 velocity=54 time=0\n",
      "note_on channel=0 note=45 velocity=76 time=75\n",
      "note_on channel=0 note=41 velocity=72 time=0\n",
      "note_on channel=0 note=44 velocity=0 time=4\n",
      "note_on channel=0 note=41 velocity=0 time=41\n",
      "note_on channel=0 note=45 velocity=0 time=0\n",
      "note_on channel=0 note=41 velocity=59 time=0\n",
      "note_on channel=0 note=48 velocity=63 time=0\n",
      "note_on channel=0 note=48 velocity=0 time=75\n",
      "note_on channel=0 note=41 velocity=0 time=0\n",
      "note_on channel=0 note=41 velocity=73 time=0\n",
      "note_on channel=0 note=48 velocity=73 time=0\n",
      "note_on channel=0 note=48 velocity=0 time=45\n",
      "note_on channel=0 note=41 velocity=0 time=0\n",
      "note_on channel=0 note=41 velocity=72 time=0\n",
      "note_on channel=0 note=50 velocity=77 time=0\n",
      "note_on channel=0 note=50 velocity=0 time=75\n",
      "note_on channel=0 note=41 velocity=0 time=0\n",
      "note_on channel=0 note=41 velocity=73 time=0\n",
      "note_on channel=0 note=50 velocity=76 time=0\n",
      "note_on channel=0 note=50 velocity=0 time=45\n",
      "note_on channel=0 note=41 velocity=0 time=0\n",
      "note_on channel=0 note=41 velocity=76 time=0\n",
      "note_on channel=0 note=48 velocity=66 time=0\n",
      "note_on channel=0 note=48 velocity=0 time=75\n",
      "note_on channel=0 note=41 velocity=0 time=0\n",
      "note_on channel=0 note=48 velocity=67 time=0\n",
      "note_on channel=0 note=41 velocity=80 time=0\n",
      "note_on channel=0 note=41 velocity=0 time=39\n",
      "note_on channel=0 note=48 velocity=0 time=6\n",
      "note_on channel=0 note=44 velocity=76 time=0\n",
      "note_on channel=0 note=41 velocity=80 time=70\n",
      "note_on channel=0 note=44 velocity=0 time=5\n",
      "note_on channel=0 note=45 velocity=78 time=0\n",
      "note_on channel=0 note=41 velocity=0 time=40\n",
      "note_on channel=0 note=45 velocity=0 time=5\n",
      "note_on channel=0 note=41 velocity=68 time=0\n",
      "note_on channel=0 note=48 velocity=86 time=0\n",
      "note_on channel=0 note=48 velocity=0 time=75\n",
      "note_on channel=0 note=41 velocity=0 time=0\n",
      "note_on channel=0 note=41 velocity=72 time=0\n",
      "note_on channel=0 note=48 velocity=64 time=0\n",
      "note_on channel=0 note=48 velocity=0 time=45\n",
      "note_on channel=0 note=41 velocity=0 time=0\n",
      "note_on channel=0 note=41 velocity=77 time=0\n",
      "note_on channel=0 note=50 velocity=71 time=0\n",
      "note_on channel=0 note=50 velocity=0 time=75\n",
      "note_on channel=0 note=41 velocity=0 time=0\n",
      "note_on channel=0 note=41 velocity=76 time=0\n",
      "note_on channel=0 note=50 velocity=65 time=0\n",
      "note_on channel=0 note=50 velocity=0 time=45\n",
      "note_on channel=0 note=41 velocity=0 time=0\n",
      "note_on channel=0 note=48 velocity=72 time=0\n",
      "note_on channel=0 note=55 velocity=76 time=0\n",
      "note_on channel=0 note=55 velocity=0 time=75\n",
      "note_on channel=0 note=48 velocity=0 time=0\n",
      "note_on channel=0 note=48 velocity=66 time=0\n",
      "note_on channel=0 note=55 velocity=84 time=0\n",
      "note_on channel=0 note=55 velocity=0 time=29\n",
      "note_on channel=0 note=48 velocity=0 time=0\n",
      "note_on channel=0 note=48 velocity=76 time=16\n",
      "note_on channel=0 note=57 velocity=77 time=0\n",
      "note_on channel=0 note=57 velocity=0 time=75\n",
      "note_on channel=0 note=48 velocity=0 time=0\n",
      "note_on channel=0 note=48 velocity=65 time=0\n",
      "note_on channel=0 note=57 velocity=77 time=0\n",
      "note_on channel=0 note=57 velocity=0 time=29\n",
      "note_on channel=0 note=48 velocity=0 time=0\n",
      "note_on channel=0 note=48 velocity=80 time=16\n",
      "note_on channel=0 note=58 velocity=61 time=0\n",
      "note_on channel=0 note=58 velocity=0 time=75\n",
      "note_on channel=0 note=48 velocity=0 time=0\n",
      "note_on channel=0 note=48 velocity=74 time=0\n",
      "note_on channel=0 note=58 velocity=59 time=0\n",
      "note_on channel=0 note=58 velocity=0 time=29\n",
      "note_on channel=0 note=48 velocity=0 time=0\n",
      "note_on channel=0 note=48 velocity=93 time=16\n",
      "note_on channel=0 note=51 velocity=76 time=0\n",
      "note_on channel=0 note=51 velocity=0 time=75\n",
      "note_on channel=0 note=48 velocity=0 time=0\n",
      "note_on channel=0 note=48 velocity=64 time=0\n",
      "note_on channel=0 note=52 velocity=76 time=0\n",
      "note_on channel=0 note=52 velocity=0 time=29\n",
      "note_on channel=0 note=48 velocity=0 time=0\n",
      "note_on channel=0 note=53 velocity=90 time=16\n",
      "note_on channel=0 note=46 velocity=67 time=0\n",
      "note_on channel=0 note=46 velocity=0 time=75\n",
      "note_on channel=0 note=53 velocity=0 time=0\n",
      "note_on channel=0 note=53 velocity=85 time=0\n",
      "note_on channel=0 note=46 velocity=56 time=0\n",
      "note_on channel=0 note=46 velocity=0 time=29\n",
      "note_on channel=0 note=53 velocity=0 time=0\n",
      "note_on channel=0 note=55 velocity=80 time=16\n",
      "note_on channel=0 note=46 velocity=65 time=0\n",
      "note_on channel=0 note=46 velocity=0 time=75\n",
      "note_on channel=0 note=55 velocity=0 time=0\n",
      "note_on channel=0 note=46 velocity=60 time=0\n",
      "note_on channel=0 note=55 velocity=80 time=0\n",
      "note_on channel=0 note=55 velocity=0 time=29\n",
      "note_on channel=0 note=46 velocity=0 time=0\n",
      "note_on channel=0 note=53 velocity=76 time=16\n",
      "note_on channel=0 note=46 velocity=62 time=0\n",
      "note_on channel=0 note=46 velocity=0 time=75\n",
      "note_on channel=0 note=53 velocity=0 time=0\n",
      "note_on channel=0 note=46 velocity=59 time=0\n",
      "note_on channel=0 note=53 velocity=81 time=0\n",
      "note_on channel=0 note=53 velocity=0 time=29\n",
      "note_on channel=0 note=46 velocity=0 time=0\n",
      "note_on channel=0 note=41 velocity=74 time=16\n",
      "note_on channel=0 note=44 velocity=54 time=0\n",
      "note_on channel=0 note=44 velocity=0 time=75\n",
      "note_on channel=0 note=41 velocity=0 time=0\n",
      "note_on channel=0 note=45 velocity=45 time=0\n",
      "note_on channel=0 note=41 velocity=73 time=0\n",
      "note_on channel=0 note=41 velocity=0 time=29\n",
      "note_on channel=0 note=45 velocity=0 time=0\n",
      "note_on channel=0 note=41 velocity=72 time=16\n",
      "note_on channel=0 note=48 velocity=72 time=0\n",
      "note_on channel=0 note=48 velocity=0 time=75\n",
      "note_on channel=0 note=41 velocity=0 time=0\n",
      "note_on channel=0 note=41 velocity=72 time=0\n",
      "note_on channel=0 note=48 velocity=52 time=0\n",
      "note_on channel=0 note=48 velocity=0 time=29\n",
      "note_on channel=0 note=41 velocity=0 time=0\n",
      "note_on channel=0 note=41 velocity=81 time=16\n",
      "note_on channel=0 note=50 velocity=77 time=0\n",
      "note_on channel=0 note=50 velocity=0 time=75\n",
      "note_on channel=0 note=41 velocity=0 time=0\n",
      "note_on channel=0 note=41 velocity=77 time=0\n",
      "note_on channel=0 note=50 velocity=66 time=0\n",
      "note_on channel=0 note=50 velocity=0 time=29\n",
      "note_on channel=0 note=41 velocity=0 time=0\n",
      "note_on channel=0 note=48 velocity=68 time=16\n",
      "note_on channel=0 note=41 velocity=76 time=0\n",
      "note_on channel=0 note=48 velocity=0 time=75\n",
      "note_on channel=0 note=41 velocity=76 time=5\n",
      "note_on channel=0 note=48 velocity=77 time=0\n",
      "note_on channel=0 note=41 velocity=0 time=9\n",
      "note_on channel=0 note=48 velocity=0 time=20\n",
      "note_on channel=0 note=41 velocity=0 time=0\n",
      "note_on channel=0 note=41 velocity=72 time=11\n",
      "note_on channel=0 note=44 velocity=49 time=0\n",
      "note_on channel=0 note=41 velocity=0 time=75\n",
      "note_on channel=0 note=41 velocity=69 time=0\n",
      "note_on channel=0 note=45 velocity=73 time=0\n",
      "note_on channel=0 note=44 velocity=0 time=14\n",
      "note_on channel=0 note=45 velocity=0 time=15\n",
      "note_on channel=0 note=41 velocity=0 time=0\n",
      "note_on channel=0 note=41 velocity=66 time=16\n",
      "note_on channel=0 note=48 velocity=69 time=0\n",
      "note_on channel=0 note=48 velocity=0 time=75\n",
      "note_on channel=0 note=41 velocity=0 time=0\n",
      "note_on channel=0 note=41 velocity=74 time=0\n",
      "note_on channel=0 note=48 velocity=68 time=0\n",
      "note_on channel=0 note=48 velocity=0 time=29\n",
      "note_on channel=0 note=41 velocity=0 time=0\n",
      "note_on channel=0 note=41 velocity=72 time=16\n",
      "note_on channel=0 note=50 velocity=70 time=0\n",
      "note_on channel=0 note=50 velocity=0 time=75\n",
      "note_on channel=0 note=41 velocity=0 time=0\n",
      "note_on channel=0 note=41 velocity=69 time=0\n",
      "note_on channel=0 note=50 velocity=78 time=0\n",
      "note_on channel=0 note=50 velocity=0 time=29\n",
      "note_on channel=0 note=41 velocity=0 time=0\n",
      "note_on channel=0 note=48 velocity=78 time=16\n",
      "note_on channel=0 note=41 velocity=72 time=0\n",
      "note_on channel=0 note=41 velocity=0 time=75\n",
      "note_on channel=0 note=48 velocity=0 time=0\n",
      "note_on channel=0 note=41 velocity=73 time=0\n",
      "note_on channel=0 note=48 velocity=67 time=0\n",
      "note_on channel=0 note=48 velocity=0 time=29\n",
      "note_on channel=0 note=41 velocity=0 time=0\n",
      "note_on channel=0 note=44 velocity=57 time=16\n",
      "note_on channel=0 note=41 velocity=82 time=0\n",
      "note_on channel=0 note=41 velocity=0 time=75\n",
      "note_on channel=0 note=44 velocity=0 time=0\n",
      "note_on channel=0 note=41 velocity=82 time=0\n",
      "note_on channel=0 note=45 velocity=68 time=0\n",
      "note_on channel=0 note=45 velocity=0 time=29\n",
      "note_on channel=0 note=41 velocity=0 time=0\n",
      "note_on channel=0 note=41 velocity=66 time=16\n",
      "note_on channel=0 note=48 velocity=69 time=0\n",
      "note_on channel=0 note=48 velocity=0 time=75\n",
      "note_on channel=0 note=41 velocity=0 time=0\n",
      "note_on channel=0 note=41 velocity=74 time=0\n",
      "note_on channel=0 note=48 velocity=68 time=0\n",
      "note_on channel=0 note=48 velocity=0 time=29\n",
      "note_on channel=0 note=41 velocity=0 time=0\n",
      "note_on channel=0 note=41 velocity=72 time=16\n",
      "note_on channel=0 note=50 velocity=70 time=0\n",
      "note_on channel=0 note=50 velocity=0 time=75\n",
      "note_on channel=0 note=41 velocity=0 time=0\n",
      "note_on channel=0 note=41 velocity=69 time=0\n",
      "note_on channel=0 note=50 velocity=78 time=0\n",
      "note_on channel=0 note=50 velocity=0 time=29\n",
      "note_on channel=0 note=41 velocity=0 time=0\n",
      "note_on channel=0 note=48 velocity=78 time=16\n",
      "note_on channel=0 note=41 velocity=72 time=0\n",
      "note_on channel=0 note=41 velocity=0 time=75\n",
      "note_on channel=0 note=48 velocity=0 time=0\n",
      "note_on channel=0 note=41 velocity=73 time=0\n",
      "note_on channel=0 note=48 velocity=67 time=0\n",
      "note_on channel=0 note=48 velocity=0 time=29\n",
      "note_on channel=0 note=41 velocity=0 time=0\n",
      "note_on channel=0 note=44 velocity=57 time=16\n",
      "note_on channel=0 note=41 velocity=82 time=0\n",
      "note_on channel=0 note=41 velocity=0 time=75\n",
      "note_on channel=0 note=44 velocity=0 time=0\n",
      "note_on channel=0 note=41 velocity=82 time=0\n",
      "note_on channel=0 note=45 velocity=68 time=0\n",
      "note_on channel=0 note=45 velocity=0 time=29\n",
      "note_on channel=0 note=41 velocity=0 time=0\n",
      "note_on channel=0 note=41 velocity=66 time=16\n",
      "note_on channel=0 note=48 velocity=69 time=0\n",
      "note_on channel=0 note=48 velocity=0 time=75\n",
      "note_on channel=0 note=41 velocity=0 time=0\n",
      "note_on channel=0 note=41 velocity=74 time=0\n",
      "note_on channel=0 note=48 velocity=68 time=0\n",
      "note_on channel=0 note=48 velocity=0 time=29\n",
      "note_on channel=0 note=41 velocity=0 time=0\n",
      "note_on channel=0 note=41 velocity=72 time=16\n",
      "note_on channel=0 note=50 velocity=70 time=0\n",
      "note_on channel=0 note=50 velocity=0 time=75\n",
      "note_on channel=0 note=41 velocity=0 time=0\n",
      "note_on channel=0 note=41 velocity=69 time=0\n",
      "note_on channel=0 note=50 velocity=78 time=0\n",
      "note_on channel=0 note=50 velocity=0 time=29\n",
      "note_on channel=0 note=41 velocity=0 time=0\n",
      "note_on channel=0 note=48 velocity=78 time=16\n",
      "note_on channel=0 note=41 velocity=72 time=0\n",
      "note_on channel=0 note=41 velocity=0 time=75\n",
      "note_on channel=0 note=48 velocity=0 time=0\n",
      "note_on channel=0 note=41 velocity=73 time=0\n",
      "note_on channel=0 note=48 velocity=67 time=0\n",
      "note_on channel=0 note=48 velocity=0 time=29\n",
      "note_on channel=0 note=41 velocity=0 time=0\n",
      "note_on channel=0 note=44 velocity=57 time=16\n",
      "note_on channel=0 note=41 velocity=82 time=0\n",
      "note_on channel=0 note=41 velocity=0 time=75\n",
      "note_on channel=0 note=44 velocity=0 time=0\n",
      "note_on channel=0 note=41 velocity=82 time=0\n",
      "note_on channel=0 note=45 velocity=68 time=0\n",
      "note_on channel=0 note=45 velocity=0 time=29\n",
      "note_on channel=0 note=41 velocity=0 time=0\n",
      "note_on channel=0 note=41 velocity=66 time=16\n",
      "note_on channel=0 note=48 velocity=69 time=0\n",
      "note_on channel=0 note=48 velocity=0 time=75\n",
      "note_on channel=0 note=41 velocity=0 time=0\n",
      "note_on channel=0 note=41 velocity=74 time=0\n",
      "note_on channel=0 note=48 velocity=68 time=0\n",
      "note_on channel=0 note=48 velocity=0 time=29\n",
      "note_on channel=0 note=41 velocity=0 time=0\n",
      "note_on channel=0 note=41 velocity=72 time=16\n",
      "note_on channel=0 note=50 velocity=70 time=0\n",
      "note_on channel=0 note=50 velocity=0 time=75\n",
      "note_on channel=0 note=41 velocity=0 time=0\n",
      "note_on channel=0 note=41 velocity=69 time=0\n",
      "note_on channel=0 note=50 velocity=78 time=0\n",
      "note_on channel=0 note=50 velocity=0 time=29\n",
      "note_on channel=0 note=41 velocity=0 time=0\n",
      "note_on channel=0 note=48 velocity=78 time=16\n",
      "note_on channel=0 note=41 velocity=72 time=0\n",
      "note_on channel=0 note=41 velocity=0 time=75\n",
      "note_on channel=0 note=48 velocity=0 time=0\n",
      "note_on channel=0 note=41 velocity=73 time=0\n",
      "note_on channel=0 note=48 velocity=67 time=0\n",
      "note_on channel=0 note=48 velocity=0 time=29\n",
      "note_on channel=0 note=41 velocity=0 time=0\n",
      "note_on channel=0 note=44 velocity=57 time=16\n",
      "note_on channel=0 note=41 velocity=82 time=0\n",
      "note_on channel=0 note=41 velocity=0 time=75\n",
      "note_on channel=0 note=44 velocity=0 time=0\n",
      "note_on channel=0 note=41 velocity=82 time=0\n",
      "note_on channel=0 note=45 velocity=68 time=0\n",
      "note_on channel=0 note=45 velocity=0 time=29\n",
      "note_on channel=0 note=41 velocity=0 time=0\n",
      "note_on channel=0 note=41 velocity=84 time=16\n",
      "note_on channel=0 note=48 velocity=84 time=0\n",
      "note_on channel=0 note=48 velocity=0 time=75\n",
      "note_on channel=0 note=41 velocity=0 time=0\n",
      "note_on channel=0 note=41 velocity=84 time=0\n",
      "note_on channel=0 note=48 velocity=84 time=0\n",
      "note_on channel=0 note=48 velocity=0 time=39\n",
      "note_on channel=0 note=41 velocity=0 time=0\n",
      "note_on channel=0 note=41 velocity=84 time=6\n",
      "note_on channel=0 note=50 velocity=84 time=0\n",
      "note_on channel=0 note=50 velocity=0 time=75\n",
      "note_on channel=0 note=41 velocity=0 time=0\n",
      "note_on channel=0 note=41 velocity=83 time=0\n",
      "note_on channel=0 note=50 velocity=83 time=0\n",
      "note_on channel=0 note=50 velocity=0 time=39\n",
      "note_on channel=0 note=41 velocity=0 time=0\n",
      "note_on channel=0 note=41 velocity=83 time=6\n",
      "note_on channel=0 note=48 velocity=83 time=0\n",
      "note_on channel=0 note=48 velocity=0 time=75\n",
      "note_on channel=0 note=41 velocity=0 time=0\n",
      "note_on channel=0 note=41 velocity=81 time=0\n",
      "note_on channel=0 note=48 velocity=81 time=0\n",
      "note_on channel=0 note=48 velocity=0 time=39\n",
      "note_on channel=0 note=41 velocity=0 time=0\n",
      "note_on channel=0 note=41 velocity=81 time=6\n",
      "note_on channel=0 note=49 velocity=81 time=0\n",
      "note_on channel=0 note=49 velocity=0 time=75\n",
      "note_on channel=0 note=41 velocity=0 time=0\n",
      "note_on channel=0 note=41 velocity=81 time=0\n",
      "note_on channel=0 note=50 velocity=81 time=0\n",
      "note_on channel=0 note=50 velocity=0 time=39\n",
      "note_on channel=0 note=41 velocity=0 time=0\n",
      "note_on channel=0 note=46 velocity=82 time=6\n",
      "note_on channel=0 note=53 velocity=82 time=0\n",
      "note_on channel=0 note=53 velocity=0 time=75\n",
      "note_on channel=0 note=46 velocity=0 time=0\n",
      "note_on channel=0 note=46 velocity=85 time=0\n",
      "note_on channel=0 note=53 velocity=85 time=0\n",
      "note_on channel=0 note=53 velocity=0 time=39\n",
      "note_on channel=0 note=46 velocity=0 time=0\n",
      "note_on channel=0 note=55 velocity=85 time=6\n",
      "note_on channel=0 note=46 velocity=85 time=0\n",
      "note_on channel=0 note=46 velocity=0 time=75\n",
      "note_on channel=0 note=55 velocity=0 time=0\n",
      "note_on channel=0 note=46 velocity=85 time=0\n",
      "note_on channel=0 note=55 velocity=85 time=0\n",
      "note_on channel=0 note=55 velocity=0 time=39\n",
      "note_on channel=0 note=46 velocity=0 time=0\n",
      "note_on channel=0 note=46 velocity=85 time=6\n",
      "note_on channel=0 note=53 velocity=85 time=0\n",
      "note_on channel=0 note=53 velocity=0 time=75\n",
      "note_on channel=0 note=46 velocity=0 time=0\n",
      "note_on channel=0 note=46 velocity=90 time=0\n",
      "note_on channel=0 note=53 velocity=90 time=0\n",
      "note_on channel=0 note=53 velocity=0 time=39\n",
      "note_on channel=0 note=46 velocity=0 time=0\n",
      "note_on channel=0 note=46 velocity=90 time=6\n",
      "note_on channel=0 note=49 velocity=90 time=0\n",
      "note_on channel=0 note=49 velocity=0 time=75\n",
      "note_on channel=0 note=46 velocity=0 time=0\n",
      "note_on channel=0 note=46 velocity=90 time=0\n",
      "note_on channel=0 note=50 velocity=90 time=0\n",
      "note_on channel=0 note=50 velocity=0 time=39\n",
      "note_on channel=0 note=46 velocity=0 time=0\n",
      "note_on channel=0 note=53 velocity=88 time=6\n",
      "note_on channel=0 note=46 velocity=88 time=0\n",
      "note_on channel=0 note=46 velocity=0 time=75\n",
      "note_on channel=0 note=53 velocity=0 time=0\n",
      "note_on channel=0 note=53 velocity=88 time=0\n",
      "note_on channel=0 note=46 velocity=88 time=0\n",
      "note_on channel=0 note=46 velocity=0 time=29\n",
      "note_on channel=0 note=53 velocity=0 time=0\n",
      "note_on channel=0 note=55 velocity=85 time=16\n",
      "note_on channel=0 note=46 velocity=85 time=0\n",
      "note_on channel=0 note=46 velocity=0 time=75\n",
      "note_on channel=0 note=55 velocity=0 time=0\n",
      "note_on channel=0 note=46 velocity=85 time=0\n",
      "note_on channel=0 note=55 velocity=85 time=0\n",
      "note_on channel=0 note=55 velocity=0 time=29\n",
      "note_on channel=0 note=46 velocity=0 time=0\n",
      "note_on channel=0 note=53 velocity=85 time=16\n",
      "note_on channel=0 note=46 velocity=85 time=0\n",
      "note_on channel=0 note=46 velocity=0 time=75\n",
      "note_on channel=0 note=53 velocity=0 time=0\n",
      "note_on channel=0 note=46 velocity=59 time=0\n",
      "note_on channel=0 note=53 velocity=81 time=0\n",
      "note_on channel=0 note=53 velocity=0 time=29\n",
      "note_on channel=0 note=46 velocity=0 time=0\n",
      "note_on channel=0 note=44 velocity=81 time=16\n",
      "note_on channel=0 note=41 velocity=81 time=0\n",
      "note_on channel=0 note=41 velocity=0 time=75\n",
      "note_on channel=0 note=44 velocity=0 time=0\n",
      "note_on channel=0 note=45 velocity=81 time=0\n",
      "note_on channel=0 note=41 velocity=81 time=0\n",
      "note_on channel=0 note=41 velocity=0 time=29\n",
      "note_on channel=0 note=45 velocity=0 time=0\n",
      "note_on channel=0 note=41 velocity=81 time=16\n",
      "note_on channel=0 note=48 velocity=81 time=0\n",
      "note_on channel=0 note=48 velocity=0 time=75\n",
      "note_on channel=0 note=41 velocity=0 time=0\n",
      "note_on channel=0 note=41 velocity=80 time=0\n",
      "note_on channel=0 note=48 velocity=80 time=0\n",
      "note_on channel=0 note=48 velocity=0 time=39\n",
      "note_on channel=0 note=41 velocity=0 time=0\n",
      "note_on channel=0 note=41 velocity=80 time=6\n",
      "note_on channel=0 note=50 velocity=80 time=0\n",
      "note_on channel=0 note=50 velocity=0 time=75\n",
      "note_on channel=0 note=41 velocity=0 time=0\n",
      "note_on channel=0 note=41 velocity=80 time=0\n",
      "note_on channel=0 note=50 velocity=80 time=0\n",
      "note_on channel=0 note=50 velocity=0 time=39\n",
      "note_on channel=0 note=41 velocity=0 time=0\n",
      "note_on channel=0 note=41 velocity=80 time=6\n",
      "note_on channel=0 note=48 velocity=80 time=0\n",
      "note_on channel=0 note=48 velocity=0 time=75\n",
      "note_on channel=0 note=41 velocity=0 time=0\n",
      "note_on channel=0 note=41 velocity=80 time=0\n",
      "note_on channel=0 note=48 velocity=80 time=0\n",
      "note_on channel=0 note=48 velocity=0 time=39\n",
      "note_on channel=0 note=41 velocity=0 time=0\n",
      "note_on channel=0 note=41 velocity=80 time=6\n",
      "note_on channel=0 note=49 velocity=80 time=0\n",
      "note_on channel=0 note=49 velocity=0 time=75\n",
      "note_on channel=0 note=41 velocity=0 time=0\n",
      "note_on channel=0 note=41 velocity=80 time=0\n",
      "note_on channel=0 note=50 velocity=80 time=0\n",
      "note_on channel=0 note=50 velocity=0 time=39\n",
      "note_on channel=0 note=41 velocity=0 time=0\n",
      "note_on channel=0 note=48 velocity=80 time=6\n",
      "note_on channel=0 note=41 velocity=80 time=0\n",
      "note_on channel=0 note=41 velocity=0 time=75\n",
      "note_on channel=0 note=48 velocity=0 time=0\n",
      "note_on channel=0 note=41 velocity=80 time=0\n",
      "note_on channel=0 note=48 velocity=80 time=0\n",
      "note_on channel=0 note=48 velocity=0 time=39\n",
      "note_on channel=0 note=41 velocity=0 time=0\n",
      "note_on channel=0 note=41 velocity=80 time=6\n",
      "note_on channel=0 note=50 velocity=80 time=0\n",
      "note_on channel=0 note=50 velocity=0 time=75\n",
      "note_on channel=0 note=41 velocity=0 time=0\n",
      "note_on channel=0 note=50 velocity=80 time=0\n",
      "note_on channel=0 note=41 velocity=80 time=0\n",
      "note_on channel=0 note=41 velocity=0 time=39\n",
      "note_on channel=0 note=50 velocity=0 time=0\n",
      "note_on channel=0 note=41 velocity=80 time=6\n",
      "note_on channel=0 note=48 velocity=80 time=0\n",
      "note_on channel=0 note=48 velocity=0 time=75\n",
      "note_on channel=0 note=41 velocity=0 time=0\n",
      "note_on channel=0 note=41 velocity=80 time=0\n",
      "note_on channel=0 note=48 velocity=80 time=0\n",
      "note_on channel=0 note=48 velocity=0 time=39\n",
      "note_on channel=0 note=41 velocity=0 time=0\n",
      "note_on channel=0 note=45 velocity=80 time=6\n",
      "note_on channel=0 note=51 velocity=80 time=0\n",
      "note_on channel=0 note=51 velocity=0 time=75\n",
      "note_on channel=0 note=45 velocity=0 time=0\n",
      "note_on channel=0 note=52 velocity=80 time=0\n",
      "note_on channel=0 note=52 velocity=0 time=39\n",
      "note_on channel=0 note=55 velocity=80 time=6\n",
      "note_on channel=0 note=48 velocity=80 time=0\n",
      "note_on channel=0 note=48 velocity=0 time=75\n",
      "note_on channel=0 note=55 velocity=0 time=0\n",
      "note_on channel=0 note=48 velocity=80 time=0\n",
      "note_on channel=0 note=55 velocity=80 time=0\n",
      "note_on channel=0 note=55 velocity=0 time=39\n",
      "note_on channel=0 note=48 velocity=0 time=0\n",
      "note_on channel=0 note=57 velocity=80 time=6\n",
      "note_on channel=0 note=48 velocity=80 time=0\n",
      "note_on channel=0 note=48 velocity=0 time=75\n",
      "note_on channel=0 note=57 velocity=0 time=0\n",
      "note_on channel=0 note=48 velocity=79 time=0\n",
      "note_on channel=0 note=57 velocity=79 time=0\n",
      "note_on channel=0 note=57 velocity=0 time=39\n",
      "note_on channel=0 note=48 velocity=0 time=0\n",
      "note_on channel=0 note=48 velocity=79 time=6\n",
      "note_on channel=0 note=55 velocity=79 time=0\n",
      "note_on channel=0 note=55 velocity=0 time=75\n",
      "note_on channel=0 note=48 velocity=0 time=0\n",
      "note_on channel=0 note=48 velocity=77 time=0\n",
      "note_on channel=0 note=55 velocity=77 time=0\n",
      "note_on channel=0 note=55 velocity=0 time=39\n",
      "note_on channel=0 note=48 velocity=0 time=0\n",
      "note_on channel=0 note=49 velocity=77 time=6\n",
      "note_on channel=0 note=45 velocity=77 time=0\n",
      "note_on channel=0 note=45 velocity=0 time=75\n",
      "note_on channel=0 note=49 velocity=0 time=0\n",
      "note_on channel=0 note=45 velocity=77 time=0\n",
      "note_on channel=0 note=50 velocity=77 time=0\n",
      "note_on channel=0 note=50 velocity=0 time=39\n",
      "note_on channel=0 note=45 velocity=0 time=0\n",
      "note_on channel=0 note=53 velocity=77 time=6\n",
      "note_on channel=0 note=46 velocity=77 time=0\n",
      "note_on channel=0 note=46 velocity=0 time=75\n",
      "note_on channel=0 note=53 velocity=0 time=0\n",
      "note_on channel=0 note=53 velocity=80 time=0\n",
      "note_on channel=0 note=46 velocity=80 time=0\n",
      "note_on channel=0 note=46 velocity=0 time=29\n",
      "note_on channel=0 note=53 velocity=0 time=0\n",
      "note_on channel=0 note=55 velocity=83 time=16\n",
      "note_on channel=0 note=46 velocity=83 time=0\n",
      "note_on channel=0 note=46 velocity=0 time=75\n",
      "note_on channel=0 note=55 velocity=0 time=0\n",
      "note_on channel=0 note=46 velocity=60 time=0\n",
      "note_on channel=0 note=55 velocity=80 time=0\n",
      "note_on channel=0 note=55 velocity=0 time=29\n",
      "note_on channel=0 note=46 velocity=0 time=0\n",
      "note_on channel=0 note=53 velocity=76 time=16\n",
      "note_on channel=0 note=46 velocity=62 time=0\n",
      "note_on channel=0 note=46 velocity=0 time=75\n",
      "note_on channel=0 note=53 velocity=0 time=0\n",
      "note_on channel=0 note=46 velocity=59 time=0\n",
      "note_on channel=0 note=53 velocity=81 time=0\n",
      "note_on channel=0 note=53 velocity=0 time=29\n",
      "note_on channel=0 note=46 velocity=0 time=0\n",
      "note_on channel=0 note=41 velocity=74 time=16\n",
      "note_on channel=0 note=44 velocity=54 time=0\n",
      "note_on channel=0 note=44 velocity=0 time=75\n",
      "note_on channel=0 note=41 velocity=0 time=0\n",
      "note_on channel=0 note=45 velocity=45 time=0\n",
      "note_on channel=0 note=41 velocity=73 time=0\n",
      "note_on channel=0 note=41 velocity=0 time=29\n",
      "note_on channel=0 note=45 velocity=0 time=0\n",
      "note_on channel=0 note=41 velocity=72 time=16\n",
      "note_on channel=0 note=48 velocity=72 time=0\n",
      "note_on channel=0 note=48 velocity=0 time=75\n",
      "note_on channel=0 note=41 velocity=0 time=0\n",
      "note_on channel=0 note=41 velocity=72 time=0\n",
      "note_on channel=0 note=48 velocity=52 time=0\n",
      "note_on channel=0 note=48 velocity=0 time=29\n",
      "note_on channel=0 note=41 velocity=0 time=0\n",
      "note_on channel=0 note=41 velocity=81 time=16\n",
      "note_on channel=0 note=50 velocity=77 time=0\n",
      "note_on channel=0 note=50 velocity=0 time=75\n",
      "note_on channel=0 note=41 velocity=0 time=0\n",
      "note_on channel=0 note=41 velocity=77 time=0\n",
      "note_on channel=0 note=50 velocity=66 time=0\n",
      "note_on channel=0 note=50 velocity=0 time=29\n",
      "note_on channel=0 note=41 velocity=0 time=0\n",
      "note_on channel=0 note=48 velocity=68 time=16\n",
      "note_on channel=0 note=41 velocity=76 time=0\n",
      "note_on channel=0 note=48 velocity=0 time=75\n",
      "note_on channel=0 note=41 velocity=76 time=5\n",
      "note_on channel=0 note=48 velocity=77 time=0\n",
      "note_on channel=0 note=41 velocity=0 time=9\n",
      "note_on channel=0 note=48 velocity=0 time=20\n",
      "note_on channel=0 note=41 velocity=0 time=0\n",
      "note_on channel=0 note=41 velocity=72 time=11\n",
      "note_on channel=0 note=44 velocity=49 time=0\n",
      "note_on channel=0 note=41 velocity=0 time=75\n",
      "note_on channel=0 note=41 velocity=69 time=0\n",
      "note_on channel=0 note=45 velocity=73 time=0\n",
      "note_on channel=0 note=44 velocity=0 time=14\n",
      "note_on channel=0 note=45 velocity=0 time=15\n",
      "note_on channel=0 note=41 velocity=0 time=0\n",
      "note_on channel=0 note=41 velocity=66 time=16\n",
      "note_on channel=0 note=48 velocity=69 time=0\n",
      "note_on channel=0 note=48 velocity=0 time=75\n",
      "note_on channel=0 note=41 velocity=0 time=0\n",
      "note_on channel=0 note=41 velocity=74 time=0\n",
      "note_on channel=0 note=48 velocity=68 time=0\n",
      "note_on channel=0 note=48 velocity=0 time=29\n",
      "note_on channel=0 note=41 velocity=0 time=0\n",
      "note_on channel=0 note=41 velocity=72 time=16\n",
      "note_on channel=0 note=50 velocity=70 time=0\n",
      "note_on channel=0 note=50 velocity=0 time=75\n",
      "note_on channel=0 note=41 velocity=0 time=0\n",
      "note_on channel=0 note=41 velocity=69 time=0\n",
      "note_on channel=0 note=50 velocity=78 time=0\n",
      "note_on channel=0 note=50 velocity=0 time=29\n",
      "note_on channel=0 note=41 velocity=0 time=0\n",
      "note_on channel=0 note=48 velocity=78 time=16\n",
      "note_on channel=0 note=41 velocity=72 time=0\n",
      "note_on channel=0 note=41 velocity=0 time=75\n",
      "note_on channel=0 note=48 velocity=0 time=0\n",
      "note_on channel=0 note=41 velocity=73 time=0\n",
      "note_on channel=0 note=48 velocity=67 time=0\n",
      "note_on channel=0 note=48 velocity=0 time=29\n",
      "note_on channel=0 note=41 velocity=0 time=0\n",
      "note_on channel=0 note=44 velocity=57 time=16\n",
      "note_on channel=0 note=41 velocity=82 time=0\n",
      "note_on channel=0 note=41 velocity=0 time=75\n",
      "note_on channel=0 note=44 velocity=0 time=0\n",
      "note_on channel=0 note=41 velocity=82 time=0\n",
      "note_on channel=0 note=45 velocity=68 time=0\n",
      "note_on channel=0 note=45 velocity=0 time=29\n",
      "note_on channel=0 note=41 velocity=0 time=0\n",
      "note_on channel=0 note=41 velocity=66 time=16\n",
      "note_on channel=0 note=48 velocity=69 time=0\n",
      "note_on channel=0 note=48 velocity=0 time=75\n",
      "note_on channel=0 note=41 velocity=0 time=0\n",
      "note_on channel=0 note=41 velocity=74 time=0\n",
      "note_on channel=0 note=48 velocity=68 time=0\n",
      "note_on channel=0 note=48 velocity=0 time=29\n",
      "note_on channel=0 note=41 velocity=0 time=0\n",
      "note_on channel=0 note=41 velocity=72 time=16\n",
      "note_on channel=0 note=50 velocity=70 time=0\n",
      "note_on channel=0 note=50 velocity=0 time=75\n",
      "note_on channel=0 note=41 velocity=0 time=0\n",
      "note_on channel=0 note=41 velocity=69 time=0\n",
      "note_on channel=0 note=50 velocity=78 time=0\n",
      "note_on channel=0 note=50 velocity=0 time=29\n",
      "note_on channel=0 note=41 velocity=0 time=0\n",
      "note_on channel=0 note=48 velocity=78 time=16\n",
      "note_on channel=0 note=41 velocity=72 time=0\n",
      "note_on channel=0 note=41 velocity=0 time=75\n",
      "note_on channel=0 note=48 velocity=0 time=0\n",
      "note_on channel=0 note=41 velocity=73 time=0\n",
      "note_on channel=0 note=48 velocity=67 time=0\n",
      "note_on channel=0 note=48 velocity=0 time=29\n",
      "note_on channel=0 note=41 velocity=0 time=0\n",
      "note_on channel=0 note=44 velocity=57 time=16\n",
      "note_on channel=0 note=41 velocity=82 time=0\n",
      "note_on channel=0 note=41 velocity=0 time=75\n",
      "note_on channel=0 note=44 velocity=0 time=0\n",
      "note_on channel=0 note=41 velocity=82 time=0\n",
      "note_on channel=0 note=45 velocity=68 time=0\n",
      "note_on channel=0 note=45 velocity=0 time=29\n",
      "note_on channel=0 note=41 velocity=0 time=0\n",
      "note_on channel=0 note=41 velocity=66 time=16\n",
      "note_on channel=0 note=48 velocity=69 time=0\n",
      "note_on channel=0 note=48 velocity=0 time=75\n",
      "note_on channel=0 note=41 velocity=0 time=0\n",
      "note_on channel=0 note=41 velocity=74 time=0\n",
      "note_on channel=0 note=48 velocity=68 time=0\n",
      "note_on channel=0 note=48 velocity=0 time=29\n",
      "note_on channel=0 note=41 velocity=0 time=0\n",
      "note_on channel=0 note=41 velocity=72 time=16\n",
      "note_on channel=0 note=50 velocity=70 time=0\n",
      "note_on channel=0 note=50 velocity=0 time=75\n",
      "note_on channel=0 note=41 velocity=0 time=0\n",
      "note_on channel=0 note=41 velocity=69 time=0\n",
      "note_on channel=0 note=50 velocity=78 time=0\n",
      "note_on channel=0 note=50 velocity=0 time=29\n",
      "note_on channel=0 note=41 velocity=0 time=0\n",
      "note_on channel=0 note=48 velocity=78 time=16\n",
      "note_on channel=0 note=41 velocity=72 time=0\n",
      "note_on channel=0 note=41 velocity=0 time=75\n",
      "note_on channel=0 note=48 velocity=0 time=0\n",
      "note_on channel=0 note=41 velocity=73 time=0\n",
      "note_on channel=0 note=48 velocity=67 time=0\n",
      "note_on channel=0 note=48 velocity=0 time=29\n",
      "note_on channel=0 note=41 velocity=0 time=0\n",
      "note_on channel=0 note=44 velocity=57 time=16\n",
      "note_on channel=0 note=41 velocity=82 time=0\n",
      "note_on channel=0 note=41 velocity=0 time=75\n",
      "note_on channel=0 note=44 velocity=0 time=0\n",
      "note_on channel=0 note=41 velocity=82 time=0\n",
      "note_on channel=0 note=45 velocity=68 time=0\n",
      "note_on channel=0 note=45 velocity=0 time=29\n",
      "note_on channel=0 note=41 velocity=0 time=0\n",
      "note_on channel=0 note=41 velocity=66 time=16\n",
      "note_on channel=0 note=48 velocity=69 time=0\n",
      "note_on channel=0 note=48 velocity=0 time=75\n",
      "note_on channel=0 note=41 velocity=0 time=0\n",
      "note_on channel=0 note=41 velocity=74 time=0\n",
      "note_on channel=0 note=48 velocity=68 time=0\n",
      "note_on channel=0 note=48 velocity=0 time=29\n",
      "note_on channel=0 note=41 velocity=0 time=0\n",
      "note_on channel=0 note=41 velocity=72 time=16\n",
      "note_on channel=0 note=50 velocity=70 time=0\n",
      "note_on channel=0 note=50 velocity=0 time=75\n",
      "note_on channel=0 note=41 velocity=0 time=0\n",
      "note_on channel=0 note=41 velocity=69 time=0\n",
      "note_on channel=0 note=50 velocity=78 time=0\n",
      "note_on channel=0 note=50 velocity=0 time=29\n",
      "note_on channel=0 note=41 velocity=0 time=0\n",
      "note_on channel=0 note=48 velocity=78 time=16\n",
      "note_on channel=0 note=41 velocity=72 time=0\n",
      "note_on channel=0 note=41 velocity=0 time=75\n",
      "note_on channel=0 note=48 velocity=0 time=0\n",
      "note_on channel=0 note=41 velocity=73 time=0\n",
      "note_on channel=0 note=48 velocity=67 time=0\n",
      "note_on channel=0 note=48 velocity=0 time=29\n",
      "note_on channel=0 note=41 velocity=0 time=0\n",
      "note_on channel=0 note=44 velocity=89 time=16\n",
      "note_on channel=0 note=41 velocity=89 time=0\n",
      "note_on channel=0 note=41 velocity=0 time=75\n",
      "note_on channel=0 note=44 velocity=0 time=0\n",
      "note_on channel=0 note=41 velocity=89 time=0\n",
      "note_on channel=0 note=45 velocity=89 time=0\n",
      "note_on channel=0 note=45 velocity=0 time=29\n",
      "note_on channel=0 note=41 velocity=0 time=0\n",
      "note_on channel=0 note=48 velocity=88 time=16\n",
      "note_on channel=0 note=41 velocity=88 time=0\n",
      "note_on channel=0 note=41 velocity=0 time=75\n",
      "note_on channel=0 note=48 velocity=0 time=0\n",
      "note_on channel=0 note=41 velocity=84 time=0\n",
      "note_on channel=0 note=48 velocity=84 time=0\n",
      "note_on channel=0 note=48 velocity=0 time=39\n",
      "note_on channel=0 note=41 velocity=0 time=0\n",
      "note_on channel=0 note=41 velocity=84 time=6\n",
      "note_on channel=0 note=50 velocity=84 time=0\n",
      "note_on channel=0 note=50 velocity=0 time=75\n",
      "note_on channel=0 note=41 velocity=0 time=0\n",
      "note_on channel=0 note=41 velocity=86 time=0\n",
      "note_on channel=0 note=50 velocity=86 time=0\n",
      "note_on channel=0 note=50 velocity=0 time=39\n",
      "note_on channel=0 note=41 velocity=0 time=0\n",
      "note_on channel=0 note=41 velocity=86 time=6\n",
      "note_on channel=0 note=51 velocity=86 time=0\n",
      "note_on channel=0 note=51 velocity=0 time=75\n",
      "note_on channel=0 note=41 velocity=0 time=0\n",
      "note_on channel=0 note=41 velocity=87 time=0\n",
      "note_on channel=0 note=51 velocity=87 time=0\n",
      "note_on channel=0 note=51 velocity=0 time=39\n",
      "note_on channel=0 note=41 velocity=0 time=0\n",
      "note_on channel=0 note=41 velocity=84 time=6\n",
      "note_on channel=0 note=48 velocity=84 time=0\n",
      "note_on channel=0 note=48 velocity=0 time=75\n",
      "note_on channel=0 note=41 velocity=0 time=0\n",
      "note_on channel=0 note=49 velocity=78 time=0\n",
      "note_on channel=0 note=49 velocity=0 time=39\n",
      "note_on channel=0 note=46 velocity=78 time=6\n",
      "note_on channel=0 note=53 velocity=78 time=0\n",
      "note_on channel=0 note=53 velocity=0 time=75\n",
      "note_on channel=0 note=46 velocity=0 time=0\n",
      "note_on channel=0 note=46 velocity=88 time=0\n",
      "note_on channel=0 note=53 velocity=88 time=0\n",
      "note_on channel=0 note=53 velocity=0 time=39\n",
      "note_on channel=0 note=46 velocity=0 time=0\n",
      "note_on channel=0 note=55 velocity=87 time=6\n",
      "note_on channel=0 note=46 velocity=87 time=0\n",
      "note_on channel=0 note=46 velocity=0 time=75\n",
      "note_on channel=0 note=55 velocity=0 time=0\n",
      "note_on channel=0 note=46 velocity=85 time=0\n",
      "note_on channel=0 note=55 velocity=85 time=0\n",
      "note_on channel=0 note=55 velocity=0 time=39\n",
      "note_on channel=0 note=46 velocity=0 time=0\n",
      "note_on channel=0 note=46 velocity=84 time=6\n",
      "note_on channel=0 note=53 velocity=84 time=0\n",
      "note_on channel=0 note=53 velocity=0 time=75\n",
      "note_on channel=0 note=46 velocity=0 time=0\n",
      "note_on channel=0 note=46 velocity=82 time=0\n",
      "note_on channel=0 note=53 velocity=82 time=0\n",
      "note_on channel=0 note=53 velocity=0 time=39\n",
      "note_on channel=0 note=46 velocity=0 time=0\n",
      "note_on channel=0 note=46 velocity=82 time=6\n",
      "note_on channel=0 note=49 velocity=82 time=0\n",
      "note_on channel=0 note=49 velocity=0 time=75\n",
      "note_on channel=0 note=46 velocity=0 time=0\n",
      "note_on channel=0 note=46 velocity=78 time=0\n",
      "note_on channel=0 note=50 velocity=78 time=0\n",
      "note_on channel=0 note=50 velocity=0 time=39\n",
      "note_on channel=0 note=46 velocity=0 time=0\n",
      "note_on channel=0 note=46 velocity=77 time=6\n",
      "note_on channel=0 note=53 velocity=77 time=0\n",
      "note_on channel=0 note=53 velocity=0 time=75\n",
      "note_on channel=0 note=46 velocity=0 time=0\n",
      "note_on channel=0 note=46 velocity=85 time=0\n",
      "note_on channel=0 note=53 velocity=85 time=0\n",
      "note_on channel=0 note=53 velocity=0 time=39\n",
      "note_on channel=0 note=46 velocity=0 time=0\n",
      "note_on channel=0 note=46 velocity=85 time=6\n",
      "note_on channel=0 note=55 velocity=85 time=0\n",
      "note_on channel=0 note=55 velocity=0 time=75\n",
      "note_on channel=0 note=46 velocity=0 time=0\n",
      "note_on channel=0 note=46 velocity=85 time=0\n",
      "note_on channel=0 note=55 velocity=85 time=0\n",
      "note_on channel=0 note=55 velocity=0 time=39\n",
      "note_on channel=0 note=46 velocity=0 time=0\n",
      "note_on channel=0 note=46 velocity=85 time=6\n",
      "note_on channel=0 note=56 velocity=85 time=0\n",
      "note_on channel=0 note=56 velocity=0 time=75\n",
      "note_on channel=0 note=46 velocity=0 time=0\n",
      "note_on channel=0 note=46 velocity=82 time=0\n",
      "note_on channel=0 note=56 velocity=82 time=0\n",
      "note_on channel=0 note=56 velocity=0 time=39\n",
      "note_on channel=0 note=46 velocity=0 time=0\n",
      "note_on channel=0 note=46 velocity=82 time=6\n",
      "note_on channel=0 note=55 velocity=82 time=0\n",
      "note_on channel=0 note=55 velocity=0 time=75\n",
      "note_on channel=0 note=46 velocity=0 time=0\n",
      "note_on channel=0 note=44 velocity=82 time=5\n",
      "note_on channel=0 note=44 velocity=0 time=39\n",
      "note_on channel=0 note=41 velocity=84 time=1\n",
      "note_on channel=0 note=48 velocity=84 time=0\n",
      "note_on channel=0 note=48 velocity=0 time=75\n",
      "note_on channel=0 note=41 velocity=0 time=0\n",
      "note_on channel=0 note=41 velocity=85 time=0\n",
      "note_on channel=0 note=48 velocity=85 time=0\n",
      "note_on channel=0 note=48 velocity=0 time=29\n",
      "note_on channel=0 note=41 velocity=0 time=0\n",
      "note_on channel=0 note=41 velocity=85 time=16\n",
      "note_on channel=0 note=50 velocity=85 time=0\n",
      "note_on channel=0 note=50 velocity=0 time=75\n",
      "note_on channel=0 note=41 velocity=0 time=0\n",
      "note_on channel=0 note=41 velocity=84 time=0\n",
      "note_on channel=0 note=50 velocity=84 time=0\n",
      "note_on channel=0 note=50 velocity=0 time=29\n",
      "note_on channel=0 note=41 velocity=0 time=0\n",
      "note_on channel=0 note=48 velocity=82 time=16\n",
      "note_on channel=0 note=41 velocity=82 time=0\n",
      "note_on channel=0 note=41 velocity=0 time=75\n",
      "note_on channel=0 note=48 velocity=0 time=0\n",
      "note_on channel=0 note=41 velocity=76 time=0\n",
      "note_on channel=0 note=48 velocity=76 time=0\n",
      "note_on channel=0 note=48 velocity=0 time=29\n",
      "note_on channel=0 note=41 velocity=0 time=0\n",
      "note_on channel=0 note=44 velocity=73 time=16\n",
      "note_on channel=0 note=41 velocity=73 time=0\n",
      "note_on channel=0 note=41 velocity=0 time=75\n",
      "note_on channel=0 note=44 velocity=0 time=0\n",
      "note_on channel=0 note=41 velocity=82 time=0\n",
      "note_on channel=0 note=45 velocity=68 time=0\n",
      "note_on channel=0 note=45 velocity=0 time=29\n",
      "note_on channel=0 note=41 velocity=0 time=0\n",
      "note_on channel=0 note=48 velocity=86 time=16\n",
      "note_on channel=0 note=41 velocity=86 time=0\n",
      "note_on channel=0 note=41 velocity=0 time=75\n",
      "note_on channel=0 note=48 velocity=0 time=0\n",
      "note_on channel=0 note=41 velocity=86 time=0\n",
      "note_on channel=0 note=48 velocity=86 time=0\n",
      "note_on channel=0 note=48 velocity=0 time=39\n",
      "note_on channel=0 note=41 velocity=0 time=0\n",
      "note_on channel=0 note=41 velocity=85 time=6\n",
      "note_on channel=0 note=50 velocity=85 time=0\n",
      "note_on channel=0 note=50 velocity=0 time=75\n",
      "note_on channel=0 note=41 velocity=0 time=0\n",
      "note_on channel=0 note=41 velocity=83 time=0\n",
      "note_on channel=0 note=50 velocity=83 time=0\n",
      "note_on channel=0 note=50 velocity=0 time=39\n",
      "note_on channel=0 note=41 velocity=0 time=0\n",
      "note_on channel=0 note=41 velocity=83 time=6\n",
      "note_on channel=0 note=51 velocity=83 time=0\n",
      "note_on channel=0 note=51 velocity=0 time=75\n",
      "note_on channel=0 note=41 velocity=0 time=0\n",
      "note_on channel=0 note=41 velocity=83 time=0\n",
      "note_on channel=0 note=51 velocity=83 time=0\n",
      "note_on channel=0 note=51 velocity=0 time=39\n",
      "note_on channel=0 note=41 velocity=0 time=0\n",
      "note_on channel=0 note=41 velocity=83 time=6\n",
      "note_on channel=0 note=48 velocity=83 time=0\n",
      "note_on channel=0 note=48 velocity=0 time=75\n",
      "note_on channel=0 note=41 velocity=0 time=0\n",
      "note_on channel=0 note=41 velocity=85 time=0\n",
      "note_on channel=0 note=49 velocity=85 time=0\n",
      "note_on channel=0 note=49 velocity=0 time=39\n",
      "note_on channel=0 note=41 velocity=0 time=0\n",
      "note_on channel=0 note=48 velocity=86 time=6\n",
      "note_on channel=0 note=55 velocity=86 time=0\n",
      "note_on channel=0 note=55 velocity=0 time=75\n",
      "note_on channel=0 note=48 velocity=0 time=0\n",
      "note_on channel=0 note=48 velocity=76 time=0\n",
      "note_on channel=0 note=55 velocity=63 time=0\n",
      "note_on channel=0 note=55 velocity=0 time=39\n",
      "note_on channel=0 note=48 velocity=0 time=0\n",
      "note_on channel=0 note=48 velocity=62 time=6\n",
      "note_on channel=0 note=57 velocity=64 time=0\n",
      "note_on channel=0 note=57 velocity=0 time=75\n",
      "note_on channel=0 note=48 velocity=0 time=0\n",
      "note_on channel=0 note=48 velocity=70 time=0\n",
      "note_on channel=0 note=57 velocity=68 time=0\n",
      "note_on channel=0 note=57 velocity=0 time=39\n",
      "note_on channel=0 note=48 velocity=0 time=0\n",
      "note_on channel=0 note=48 velocity=70 time=6\n",
      "note_on channel=0 note=55 velocity=74 time=0\n",
      "note_on channel=0 note=55 velocity=0 time=75\n",
      "note_on channel=0 note=48 velocity=0 time=0\n",
      "note_on channel=0 note=48 velocity=68 time=0\n",
      "note_on channel=0 note=55 velocity=78 time=0\n",
      "note_on channel=0 note=55 velocity=0 time=39\n",
      "note_on channel=0 note=48 velocity=0 time=0\n",
      "note_on channel=0 note=48 velocity=57 time=6\n",
      "note_on channel=0 note=52 velocity=71 time=0\n",
      "note_on channel=0 note=52 velocity=0 time=75\n",
      "note_on channel=0 note=48 velocity=0 time=0\n",
      "note_on channel=0 note=45 velocity=84 time=0\n",
      "note_on channel=0 note=49 velocity=65 time=0\n",
      "note_on channel=0 note=49 velocity=0 time=39\n",
      "note_on channel=0 note=45 velocity=0 time=0\n",
      "note_on channel=0 note=46 velocity=54 time=6\n",
      "note_on channel=0 note=53 velocity=81 time=0\n",
      "note_on channel=0 note=53 velocity=0 time=75\n",
      "note_on channel=0 note=46 velocity=0 time=0\n",
      "note_on channel=0 note=53 velocity=81 time=0\n",
      "note_on channel=0 note=46 velocity=46 time=0\n",
      "note_on channel=0 note=46 velocity=0 time=39\n",
      "note_on channel=0 note=53 velocity=0 time=0\n",
      "note_on channel=0 note=46 velocity=67 time=6\n",
      "note_on channel=0 note=55 velocity=81 time=0\n",
      "note_on channel=0 note=55 velocity=0 time=75\n",
      "note_on channel=0 note=46 velocity=0 time=0\n",
      "note_on channel=0 note=46 velocity=47 time=0\n",
      "note_on channel=0 note=55 velocity=78 time=0\n",
      "note_on channel=0 note=55 velocity=0 time=39\n",
      "note_on channel=0 note=46 velocity=0 time=0\n",
      "note_on channel=0 note=46 velocity=52 time=6\n",
      "note_on channel=0 note=53 velocity=81 time=0\n",
      "note_on channel=0 note=53 velocity=0 time=75\n",
      "note_on channel=0 note=46 velocity=0 time=0\n",
      "note_on channel=0 note=46 velocity=55 time=0\n",
      "note_on channel=0 note=53 velocity=77 time=0\n",
      "note_on channel=0 note=53 velocity=0 time=39\n",
      "note_on channel=0 note=46 velocity=0 time=0\n",
      "note_on channel=0 note=46 velocity=60 time=6\n",
      "note_on channel=0 note=50 velocity=84 time=0\n",
      "note_on channel=0 note=50 velocity=0 time=75\n",
      "note_on channel=0 note=46 velocity=0 time=0\n",
      "note_on channel=0 note=46 velocity=46 time=0\n",
      "note_on channel=0 note=50 velocity=76 time=0\n",
      "note_on channel=0 note=50 velocity=0 time=39\n",
      "note_on channel=0 note=46 velocity=0 time=0\n",
      "note_on channel=0 note=41 velocity=66 time=6\n",
      "note_on channel=0 note=48 velocity=69 time=0\n",
      "note_on channel=0 note=48 velocity=0 time=75\n",
      "note_on channel=0 note=41 velocity=0 time=0\n",
      "note_on channel=0 note=41 velocity=74 time=0\n",
      "note_on channel=0 note=48 velocity=68 time=0\n",
      "note_on channel=0 note=48 velocity=0 time=29\n",
      "note_on channel=0 note=41 velocity=0 time=0\n",
      "note_on channel=0 note=41 velocity=72 time=16\n",
      "note_on channel=0 note=50 velocity=70 time=0\n",
      "note_on channel=0 note=50 velocity=0 time=75\n",
      "note_on channel=0 note=41 velocity=0 time=0\n",
      "note_on channel=0 note=41 velocity=69 time=0\n",
      "note_on channel=0 note=50 velocity=78 time=0\n",
      "note_on channel=0 note=50 velocity=0 time=29\n",
      "note_on channel=0 note=41 velocity=0 time=0\n",
      "note_on channel=0 note=48 velocity=78 time=16\n",
      "note_on channel=0 note=41 velocity=72 time=0\n",
      "note_on channel=0 note=41 velocity=0 time=75\n",
      "note_on channel=0 note=48 velocity=0 time=0\n",
      "note_on channel=0 note=41 velocity=73 time=0\n",
      "note_on channel=0 note=48 velocity=67 time=0\n",
      "note_on channel=0 note=48 velocity=0 time=29\n",
      "note_on channel=0 note=41 velocity=0 time=0\n",
      "note_on channel=0 note=44 velocity=57 time=16\n",
      "note_on channel=0 note=41 velocity=82 time=0\n",
      "note_on channel=0 note=41 velocity=0 time=75\n",
      "note_on channel=0 note=44 velocity=0 time=0\n",
      "note_on channel=0 note=41 velocity=82 time=0\n",
      "note_on channel=0 note=45 velocity=68 time=0\n",
      "note_on channel=0 note=45 velocity=0 time=29\n",
      "note_on channel=0 note=41 velocity=0 time=0\n",
      "note_on channel=0 note=48 velocity=105 time=16\n",
      "note_on channel=0 note=41 velocity=93 time=0\n",
      "note_on channel=0 note=41 velocity=0 time=75\n",
      "note_on channel=0 note=48 velocity=0 time=0\n",
      "note_on channel=0 note=41 velocity=76 time=0\n",
      "note_on channel=0 note=48 velocity=72 time=0\n",
      "note_on channel=0 note=48 velocity=0 time=39\n",
      "note_on channel=0 note=41 velocity=0 time=0\n",
      "note_on channel=0 note=50 velocity=85 time=6\n",
      "note_on channel=0 note=41 velocity=85 time=0\n",
      "note_on channel=0 note=41 velocity=0 time=75\n",
      "note_on channel=0 note=50 velocity=0 time=0\n",
      "note_on channel=0 note=50 velocity=85 time=0\n",
      "note_on channel=0 note=41 velocity=85 time=0\n",
      "note_on channel=0 note=41 velocity=0 time=39\n",
      "note_on channel=0 note=50 velocity=0 time=0\n",
      "note_on channel=0 note=41 velocity=101 time=6\n",
      "note_on channel=0 note=48 velocity=105 time=0\n",
      "note_on channel=0 note=48 velocity=0 time=75\n",
      "note_on channel=0 note=41 velocity=0 time=0\n",
      "note_on channel=0 note=41 velocity=101 time=3\n",
      "note_on channel=0 note=48 velocity=76 time=0\n",
      "note_on channel=0 note=48 velocity=0 time=22\n",
      "note_on channel=0 note=44 velocity=85 time=20\n",
      "note_on channel=0 note=41 velocity=0 time=12\n",
      "note_on channel=0 note=44 velocity=0 time=63\n",
      "note_on channel=0 note=45 velocity=90 time=0\n",
      "note_on channel=0 note=45 velocity=0 time=39\n",
      "note_on channel=0 note=29 velocity=73 time=6\n",
      "note_on channel=0 note=41 velocity=84 time=75\n",
      "note_on channel=0 note=41 velocity=0 time=39\n",
      "note_on channel=0 note=29 velocity=0 time=5\n",
      "note_on channel=0 note=33 velocity=89 time=1\n",
      "note_on channel=0 note=45 velocity=90 time=75\n",
      "note_on channel=0 note=45 velocity=0 time=39\n",
      "note_on channel=0 note=33 velocity=0 time=5\n",
      "note_on channel=0 note=36 velocity=89 time=1\n",
      "note_on channel=0 note=48 velocity=86 time=75\n",
      "note_on channel=0 note=36 velocity=0 time=4\n",
      "note_on channel=0 note=48 velocity=0 time=35\n",
      "note_on channel=0 note=38 velocity=83 time=6\n",
      "note_on channel=0 note=50 velocity=81 time=75\n",
      "note_on channel=0 note=50 velocity=0 time=39\n",
      "note_on channel=0 note=38 velocity=0 time=5\n",
      "note_on channel=0 note=41 velocity=81 time=1\n",
      "note_on channel=0 note=53 velocity=84 time=75\n",
      "note_on channel=0 note=53 velocity=0 time=39\n",
      "note_on channel=0 note=41 velocity=0 time=5\n",
      "note_on channel=0 note=38 velocity=73 time=1\n",
      "note_on channel=0 note=50 velocity=95 time=75\n",
      "note_on channel=0 note=50 velocity=0 time=39\n",
      "note_on channel=0 note=38 velocity=0 time=5\n",
      "note_on channel=0 note=36 velocity=80 time=1\n",
      "note_on channel=0 note=48 velocity=90 time=75\n",
      "note_on channel=0 note=36 velocity=0 time=4\n",
      "note_on channel=0 note=48 velocity=0 time=35\n",
      "note_on channel=0 note=33 velocity=78 time=6\n",
      "note_on channel=0 note=45 velocity=98 time=75\n",
      "note_on channel=0 note=33 velocity=0 time=4\n",
      "note_on channel=0 note=45 velocity=0 time=35\n",
      "note_on channel=0 note=29 velocity=71 time=6\n",
      "note_on channel=0 note=41 velocity=94 time=75\n",
      "note_on channel=0 note=41 velocity=0 time=39\n",
      "note_on channel=0 note=29 velocity=0 time=5\n",
      "note_on channel=0 note=33 velocity=80 time=1\n",
      "note_on channel=0 note=45 velocity=86 time=75\n",
      "note_on channel=0 note=45 velocity=0 time=39\n",
      "note_on channel=0 note=33 velocity=0 time=5\n",
      "note_on channel=0 note=36 velocity=90 time=1\n",
      "note_on channel=0 note=48 velocity=98 time=75\n",
      "note_on channel=0 note=36 velocity=0 time=4\n",
      "note_on channel=0 note=48 velocity=0 time=35\n",
      "note_on channel=0 note=38 velocity=71 time=6\n",
      "note_on channel=0 note=50 velocity=94 time=75\n",
      "note_on channel=0 note=50 velocity=0 time=39\n",
      "note_on channel=0 note=38 velocity=0 time=5\n",
      "note_on channel=0 note=41 velocity=99 time=1\n",
      "note_on channel=0 note=53 velocity=84 time=75\n",
      "note_on channel=0 note=53 velocity=0 time=39\n",
      "note_on channel=0 note=41 velocity=0 time=5\n",
      "note_on channel=0 note=38 velocity=77 time=1\n",
      "note_on channel=0 note=50 velocity=99 time=75\n",
      "note_on channel=0 note=50 velocity=0 time=39\n",
      "note_on channel=0 note=38 velocity=0 time=5\n",
      "note_on channel=0 note=36 velocity=74 time=1\n",
      "note_on channel=0 note=48 velocity=99 time=75\n",
      "note_on channel=0 note=36 velocity=0 time=4\n",
      "note_on channel=0 note=48 velocity=0 time=35\n",
      "note_on channel=0 note=33 velocity=82 time=6\n",
      "note_on channel=0 note=45 velocity=107 time=75\n",
      "note_on channel=0 note=45 velocity=0 time=39\n",
      "note_on channel=0 note=33 velocity=0 time=5\n",
      "note_on channel=0 note=34 velocity=63 time=1\n",
      "note_on channel=0 note=46 velocity=61 time=75\n",
      "note_on channel=0 note=46 velocity=0 time=39\n",
      "note_on channel=0 note=34 velocity=0 time=5\n",
      "note_on channel=0 note=38 velocity=78 time=1\n",
      "note_on channel=0 note=50 velocity=77 time=75\n",
      "note_on channel=0 note=50 velocity=0 time=39\n",
      "note_on channel=0 note=38 velocity=0 time=5\n",
      "note_on channel=0 note=41 velocity=89 time=1\n",
      "note_on channel=0 note=53 velocity=90 time=75\n",
      "note_on channel=0 note=41 velocity=0 time=4\n",
      "note_on channel=0 note=53 velocity=0 time=35\n",
      "note_on channel=0 note=43 velocity=94 time=6\n",
      "note_on channel=0 note=55 velocity=89 time=75\n",
      "note_on channel=0 note=55 velocity=0 time=39\n",
      "note_on channel=0 note=43 velocity=0 time=5\n",
      "note_on channel=0 note=44 velocity=66 time=1\n",
      "note_on channel=0 note=56 velocity=78 time=75\n",
      "note_on channel=0 note=56 velocity=0 time=39\n",
      "note_on channel=0 note=44 velocity=0 time=5\n",
      "note_on channel=0 note=43 velocity=89 time=1\n",
      "note_on channel=0 note=55 velocity=98 time=75\n",
      "note_on channel=0 note=43 velocity=0 time=4\n",
      "note_on channel=0 note=55 velocity=0 time=35\n",
      "note_on channel=0 note=41 velocity=99 time=6\n",
      "note_on channel=0 note=53 velocity=98 time=75\n",
      "note_on channel=0 note=53 velocity=0 time=39\n",
      "note_on channel=0 note=41 velocity=0 time=5\n",
      "note_on channel=0 note=38 velocity=84 time=1\n",
      "note_on channel=0 note=50 velocity=104 time=75\n",
      "note_on channel=0 note=38 velocity=0 time=4\n",
      "note_on channel=0 note=50 velocity=0 time=35\n",
      "note_on channel=0 note=29 velocity=73 time=6\n",
      "note_on channel=0 note=41 velocity=89 time=75\n",
      "note_on channel=0 note=41 velocity=0 time=39\n",
      "note_on channel=0 note=29 velocity=0 time=5\n",
      "note_on channel=0 note=33 velocity=78 time=1\n",
      "note_on channel=0 note=45 velocity=84 time=75\n",
      "note_on channel=0 note=45 velocity=0 time=39\n",
      "note_on channel=0 note=33 velocity=0 time=5\n",
      "note_on channel=0 note=36 velocity=82 time=1\n",
      "note_on channel=0 note=48 velocity=98 time=75\n",
      "note_on channel=0 note=36 velocity=0 time=4\n",
      "note_on channel=0 note=48 velocity=0 time=35\n",
      "note_on channel=0 note=38 velocity=82 time=6\n",
      "note_on channel=0 note=50 velocity=77 time=75\n",
      "note_on channel=0 note=50 velocity=0 time=39\n",
      "note_on channel=0 note=38 velocity=0 time=5\n",
      "note_on channel=0 note=41 velocity=98 time=1\n",
      "note_on channel=0 note=53 velocity=84 time=75\n",
      "note_on channel=0 note=53 velocity=0 time=39\n",
      "note_on channel=0 note=41 velocity=0 time=5\n",
      "note_on channel=0 note=38 velocity=73 time=1\n",
      "note_on channel=0 note=50 velocity=95 time=75\n",
      "note_on channel=0 note=50 velocity=0 time=39\n",
      "note_on channel=0 note=38 velocity=0 time=5\n",
      "note_on channel=0 note=36 velocity=80 time=1\n",
      "note_on channel=0 note=48 velocity=90 time=75\n",
      "note_on channel=0 note=36 velocity=0 time=4\n",
      "note_on channel=0 note=48 velocity=0 time=35\n",
      "note_on channel=0 note=33 velocity=78 time=6\n",
      "note_on channel=0 note=45 velocity=98 time=75\n",
      "note_on channel=0 note=33 velocity=0 time=4\n",
      "note_on channel=0 note=45 velocity=0 time=35\n",
      "note_on channel=0 note=36 velocity=72 time=6\n",
      "note_on channel=0 note=48 velocity=78 time=75\n",
      "note_on channel=0 note=48 velocity=0 time=39\n",
      "note_on channel=0 note=36 velocity=0 time=5\n",
      "note_on channel=0 note=40 velocity=68 time=1\n",
      "note_on channel=0 note=52 velocity=81 time=75\n",
      "note_on channel=0 note=52 velocity=0 time=39\n",
      "note_on channel=0 note=40 velocity=0 time=5\n",
      "note_on channel=0 note=43 velocity=99 time=1\n",
      "note_on channel=0 note=55 velocity=105 time=75\n",
      "note_on channel=0 note=43 velocity=0 time=4\n",
      "note_on channel=0 note=55 velocity=0 time=35\n",
      "note_on channel=0 note=40 velocity=94 time=6\n",
      "note_on channel=0 note=52 velocity=94 time=75\n",
      "note_on channel=0 note=40 velocity=0 time=4\n",
      "note_on channel=0 note=52 velocity=0 time=35\n",
      "note_on channel=0 note=34 velocity=58 time=6\n",
      "note_on channel=0 note=46 velocity=64 time=75\n",
      "note_on channel=0 note=46 velocity=0 time=39\n",
      "note_on channel=0 note=34 velocity=0 time=5\n",
      "note_on channel=0 note=38 velocity=81 time=1\n",
      "note_on channel=0 note=50 velocity=76 time=75\n",
      "note_on channel=0 note=50 velocity=0 time=39\n",
      "note_on channel=0 note=38 velocity=0 time=5\n",
      "note_on channel=0 note=41 velocity=93 time=1\n",
      "note_on channel=0 note=53 velocity=90 time=75\n",
      "note_on channel=0 note=53 velocity=0 time=39\n",
      "note_on channel=0 note=41 velocity=0 time=5\n",
      "note_on channel=0 note=38 velocity=82 time=1\n",
      "note_on channel=0 note=50 velocity=95 time=75\n",
      "note_on channel=0 note=50 velocity=0 time=39\n",
      "note_on channel=0 note=38 velocity=0 time=5\n",
      "note_on channel=0 note=41 velocity=94 time=1\n",
      "note_on channel=0 note=41 velocity=0 time=75\n",
      "note_on channel=0 note=45 velocity=80 time=0\n",
      "note_on channel=0 note=45 velocity=0 time=150\n",
      "note_on channel=0 note=46 velocity=69 time=15\n",
      "note_on channel=0 note=46 velocity=0 time=119\n",
      "note_on channel=0 note=47 velocity=84 time=1\n",
      "note_on channel=0 note=47 velocity=0 time=119\n",
      "note_on channel=0 note=41 velocity=68 time=1\n",
      "note_on channel=0 note=48 velocity=67 time=0\n",
      "note_on channel=0 note=48 velocity=0 time=75\n",
      "note_on channel=0 note=41 velocity=0 time=0\n",
      "note_on channel=0 note=41 velocity=69 time=0\n",
      "note_on channel=0 note=48 velocity=65 time=0\n",
      "note_on channel=0 note=48 velocity=0 time=39\n",
      "note_on channel=0 note=41 velocity=0 time=0\n",
      "note_on channel=0 note=50 velocity=76 time=6\n",
      "note_on channel=0 note=41 velocity=73 time=0\n",
      "note_on channel=0 note=41 velocity=0 time=75\n",
      "note_on channel=0 note=50 velocity=0 time=0\n",
      "note_on channel=0 note=41 velocity=71 time=0\n",
      "note_on channel=0 note=50 velocity=61 time=0\n",
      "note_on channel=0 note=50 velocity=0 time=39\n",
      "note_on channel=0 note=41 velocity=0 time=0\n",
      "note_on channel=0 note=41 velocity=61 time=6\n",
      "note_on channel=0 note=48 velocity=67 time=0\n",
      "note_on channel=0 note=48 velocity=0 time=75\n",
      "note_on channel=0 note=41 velocity=0 time=0\n",
      "note_on channel=0 note=41 velocity=54 time=0\n",
      "note_on channel=0 note=48 velocity=59 time=0\n",
      "note_on channel=0 note=48 velocity=0 time=39\n",
      "note_on channel=0 note=41 velocity=0 time=0\n",
      "note_on channel=0 note=44 velocity=58 time=6\n",
      "note_on channel=0 note=44 velocity=0 time=75\n",
      "note_on channel=0 note=45 velocity=95 time=0\n",
      "note_on channel=0 note=45 velocity=0 time=39\n",
      "note_on channel=0 note=48 velocity=84 time=6\n",
      "note_on channel=0 note=41 velocity=86 time=0\n",
      "note_on channel=0 note=41 velocity=0 time=479\n",
      "note_on channel=0 note=48 velocity=0 time=0\n",
      "note_on channel=0 note=43 velocity=80 time=1\n",
      "note_on channel=0 note=36 velocity=73 time=0\n",
      "note_on channel=0 note=36 velocity=0 time=479\n",
      "note_on channel=0 note=43 velocity=0 time=0\n",
      "note_on channel=0 note=48 velocity=82 time=1\n",
      "note_on channel=0 note=41 velocity=99 time=0\n",
      "note_on channel=0 note=41 velocity=0 time=59\n",
      "note_on channel=0 note=48 velocity=0 time=0\n",
      "note_on channel=0 note=46 velocity=83 time=901\n",
      "note_on channel=0 note=53 velocity=83 time=0\n",
      "note_on channel=0 note=53 velocity=0 time=75\n",
      "note_on channel=0 note=46 velocity=0 time=0\n",
      "note_on channel=0 note=46 velocity=81 time=0\n",
      "note_on channel=0 note=53 velocity=81 time=0\n",
      "note_on channel=0 note=53 velocity=0 time=39\n",
      "note_on channel=0 note=46 velocity=0 time=0\n",
      "note_on channel=0 note=55 velocity=80 time=6\n",
      "note_on channel=0 note=46 velocity=80 time=0\n",
      "note_on channel=0 note=46 velocity=0 time=75\n",
      "note_on channel=0 note=55 velocity=0 time=0\n",
      "note_on channel=0 note=46 velocity=80 time=0\n",
      "note_on channel=0 note=55 velocity=80 time=0\n",
      "note_on channel=0 note=55 velocity=0 time=39\n",
      "note_on channel=0 note=46 velocity=0 time=0\n",
      "note_on channel=0 note=46 velocity=77 time=6\n",
      "note_on channel=0 note=53 velocity=77 time=0\n",
      "note_on channel=0 note=53 velocity=0 time=75\n",
      "note_on channel=0 note=46 velocity=0 time=0\n",
      "note_on channel=0 note=46 velocity=77 time=0\n",
      "note_on channel=0 note=53 velocity=77 time=0\n",
      "note_on channel=0 note=53 velocity=0 time=39\n",
      "note_on channel=0 note=46 velocity=0 time=0\n",
      "note_on channel=0 note=46 velocity=77 time=6\n",
      "note_on channel=0 note=49 velocity=77 time=0\n",
      "note_on channel=0 note=49 velocity=0 time=75\n",
      "note_on channel=0 note=46 velocity=0 time=0\n",
      "note_on channel=0 note=46 velocity=77 time=0\n",
      "note_on channel=0 note=50 velocity=77 time=0\n",
      "note_on channel=0 note=50 velocity=0 time=39\n",
      "note_on channel=0 note=46 velocity=0 time=0\n",
      "note_on channel=0 note=46 velocity=77 time=6\n",
      "note_on channel=0 note=53 velocity=77 time=0\n",
      "note_on channel=0 note=53 velocity=0 time=75\n",
      "note_on channel=0 note=46 velocity=0 time=0\n",
      "note_on channel=0 note=46 velocity=77 time=0\n",
      "note_on channel=0 note=53 velocity=77 time=0\n",
      "note_on channel=0 note=53 velocity=0 time=39\n",
      "note_on channel=0 note=46 velocity=0 time=0\n",
      "note_on channel=0 note=46 velocity=79 time=6\n",
      "note_on channel=0 note=55 velocity=79 time=0\n",
      "note_on channel=0 note=55 velocity=0 time=75\n",
      "note_on channel=0 note=46 velocity=0 time=0\n",
      "note_on channel=0 note=46 velocity=80 time=0\n",
      "note_on channel=0 note=55 velocity=80 time=0\n",
      "note_on channel=0 note=55 velocity=0 time=39\n",
      "note_on channel=0 note=46 velocity=0 time=0\n",
      "note_on channel=0 note=46 velocity=80 time=6\n",
      "note_on channel=0 note=56 velocity=80 time=0\n",
      "note_on channel=0 note=56 velocity=0 time=75\n",
      "note_on channel=0 note=46 velocity=0 time=0\n",
      "note_on channel=0 note=46 velocity=79 time=0\n",
      "note_on channel=0 note=56 velocity=79 time=0\n",
      "note_on channel=0 note=56 velocity=0 time=39\n",
      "note_on channel=0 note=46 velocity=0 time=0\n",
      "note_on channel=0 note=46 velocity=79 time=6\n",
      "note_on channel=0 note=55 velocity=79 time=0\n",
      "note_on channel=0 note=55 velocity=0 time=75\n",
      "note_on channel=0 note=46 velocity=0 time=0\n",
      "note_on channel=0 note=44 velocity=82 time=5\n",
      "note_on channel=0 note=44 velocity=0 time=39\n",
      "note_on channel=0 note=41 velocity=82 time=1\n",
      "note_on channel=0 note=48 velocity=82 time=0\n",
      "note_on channel=0 note=48 velocity=0 time=75\n",
      "note_on channel=0 note=41 velocity=0 time=0\n",
      "note_on channel=0 note=41 velocity=82 time=0\n",
      "note_on channel=0 note=48 velocity=82 time=0\n",
      "note_on channel=0 note=48 velocity=0 time=29\n",
      "note_on channel=0 note=41 velocity=0 time=0\n",
      "note_on channel=0 note=41 velocity=83 time=16\n",
      "note_on channel=0 note=50 velocity=83 time=0\n",
      "note_on channel=0 note=50 velocity=0 time=75\n",
      "note_on channel=0 note=41 velocity=0 time=0\n",
      "note_on channel=0 note=41 velocity=83 time=0\n",
      "note_on channel=0 note=50 velocity=83 time=0\n",
      "note_on channel=0 note=50 velocity=0 time=29\n"
     ]
    },
    {
     "name": "stdout",
     "output_type": "stream",
     "text": [
      "note_on channel=0 note=41 velocity=0 time=0\n",
      "note_on channel=0 note=48 velocity=83 time=16\n",
      "note_on channel=0 note=41 velocity=83 time=0\n",
      "note_on channel=0 note=41 velocity=0 time=75\n",
      "note_on channel=0 note=48 velocity=0 time=0\n",
      "note_on channel=0 note=41 velocity=83 time=0\n",
      "note_on channel=0 note=48 velocity=83 time=0\n",
      "note_on channel=0 note=48 velocity=0 time=29\n",
      "note_on channel=0 note=41 velocity=0 time=0\n",
      "note_on channel=0 note=44 velocity=83 time=16\n",
      "note_on channel=0 note=41 velocity=83 time=0\n",
      "note_on channel=0 note=41 velocity=0 time=75\n",
      "note_on channel=0 note=44 velocity=0 time=0\n",
      "note_on channel=0 note=41 velocity=83 time=0\n",
      "note_on channel=0 note=45 velocity=83 time=0\n",
      "note_on channel=0 note=45 velocity=0 time=29\n",
      "note_on channel=0 note=41 velocity=0 time=0\n",
      "note_on channel=0 note=48 velocity=83 time=16\n",
      "note_on channel=0 note=41 velocity=83 time=0\n",
      "note_on channel=0 note=41 velocity=0 time=75\n",
      "note_on channel=0 note=48 velocity=0 time=0\n",
      "note_on channel=0 note=41 velocity=83 time=0\n",
      "note_on channel=0 note=48 velocity=83 time=0\n",
      "note_on channel=0 note=48 velocity=0 time=39\n",
      "note_on channel=0 note=41 velocity=0 time=0\n",
      "note_on channel=0 note=41 velocity=82 time=6\n",
      "note_on channel=0 note=50 velocity=82 time=0\n",
      "note_on channel=0 note=50 velocity=0 time=75\n",
      "note_on channel=0 note=41 velocity=0 time=0\n",
      "note_on channel=0 note=41 velocity=84 time=0\n",
      "note_on channel=0 note=50 velocity=84 time=0\n",
      "note_on channel=0 note=50 velocity=0 time=39\n",
      "note_on channel=0 note=41 velocity=0 time=0\n",
      "note_on channel=0 note=41 velocity=83 time=6\n",
      "note_on channel=0 note=51 velocity=83 time=0\n",
      "note_on channel=0 note=51 velocity=0 time=75\n",
      "note_on channel=0 note=41 velocity=0 time=0\n",
      "note_on channel=0 note=41 velocity=80 time=0\n",
      "note_on channel=0 note=51 velocity=80 time=0\n",
      "note_on channel=0 note=51 velocity=0 time=39\n",
      "note_on channel=0 note=41 velocity=0 time=0\n",
      "note_on channel=0 note=41 velocity=80 time=6\n",
      "note_on channel=0 note=48 velocity=80 time=0\n",
      "note_on channel=0 note=48 velocity=0 time=75\n",
      "note_on channel=0 note=41 velocity=0 time=0\n",
      "note_on channel=0 note=41 velocity=82 time=0\n",
      "note_on channel=0 note=49 velocity=82 time=0\n",
      "note_on channel=0 note=49 velocity=0 time=39\n",
      "note_on channel=0 note=41 velocity=0 time=0\n",
      "note_on channel=0 note=48 velocity=83 time=6\n",
      "note_on channel=0 note=55 velocity=83 time=0\n",
      "note_on channel=0 note=55 velocity=0 time=75\n",
      "note_on channel=0 note=48 velocity=0 time=0\n",
      "note_on channel=0 note=48 velocity=76 time=0\n",
      "note_on channel=0 note=55 velocity=63 time=0\n",
      "note_on channel=0 note=55 velocity=0 time=39\n",
      "note_on channel=0 note=48 velocity=0 time=0\n",
      "note_on channel=0 note=48 velocity=62 time=6\n",
      "note_on channel=0 note=57 velocity=64 time=0\n",
      "note_on channel=0 note=57 velocity=0 time=75\n",
      "note_on channel=0 note=48 velocity=0 time=0\n",
      "note_on channel=0 note=48 velocity=70 time=0\n",
      "note_on channel=0 note=57 velocity=68 time=0\n",
      "note_on channel=0 note=57 velocity=0 time=39\n",
      "note_on channel=0 note=48 velocity=0 time=0\n",
      "note_on channel=0 note=48 velocity=70 time=6\n",
      "note_on channel=0 note=55 velocity=74 time=0\n",
      "note_on channel=0 note=55 velocity=0 time=75\n",
      "note_on channel=0 note=48 velocity=0 time=0\n",
      "note_on channel=0 note=48 velocity=68 time=0\n",
      "note_on channel=0 note=55 velocity=78 time=0\n",
      "note_on channel=0 note=55 velocity=0 time=39\n",
      "note_on channel=0 note=48 velocity=0 time=0\n",
      "note_on channel=0 note=48 velocity=57 time=6\n",
      "note_on channel=0 note=52 velocity=71 time=0\n",
      "note_on channel=0 note=52 velocity=0 time=75\n",
      "note_on channel=0 note=48 velocity=0 time=0\n",
      "note_on channel=0 note=45 velocity=84 time=0\n",
      "note_on channel=0 note=49 velocity=65 time=0\n",
      "note_on channel=0 note=49 velocity=0 time=39\n",
      "note_on channel=0 note=45 velocity=0 time=0\n",
      "note_on channel=0 note=46 velocity=54 time=6\n",
      "note_on channel=0 note=53 velocity=81 time=0\n",
      "note_on channel=0 note=53 velocity=0 time=75\n",
      "note_on channel=0 note=46 velocity=0 time=0\n",
      "note_on channel=0 note=53 velocity=81 time=0\n",
      "note_on channel=0 note=46 velocity=46 time=0\n",
      "note_on channel=0 note=46 velocity=0 time=39\n",
      "note_on channel=0 note=53 velocity=0 time=0\n",
      "note_on channel=0 note=46 velocity=67 time=6\n",
      "note_on channel=0 note=55 velocity=81 time=0\n",
      "note_on channel=0 note=55 velocity=0 time=75\n",
      "note_on channel=0 note=46 velocity=0 time=0\n",
      "note_on channel=0 note=46 velocity=47 time=0\n",
      "note_on channel=0 note=55 velocity=78 time=0\n",
      "note_on channel=0 note=55 velocity=0 time=39\n",
      "note_on channel=0 note=46 velocity=0 time=0\n",
      "note_on channel=0 note=46 velocity=52 time=6\n",
      "note_on channel=0 note=53 velocity=81 time=0\n",
      "note_on channel=0 note=53 velocity=0 time=75\n",
      "note_on channel=0 note=46 velocity=0 time=0\n",
      "note_on channel=0 note=46 velocity=55 time=0\n",
      "note_on channel=0 note=53 velocity=77 time=0\n",
      "note_on channel=0 note=53 velocity=0 time=39\n",
      "note_on channel=0 note=46 velocity=0 time=0\n",
      "note_on channel=0 note=46 velocity=60 time=6\n",
      "note_on channel=0 note=50 velocity=84 time=0\n",
      "note_on channel=0 note=50 velocity=0 time=75\n",
      "note_on channel=0 note=46 velocity=0 time=0\n",
      "note_on channel=0 note=46 velocity=46 time=0\n",
      "note_on channel=0 note=50 velocity=76 time=0\n",
      "note_on channel=0 note=50 velocity=0 time=39\n",
      "note_on channel=0 note=46 velocity=0 time=0\n",
      "note_on channel=0 note=41 velocity=72 time=6\n",
      "note_on channel=0 note=48 velocity=72 time=0\n",
      "note_on channel=0 note=48 velocity=0 time=75\n",
      "note_on channel=0 note=41 velocity=0 time=0\n",
      "note_on channel=0 note=41 velocity=72 time=0\n",
      "note_on channel=0 note=48 velocity=52 time=0\n",
      "note_on channel=0 note=48 velocity=0 time=29\n",
      "note_on channel=0 note=41 velocity=0 time=0\n",
      "note_on channel=0 note=41 velocity=81 time=16\n",
      "note_on channel=0 note=50 velocity=77 time=0\n",
      "note_on channel=0 note=50 velocity=0 time=75\n",
      "note_on channel=0 note=41 velocity=0 time=0\n",
      "note_on channel=0 note=41 velocity=77 time=0\n",
      "note_on channel=0 note=50 velocity=66 time=0\n",
      "note_on channel=0 note=50 velocity=0 time=29\n",
      "note_on channel=0 note=41 velocity=0 time=0\n",
      "note_on channel=0 note=48 velocity=68 time=16\n",
      "note_on channel=0 note=41 velocity=76 time=0\n",
      "note_on channel=0 note=48 velocity=0 time=75\n",
      "note_on channel=0 note=41 velocity=76 time=5\n",
      "note_on channel=0 note=48 velocity=77 time=0\n",
      "note_on channel=0 note=41 velocity=0 time=9\n",
      "note_on channel=0 note=48 velocity=0 time=20\n",
      "note_on channel=0 note=41 velocity=0 time=0\n",
      "note_on channel=0 note=41 velocity=72 time=11\n",
      "note_on channel=0 note=44 velocity=49 time=0\n",
      "note_on channel=0 note=41 velocity=0 time=75\n",
      "note_on channel=0 note=41 velocity=69 time=0\n",
      "note_on channel=0 note=45 velocity=73 time=0\n",
      "note_on channel=0 note=44 velocity=0 time=14\n",
      "note_on channel=0 note=45 velocity=0 time=15\n",
      "note_on channel=0 note=41 velocity=0 time=0\n",
      "note_on channel=0 note=41 velocity=66 time=16\n",
      "note_on channel=0 note=48 velocity=69 time=0\n",
      "note_on channel=0 note=48 velocity=0 time=75\n",
      "note_on channel=0 note=41 velocity=0 time=0\n",
      "note_on channel=0 note=41 velocity=74 time=0\n",
      "note_on channel=0 note=48 velocity=68 time=0\n",
      "note_on channel=0 note=48 velocity=0 time=29\n",
      "note_on channel=0 note=41 velocity=0 time=0\n",
      "note_on channel=0 note=41 velocity=72 time=16\n",
      "note_on channel=0 note=50 velocity=70 time=0\n",
      "note_on channel=0 note=50 velocity=0 time=75\n",
      "note_on channel=0 note=41 velocity=0 time=0\n",
      "note_on channel=0 note=41 velocity=69 time=0\n",
      "note_on channel=0 note=50 velocity=78 time=0\n",
      "note_on channel=0 note=50 velocity=0 time=29\n",
      "note_on channel=0 note=41 velocity=0 time=0\n",
      "note_on channel=0 note=48 velocity=78 time=16\n",
      "note_on channel=0 note=41 velocity=72 time=0\n",
      "note_on channel=0 note=41 velocity=0 time=75\n",
      "note_on channel=0 note=48 velocity=0 time=0\n",
      "note_on channel=0 note=41 velocity=73 time=0\n",
      "note_on channel=0 note=48 velocity=67 time=0\n",
      "note_on channel=0 note=48 velocity=0 time=29\n",
      "note_on channel=0 note=41 velocity=0 time=0\n",
      "note_on channel=0 note=44 velocity=57 time=16\n",
      "note_on channel=0 note=41 velocity=82 time=0\n",
      "note_on channel=0 note=41 velocity=0 time=75\n",
      "note_on channel=0 note=44 velocity=0 time=0\n",
      "note_on channel=0 note=41 velocity=82 time=0\n",
      "note_on channel=0 note=45 velocity=68 time=0\n",
      "note_on channel=0 note=45 velocity=0 time=29\n",
      "note_on channel=0 note=41 velocity=0 time=0\n",
      "note_on channel=0 note=41 velocity=66 time=16\n",
      "note_on channel=0 note=48 velocity=69 time=0\n",
      "note_on channel=0 note=48 velocity=0 time=75\n",
      "note_on channel=0 note=41 velocity=0 time=0\n",
      "note_on channel=0 note=41 velocity=74 time=0\n",
      "note_on channel=0 note=48 velocity=68 time=0\n",
      "note_on channel=0 note=48 velocity=0 time=29\n",
      "note_on channel=0 note=41 velocity=0 time=0\n",
      "note_on channel=0 note=41 velocity=72 time=16\n",
      "note_on channel=0 note=50 velocity=70 time=0\n",
      "note_on channel=0 note=50 velocity=0 time=75\n",
      "note_on channel=0 note=41 velocity=0 time=0\n",
      "note_on channel=0 note=41 velocity=69 time=0\n",
      "note_on channel=0 note=50 velocity=78 time=0\n",
      "note_on channel=0 note=50 velocity=0 time=29\n",
      "note_on channel=0 note=41 velocity=0 time=0\n",
      "note_on channel=0 note=48 velocity=78 time=16\n",
      "note_on channel=0 note=41 velocity=72 time=0\n",
      "note_on channel=0 note=41 velocity=0 time=75\n",
      "note_on channel=0 note=48 velocity=0 time=0\n",
      "note_on channel=0 note=41 velocity=73 time=0\n",
      "note_on channel=0 note=48 velocity=67 time=0\n",
      "note_on channel=0 note=48 velocity=0 time=29\n",
      "note_on channel=0 note=41 velocity=0 time=0\n",
      "note_on channel=0 note=44 velocity=57 time=16\n",
      "note_on channel=0 note=41 velocity=82 time=0\n",
      "note_on channel=0 note=41 velocity=0 time=75\n",
      "note_on channel=0 note=44 velocity=0 time=0\n",
      "note_on channel=0 note=41 velocity=82 time=0\n",
      "note_on channel=0 note=45 velocity=68 time=0\n",
      "note_on channel=0 note=45 velocity=0 time=29\n",
      "note_on channel=0 note=41 velocity=0 time=0\n",
      "note_on channel=0 note=41 velocity=66 time=16\n",
      "note_on channel=0 note=48 velocity=69 time=0\n",
      "note_on channel=0 note=48 velocity=0 time=75\n",
      "note_on channel=0 note=41 velocity=0 time=0\n",
      "note_on channel=0 note=41 velocity=74 time=0\n",
      "note_on channel=0 note=48 velocity=68 time=0\n",
      "note_on channel=0 note=48 velocity=0 time=29\n",
      "note_on channel=0 note=41 velocity=0 time=0\n",
      "note_on channel=0 note=41 velocity=72 time=16\n",
      "note_on channel=0 note=50 velocity=70 time=0\n",
      "note_on channel=0 note=50 velocity=0 time=75\n",
      "note_on channel=0 note=41 velocity=0 time=0\n",
      "note_on channel=0 note=41 velocity=69 time=0\n",
      "note_on channel=0 note=50 velocity=78 time=0\n",
      "note_on channel=0 note=50 velocity=0 time=29\n",
      "note_on channel=0 note=41 velocity=0 time=0\n",
      "note_on channel=0 note=48 velocity=78 time=16\n",
      "note_on channel=0 note=41 velocity=72 time=0\n",
      "note_on channel=0 note=41 velocity=0 time=75\n",
      "note_on channel=0 note=48 velocity=0 time=0\n",
      "note_on channel=0 note=41 velocity=73 time=0\n",
      "note_on channel=0 note=48 velocity=67 time=0\n",
      "note_on channel=0 note=48 velocity=0 time=29\n",
      "note_on channel=0 note=41 velocity=0 time=0\n",
      "note_on channel=0 note=44 velocity=57 time=16\n",
      "note_on channel=0 note=41 velocity=82 time=0\n",
      "note_on channel=0 note=41 velocity=0 time=75\n",
      "note_on channel=0 note=44 velocity=0 time=0\n",
      "note_on channel=0 note=41 velocity=82 time=0\n",
      "note_on channel=0 note=45 velocity=68 time=0\n",
      "note_on channel=0 note=45 velocity=0 time=29\n",
      "note_on channel=0 note=41 velocity=0 time=0\n",
      "note_on channel=0 note=41 velocity=66 time=16\n",
      "note_on channel=0 note=48 velocity=69 time=0\n",
      "note_on channel=0 note=48 velocity=0 time=75\n",
      "note_on channel=0 note=41 velocity=0 time=0\n",
      "note_on channel=0 note=41 velocity=74 time=0\n",
      "note_on channel=0 note=48 velocity=68 time=0\n",
      "note_on channel=0 note=48 velocity=0 time=29\n",
      "note_on channel=0 note=41 velocity=0 time=0\n",
      "note_on channel=0 note=41 velocity=72 time=16\n",
      "note_on channel=0 note=50 velocity=70 time=0\n",
      "note_on channel=0 note=50 velocity=0 time=75\n",
      "note_on channel=0 note=41 velocity=0 time=0\n",
      "note_on channel=0 note=41 velocity=69 time=0\n",
      "note_on channel=0 note=50 velocity=78 time=0\n",
      "note_on channel=0 note=50 velocity=0 time=29\n",
      "note_on channel=0 note=41 velocity=0 time=0\n",
      "note_on channel=0 note=48 velocity=78 time=16\n",
      "note_on channel=0 note=41 velocity=72 time=0\n",
      "note_on channel=0 note=41 velocity=0 time=75\n",
      "note_on channel=0 note=48 velocity=0 time=0\n",
      "note_on channel=0 note=41 velocity=73 time=0\n",
      "note_on channel=0 note=48 velocity=67 time=0\n",
      "note_on channel=0 note=48 velocity=0 time=29\n",
      "note_on channel=0 note=41 velocity=0 time=0\n",
      "note_on channel=0 note=44 velocity=57 time=16\n",
      "note_on channel=0 note=41 velocity=82 time=0\n",
      "note_on channel=0 note=41 velocity=0 time=75\n",
      "note_on channel=0 note=44 velocity=0 time=0\n",
      "note_on channel=0 note=41 velocity=82 time=0\n",
      "note_on channel=0 note=45 velocity=68 time=0\n",
      "note_on channel=0 note=45 velocity=0 time=29\n",
      "note_on channel=0 note=41 velocity=0 time=0\n",
      "note_on channel=0 note=41 velocity=81 time=16\n",
      "note_on channel=0 note=48 velocity=81 time=0\n",
      "note_on channel=0 note=48 velocity=0 time=75\n",
      "note_on channel=0 note=41 velocity=0 time=0\n",
      "note_on channel=0 note=41 velocity=78 time=0\n",
      "note_on channel=0 note=48 velocity=78 time=0\n",
      "note_on channel=0 note=48 velocity=0 time=39\n",
      "note_on channel=0 note=41 velocity=0 time=0\n",
      "note_on channel=0 note=41 velocity=78 time=6\n",
      "note_on channel=0 note=50 velocity=78 time=0\n",
      "note_on channel=0 note=50 velocity=0 time=75\n",
      "note_on channel=0 note=41 velocity=0 time=0\n",
      "note_on channel=0 note=41 velocity=77 time=0\n",
      "note_on channel=0 note=50 velocity=77 time=0\n",
      "note_on channel=0 note=50 velocity=0 time=39\n",
      "note_on channel=0 note=41 velocity=0 time=0\n",
      "note_on channel=0 note=41 velocity=77 time=6\n",
      "note_on channel=0 note=48 velocity=77 time=0\n",
      "note_on channel=0 note=48 velocity=0 time=75\n",
      "note_on channel=0 note=41 velocity=0 time=0\n",
      "note_on channel=0 note=41 velocity=80 time=0\n",
      "note_on channel=0 note=48 velocity=80 time=0\n",
      "note_on channel=0 note=48 velocity=0 time=39\n",
      "note_on channel=0 note=41 velocity=0 time=0\n",
      "note_on channel=0 note=41 velocity=79 time=6\n",
      "note_on channel=0 note=49 velocity=79 time=0\n",
      "note_on channel=0 note=49 velocity=0 time=75\n",
      "note_on channel=0 note=41 velocity=0 time=0\n",
      "note_on channel=0 note=41 velocity=79 time=0\n",
      "note_on channel=0 note=50 velocity=79 time=0\n",
      "note_on channel=0 note=50 velocity=0 time=39\n",
      "note_on channel=0 note=41 velocity=0 time=0\n",
      "note_on channel=0 note=46 velocity=79 time=6\n",
      "note_on channel=0 note=53 velocity=79 time=0\n",
      "note_on channel=0 note=53 velocity=0 time=75\n",
      "note_on channel=0 note=46 velocity=0 time=0\n",
      "note_on channel=0 note=46 velocity=77 time=0\n",
      "note_on channel=0 note=53 velocity=77 time=0\n",
      "note_on channel=0 note=53 velocity=0 time=39\n",
      "note_on channel=0 note=46 velocity=0 time=0\n",
      "note_on channel=0 note=55 velocity=77 time=6\n",
      "note_on channel=0 note=46 velocity=77 time=0\n",
      "note_on channel=0 note=46 velocity=0 time=75\n",
      "note_on channel=0 note=55 velocity=0 time=0\n",
      "note_on channel=0 note=46 velocity=77 time=0\n",
      "note_on channel=0 note=55 velocity=77 time=0\n",
      "note_on channel=0 note=55 velocity=0 time=39\n",
      "note_on channel=0 note=46 velocity=0 time=0\n",
      "note_on channel=0 note=46 velocity=77 time=6\n",
      "note_on channel=0 note=53 velocity=77 time=0\n",
      "note_on channel=0 note=53 velocity=0 time=75\n",
      "note_on channel=0 note=46 velocity=0 time=0\n",
      "note_on channel=0 note=46 velocity=77 time=0\n",
      "note_on channel=0 note=53 velocity=77 time=0\n",
      "note_on channel=0 note=53 velocity=0 time=39\n",
      "note_on channel=0 note=46 velocity=0 time=0\n",
      "note_on channel=0 note=46 velocity=77 time=6\n",
      "note_on channel=0 note=49 velocity=77 time=0\n",
      "note_on channel=0 note=49 velocity=0 time=75\n",
      "note_on channel=0 note=46 velocity=0 time=0\n",
      "note_on channel=0 note=46 velocity=77 time=0\n",
      "note_on channel=0 note=50 velocity=77 time=0\n",
      "note_on channel=0 note=50 velocity=0 time=39\n",
      "note_on channel=0 note=46 velocity=0 time=0\n",
      "note_on channel=0 note=53 velocity=77 time=6\n",
      "note_on channel=0 note=46 velocity=77 time=0\n",
      "note_on channel=0 note=46 velocity=0 time=75\n",
      "note_on channel=0 note=53 velocity=0 time=0\n",
      "note_on channel=0 note=53 velocity=80 time=0\n",
      "note_on channel=0 note=46 velocity=80 time=0\n",
      "note_on channel=0 note=46 velocity=0 time=29\n",
      "note_on channel=0 note=53 velocity=0 time=0\n",
      "note_on channel=0 note=55 velocity=80 time=16\n",
      "note_on channel=0 note=46 velocity=80 time=0\n",
      "note_on channel=0 note=46 velocity=0 time=75\n",
      "note_on channel=0 note=55 velocity=0 time=0\n",
      "note_on channel=0 note=46 velocity=60 time=0\n",
      "note_on channel=0 note=55 velocity=80 time=0\n",
      "note_on channel=0 note=55 velocity=0 time=29\n",
      "note_on channel=0 note=46 velocity=0 time=0\n",
      "note_on channel=0 note=53 velocity=76 time=16\n",
      "note_on channel=0 note=46 velocity=62 time=0\n",
      "note_on channel=0 note=46 velocity=0 time=75\n",
      "note_on channel=0 note=53 velocity=0 time=0\n",
      "note_on channel=0 note=46 velocity=59 time=0\n",
      "note_on channel=0 note=53 velocity=81 time=0\n",
      "note_on channel=0 note=53 velocity=0 time=29\n",
      "note_on channel=0 note=46 velocity=0 time=0\n",
      "note_on channel=0 note=44 velocity=54 time=16\n",
      "note_on channel=0 note=41 velocity=74 time=0\n",
      "note_on channel=0 note=41 velocity=0 time=75\n",
      "note_on channel=0 note=44 velocity=0 time=0\n",
      "note_on channel=0 note=45 velocity=91 time=0\n",
      "note_on channel=0 note=41 velocity=91 time=0\n",
      "note_on channel=0 note=41 velocity=0 time=29\n",
      "note_on channel=0 note=45 velocity=0 time=0\n",
      "note_on channel=0 note=41 velocity=90 time=16\n",
      "note_on channel=0 note=48 velocity=90 time=0\n",
      "note_on channel=0 note=48 velocity=0 time=75\n",
      "note_on channel=0 note=41 velocity=0 time=0\n",
      "note_on channel=0 note=41 velocity=84 time=0\n",
      "note_on channel=0 note=48 velocity=84 time=0\n",
      "note_on channel=0 note=48 velocity=0 time=39\n",
      "note_on channel=0 note=41 velocity=0 time=0\n",
      "note_on channel=0 note=41 velocity=82 time=6\n",
      "note_on channel=0 note=50 velocity=82 time=0\n",
      "note_on channel=0 note=50 velocity=0 time=75\n",
      "note_on channel=0 note=41 velocity=0 time=0\n",
      "note_on channel=0 note=41 velocity=82 time=0\n",
      "note_on channel=0 note=50 velocity=82 time=0\n",
      "note_on channel=0 note=50 velocity=0 time=39\n",
      "note_on channel=0 note=41 velocity=0 time=0\n",
      "note_on channel=0 note=41 velocity=83 time=6\n",
      "note_on channel=0 note=48 velocity=83 time=0\n",
      "note_on channel=0 note=48 velocity=0 time=75\n",
      "note_on channel=0 note=41 velocity=0 time=0\n",
      "note_on channel=0 note=41 velocity=84 time=0\n",
      "note_on channel=0 note=48 velocity=84 time=0\n",
      "note_on channel=0 note=48 velocity=0 time=39\n",
      "note_on channel=0 note=41 velocity=0 time=0\n",
      "note_on channel=0 note=41 velocity=85 time=6\n",
      "note_on channel=0 note=49 velocity=85 time=0\n",
      "note_on channel=0 note=49 velocity=0 time=75\n",
      "note_on channel=0 note=41 velocity=0 time=0\n",
      "note_on channel=0 note=41 velocity=85 time=0\n",
      "note_on channel=0 note=50 velocity=85 time=0\n",
      "note_on channel=0 note=50 velocity=0 time=39\n",
      "note_on channel=0 note=41 velocity=0 time=0\n",
      "note_on channel=0 note=48 velocity=82 time=6\n",
      "note_on channel=0 note=41 velocity=82 time=0\n",
      "note_on channel=0 note=41 velocity=0 time=75\n",
      "note_on channel=0 note=48 velocity=0 time=0\n",
      "note_on channel=0 note=41 velocity=84 time=0\n",
      "note_on channel=0 note=48 velocity=84 time=0\n",
      "note_on channel=0 note=48 velocity=0 time=39\n",
      "note_on channel=0 note=41 velocity=0 time=0\n",
      "note_on channel=0 note=41 velocity=80 time=6\n",
      "note_on channel=0 note=50 velocity=80 time=0\n",
      "note_on channel=0 note=50 velocity=0 time=75\n",
      "note_on channel=0 note=41 velocity=0 time=0\n",
      "note_on channel=0 note=50 velocity=80 time=0\n",
      "note_on channel=0 note=41 velocity=80 time=0\n",
      "note_on channel=0 note=41 velocity=0 time=39\n",
      "note_on channel=0 note=50 velocity=0 time=0\n",
      "note_on channel=0 note=41 velocity=80 time=6\n",
      "note_on channel=0 note=48 velocity=80 time=0\n",
      "note_on channel=0 note=48 velocity=0 time=75\n",
      "note_on channel=0 note=41 velocity=0 time=0\n",
      "note_on channel=0 note=41 velocity=80 time=0\n",
      "note_on channel=0 note=48 velocity=80 time=0\n",
      "note_on channel=0 note=48 velocity=0 time=39\n",
      "note_on channel=0 note=41 velocity=0 time=0\n",
      "note_on channel=0 note=45 velocity=80 time=6\n",
      "note_on channel=0 note=51 velocity=80 time=0\n",
      "note_on channel=0 note=51 velocity=0 time=75\n",
      "note_on channel=0 note=45 velocity=0 time=0\n",
      "note_on channel=0 note=52 velocity=78 time=0\n",
      "note_on channel=0 note=52 velocity=0 time=39\n",
      "note_on channel=0 note=55 velocity=78 time=6\n",
      "note_on channel=0 note=48 velocity=78 time=0\n",
      "note_on channel=0 note=48 velocity=0 time=75\n",
      "note_on channel=0 note=55 velocity=0 time=0\n",
      "note_on channel=0 note=48 velocity=78 time=0\n",
      "note_on channel=0 note=55 velocity=78 time=0\n",
      "note_on channel=0 note=55 velocity=0 time=39\n",
      "note_on channel=0 note=48 velocity=0 time=0\n",
      "note_on channel=0 note=57 velocity=78 time=6\n",
      "note_on channel=0 note=48 velocity=78 time=0\n",
      "note_on channel=0 note=48 velocity=0 time=75\n",
      "note_on channel=0 note=57 velocity=0 time=0\n",
      "note_on channel=0 note=48 velocity=79 time=0\n",
      "note_on channel=0 note=57 velocity=79 time=0\n",
      "note_on channel=0 note=57 velocity=0 time=39\n",
      "note_on channel=0 note=48 velocity=0 time=0\n",
      "note_on channel=0 note=48 velocity=82 time=6\n",
      "note_on channel=0 note=55 velocity=82 time=0\n",
      "note_on channel=0 note=55 velocity=0 time=75\n",
      "note_on channel=0 note=48 velocity=0 time=0\n",
      "note_on channel=0 note=48 velocity=85 time=0\n",
      "note_on channel=0 note=55 velocity=85 time=0\n",
      "note_on channel=0 note=55 velocity=0 time=39\n",
      "note_on channel=0 note=48 velocity=0 time=0\n",
      "note_on channel=0 note=49 velocity=84 time=6\n",
      "note_on channel=0 note=45 velocity=84 time=0\n",
      "note_on channel=0 note=45 velocity=0 time=75\n",
      "note_on channel=0 note=49 velocity=0 time=0\n",
      "note_on channel=0 note=45 velocity=95 time=0\n",
      "note_on channel=0 note=50 velocity=95 time=0\n",
      "note_on channel=0 note=50 velocity=0 time=39\n",
      "note_on channel=0 note=45 velocity=0 time=0\n",
      "note_on channel=0 note=53 velocity=92 time=6\n",
      "note_on channel=0 note=46 velocity=92 time=0\n",
      "note_on channel=0 note=46 velocity=0 time=75\n",
      "note_on channel=0 note=53 velocity=0 time=0\n",
      "note_on channel=0 note=53 velocity=85 time=0\n",
      "note_on channel=0 note=46 velocity=56 time=0\n",
      "note_on channel=0 note=46 velocity=0 time=29\n",
      "note_on channel=0 note=53 velocity=0 time=0\n",
      "note_on channel=0 note=55 velocity=80 time=16\n",
      "note_on channel=0 note=46 velocity=65 time=0\n",
      "note_on channel=0 note=46 velocity=0 time=75\n",
      "note_on channel=0 note=55 velocity=0 time=0\n",
      "note_on channel=0 note=46 velocity=60 time=0\n",
      "note_on channel=0 note=55 velocity=80 time=0\n",
      "note_on channel=0 note=55 velocity=0 time=29\n",
      "note_on channel=0 note=46 velocity=0 time=0\n",
      "note_on channel=0 note=53 velocity=76 time=16\n",
      "note_on channel=0 note=46 velocity=62 time=0\n",
      "note_on channel=0 note=46 velocity=0 time=75\n",
      "note_on channel=0 note=53 velocity=0 time=0\n",
      "note_on channel=0 note=46 velocity=59 time=0\n",
      "note_on channel=0 note=53 velocity=81 time=0\n",
      "note_on channel=0 note=53 velocity=0 time=29\n",
      "note_on channel=0 note=46 velocity=0 time=0\n",
      "note_on channel=0 note=41 velocity=74 time=16\n",
      "note_on channel=0 note=44 velocity=54 time=0\n",
      "note_on channel=0 note=44 velocity=0 time=75\n",
      "note_on channel=0 note=41 velocity=0 time=0\n",
      "note_on channel=0 note=45 velocity=45 time=0\n",
      "note_on channel=0 note=41 velocity=73 time=0\n",
      "note_on channel=0 note=41 velocity=0 time=29\n",
      "note_on channel=0 note=45 velocity=0 time=0\n",
      "note_on channel=0 note=41 velocity=72 time=16\n",
      "note_on channel=0 note=48 velocity=72 time=0\n",
      "note_on channel=0 note=48 velocity=0 time=75\n",
      "note_on channel=0 note=41 velocity=0 time=0\n",
      "note_on channel=0 note=41 velocity=72 time=0\n",
      "note_on channel=0 note=48 velocity=52 time=0\n",
      "note_on channel=0 note=48 velocity=0 time=29\n",
      "note_on channel=0 note=41 velocity=0 time=0\n",
      "note_on channel=0 note=41 velocity=81 time=16\n",
      "note_on channel=0 note=50 velocity=77 time=0\n",
      "note_on channel=0 note=50 velocity=0 time=75\n",
      "note_on channel=0 note=41 velocity=0 time=0\n",
      "note_on channel=0 note=41 velocity=77 time=0\n",
      "note_on channel=0 note=50 velocity=66 time=0\n",
      "note_on channel=0 note=50 velocity=0 time=29\n",
      "note_on channel=0 note=41 velocity=0 time=0\n",
      "note_on channel=0 note=48 velocity=68 time=16\n",
      "note_on channel=0 note=41 velocity=76 time=0\n",
      "note_on channel=0 note=48 velocity=0 time=75\n",
      "note_on channel=0 note=41 velocity=76 time=5\n",
      "note_on channel=0 note=48 velocity=77 time=0\n",
      "note_on channel=0 note=41 velocity=0 time=9\n",
      "note_on channel=0 note=48 velocity=0 time=20\n",
      "note_on channel=0 note=41 velocity=0 time=0\n",
      "note_on channel=0 note=41 velocity=72 time=11\n",
      "note_on channel=0 note=44 velocity=49 time=0\n",
      "note_on channel=0 note=41 velocity=0 time=75\n",
      "note_on channel=0 note=41 velocity=69 time=0\n",
      "note_on channel=0 note=45 velocity=73 time=0\n",
      "note_on channel=0 note=44 velocity=0 time=14\n",
      "note_on channel=0 note=45 velocity=0 time=15\n",
      "note_on channel=0 note=41 velocity=0 time=0\n",
      "note_on channel=0 note=41 velocity=66 time=16\n",
      "note_on channel=0 note=48 velocity=69 time=0\n",
      "note_on channel=0 note=48 velocity=0 time=75\n",
      "note_on channel=0 note=41 velocity=0 time=0\n",
      "note_on channel=0 note=41 velocity=74 time=0\n",
      "note_on channel=0 note=48 velocity=68 time=0\n",
      "note_on channel=0 note=48 velocity=0 time=29\n",
      "note_on channel=0 note=41 velocity=0 time=0\n",
      "note_on channel=0 note=41 velocity=72 time=16\n",
      "note_on channel=0 note=50 velocity=70 time=0\n",
      "note_on channel=0 note=50 velocity=0 time=75\n",
      "note_on channel=0 note=41 velocity=0 time=0\n",
      "note_on channel=0 note=41 velocity=69 time=0\n",
      "note_on channel=0 note=50 velocity=78 time=0\n",
      "note_on channel=0 note=50 velocity=0 time=29\n",
      "note_on channel=0 note=41 velocity=0 time=0\n",
      "note_on channel=0 note=48 velocity=78 time=16\n",
      "note_on channel=0 note=41 velocity=72 time=0\n",
      "note_on channel=0 note=41 velocity=0 time=75\n",
      "note_on channel=0 note=48 velocity=0 time=0\n",
      "note_on channel=0 note=41 velocity=73 time=0\n",
      "note_on channel=0 note=48 velocity=67 time=0\n",
      "note_on channel=0 note=48 velocity=0 time=29\n",
      "note_on channel=0 note=41 velocity=0 time=0\n",
      "note_on channel=0 note=44 velocity=57 time=16\n",
      "note_on channel=0 note=41 velocity=82 time=0\n",
      "note_on channel=0 note=41 velocity=0 time=75\n",
      "note_on channel=0 note=44 velocity=0 time=0\n",
      "note_on channel=0 note=41 velocity=82 time=0\n",
      "note_on channel=0 note=45 velocity=68 time=0\n",
      "note_on channel=0 note=45 velocity=0 time=29\n",
      "note_on channel=0 note=41 velocity=0 time=0\n",
      "note_on channel=0 note=41 velocity=16 time=16\n",
      "note_on channel=0 note=41 velocity=0 time=19\n",
      "note_on channel=0 note=48 velocity=18 time=1\n",
      "note_on channel=0 note=48 velocity=0 time=19\n",
      "note_on channel=0 note=41 velocity=21 time=1\n",
      "note_on channel=0 note=41 velocity=0 time=19\n",
      "note_on channel=0 note=48 velocity=24 time=1\n",
      "note_on channel=0 note=48 velocity=0 time=19\n",
      "note_on channel=0 note=41 velocity=27 time=1\n",
      "note_on channel=0 note=41 velocity=0 time=19\n",
      "note_on channel=0 note=48 velocity=29 time=1\n",
      "note_on channel=0 note=48 velocity=0 time=19\n",
      "note_on channel=0 note=41 velocity=32 time=1\n",
      "note_on channel=0 note=41 velocity=0 time=19\n",
      "note_on channel=0 note=48 velocity=35 time=1\n",
      "note_on channel=0 note=48 velocity=0 time=19\n",
      "note_on channel=0 note=41 velocity=38 time=1\n",
      "note_on channel=0 note=41 velocity=0 time=19\n",
      "note_on channel=0 note=48 velocity=40 time=1\n",
      "note_on channel=0 note=48 velocity=0 time=19\n",
      "note_on channel=0 note=41 velocity=43 time=1\n",
      "note_on channel=0 note=41 velocity=0 time=19\n",
      "note_on channel=0 note=48 velocity=46 time=1\n",
      "note_on channel=0 note=48 velocity=0 time=19\n",
      "note_on channel=0 note=41 velocity=49 time=1\n",
      "note_on channel=0 note=41 velocity=0 time=19\n",
      "note_on channel=0 note=48 velocity=51 time=1\n",
      "note_on channel=0 note=48 velocity=0 time=19\n",
      "note_on channel=0 note=41 velocity=54 time=1\n",
      "note_on channel=0 note=41 velocity=0 time=19\n",
      "note_on channel=0 note=48 velocity=57 time=1\n",
      "note_on channel=0 note=48 velocity=0 time=19\n",
      "note_on channel=0 note=41 velocity=60 time=1\n",
      "note_on channel=0 note=41 velocity=0 time=19\n",
      "note_on channel=0 note=48 velocity=62 time=1\n",
      "note_on channel=0 note=48 velocity=0 time=19\n",
      "note_on channel=0 note=41 velocity=65 time=1\n",
      "note_on channel=0 note=41 velocity=0 time=19\n",
      "note_on channel=0 note=48 velocity=68 time=1\n",
      "note_on channel=0 note=48 velocity=0 time=19\n",
      "note_on channel=0 note=41 velocity=71 time=1\n",
      "note_on channel=0 note=41 velocity=0 time=19\n",
      "note_on channel=0 note=48 velocity=73 time=1\n",
      "note_on channel=0 note=48 velocity=0 time=19\n",
      "note_on channel=0 note=41 velocity=76 time=1\n",
      "note_on channel=0 note=41 velocity=0 time=19\n",
      "note_on channel=0 note=48 velocity=79 time=1\n",
      "note_on channel=0 note=48 velocity=0 time=19\n",
      "note_on channel=0 note=41 velocity=74 time=961\n",
      "note_on channel=0 note=51 velocity=61 time=0\n",
      "note_on channel=0 note=51 velocity=0 time=359\n",
      "note_on channel=0 note=41 velocity=0 time=0\n",
      "note_on channel=0 note=46 velocity=81 time=121\n",
      "note_on channel=0 note=53 velocity=81 time=0\n",
      "note_on channel=0 note=53 velocity=0 time=75\n",
      "note_on channel=0 note=46 velocity=0 time=0\n",
      "note_on channel=0 note=46 velocity=83 time=0\n",
      "note_on channel=0 note=53 velocity=83 time=0\n",
      "note_on channel=0 note=53 velocity=0 time=39\n",
      "note_on channel=0 note=46 velocity=0 time=0\n",
      "note_on channel=0 note=55 velocity=83 time=6\n",
      "note_on channel=0 note=46 velocity=83 time=0\n",
      "note_on channel=0 note=46 velocity=0 time=75\n",
      "note_on channel=0 note=55 velocity=0 time=0\n",
      "note_on channel=0 note=46 velocity=84 time=0\n",
      "note_on channel=0 note=55 velocity=84 time=0\n",
      "note_on channel=0 note=55 velocity=0 time=39\n",
      "note_on channel=0 note=46 velocity=0 time=0\n",
      "note_on channel=0 note=46 velocity=84 time=6\n",
      "note_on channel=0 note=53 velocity=84 time=0\n",
      "note_on channel=0 note=53 velocity=0 time=75\n",
      "note_on channel=0 note=46 velocity=0 time=0\n",
      "note_on channel=0 note=46 velocity=84 time=0\n",
      "note_on channel=0 note=53 velocity=84 time=0\n",
      "note_on channel=0 note=53 velocity=0 time=39\n",
      "note_on channel=0 note=46 velocity=0 time=0\n",
      "note_on channel=0 note=46 velocity=84 time=6\n",
      "note_on channel=0 note=49 velocity=84 time=0\n",
      "note_on channel=0 note=49 velocity=0 time=75\n",
      "note_on channel=0 note=46 velocity=0 time=0\n",
      "note_on channel=0 note=46 velocity=84 time=0\n",
      "note_on channel=0 note=50 velocity=84 time=0\n",
      "note_on channel=0 note=50 velocity=0 time=39\n",
      "note_on channel=0 note=46 velocity=0 time=0\n",
      "note_on channel=0 note=46 velocity=84 time=6\n",
      "note_on channel=0 note=53 velocity=84 time=0\n",
      "note_on channel=0 note=53 velocity=0 time=75\n",
      "note_on channel=0 note=46 velocity=0 time=0\n",
      "note_on channel=0 note=46 velocity=84 time=0\n",
      "note_on channel=0 note=53 velocity=84 time=0\n",
      "note_on channel=0 note=53 velocity=0 time=39\n",
      "note_on channel=0 note=46 velocity=0 time=0\n",
      "note_on channel=0 note=46 velocity=84 time=6\n",
      "note_on channel=0 note=55 velocity=84 time=0\n",
      "note_on channel=0 note=55 velocity=0 time=75\n",
      "note_on channel=0 note=46 velocity=0 time=0\n",
      "note_on channel=0 note=46 velocity=84 time=0\n",
      "note_on channel=0 note=55 velocity=84 time=0\n",
      "note_on channel=0 note=55 velocity=0 time=39\n",
      "note_on channel=0 note=46 velocity=0 time=0\n",
      "note_on channel=0 note=46 velocity=83 time=6\n",
      "note_on channel=0 note=56 velocity=83 time=0\n",
      "note_on channel=0 note=56 velocity=0 time=75\n",
      "note_on channel=0 note=46 velocity=0 time=0\n",
      "note_on channel=0 note=46 velocity=82 time=0\n",
      "note_on channel=0 note=56 velocity=82 time=0\n",
      "note_on channel=0 note=56 velocity=0 time=39\n",
      "note_on channel=0 note=46 velocity=0 time=0\n",
      "note_on channel=0 note=46 velocity=84 time=6\n",
      "note_on channel=0 note=55 velocity=84 time=0\n",
      "note_on channel=0 note=55 velocity=0 time=75\n",
      "note_on channel=0 note=46 velocity=0 time=0\n",
      "note_on channel=0 note=44 velocity=80 time=5\n",
      "note_on channel=0 note=44 velocity=0 time=39\n",
      "note_on channel=0 note=41 velocity=79 time=1\n",
      "note_on channel=0 note=48 velocity=79 time=0\n",
      "note_on channel=0 note=48 velocity=0 time=75\n",
      "note_on channel=0 note=41 velocity=0 time=0\n",
      "note_on channel=0 note=41 velocity=91 time=0\n",
      "note_on channel=0 note=48 velocity=91 time=0\n",
      "note_on channel=0 note=48 velocity=0 time=29\n",
      "note_on channel=0 note=41 velocity=0 time=0\n",
      "note_on channel=0 note=41 velocity=93 time=16\n",
      "note_on channel=0 note=50 velocity=93 time=0\n",
      "note_on channel=0 note=50 velocity=0 time=75\n",
      "note_on channel=0 note=41 velocity=0 time=0\n",
      "note_on channel=0 note=41 velocity=69 time=0\n",
      "note_on channel=0 note=50 velocity=78 time=0\n",
      "note_on channel=0 note=50 velocity=0 time=29\n",
      "note_on channel=0 note=41 velocity=0 time=0\n",
      "note_on channel=0 note=48 velocity=78 time=16\n",
      "note_on channel=0 note=41 velocity=72 time=0\n",
      "note_on channel=0 note=41 velocity=0 time=75\n",
      "note_on channel=0 note=48 velocity=0 time=0\n",
      "note_on channel=0 note=41 velocity=73 time=0\n",
      "note_on channel=0 note=48 velocity=67 time=0\n",
      "note_on channel=0 note=48 velocity=0 time=29\n",
      "note_on channel=0 note=41 velocity=0 time=0\n",
      "note_on channel=0 note=44 velocity=57 time=16\n",
      "note_on channel=0 note=41 velocity=82 time=0\n",
      "note_on channel=0 note=41 velocity=0 time=75\n",
      "note_on channel=0 note=44 velocity=0 time=0\n",
      "note_on channel=0 note=41 velocity=88 time=0\n",
      "note_on channel=0 note=45 velocity=88 time=0\n",
      "note_on channel=0 note=45 velocity=0 time=29\n",
      "note_on channel=0 note=41 velocity=0 time=0\n",
      "note_on channel=0 note=48 velocity=90 time=16\n",
      "note_on channel=0 note=41 velocity=90 time=0\n",
      "note_on channel=0 note=41 velocity=0 time=75\n",
      "note_on channel=0 note=48 velocity=0 time=0\n",
      "note_on channel=0 note=41 velocity=92 time=0\n",
      "note_on channel=0 note=48 velocity=92 time=0\n",
      "note_on channel=0 note=48 velocity=0 time=39\n",
      "note_on channel=0 note=41 velocity=0 time=0\n",
      "note_on channel=0 note=41 velocity=91 time=6\n",
      "note_on channel=0 note=50 velocity=91 time=0\n",
      "note_on channel=0 note=50 velocity=0 time=75\n",
      "note_on channel=0 note=41 velocity=0 time=0\n",
      "note_on channel=0 note=41 velocity=88 time=0\n",
      "note_on channel=0 note=50 velocity=88 time=0\n",
      "note_on channel=0 note=50 velocity=0 time=39\n",
      "note_on channel=0 note=41 velocity=0 time=0\n",
      "note_on channel=0 note=41 velocity=82 time=6\n",
      "note_on channel=0 note=51 velocity=82 time=0\n",
      "note_on channel=0 note=51 velocity=0 time=75\n",
      "note_on channel=0 note=41 velocity=0 time=0\n",
      "note_on channel=0 note=41 velocity=82 time=0\n",
      "note_on channel=0 note=51 velocity=82 time=0\n",
      "note_on channel=0 note=51 velocity=0 time=39\n",
      "note_on channel=0 note=41 velocity=0 time=0\n",
      "note_on channel=0 note=41 velocity=81 time=6\n",
      "note_on channel=0 note=48 velocity=81 time=0\n",
      "note_on channel=0 note=48 velocity=0 time=75\n",
      "note_on channel=0 note=41 velocity=0 time=0\n",
      "note_on channel=0 note=41 velocity=81 time=0\n",
      "note_on channel=0 note=49 velocity=81 time=0\n",
      "note_on channel=0 note=49 velocity=0 time=39\n",
      "note_on channel=0 note=41 velocity=0 time=0\n",
      "note_on channel=0 note=48 velocity=78 time=6\n",
      "note_on channel=0 note=55 velocity=78 time=0\n",
      "note_on channel=0 note=55 velocity=0 time=75\n",
      "note_on channel=0 note=48 velocity=0 time=0\n",
      "note_on channel=0 note=48 velocity=76 time=0\n",
      "note_on channel=0 note=55 velocity=63 time=0\n",
      "note_on channel=0 note=55 velocity=0 time=39\n",
      "note_on channel=0 note=48 velocity=0 time=0\n",
      "note_on channel=0 note=48 velocity=62 time=6\n",
      "note_on channel=0 note=57 velocity=64 time=0\n",
      "note_on channel=0 note=57 velocity=0 time=75\n",
      "note_on channel=0 note=48 velocity=0 time=0\n",
      "note_on channel=0 note=48 velocity=70 time=0\n",
      "note_on channel=0 note=57 velocity=68 time=0\n",
      "note_on channel=0 note=57 velocity=0 time=39\n",
      "note_on channel=0 note=48 velocity=0 time=0\n",
      "note_on channel=0 note=48 velocity=70 time=6\n",
      "note_on channel=0 note=55 velocity=74 time=0\n",
      "note_on channel=0 note=55 velocity=0 time=75\n",
      "note_on channel=0 note=48 velocity=0 time=0\n",
      "note_on channel=0 note=48 velocity=68 time=0\n",
      "note_on channel=0 note=55 velocity=78 time=0\n",
      "note_on channel=0 note=55 velocity=0 time=39\n",
      "note_on channel=0 note=48 velocity=0 time=0\n",
      "note_on channel=0 note=48 velocity=57 time=6\n",
      "note_on channel=0 note=52 velocity=71 time=0\n",
      "note_on channel=0 note=52 velocity=0 time=75\n",
      "note_on channel=0 note=48 velocity=0 time=0\n",
      "note_on channel=0 note=45 velocity=84 time=0\n",
      "note_on channel=0 note=49 velocity=65 time=0\n",
      "note_on channel=0 note=49 velocity=0 time=39\n",
      "note_on channel=0 note=45 velocity=0 time=0\n",
      "note_on channel=0 note=46 velocity=54 time=6\n",
      "note_on channel=0 note=53 velocity=81 time=0\n",
      "note_on channel=0 note=53 velocity=0 time=75\n",
      "note_on channel=0 note=46 velocity=0 time=0\n",
      "note_on channel=0 note=53 velocity=81 time=0\n",
      "note_on channel=0 note=46 velocity=46 time=0\n",
      "note_on channel=0 note=46 velocity=0 time=39\n",
      "note_on channel=0 note=53 velocity=0 time=0\n",
      "note_on channel=0 note=46 velocity=67 time=6\n",
      "note_on channel=0 note=55 velocity=81 time=0\n",
      "note_on channel=0 note=55 velocity=0 time=75\n",
      "note_on channel=0 note=46 velocity=0 time=0\n",
      "note_on channel=0 note=46 velocity=47 time=0\n",
      "note_on channel=0 note=55 velocity=78 time=0\n",
      "note_on channel=0 note=55 velocity=0 time=39\n",
      "note_on channel=0 note=46 velocity=0 time=0\n",
      "note_on channel=0 note=46 velocity=52 time=6\n",
      "note_on channel=0 note=53 velocity=81 time=0\n",
      "note_on channel=0 note=53 velocity=0 time=75\n",
      "note_on channel=0 note=46 velocity=0 time=0\n",
      "note_on channel=0 note=46 velocity=55 time=0\n",
      "note_on channel=0 note=53 velocity=77 time=0\n",
      "note_on channel=0 note=53 velocity=0 time=39\n",
      "note_on channel=0 note=46 velocity=0 time=0\n",
      "note_on channel=0 note=46 velocity=60 time=6\n",
      "note_on channel=0 note=50 velocity=84 time=0\n",
      "note_on channel=0 note=50 velocity=0 time=75\n",
      "note_on channel=0 note=46 velocity=0 time=0\n",
      "note_on channel=0 note=46 velocity=46 time=0\n",
      "note_on channel=0 note=50 velocity=76 time=0\n",
      "note_on channel=0 note=50 velocity=0 time=39\n",
      "note_on channel=0 note=46 velocity=0 time=0\n",
      "note_on channel=0 note=41 velocity=72 time=6\n",
      "note_on channel=0 note=48 velocity=67 time=0\n",
      "note_on channel=0 note=48 velocity=0 time=75\n",
      "note_on channel=0 note=41 velocity=0 time=0\n",
      "note_on channel=0 note=41 velocity=67 time=0\n",
      "note_on channel=0 note=48 velocity=71 time=0\n",
      "note_on channel=0 note=48 velocity=0 time=39\n",
      "note_on channel=0 note=41 velocity=0 time=0\n",
      "note_on channel=0 note=45 velocity=81 time=6\n",
      "note_on channel=0 note=45 velocity=0 time=119\n",
      "note_on channel=0 note=46 velocity=71 time=1\n",
      "note_on channel=0 note=46 velocity=0 time=119\n",
      "note_on channel=0 note=48 velocity=78 time=1\n",
      "note_on channel=0 note=48 velocity=0 time=119\n",
      "note_on channel=0 note=41 velocity=62 time=1\n",
      "note_on channel=0 note=48 velocity=64 time=0\n",
      "note_on channel=0 note=48 velocity=0 time=75\n",
      "note_on channel=0 note=41 velocity=0 time=0\n",
      "note_on channel=0 note=41 velocity=65 time=0\n",
      "note_on channel=0 note=48 velocity=57 time=0\n",
      "note_on channel=0 note=48 velocity=0 time=39\n",
      "note_on channel=0 note=41 velocity=0 time=0\n",
      "note_on channel=0 note=41 velocity=69 time=6\n",
      "note_on channel=0 note=50 velocity=62 time=0\n",
      "note_on channel=0 note=50 velocity=0 time=75\n",
      "note_on channel=0 note=41 velocity=0 time=0\n",
      "note_on channel=0 note=41 velocity=54 time=0\n",
      "note_on channel=0 note=50 velocity=72 time=0\n",
      "note_on channel=0 note=50 velocity=0 time=39\n",
      "note_on channel=0 note=41 velocity=0 time=0\n",
      "note_on channel=0 note=41 velocity=57 time=6\n",
      "note_on channel=0 note=48 velocity=65 time=0\n",
      "note_on channel=0 note=48 velocity=0 time=75\n",
      "note_on channel=0 note=41 velocity=0 time=0\n",
      "note_on channel=0 note=41 velocity=62 time=0\n",
      "note_on channel=0 note=48 velocity=68 time=0\n",
      "note_on channel=0 note=48 velocity=0 time=39\n",
      "note_on channel=0 note=41 velocity=0 time=0\n",
      "note_on channel=0 note=44 velocity=57 time=6\n",
      "note_on channel=0 note=41 velocity=74 time=0\n",
      "note_on channel=0 note=41 velocity=0 time=75\n",
      "note_on channel=0 note=44 velocity=0 time=0\n",
      "note_on channel=0 note=45 velocity=77 time=0\n",
      "note_on channel=0 note=45 velocity=0 time=39\n",
      "note_on channel=0 note=29 velocity=73 time=6\n",
      "note_on channel=0 note=41 velocity=89 time=75\n",
      "note_on channel=0 note=41 velocity=0 time=39\n",
      "note_on channel=0 note=29 velocity=0 time=5\n",
      "note_on channel=0 note=33 velocity=78 time=1\n",
      "note_on channel=0 note=45 velocity=84 time=75\n",
      "note_on channel=0 note=45 velocity=0 time=39\n",
      "note_on channel=0 note=33 velocity=0 time=5\n",
      "note_on channel=0 note=36 velocity=82 time=1\n",
      "note_on channel=0 note=48 velocity=98 time=75\n",
      "note_on channel=0 note=36 velocity=0 time=4\n",
      "note_on channel=0 note=48 velocity=0 time=35\n",
      "note_on channel=0 note=38 velocity=82 time=6\n",
      "note_on channel=0 note=50 velocity=77 time=75\n",
      "note_on channel=0 note=50 velocity=0 time=39\n",
      "note_on channel=0 note=38 velocity=0 time=5\n",
      "note_on channel=0 note=41 velocity=98 time=1\n",
      "note_on channel=0 note=53 velocity=84 time=75\n",
      "note_on channel=0 note=53 velocity=0 time=39\n",
      "note_on channel=0 note=41 velocity=0 time=5\n",
      "note_on channel=0 note=38 velocity=73 time=1\n",
      "note_on channel=0 note=50 velocity=95 time=75\n",
      "note_on channel=0 note=50 velocity=0 time=39\n",
      "note_on channel=0 note=38 velocity=0 time=5\n",
      "note_on channel=0 note=36 velocity=80 time=1\n",
      "note_on channel=0 note=48 velocity=90 time=75\n",
      "note_on channel=0 note=36 velocity=0 time=4\n",
      "note_on channel=0 note=48 velocity=0 time=35\n",
      "note_on channel=0 note=33 velocity=78 time=6\n",
      "note_on channel=0 note=45 velocity=98 time=75\n",
      "note_on channel=0 note=33 velocity=0 time=4\n",
      "note_on channel=0 note=45 velocity=0 time=35\n",
      "note_on channel=0 note=29 velocity=71 time=6\n",
      "note_on channel=0 note=41 velocity=94 time=75\n",
      "note_on channel=0 note=41 velocity=0 time=39\n",
      "note_on channel=0 note=29 velocity=0 time=5\n",
      "note_on channel=0 note=33 velocity=80 time=1\n",
      "note_on channel=0 note=45 velocity=86 time=75\n",
      "note_on channel=0 note=45 velocity=0 time=39\n",
      "note_on channel=0 note=33 velocity=0 time=5\n",
      "note_on channel=0 note=36 velocity=90 time=1\n",
      "note_on channel=0 note=48 velocity=98 time=75\n",
      "note_on channel=0 note=36 velocity=0 time=4\n",
      "note_on channel=0 note=48 velocity=0 time=35\n",
      "note_on channel=0 note=38 velocity=71 time=6\n",
      "note_on channel=0 note=50 velocity=94 time=75\n",
      "note_on channel=0 note=50 velocity=0 time=39\n",
      "note_on channel=0 note=38 velocity=0 time=5\n",
      "note_on channel=0 note=41 velocity=99 time=1\n",
      "note_on channel=0 note=53 velocity=84 time=75\n",
      "note_on channel=0 note=53 velocity=0 time=39\n",
      "note_on channel=0 note=41 velocity=0 time=5\n",
      "note_on channel=0 note=38 velocity=77 time=1\n",
      "note_on channel=0 note=50 velocity=99 time=75\n",
      "note_on channel=0 note=50 velocity=0 time=39\n",
      "note_on channel=0 note=38 velocity=0 time=5\n",
      "note_on channel=0 note=36 velocity=74 time=1\n",
      "note_on channel=0 note=48 velocity=99 time=75\n",
      "note_on channel=0 note=36 velocity=0 time=4\n",
      "note_on channel=0 note=48 velocity=0 time=35\n",
      "note_on channel=0 note=33 velocity=82 time=6\n",
      "note_on channel=0 note=45 velocity=107 time=75\n",
      "note_on channel=0 note=45 velocity=0 time=39\n",
      "note_on channel=0 note=33 velocity=0 time=5\n",
      "note_on channel=0 note=34 velocity=63 time=1\n",
      "note_on channel=0 note=46 velocity=61 time=75\n",
      "note_on channel=0 note=46 velocity=0 time=39\n",
      "note_on channel=0 note=34 velocity=0 time=5\n",
      "note_on channel=0 note=38 velocity=78 time=1\n",
      "note_on channel=0 note=50 velocity=77 time=75\n",
      "note_on channel=0 note=50 velocity=0 time=39\n",
      "note_on channel=0 note=38 velocity=0 time=5\n",
      "note_on channel=0 note=41 velocity=89 time=1\n",
      "note_on channel=0 note=53 velocity=90 time=75\n",
      "note_on channel=0 note=41 velocity=0 time=4\n",
      "note_on channel=0 note=53 velocity=0 time=35\n",
      "note_on channel=0 note=43 velocity=94 time=6\n",
      "note_on channel=0 note=55 velocity=89 time=75\n",
      "note_on channel=0 note=55 velocity=0 time=39\n",
      "note_on channel=0 note=43 velocity=0 time=5\n",
      "note_on channel=0 note=44 velocity=66 time=1\n",
      "note_on channel=0 note=56 velocity=78 time=75\n",
      "note_on channel=0 note=56 velocity=0 time=39\n",
      "note_on channel=0 note=44 velocity=0 time=5\n",
      "note_on channel=0 note=43 velocity=89 time=1\n",
      "note_on channel=0 note=55 velocity=98 time=75\n",
      "note_on channel=0 note=43 velocity=0 time=4\n",
      "note_on channel=0 note=55 velocity=0 time=35\n",
      "note_on channel=0 note=41 velocity=99 time=6\n",
      "note_on channel=0 note=53 velocity=98 time=75\n",
      "note_on channel=0 note=53 velocity=0 time=39\n",
      "note_on channel=0 note=41 velocity=0 time=5\n",
      "note_on channel=0 note=38 velocity=84 time=1\n",
      "note_on channel=0 note=50 velocity=104 time=75\n",
      "note_on channel=0 note=38 velocity=0 time=4\n",
      "note_on channel=0 note=50 velocity=0 time=35\n",
      "note_on channel=0 note=29 velocity=73 time=6\n",
      "note_on channel=0 note=41 velocity=89 time=75\n",
      "note_on channel=0 note=41 velocity=0 time=39\n",
      "note_on channel=0 note=29 velocity=0 time=5\n",
      "note_on channel=0 note=33 velocity=78 time=1\n",
      "note_on channel=0 note=45 velocity=84 time=75\n",
      "note_on channel=0 note=45 velocity=0 time=39\n",
      "note_on channel=0 note=33 velocity=0 time=5\n",
      "note_on channel=0 note=36 velocity=82 time=1\n",
      "note_on channel=0 note=48 velocity=98 time=75\n",
      "note_on channel=0 note=36 velocity=0 time=4\n",
      "note_on channel=0 note=48 velocity=0 time=35\n",
      "note_on channel=0 note=38 velocity=82 time=6\n",
      "note_on channel=0 note=50 velocity=77 time=75\n",
      "note_on channel=0 note=50 velocity=0 time=39\n",
      "note_on channel=0 note=38 velocity=0 time=5\n",
      "note_on channel=0 note=41 velocity=98 time=1\n",
      "note_on channel=0 note=53 velocity=84 time=75\n",
      "note_on channel=0 note=53 velocity=0 time=39\n",
      "note_on channel=0 note=41 velocity=0 time=5\n",
      "note_on channel=0 note=38 velocity=73 time=1\n",
      "note_on channel=0 note=50 velocity=95 time=75\n",
      "note_on channel=0 note=50 velocity=0 time=39\n",
      "note_on channel=0 note=38 velocity=0 time=5\n",
      "note_on channel=0 note=36 velocity=80 time=1\n",
      "note_on channel=0 note=48 velocity=90 time=75\n",
      "note_on channel=0 note=36 velocity=0 time=4\n",
      "note_on channel=0 note=48 velocity=0 time=35\n",
      "note_on channel=0 note=33 velocity=78 time=6\n",
      "note_on channel=0 note=45 velocity=98 time=75\n",
      "note_on channel=0 note=33 velocity=0 time=4\n",
      "note_on channel=0 note=45 velocity=0 time=35\n",
      "note_on channel=0 note=36 velocity=72 time=6\n",
      "note_on channel=0 note=48 velocity=78 time=75\n",
      "note_on channel=0 note=48 velocity=0 time=39\n",
      "note_on channel=0 note=36 velocity=0 time=5\n",
      "note_on channel=0 note=40 velocity=68 time=1\n",
      "note_on channel=0 note=52 velocity=81 time=75\n",
      "note_on channel=0 note=52 velocity=0 time=39\n",
      "note_on channel=0 note=40 velocity=0 time=5\n",
      "note_on channel=0 note=43 velocity=99 time=1\n",
      "note_on channel=0 note=55 velocity=105 time=75\n",
      "note_on channel=0 note=43 velocity=0 time=4\n",
      "note_on channel=0 note=55 velocity=0 time=35\n",
      "note_on channel=0 note=40 velocity=94 time=6\n",
      "note_on channel=0 note=52 velocity=94 time=75\n",
      "note_on channel=0 note=40 velocity=0 time=4\n",
      "note_on channel=0 note=52 velocity=0 time=35\n",
      "note_on channel=0 note=34 velocity=43 time=6\n",
      "note_on channel=0 note=46 velocity=64 time=75\n",
      "note_on channel=0 note=46 velocity=0 time=39\n",
      "note_on channel=0 note=34 velocity=0 time=5\n",
      "note_on channel=0 note=38 velocity=81 time=1\n",
      "note_on channel=0 note=50 velocity=76 time=75\n",
      "note_on channel=0 note=50 velocity=0 time=39\n",
      "note_on channel=0 note=38 velocity=0 time=5\n",
      "note_on channel=0 note=41 velocity=93 time=1\n",
      "note_on channel=0 note=53 velocity=90 time=75\n",
      "note_on channel=0 note=53 velocity=0 time=39\n",
      "note_on channel=0 note=41 velocity=0 time=5\n",
      "note_on channel=0 note=38 velocity=82 time=1\n",
      "note_on channel=0 note=50 velocity=95 time=75\n",
      "note_on channel=0 note=50 velocity=0 time=39\n",
      "note_on channel=0 note=38 velocity=0 time=5\n",
      "note_on channel=0 note=29 velocity=72 time=1\n",
      "note_on channel=0 note=29 velocity=0 time=75\n",
      "note_on channel=0 note=33 velocity=94 time=0\n",
      "note_on channel=0 note=33 velocity=0 time=159\n",
      "note_on channel=0 note=34 velocity=73 time=6\n",
      "note_on channel=0 note=34 velocity=0 time=119\n",
      "note_on channel=0 note=35 velocity=110 time=1\n",
      "note_on channel=0 note=35 velocity=0 time=119\n",
      "note_on channel=0 note=36 velocity=98 time=1\n",
      "note_on channel=0 note=36 velocity=0 time=75\n",
      "note_on channel=0 note=38 velocity=94 time=0\n",
      "note_on channel=0 note=38 velocity=0 time=39\n",
      "note_on channel=0 note=40 velocity=99 time=6\n",
      "note_on channel=0 note=40 velocity=0 time=75\n",
      "note_on channel=0 note=41 velocity=104 time=0\n",
      "note_on channel=0 note=41 velocity=0 time=39\n",
      "note_on channel=0 note=29 velocity=98 time=126\n",
      "note_on channel=0 note=29 velocity=0 time=759\n",
      "<meta message end_of_track time=0>\n",
      "Track 2: PIANO/RITE\n",
      "<meta message midi_port port=0 time=0>\n",
      "<meta message track_name name='PIANO/RITE' time=0>\n",
      "program_change channel=1 program=0 time=0\n",
      "control_change channel=1 control=7 value=125 time=0\n",
      "control_change channel=1 control=10 value=76 time=0\n",
      "control_change channel=1 control=64 value=0 time=0\n",
      "pitchwheel channel=1 pitch=0 time=0\n",
      "note_on channel=1 note=69 velocity=61 time=480\n",
      "note_on channel=1 note=69 velocity=0 time=19\n",
      "note_on channel=1 note=72 velocity=22 time=1\n",
      "note_on channel=1 note=72 velocity=0 time=19\n",
      "note_on channel=1 note=69 velocity=25 time=1\n",
      "note_on channel=1 note=69 velocity=0 time=19\n",
      "note_on channel=1 note=72 velocity=27 time=1\n",
      "note_on channel=1 note=72 velocity=0 time=19\n",
      "note_on channel=1 note=69 velocity=30 time=1\n",
      "note_on channel=1 note=69 velocity=0 time=19\n",
      "note_on channel=1 note=72 velocity=33 time=1\n",
      "note_on channel=1 note=72 velocity=0 time=19\n",
      "note_on channel=1 note=69 velocity=35 time=1\n",
      "note_on channel=1 note=69 velocity=0 time=19\n",
      "note_on channel=1 note=72 velocity=38 time=1\n",
      "note_on channel=1 note=72 velocity=0 time=19\n",
      "note_on channel=1 note=69 velocity=41 time=1\n",
      "note_on channel=1 note=69 velocity=0 time=19\n",
      "note_on channel=1 note=72 velocity=43 time=1\n",
      "note_on channel=1 note=72 velocity=0 time=19\n",
      "note_on channel=1 note=69 velocity=46 time=1\n",
      "note_on channel=1 note=69 velocity=0 time=19\n",
      "note_on channel=1 note=72 velocity=49 time=1\n",
      "note_on channel=1 note=72 velocity=0 time=19\n",
      "note_on channel=1 note=69 velocity=51 time=1\n",
      "note_on channel=1 note=69 velocity=0 time=19\n",
      "note_on channel=1 note=72 velocity=54 time=1\n",
      "note_on channel=1 note=72 velocity=0 time=19\n",
      "note_on channel=1 note=69 velocity=57 time=1\n",
      "note_on channel=1 note=69 velocity=0 time=19\n",
      "note_on channel=1 note=72 velocity=59 time=1\n",
      "note_on channel=1 note=72 velocity=0 time=19\n",
      "note_on channel=1 note=69 velocity=62 time=1\n",
      "note_on channel=1 note=69 velocity=0 time=19\n",
      "note_on channel=1 note=72 velocity=65 time=1\n",
      "note_on channel=1 note=72 velocity=0 time=19\n",
      "note_on channel=1 note=69 velocity=67 time=1\n",
      "note_on channel=1 note=69 velocity=0 time=19\n",
      "note_on channel=1 note=72 velocity=70 time=1\n",
      "note_on channel=1 note=72 velocity=0 time=19\n",
      "note_on channel=1 note=69 velocity=73 time=1\n",
      "note_on channel=1 note=69 velocity=0 time=19\n",
      "note_on channel=1 note=72 velocity=75 time=1\n",
      "note_on channel=1 note=72 velocity=0 time=19\n",
      "note_on channel=1 note=69 velocity=78 time=1\n",
      "note_on channel=1 note=69 velocity=0 time=19\n",
      "note_on channel=1 note=72 velocity=81 time=1\n",
      "note_on channel=1 note=72 velocity=0 time=19\n",
      "note_on channel=1 note=72 velocity=83 time=1\n",
      "note_on channel=1 note=72 velocity=0 time=19\n",
      "note_on channel=1 note=75 velocity=0 time=1\n",
      "note_on channel=1 note=75 velocity=0 time=0\n",
      "note_on channel=1 note=75 velocity=0 time=19\n",
      "note_on channel=1 note=75 velocity=0 time=0\n",
      "note_on channel=1 note=72 velocity=23 time=1\n",
      "note_on channel=1 note=72 velocity=0 time=19\n",
      "note_on channel=1 note=75 velocity=28 time=1\n",
      "note_on channel=1 note=75 velocity=0 time=19\n",
      "note_on channel=1 note=72 velocity=30 time=1\n",
      "note_on channel=1 note=72 velocity=0 time=19\n",
      "note_on channel=1 note=75 velocity=33 time=1\n",
      "note_on channel=1 note=75 velocity=0 time=19\n",
      "note_on channel=1 note=72 velocity=35 time=1\n",
      "note_on channel=1 note=72 velocity=0 time=19\n",
      "note_on channel=1 note=75 velocity=37 time=1\n",
      "note_on channel=1 note=75 velocity=0 time=19\n",
      "note_on channel=1 note=72 velocity=40 time=1\n",
      "note_on channel=1 note=72 velocity=0 time=19\n",
      "note_on channel=1 note=75 velocity=42 time=1\n",
      "note_on channel=1 note=75 velocity=0 time=19\n",
      "note_on channel=1 note=72 velocity=45 time=1\n",
      "note_on channel=1 note=72 velocity=0 time=19\n",
      "note_on channel=1 note=75 velocity=47 time=1\n",
      "note_on channel=1 note=75 velocity=0 time=19\n",
      "note_on channel=1 note=72 velocity=49 time=1\n",
      "note_on channel=1 note=72 velocity=0 time=19\n",
      "note_on channel=1 note=75 velocity=52 time=1\n",
      "note_on channel=1 note=75 velocity=0 time=19\n",
      "note_on channel=1 note=72 velocity=54 time=1\n",
      "note_on channel=1 note=72 velocity=0 time=19\n",
      "note_on channel=1 note=75 velocity=57 time=1\n",
      "note_on channel=1 note=75 velocity=0 time=19\n",
      "note_on channel=1 note=72 velocity=59 time=1\n",
      "note_on channel=1 note=72 velocity=0 time=19\n",
      "note_on channel=1 note=75 velocity=62 time=1\n",
      "note_on channel=1 note=75 velocity=0 time=19\n",
      "note_on channel=1 note=72 velocity=64 time=1\n",
      "note_on channel=1 note=72 velocity=0 time=19\n",
      "note_on channel=1 note=75 velocity=66 time=1\n",
      "note_on channel=1 note=75 velocity=0 time=19\n",
      "note_on channel=1 note=72 velocity=69 time=1\n",
      "note_on channel=1 note=72 velocity=0 time=19\n",
      "note_on channel=1 note=75 velocity=71 time=1\n",
      "note_on channel=1 note=75 velocity=0 time=19\n",
      "note_on channel=1 note=72 velocity=74 time=1\n",
      "note_on channel=1 note=72 velocity=0 time=19\n",
      "note_on channel=1 note=75 velocity=76 time=1\n",
      "note_on channel=1 note=75 velocity=0 time=19\n",
      "note_on channel=1 note=69 velocity=79 time=1\n",
      "note_on channel=1 note=69 velocity=0 time=19\n",
      "note_on channel=1 note=72 velocity=18 time=1\n",
      "note_on channel=1 note=72 velocity=0 time=19\n",
      "note_on channel=1 note=69 velocity=20 time=1\n",
      "note_on channel=1 note=69 velocity=0 time=19\n",
      "note_on channel=1 note=72 velocity=23 time=1\n",
      "note_on channel=1 note=72 velocity=0 time=19\n",
      "note_on channel=1 note=69 velocity=26 time=1\n",
      "note_on channel=1 note=69 velocity=0 time=19\n",
      "note_on channel=1 note=72 velocity=28 time=1\n",
      "note_on channel=1 note=72 velocity=0 time=19\n",
      "note_on channel=1 note=69 velocity=31 time=1\n",
      "note_on channel=1 note=69 velocity=0 time=19\n",
      "note_on channel=1 note=72 velocity=34 time=1\n",
      "note_on channel=1 note=72 velocity=0 time=19\n",
      "note_on channel=1 note=69 velocity=36 time=1\n",
      "note_on channel=1 note=69 velocity=0 time=19\n",
      "note_on channel=1 note=72 velocity=39 time=1\n",
      "note_on channel=1 note=72 velocity=0 time=19\n",
      "note_on channel=1 note=69 velocity=42 time=1\n",
      "note_on channel=1 note=69 velocity=0 time=19\n",
      "note_on channel=1 note=72 velocity=44 time=1\n",
      "note_on channel=1 note=72 velocity=0 time=19\n",
      "note_on channel=1 note=69 velocity=47 time=1\n",
      "note_on channel=1 note=69 velocity=0 time=19\n",
      "note_on channel=1 note=72 velocity=50 time=1\n",
      "note_on channel=1 note=72 velocity=0 time=19\n",
      "note_on channel=1 note=69 velocity=52 time=1\n",
      "note_on channel=1 note=69 velocity=0 time=19\n",
      "note_on channel=1 note=72 velocity=55 time=1\n",
      "note_on channel=1 note=72 velocity=0 time=19\n",
      "note_on channel=1 note=69 velocity=58 time=1\n",
      "note_on channel=1 note=69 velocity=0 time=19\n",
      "note_on channel=1 note=72 velocity=60 time=1\n",
      "note_on channel=1 note=72 velocity=0 time=19\n",
      "note_on channel=1 note=69 velocity=63 time=1\n",
      "note_on channel=1 note=69 velocity=0 time=19\n",
      "note_on channel=1 note=72 velocity=66 time=1\n",
      "note_on channel=1 note=72 velocity=0 time=19\n",
      "note_on channel=1 note=69 velocity=68 time=1\n",
      "note_on channel=1 note=69 velocity=0 time=19\n",
      "note_on channel=1 note=72 velocity=71 time=1\n",
      "note_on channel=1 note=72 velocity=0 time=19\n",
      "note_on channel=1 note=69 velocity=73 time=1\n",
      "note_on channel=1 note=69 velocity=0 time=19\n",
      "note_on channel=1 note=72 velocity=76 time=1\n",
      "note_on channel=1 note=72 velocity=0 time=19\n",
      "note_on channel=1 note=72 velocity=79 time=1\n",
      "note_on channel=1 note=72 velocity=0 time=19\n",
      "note_on channel=1 note=75 velocity=19 time=1\n",
      "note_on channel=1 note=75 velocity=0 time=19\n",
      "note_on channel=1 note=72 velocity=21 time=1\n",
      "note_on channel=1 note=72 velocity=0 time=19\n",
      "note_on channel=1 note=75 velocity=24 time=1\n",
      "note_on channel=1 note=75 velocity=0 time=19\n",
      "note_on channel=1 note=72 velocity=26 time=1\n",
      "note_on channel=1 note=72 velocity=0 time=19\n",
      "note_on channel=1 note=75 velocity=29 time=1\n",
      "note_on channel=1 note=75 velocity=0 time=19\n",
      "note_on channel=1 note=72 velocity=31 time=1\n",
      "note_on channel=1 note=72 velocity=0 time=19\n",
      "note_on channel=1 note=75 velocity=34 time=1\n",
      "note_on channel=1 note=75 velocity=0 time=19\n",
      "note_on channel=1 note=72 velocity=37 time=1\n",
      "note_on channel=1 note=72 velocity=0 time=19\n",
      "note_on channel=1 note=75 velocity=39 time=1\n",
      "note_on channel=1 note=75 velocity=0 time=19\n",
      "note_on channel=1 note=72 velocity=42 time=1\n",
      "note_on channel=1 note=72 velocity=0 time=19\n",
      "note_on channel=1 note=75 velocity=45 time=1\n",
      "note_on channel=1 note=75 velocity=0 time=19\n",
      "note_on channel=1 note=72 velocity=47 time=1\n",
      "note_on channel=1 note=72 velocity=0 time=19\n",
      "note_on channel=1 note=75 velocity=50 time=1\n",
      "note_on channel=1 note=75 velocity=0 time=19\n",
      "note_on channel=1 note=72 velocity=53 time=1\n",
      "note_on channel=1 note=72 velocity=0 time=19\n",
      "note_on channel=1 note=75 velocity=55 time=1\n",
      "note_on channel=1 note=75 velocity=0 time=19\n",
      "note_on channel=1 note=72 velocity=58 time=1\n",
      "note_on channel=1 note=72 velocity=0 time=19\n",
      "note_on channel=1 note=75 velocity=60 time=1\n",
      "note_on channel=1 note=75 velocity=0 time=19\n",
      "note_on channel=1 note=72 velocity=63 time=1\n",
      "note_on channel=1 note=72 velocity=0 time=19\n",
      "note_on channel=1 note=75 velocity=66 time=1\n",
      "note_on channel=1 note=75 velocity=0 time=19\n",
      "note_on channel=1 note=72 velocity=68 time=1\n",
      "note_on channel=1 note=72 velocity=0 time=19\n",
      "note_on channel=1 note=75 velocity=71 time=1\n",
      "note_on channel=1 note=75 velocity=0 time=19\n",
      "note_on channel=1 note=72 velocity=74 time=1\n",
      "note_on channel=1 note=72 velocity=0 time=19\n",
      "note_on channel=1 note=75 velocity=76 time=1\n",
      "note_on channel=1 note=75 velocity=0 time=19\n",
      "note_on channel=1 note=74 velocity=79 time=1\n",
      "note_on channel=1 note=74 velocity=0 time=19\n",
      "note_on channel=1 note=77 velocity=19 time=1\n",
      "note_on channel=1 note=77 velocity=0 time=19\n",
      "note_on channel=1 note=74 velocity=21 time=1\n",
      "note_on channel=1 note=74 velocity=0 time=19\n",
      "note_on channel=1 note=77 velocity=24 time=1\n",
      "note_on channel=1 note=77 velocity=0 time=19\n",
      "note_on channel=1 note=74 velocity=27 time=1\n",
      "note_on channel=1 note=74 velocity=0 time=19\n",
      "note_on channel=1 note=77 velocity=29 time=1\n",
      "note_on channel=1 note=77 velocity=0 time=19\n",
      "note_on channel=1 note=74 velocity=32 time=1\n",
      "note_on channel=1 note=74 velocity=0 time=19\n",
      "note_on channel=1 note=77 velocity=35 time=1\n",
      "note_on channel=1 note=77 velocity=0 time=19\n",
      "note_on channel=1 note=74 velocity=37 time=1\n",
      "note_on channel=1 note=74 velocity=0 time=19\n",
      "note_on channel=1 note=77 velocity=40 time=1\n",
      "note_on channel=1 note=77 velocity=0 time=19\n",
      "note_on channel=1 note=74 velocity=42 time=1\n",
      "note_on channel=1 note=74 velocity=0 time=19\n",
      "note_on channel=1 note=77 velocity=45 time=1\n",
      "note_on channel=1 note=77 velocity=0 time=19\n",
      "note_on channel=1 note=74 velocity=48 time=1\n",
      "note_on channel=1 note=74 velocity=0 time=19\n",
      "note_on channel=1 note=77 velocity=50 time=1\n",
      "note_on channel=1 note=77 velocity=0 time=19\n",
      "note_on channel=1 note=74 velocity=53 time=1\n",
      "note_on channel=1 note=74 velocity=0 time=19\n",
      "note_on channel=1 note=77 velocity=56 time=1\n",
      "note_on channel=1 note=77 velocity=0 time=19\n",
      "note_on channel=1 note=74 velocity=58 time=1\n",
      "note_on channel=1 note=74 velocity=0 time=19\n",
      "note_on channel=1 note=77 velocity=61 time=1\n",
      "note_on channel=1 note=77 velocity=0 time=19\n",
      "note_on channel=1 note=74 velocity=63 time=1\n",
      "note_on channel=1 note=74 velocity=0 time=19\n",
      "note_on channel=1 note=77 velocity=66 time=1\n",
      "note_on channel=1 note=77 velocity=0 time=19\n",
      "note_on channel=1 note=74 velocity=69 time=1\n",
      "note_on channel=1 note=74 velocity=0 time=19\n",
      "note_on channel=1 note=77 velocity=71 time=1\n",
      "note_on channel=1 note=77 velocity=0 time=19\n",
      "note_on channel=1 note=74 velocity=74 time=1\n",
      "note_on channel=1 note=74 velocity=0 time=19\n",
      "note_on channel=1 note=77 velocity=77 time=1\n",
      "note_on channel=1 note=77 velocity=0 time=19\n",
      "note_on channel=1 note=77 velocity=79 time=1\n",
      "note_on channel=1 note=77 velocity=0 time=19\n",
      "note_on channel=1 note=80 velocity=21 time=1\n",
      "note_on channel=1 note=80 velocity=0 time=19\n",
      "note_on channel=1 note=77 velocity=23 time=1\n",
      "note_on channel=1 note=77 velocity=0 time=19\n",
      "note_on channel=1 note=80 velocity=26 time=1\n",
      "note_on channel=1 note=80 velocity=0 time=19\n",
      "note_on channel=1 note=77 velocity=28 time=1\n",
      "note_on channel=1 note=77 velocity=0 time=19\n",
      "note_on channel=1 note=80 velocity=31 time=1\n",
      "note_on channel=1 note=80 velocity=0 time=19\n",
      "note_on channel=1 note=77 velocity=33 time=1\n",
      "note_on channel=1 note=77 velocity=0 time=19\n",
      "note_on channel=1 note=80 velocity=36 time=1\n",
      "note_on channel=1 note=80 velocity=0 time=19\n",
      "note_on channel=1 note=77 velocity=38 time=1\n",
      "note_on channel=1 note=77 velocity=0 time=19\n",
      "note_on channel=1 note=80 velocity=41 time=1\n",
      "note_on channel=1 note=80 velocity=0 time=19\n",
      "note_on channel=1 note=77 velocity=43 time=1\n",
      "note_on channel=1 note=77 velocity=0 time=19\n",
      "note_on channel=1 note=80 velocity=46 time=1\n",
      "note_on channel=1 note=80 velocity=0 time=19\n",
      "note_on channel=1 note=77 velocity=48 time=1\n",
      "note_on channel=1 note=77 velocity=0 time=19\n",
      "note_on channel=1 note=80 velocity=50 time=1\n",
      "note_on channel=1 note=80 velocity=0 time=19\n",
      "note_on channel=1 note=77 velocity=53 time=1\n",
      "note_on channel=1 note=77 velocity=0 time=19\n",
      "note_on channel=1 note=80 velocity=55 time=1\n",
      "note_on channel=1 note=80 velocity=0 time=19\n",
      "note_on channel=1 note=77 velocity=58 time=1\n",
      "note_on channel=1 note=77 velocity=0 time=19\n",
      "note_on channel=1 note=80 velocity=60 time=1\n",
      "note_on channel=1 note=80 velocity=0 time=19\n",
      "note_on channel=1 note=77 velocity=63 time=1\n",
      "note_on channel=1 note=77 velocity=0 time=19\n",
      "note_on channel=1 note=80 velocity=65 time=1\n",
      "note_on channel=1 note=80 velocity=0 time=19\n",
      "note_on channel=1 note=77 velocity=68 time=1\n",
      "note_on channel=1 note=77 velocity=0 time=19\n",
      "note_on channel=1 note=80 velocity=70 time=1\n",
      "note_on channel=1 note=80 velocity=0 time=19\n",
      "note_on channel=1 note=77 velocity=74 time=11\n",
      "note_on channel=1 note=72 velocity=75 time=6\n",
      "note_on channel=1 note=80 velocity=75 time=4\n",
      "note_on channel=1 note=77 velocity=0 time=9\n",
      "note_on channel=1 note=74 velocity=77 time=9\n",
      "note_on channel=1 note=80 velocity=0 time=1\n",
      "note_on channel=1 note=81 velocity=105 time=13\n",
      "note_on channel=1 note=84 velocity=117 time=0\n",
      "note_on channel=1 note=77 velocity=98 time=1\n",
      "note_on channel=1 note=81 velocity=0 time=67\n",
      "note_on channel=1 note=84 velocity=0 time=3\n",
      "note_on channel=1 note=72 velocity=0 time=1\n",
      "note_on channel=1 note=74 velocity=0 time=0\n",
      "note_on channel=1 note=77 velocity=0 time=1\n",
      "note_on channel=1 note=84 velocity=77 time=470\n",
      "note_on channel=1 note=77 velocity=78 time=0\n",
      "note_on channel=1 note=81 velocity=90 time=0\n",
      "note_on channel=1 note=81 velocity=0 time=119\n",
      "note_on channel=1 note=77 velocity=0 time=0\n",
      "note_on channel=1 note=84 velocity=0 time=0\n",
      "note_on channel=1 note=72 velocity=101 time=1\n",
      "note_on channel=1 note=84 velocity=101 time=45\n",
      "note_on channel=1 note=77 velocity=99 time=0\n",
      "note_on channel=1 note=81 velocity=104 time=0\n",
      "note_on channel=1 note=72 velocity=0 time=14\n",
      "note_on channel=1 note=72 velocity=89 time=61\n",
      "note_on channel=1 note=84 velocity=0 time=14\n",
      "note_on channel=1 note=81 velocity=0 time=0\n",
      "note_on channel=1 note=77 velocity=0 time=0\n",
      "note_on channel=1 note=72 velocity=0 time=15\n",
      "note_on channel=1 note=77 velocity=86 time=16\n",
      "note_on channel=1 note=81 velocity=86 time=0\n",
      "note_on channel=1 note=84 velocity=77 time=0\n",
      "note_on channel=1 note=72 velocity=90 time=75\n",
      "note_on channel=1 note=84 velocity=0 time=14\n",
      "note_on channel=1 note=77 velocity=0 time=0\n",
      "note_on channel=1 note=81 velocity=0 time=0\n",
      "note_on channel=1 note=72 velocity=0 time=15\n",
      "note_on channel=1 note=76 velocity=73 time=16\n",
      "note_on channel=1 note=72 velocity=68 time=0\n",
      "note_on channel=1 note=82 velocity=71 time=0\n",
      "note_on channel=1 note=79 velocity=93 time=0\n",
      "note_on channel=1 note=79 velocity=0 time=119\n",
      "note_on channel=1 note=76 velocity=0 time=0\n",
      "note_on channel=1 note=72 velocity=0 time=0\n",
      "note_on channel=1 note=82 velocity=0 time=0\n",
      "note_on channel=1 note=72 velocity=59 time=196\n",
      "note_on channel=1 note=76 velocity=68 time=0\n",
      "note_on channel=1 note=79 velocity=84 time=0\n",
      "note_on channel=1 note=82 velocity=60 time=0\n",
      "note_on channel=1 note=82 velocity=0 time=119\n",
      "note_on channel=1 note=72 velocity=0 time=0\n",
      "note_on channel=1 note=76 velocity=0 time=0\n",
      "note_on channel=1 note=79 velocity=0 time=0\n",
      "note_on channel=1 note=60 velocity=73 time=1\n",
      "note_on channel=1 note=61 velocity=61 time=45\n",
      "note_on channel=1 note=60 velocity=0 time=14\n",
      "note_on channel=1 note=61 velocity=0 time=61\n",
      "note_on channel=1 note=62 velocity=94 time=0\n",
      "note_on channel=1 note=62 velocity=0 time=39\n",
      "note_on channel=1 note=65 velocity=78 time=6\n",
      "note_on channel=1 note=65 velocity=0 time=75\n",
      "note_on channel=1 note=68 velocity=65 time=0\n",
      "note_on channel=1 note=68 velocity=0 time=89\n",
      "note_on channel=1 note=67 velocity=67 time=31\n",
      "note_on channel=1 note=65 velocity=71 time=25\n",
      "note_on channel=1 note=67 velocity=0 time=4\n",
      "note_on channel=1 note=62 velocity=89 time=16\n",
      "note_on channel=1 note=65 velocity=0 time=9\n",
      "note_on channel=1 note=62 velocity=0 time=66\n",
      "note_on channel=1 note=56 velocity=52 time=0\n",
      "note_on channel=1 note=56 velocity=0 time=29\n",
      "note_on channel=1 note=65 velocity=77 time=16\n",
      "note_on channel=1 note=60 velocity=84 time=0\n",
      "note_on channel=1 note=57 velocity=73 time=0\n",
      "note_on channel=1 note=57 velocity=0 time=119\n",
      "note_on channel=1 note=60 velocity=0 time=0\n",
      "note_on channel=1 note=65 velocity=0 time=0\n",
      "note_on channel=1 note=74 velocity=72 time=121\n",
      "note_on channel=1 note=74 velocity=0 time=29\n",
      "note_on channel=1 note=72 velocity=65 time=1\n",
      "note_on channel=1 note=72 velocity=0 time=29\n",
      "note_on channel=1 note=70 velocity=45 time=1\n",
      "note_on channel=1 note=70 velocity=0 time=29\n",
      "note_on channel=1 note=68 velocity=61 time=1\n",
      "note_on channel=1 note=68 velocity=0 time=29\n",
      "note_on channel=1 note=67 velocity=94 time=1\n",
      "note_on channel=1 note=67 velocity=0 time=75\n",
      "note_on channel=1 note=56 velocity=44 time=0\n",
      "note_on channel=1 note=62 velocity=74 time=0\n",
      "note_on channel=1 note=62 velocity=0 time=29\n",
      "note_on channel=1 note=56 velocity=0 time=0\n",
      "note_on channel=1 note=65 velocity=72 time=16\n",
      "note_on channel=1 note=60 velocity=77 time=0\n",
      "note_on channel=1 note=57 velocity=70 time=0\n",
      "note_on channel=1 note=57 velocity=0 time=119\n",
      "note_on channel=1 note=60 velocity=0 time=0\n",
      "note_on channel=1 note=65 velocity=0 time=0\n",
      "note_on channel=1 note=60 velocity=60 time=211\n",
      "note_on channel=1 note=60 velocity=0 time=9\n",
      "note_on channel=1 note=62 velocity=60 time=1\n",
      "note_on channel=1 note=62 velocity=0 time=9\n",
      "note_on channel=1 note=64 velocity=60 time=1\n",
      "note_on channel=1 note=64 velocity=0 time=9\n",
      "note_on channel=1 note=65 velocity=60 time=1\n",
      "note_on channel=1 note=65 velocity=0 time=75\n",
      "note_on channel=1 note=67 velocity=99 time=0\n",
      "note_on channel=1 note=67 velocity=0 time=29\n",
      "note_on channel=1 note=68 velocity=63 time=16\n",
      "note_on channel=1 note=68 velocity=0 time=75\n",
      "note_on channel=1 note=69 velocity=95 time=0\n",
      "note_on channel=1 note=69 velocity=0 time=40\n",
      "note_on channel=1 note=60 velocity=59 time=215\n",
      "note_on channel=1 note=60 velocity=0 time=9\n",
      "note_on channel=1 note=62 velocity=59 time=1\n",
      "note_on channel=1 note=62 velocity=0 time=9\n",
      "note_on channel=1 note=64 velocity=59 time=1\n",
      "note_on channel=1 note=64 velocity=0 time=9\n",
      "note_on channel=1 note=65 velocity=59 time=1\n",
      "note_on channel=1 note=65 velocity=0 time=75\n",
      "note_on channel=1 note=67 velocity=72 time=0\n",
      "note_on channel=1 note=67 velocity=0 time=29\n",
      "note_on channel=1 note=68 velocity=63 time=16\n",
      "note_on channel=1 note=68 velocity=0 time=75\n",
      "note_on channel=1 note=69 velocity=95 time=0\n",
      "note_on channel=1 note=69 velocity=0 time=40\n",
      "note_on channel=1 note=60 velocity=59 time=215\n",
      "note_on channel=1 note=60 velocity=0 time=9\n",
      "note_on channel=1 note=62 velocity=58 time=1\n",
      "note_on channel=1 note=62 velocity=0 time=9\n",
      "note_on channel=1 note=64 velocity=58 time=1\n",
      "note_on channel=1 note=64 velocity=0 time=9\n",
      "note_on channel=1 note=65 velocity=58 time=1\n",
      "note_on channel=1 note=65 velocity=0 time=75\n",
      "note_on channel=1 note=67 velocity=72 time=0\n",
      "note_on channel=1 note=67 velocity=0 time=29\n",
      "note_on channel=1 note=68 velocity=63 time=16\n",
      "note_on channel=1 note=68 velocity=0 time=75\n",
      "note_on channel=1 note=69 velocity=95 time=0\n",
      "note_on channel=1 note=69 velocity=0 time=40\n",
      "note_on channel=1 note=60 velocity=59 time=215\n",
      "note_on channel=1 note=60 velocity=0 time=9\n",
      "note_on channel=1 note=62 velocity=59 time=1\n",
      "note_on channel=1 note=62 velocity=0 time=9\n",
      "note_on channel=1 note=64 velocity=59 time=1\n",
      "note_on channel=1 note=64 velocity=0 time=9\n",
      "note_on channel=1 note=65 velocity=59 time=1\n",
      "note_on channel=1 note=65 velocity=0 time=75\n",
      "note_on channel=1 note=67 velocity=72 time=0\n",
      "note_on channel=1 note=67 velocity=0 time=29\n",
      "note_on channel=1 note=68 velocity=63 time=16\n",
      "note_on channel=1 note=68 velocity=0 time=75\n",
      "note_on channel=1 note=69 velocity=95 time=0\n",
      "note_on channel=1 note=69 velocity=0 time=40\n",
      "note_on channel=1 note=59 velocity=64 time=215\n",
      "note_on channel=1 note=59 velocity=0 time=9\n",
      "note_on channel=1 note=60 velocity=64 time=1\n",
      "note_on channel=1 note=60 velocity=0 time=9\n",
      "note_on channel=1 note=61 velocity=64 time=1\n",
      "note_on channel=1 note=61 velocity=0 time=9\n",
      "note_on channel=1 note=62 velocity=64 time=1\n",
      "note_on channel=1 note=62 velocity=0 time=75\n",
      "note_on channel=1 note=65 velocity=72 time=0\n",
      "note_on channel=1 note=65 velocity=0 time=29\n",
      "note_on channel=1 note=67 velocity=63 time=16\n",
      "note_on channel=1 note=67 velocity=0 time=75\n",
      "note_on channel=1 note=68 velocity=95 time=0\n",
      "note_on channel=1 note=68 velocity=0 time=40\n",
      "note_on channel=1 note=59 velocity=59 time=215\n",
      "note_on channel=1 note=59 velocity=0 time=9\n",
      "note_on channel=1 note=60 velocity=58 time=1\n",
      "note_on channel=1 note=60 velocity=0 time=9\n",
      "note_on channel=1 note=61 velocity=58 time=1\n",
      "note_on channel=1 note=61 velocity=0 time=9\n",
      "note_on channel=1 note=62 velocity=58 time=1\n",
      "note_on channel=1 note=62 velocity=0 time=75\n",
      "note_on channel=1 note=65 velocity=72 time=0\n",
      "note_on channel=1 note=65 velocity=0 time=29\n",
      "note_on channel=1 note=67 velocity=63 time=16\n",
      "note_on channel=1 note=67 velocity=0 time=75\n",
      "note_on channel=1 note=68 velocity=95 time=0\n",
      "note_on channel=1 note=68 velocity=0 time=40\n",
      "note_on channel=1 note=60 velocity=60 time=215\n",
      "note_on channel=1 note=60 velocity=0 time=9\n",
      "note_on channel=1 note=62 velocity=59 time=1\n",
      "note_on channel=1 note=62 velocity=0 time=9\n",
      "note_on channel=1 note=64 velocity=57 time=1\n",
      "note_on channel=1 note=64 velocity=0 time=9\n",
      "note_on channel=1 note=65 velocity=57 time=1\n",
      "note_on channel=1 note=65 velocity=0 time=75\n",
      "note_on channel=1 note=67 velocity=72 time=0\n",
      "note_on channel=1 note=67 velocity=0 time=29\n",
      "note_on channel=1 note=68 velocity=89 time=16\n",
      "note_on channel=1 note=68 velocity=0 time=75\n",
      "note_on channel=1 note=69 velocity=105 time=0\n",
      "note_on channel=1 note=69 velocity=0 time=59\n",
      "note_on channel=1 note=62 velocity=81 time=661\n",
      "note_on channel=1 note=65 velocity=78 time=0\n",
      "note_on channel=1 note=67 velocity=80 time=0\n",
      "note_on channel=1 note=70 velocity=66 time=0\n",
      "note_on channel=1 note=70 velocity=0 time=119\n",
      "note_on channel=1 note=62 velocity=0 time=0\n",
      "note_on channel=1 note=65 velocity=0 time=0\n",
      "note_on channel=1 note=67 velocity=0 time=0\n",
      "note_on channel=1 note=62 velocity=80 time=1\n",
      "note_on channel=1 note=65 velocity=84 time=0\n",
      "note_on channel=1 note=67 velocity=94 time=0\n",
      "note_on channel=1 note=70 velocity=69 time=0\n",
      "note_on channel=1 note=70 velocity=56 time=45\n",
      "note_on channel=1 note=64 velocity=85 time=0\n",
      "note_on channel=1 note=67 velocity=89 time=0\n",
      "note_on channel=1 note=70 velocity=0 time=14\n",
      "note_on channel=1 note=67 velocity=0 time=0\n",
      "note_on channel=1 note=62 velocity=0 time=0\n",
      "note_on channel=1 note=65 velocity=0 time=0\n",
      "note_on channel=1 note=67 velocity=0 time=105\n",
      "note_on channel=1 note=70 velocity=0 time=0\n",
      "note_on channel=1 note=64 velocity=0 time=0\n",
      "note_on channel=1 note=62 velocity=76 time=196\n",
      "note_on channel=1 note=65 velocity=89 time=0\n",
      "note_on channel=1 note=67 velocity=81 time=0\n",
      "note_on channel=1 note=70 velocity=73 time=0\n",
      "note_on channel=1 note=70 velocity=0 time=119\n",
      "note_on channel=1 note=62 velocity=0 time=0\n",
      "note_on channel=1 note=65 velocity=0 time=0\n",
      "note_on channel=1 note=67 velocity=0 time=0\n",
      "note_on channel=1 note=68 velocity=64 time=46\n",
      "note_on channel=1 note=68 velocity=0 time=75\n",
      "note_on channel=1 note=61 velocity=43 time=0\n",
      "note_on channel=1 note=61 velocity=0 time=29\n",
      "note_on channel=1 note=62 velocity=78 time=16\n",
      "note_on channel=1 note=62 velocity=0 time=75\n",
      "note_on channel=1 note=65 velocity=89 time=0\n",
      "note_on channel=1 note=65 velocity=0 time=29\n",
      "note_on channel=1 note=68 velocity=85 time=16\n",
      "note_on channel=1 note=67 velocity=80 time=60\n",
      "note_on channel=1 note=68 velocity=0 time=15\n",
      "note_on channel=1 note=67 velocity=0 time=14\n",
      "note_on channel=1 note=65 velocity=71 time=1\n",
      "note_on channel=1 note=65 velocity=0 time=29\n",
      "note_on channel=1 note=62 velocity=76 time=1\n",
      "note_on channel=1 note=62 velocity=0 time=75\n",
      "note_on channel=1 note=56 velocity=61 time=0\n",
      "note_on channel=1 note=56 velocity=0 time=29\n",
      "note_on channel=1 note=65 velocity=71 time=16\n",
      "note_on channel=1 note=60 velocity=80 time=0\n",
      "note_on channel=1 note=57 velocity=80 time=0\n",
      "note_on channel=1 note=57 velocity=0 time=119\n",
      "note_on channel=1 note=60 velocity=0 time=0\n",
      "note_on channel=1 note=65 velocity=0 time=0\n",
      "note_on channel=1 note=68 velocity=49 time=121\n",
      "note_on channel=1 note=68 velocity=0 time=59\n",
      "note_on channel=1 note=67 velocity=68 time=1\n",
      "note_on channel=1 note=67 velocity=0 time=29\n",
      "note_on channel=1 note=65 velocity=85 time=1\n",
      "note_on channel=1 note=65 velocity=0 time=29\n",
      "note_on channel=1 note=62 velocity=94 time=1\n",
      "note_on channel=1 note=62 velocity=0 time=75\n",
      "note_on channel=1 note=56 velocity=49 time=0\n",
      "note_on channel=1 note=56 velocity=0 time=29\n",
      "note_on channel=1 note=65 velocity=72 time=16\n",
      "note_on channel=1 note=60 velocity=77 time=0\n",
      "note_on channel=1 note=57 velocity=72 time=0\n",
      "note_on channel=1 note=57 velocity=0 time=119\n",
      "note_on channel=1 note=60 velocity=0 time=0\n",
      "note_on channel=1 note=65 velocity=0 time=0\n",
      "note_on channel=1 note=68 velocity=46 time=331\n",
      "note_on channel=1 note=68 velocity=0 time=30\n",
      "note_on channel=1 note=69 velocity=72 time=0\n",
      "note_on channel=1 note=69 velocity=0 time=75\n",
      "note_on channel=1 note=77 velocity=65 time=0\n",
      "note_on channel=1 note=81 velocity=78 time=0\n",
      "note_on channel=1 note=81 velocity=0 time=39\n",
      "note_on channel=1 note=77 velocity=0 time=0\n",
      "note_on channel=1 note=75 velocity=45 time=6\n",
      "note_on channel=1 note=79 velocity=76 time=0\n",
      "note_on channel=1 note=79 velocity=0 time=75\n",
      "note_on channel=1 note=75 velocity=0 time=0\n",
      "note_on channel=1 note=67 velocity=85 time=0\n",
      "note_on channel=1 note=67 velocity=0 time=39\n",
      "note_on channel=1 note=74 velocity=57 time=6\n",
      "note_on channel=1 note=77 velocity=68 time=0\n",
      "note_on channel=1 note=77 velocity=0 time=75\n",
      "note_on channel=1 note=74 velocity=0 time=0\n",
      "note_on channel=1 note=65 velocity=81 time=0\n",
      "note_on channel=1 note=65 velocity=0 time=39\n",
      "note_on channel=1 note=75 velocity=71 time=6\n",
      "note_on channel=1 note=72 velocity=61 time=0\n",
      "note_on channel=1 note=72 velocity=0 time=75\n",
      "note_on channel=1 note=75 velocity=0 time=0\n",
      "note_on channel=1 note=68 velocity=53 time=0\n",
      "note_on channel=1 note=68 velocity=0 time=39\n",
      "note_on channel=1 note=69 velocity=72 time=6\n",
      "note_on channel=1 note=69 velocity=0 time=75\n",
      "note_on channel=1 note=77 velocity=65 time=0\n",
      "note_on channel=1 note=81 velocity=78 time=0\n",
      "note_on channel=1 note=81 velocity=0 time=39\n",
      "note_on channel=1 note=77 velocity=0 time=0\n",
      "note_on channel=1 note=75 velocity=45 time=6\n",
      "note_on channel=1 note=79 velocity=76 time=0\n",
      "note_on channel=1 note=79 velocity=0 time=75\n",
      "note_on channel=1 note=75 velocity=0 time=0\n",
      "note_on channel=1 note=67 velocity=85 time=0\n",
      "note_on channel=1 note=67 velocity=0 time=39\n",
      "note_on channel=1 note=74 velocity=57 time=6\n",
      "note_on channel=1 note=77 velocity=68 time=0\n",
      "note_on channel=1 note=77 velocity=0 time=75\n",
      "note_on channel=1 note=74 velocity=0 time=0\n",
      "note_on channel=1 note=65 velocity=81 time=0\n",
      "note_on channel=1 note=65 velocity=0 time=39\n",
      "note_on channel=1 note=77 velocity=71 time=6\n",
      "note_on channel=1 note=72 velocity=61 time=0\n",
      "note_on channel=1 note=72 velocity=0 time=75\n",
      "note_on channel=1 note=77 velocity=0 time=0\n",
      "note_on channel=1 note=68 velocity=53 time=0\n",
      "note_on channel=1 note=68 velocity=0 time=39\n",
      "note_on channel=1 note=69 velocity=72 time=6\n",
      "note_on channel=1 note=69 velocity=0 time=75\n",
      "note_on channel=1 note=77 velocity=65 time=0\n",
      "note_on channel=1 note=81 velocity=78 time=0\n",
      "note_on channel=1 note=81 velocity=0 time=39\n",
      "note_on channel=1 note=77 velocity=0 time=0\n",
      "note_on channel=1 note=75 velocity=45 time=6\n",
      "note_on channel=1 note=79 velocity=76 time=0\n",
      "note_on channel=1 note=79 velocity=0 time=75\n",
      "note_on channel=1 note=75 velocity=0 time=0\n",
      "note_on channel=1 note=67 velocity=85 time=0\n",
      "note_on channel=1 note=67 velocity=0 time=39\n",
      "note_on channel=1 note=74 velocity=57 time=6\n",
      "note_on channel=1 note=77 velocity=68 time=0\n",
      "note_on channel=1 note=77 velocity=0 time=75\n",
      "note_on channel=1 note=74 velocity=0 time=0\n",
      "note_on channel=1 note=65 velocity=81 time=0\n",
      "note_on channel=1 note=65 velocity=0 time=39\n",
      "note_on channel=1 note=75 velocity=71 time=6\n",
      "note_on channel=1 note=72 velocity=61 time=0\n",
      "note_on channel=1 note=72 velocity=0 time=75\n",
      "note_on channel=1 note=75 velocity=0 time=0\n",
      "note_on channel=1 note=68 velocity=53 time=0\n",
      "note_on channel=1 note=68 velocity=0 time=39\n",
      "note_on channel=1 note=69 velocity=72 time=6\n",
      "note_on channel=1 note=69 velocity=0 time=75\n",
      "note_on channel=1 note=77 velocity=65 time=0\n",
      "note_on channel=1 note=81 velocity=78 time=0\n",
      "note_on channel=1 note=81 velocity=0 time=39\n",
      "note_on channel=1 note=77 velocity=0 time=0\n",
      "note_on channel=1 note=75 velocity=45 time=6\n",
      "note_on channel=1 note=79 velocity=76 time=0\n",
      "note_on channel=1 note=79 velocity=0 time=75\n",
      "note_on channel=1 note=75 velocity=0 time=0\n",
      "note_on channel=1 note=67 velocity=85 time=0\n",
      "note_on channel=1 note=67 velocity=0 time=39\n",
      "note_on channel=1 note=74 velocity=57 time=6\n",
      "note_on channel=1 note=77 velocity=68 time=0\n",
      "note_on channel=1 note=77 velocity=0 time=75\n",
      "note_on channel=1 note=74 velocity=0 time=0\n",
      "note_on channel=1 note=65 velocity=81 time=0\n",
      "note_on channel=1 note=65 velocity=0 time=39\n",
      "note_on channel=1 note=75 velocity=71 time=6\n",
      "note_on channel=1 note=72 velocity=61 time=0\n",
      "note_on channel=1 note=72 velocity=0 time=75\n",
      "note_on channel=1 note=75 velocity=0 time=0\n",
      "note_on channel=1 note=68 velocity=53 time=0\n",
      "note_on channel=1 note=68 velocity=0 time=39\n",
      "note_on channel=1 note=74 velocity=82 time=6\n",
      "note_on channel=1 note=74 velocity=0 time=75\n",
      "note_on channel=1 note=82 velocity=44 time=0\n",
      "note_on channel=1 note=86 velocity=69 time=0\n",
      "note_on channel=1 note=86 velocity=0 time=39\n",
      "note_on channel=1 note=82 velocity=0 time=0\n",
      "note_on channel=1 note=80 velocity=38 time=6\n",
      "note_on channel=1 note=84 velocity=74 time=0\n",
      "note_on channel=1 note=84 velocity=0 time=75\n",
      "note_on channel=1 note=80 velocity=0 time=0\n",
      "note_on channel=1 note=72 velocity=89 time=0\n",
      "note_on channel=1 note=72 velocity=0 time=39\n",
      "note_on channel=1 note=79 velocity=61 time=6\n",
      "note_on channel=1 note=82 velocity=51 time=0\n",
      "note_on channel=1 note=82 velocity=0 time=75\n",
      "note_on channel=1 note=79 velocity=0 time=0\n",
      "note_on channel=1 note=70 velocity=46 time=0\n",
      "note_on channel=1 note=70 velocity=0 time=39\n",
      "note_on channel=1 note=77 velocity=72 time=6\n",
      "note_on channel=1 note=81 velocity=76 time=0\n",
      "note_on channel=1 note=81 velocity=0 time=75\n",
      "note_on channel=1 note=77 velocity=0 time=0\n",
      "note_on channel=1 note=73 velocity=60 time=0\n",
      "note_on channel=1 note=73 velocity=0 time=39\n",
      "note_on channel=1 note=74 velocity=82 time=6\n",
      "note_on channel=1 note=74 velocity=0 time=75\n",
      "note_on channel=1 note=82 velocity=44 time=0\n",
      "note_on channel=1 note=86 velocity=69 time=0\n",
      "note_on channel=1 note=86 velocity=0 time=39\n",
      "note_on channel=1 note=82 velocity=0 time=0\n",
      "note_on channel=1 note=80 velocity=38 time=6\n",
      "note_on channel=1 note=84 velocity=74 time=0\n",
      "note_on channel=1 note=84 velocity=0 time=75\n",
      "note_on channel=1 note=80 velocity=0 time=0\n",
      "note_on channel=1 note=72 velocity=89 time=0\n",
      "note_on channel=1 note=72 velocity=0 time=39\n",
      "note_on channel=1 note=79 velocity=61 time=6\n",
      "note_on channel=1 note=82 velocity=51 time=0\n",
      "note_on channel=1 note=82 velocity=0 time=75\n",
      "note_on channel=1 note=79 velocity=0 time=0\n",
      "note_on channel=1 note=70 velocity=46 time=0\n",
      "note_on channel=1 note=70 velocity=0 time=39\n",
      "note_on channel=1 note=77 velocity=72 time=6\n",
      "note_on channel=1 note=81 velocity=76 time=0\n",
      "note_on channel=1 note=81 velocity=0 time=75\n",
      "note_on channel=1 note=77 velocity=0 time=0\n",
      "note_on channel=1 note=68 velocity=60 time=0\n",
      "note_on channel=1 note=68 velocity=0 time=39\n",
      "note_on channel=1 note=69 velocity=72 time=6\n",
      "note_on channel=1 note=69 velocity=0 time=75\n",
      "note_on channel=1 note=77 velocity=65 time=0\n",
      "note_on channel=1 note=81 velocity=78 time=0\n",
      "note_on channel=1 note=81 velocity=0 time=39\n",
      "note_on channel=1 note=77 velocity=0 time=0\n",
      "note_on channel=1 note=75 velocity=45 time=6\n",
      "note_on channel=1 note=79 velocity=76 time=0\n",
      "note_on channel=1 note=79 velocity=0 time=75\n",
      "note_on channel=1 note=75 velocity=0 time=0\n",
      "note_on channel=1 note=67 velocity=85 time=0\n",
      "note_on channel=1 note=67 velocity=0 time=39\n",
      "note_on channel=1 note=74 velocity=57 time=6\n",
      "note_on channel=1 note=77 velocity=68 time=0\n",
      "note_on channel=1 note=77 velocity=0 time=75\n",
      "note_on channel=1 note=74 velocity=0 time=0\n",
      "note_on channel=1 note=65 velocity=81 time=0\n",
      "note_on channel=1 note=65 velocity=0 time=39\n",
      "note_on channel=1 note=75 velocity=71 time=6\n",
      "note_on channel=1 note=72 velocity=61 time=0\n",
      "note_on channel=1 note=72 velocity=0 time=75\n",
      "note_on channel=1 note=75 velocity=0 time=0\n",
      "note_on channel=1 note=68 velocity=53 time=0\n",
      "note_on channel=1 note=68 velocity=0 time=39\n",
      "note_on channel=1 note=69 velocity=72 time=6\n",
      "note_on channel=1 note=69 velocity=0 time=75\n",
      "note_on channel=1 note=77 velocity=65 time=0\n",
      "note_on channel=1 note=81 velocity=78 time=0\n",
      "note_on channel=1 note=81 velocity=0 time=39\n",
      "note_on channel=1 note=77 velocity=0 time=0\n",
      "note_on channel=1 note=75 velocity=45 time=6\n",
      "note_on channel=1 note=79 velocity=76 time=0\n",
      "note_on channel=1 note=79 velocity=0 time=75\n",
      "note_on channel=1 note=75 velocity=0 time=0\n",
      "note_on channel=1 note=67 velocity=85 time=0\n",
      "note_on channel=1 note=67 velocity=0 time=39\n",
      "note_on channel=1 note=74 velocity=57 time=6\n",
      "note_on channel=1 note=77 velocity=68 time=0\n",
      "note_on channel=1 note=77 velocity=0 time=75\n",
      "note_on channel=1 note=74 velocity=0 time=0\n",
      "note_on channel=1 note=65 velocity=81 time=0\n",
      "note_on channel=1 note=65 velocity=0 time=39\n",
      "note_on channel=1 note=75 velocity=71 time=6\n",
      "note_on channel=1 note=72 velocity=61 time=0\n",
      "note_on channel=1 note=72 velocity=0 time=75\n",
      "note_on channel=1 note=75 velocity=0 time=0\n",
      "note_on channel=1 note=75 velocity=53 time=0\n",
      "note_on channel=1 note=75 velocity=0 time=39\n",
      "note_on channel=1 note=76 velocity=86 time=6\n",
      "note_on channel=1 note=76 velocity=0 time=75\n",
      "note_on channel=1 note=84 velocity=44 time=0\n",
      "note_on channel=1 note=88 velocity=65 time=0\n",
      "note_on channel=1 note=88 velocity=0 time=39\n",
      "note_on channel=1 note=84 velocity=0 time=0\n",
      "note_on channel=1 note=82 velocity=44 time=6\n",
      "note_on channel=1 note=86 velocity=76 time=0\n",
      "note_on channel=1 note=86 velocity=0 time=75\n",
      "note_on channel=1 note=82 velocity=0 time=0\n",
      "note_on channel=1 note=74 velocity=99 time=0\n",
      "note_on channel=1 note=74 velocity=0 time=39\n",
      "note_on channel=1 note=81 velocity=64 time=6\n",
      "note_on channel=1 note=84 velocity=72 time=0\n",
      "note_on channel=1 note=84 velocity=0 time=75\n",
      "note_on channel=1 note=81 velocity=0 time=0\n",
      "note_on channel=1 note=72 velocity=94 time=0\n",
      "note_on channel=1 note=72 velocity=0 time=39\n",
      "note_on channel=1 note=79 velocity=52 time=6\n",
      "note_on channel=1 note=82 velocity=43 time=0\n",
      "note_on channel=1 note=82 velocity=0 time=75\n",
      "note_on channel=1 note=79 velocity=0 time=0\n",
      "note_on channel=1 note=73 velocity=61 time=0\n",
      "note_on channel=1 note=73 velocity=0 time=39\n",
      "note_on channel=1 note=74 velocity=74 time=6\n",
      "note_on channel=1 note=74 velocity=0 time=75\n",
      "note_on channel=1 note=82 velocity=45 time=0\n",
      "note_on channel=1 note=86 velocity=77 time=0\n",
      "note_on channel=1 note=86 velocity=0 time=39\n",
      "note_on channel=1 note=82 velocity=0 time=0\n",
      "note_on channel=1 note=84 velocity=72 time=6\n",
      "note_on channel=1 note=80 velocity=42 time=0\n",
      "note_on channel=1 note=80 velocity=0 time=75\n",
      "note_on channel=1 note=84 velocity=0 time=0\n",
      "note_on channel=1 note=72 velocity=85 time=0\n",
      "note_on channel=1 note=72 velocity=0 time=39\n",
      "note_on channel=1 note=79 velocity=62 time=6\n",
      "note_on channel=1 note=82 velocity=61 time=0\n",
      "note_on channel=1 note=82 velocity=0 time=75\n",
      "note_on channel=1 note=79 velocity=0 time=0\n",
      "note_on channel=1 note=70 velocity=61 time=0\n",
      "note_on channel=1 note=70 velocity=0 time=39\n",
      "note_on channel=1 note=74 velocity=71 time=6\n",
      "note_on channel=1 note=81 velocity=78 time=0\n",
      "note_on channel=1 note=81 velocity=0 time=75\n",
      "note_on channel=1 note=74 velocity=0 time=0\n",
      "note_on channel=1 note=72 velocity=82 time=0\n",
      "note_on channel=1 note=72 velocity=0 time=39\n",
      "note_on channel=1 note=77 velocity=76 time=6\n",
      "note_on channel=1 note=72 velocity=81 time=0\n",
      "note_on channel=1 note=69 velocity=81 time=0\n",
      "note_on channel=1 note=69 velocity=0 time=119\n",
      "note_on channel=1 note=72 velocity=0 time=0\n",
      "note_on channel=1 note=77 velocity=0 time=0\n",
      "note_on channel=1 note=69 velocity=60 time=1\n",
      "note_on channel=1 note=72 velocity=73 time=0\n",
      "note_on channel=1 note=72 velocity=0 time=75\n",
      "note_on channel=1 note=69 velocity=0 time=0\n",
      "note_on channel=1 note=70 velocity=42 time=0\n",
      "note_on channel=1 note=74 velocity=68 time=0\n",
      "note_on channel=1 note=74 velocity=0 time=39\n",
      "note_on channel=1 note=70 velocity=0 time=0\n",
      "note_on channel=1 note=69 velocity=58 time=6\n",
      "note_on channel=1 note=72 velocity=76 time=0\n",
      "note_on channel=1 note=72 velocity=0 time=75\n",
      "note_on channel=1 note=69 velocity=0 time=0\n",
      "note_on channel=1 note=60 velocity=85 time=0\n",
      "note_on channel=1 note=60 velocity=0 time=39\n",
      "note_on channel=1 note=68 velocity=61 time=6\n",
      "note_on channel=1 note=65 velocity=76 time=0\n",
      "note_on channel=1 note=62 velocity=72 time=0\n",
      "note_on channel=1 note=62 velocity=0 time=75\n",
      "note_on channel=1 note=65 velocity=0 time=0\n",
      "note_on channel=1 note=68 velocity=0 time=0\n",
      "note_on channel=1 note=60 velocity=95 time=0\n",
      "note_on channel=1 note=60 velocity=0 time=39\n",
      "note_on channel=1 note=60 velocity=81 time=6\n",
      "note_on channel=1 note=65 velocity=61 time=0\n",
      "note_on channel=1 note=57 velocity=73 time=0\n",
      "note_on channel=1 note=57 velocity=0 time=119\n",
      "note_on channel=1 note=65 velocity=0 time=0\n",
      "note_on channel=1 note=60 velocity=0 time=0\n",
      "note_on channel=1 note=65 velocity=69 time=196\n",
      "note_on channel=1 note=69 velocity=85 time=0\n",
      "note_on channel=1 note=72 velocity=86 time=0\n",
      "note_on channel=1 note=74 velocity=89 time=0\n",
      "note_on channel=1 note=77 velocity=94 time=0\n",
      "note_on channel=1 note=77 velocity=0 time=30\n",
      "note_on channel=1 note=72 velocity=0 time=0\n",
      "note_on channel=1 note=65 velocity=0 time=0\n",
      "note_on channel=1 note=69 velocity=0 time=0\n",
      "note_on channel=1 note=74 velocity=0 time=0\n",
      "note_on channel=1 note=69 velocity=98 time=135\n",
      "note_on channel=1 note=65 velocity=85 time=0\n",
      "note_on channel=1 note=74 velocity=94 time=0\n",
      "note_on channel=1 note=72 velocity=98 time=0\n",
      "note_on channel=1 note=77 velocity=105 time=0\n",
      "note_on channel=1 note=65 velocity=0 time=26\n",
      "note_on channel=1 note=72 velocity=0 time=4\n",
      "note_on channel=1 note=77 velocity=0 time=0\n",
      "note_on channel=1 note=74 velocity=0 time=0\n",
      "note_on channel=1 note=69 velocity=0 time=1\n",
      "note_on channel=1 note=65 velocity=86 time=284\n",
      "note_on channel=1 note=69 velocity=95 time=0\n",
      "note_on channel=1 note=72 velocity=93 time=0\n",
      "note_on channel=1 note=74 velocity=93 time=0\n",
      "note_on channel=1 note=77 velocity=99 time=0\n",
      "note_on channel=1 note=65 velocity=0 time=22\n",
      "note_on channel=1 note=74 velocity=0 time=6\n",
      "note_on channel=1 note=77 velocity=0 time=1\n",
      "note_on channel=1 note=72 velocity=0 time=0\n",
      "note_on channel=1 note=69 velocity=0 time=3\n",
      "note_on channel=1 note=65 velocity=84 time=133\n",
      "note_on channel=1 note=69 velocity=99 time=0\n",
      "note_on channel=1 note=74 velocity=95 time=0\n",
      "note_on channel=1 note=72 velocity=99 time=0\n",
      "note_on channel=1 note=77 velocity=110 time=0\n",
      "note_on channel=1 note=65 velocity=0 time=35\n",
      "note_on channel=1 note=72 velocity=0 time=8\n",
      "note_on channel=1 note=69 velocity=0 time=0\n",
      "note_on channel=1 note=74 velocity=0 time=0\n",
      "note_on channel=1 note=77 velocity=0 time=0\n",
      "note_on channel=1 note=65 velocity=84 time=272\n",
      "note_on channel=1 note=69 velocity=99 time=0\n",
      "note_on channel=1 note=72 velocity=94 time=0\n",
      "note_on channel=1 note=74 velocity=86 time=0\n",
      "note_on channel=1 note=77 velocity=98 time=0\n",
      "note_on channel=1 note=74 velocity=0 time=27\n",
      "note_on channel=1 note=65 velocity=0 time=1\n",
      "note_on channel=1 note=77 velocity=0 time=1\n",
      "note_on channel=1 note=72 velocity=0 time=0\n",
      "note_on channel=1 note=69 velocity=0 time=4\n",
      "note_on channel=1 note=65 velocity=98 time=132\n",
      "note_on channel=1 note=69 velocity=105 time=0\n",
      "note_on channel=1 note=74 velocity=99 time=0\n",
      "note_on channel=1 note=72 velocity=105 time=0\n",
      "note_on channel=1 note=77 velocity=112 time=0\n",
      "note_on channel=1 note=65 velocity=0 time=35\n",
      "note_on channel=1 note=69 velocity=0 time=1\n",
      "note_on channel=1 note=72 velocity=0 time=6\n",
      "note_on channel=1 note=74 velocity=0 time=0\n",
      "note_on channel=1 note=77 velocity=0 time=3\n",
      "note_on channel=1 note=69 velocity=90 time=270\n",
      "note_on channel=1 note=65 velocity=89 time=0\n",
      "note_on channel=1 note=72 velocity=94 time=0\n",
      "note_on channel=1 note=74 velocity=94 time=0\n",
      "note_on channel=1 note=77 velocity=107 time=0\n",
      "note_on channel=1 note=74 velocity=0 time=27\n",
      "note_on channel=1 note=72 velocity=0 time=1\n",
      "note_on channel=1 note=65 velocity=0 time=0\n",
      "note_on channel=1 note=77 velocity=0 time=2\n",
      "note_on channel=1 note=69 velocity=0 time=4\n",
      "note_on channel=1 note=65 velocity=99 time=131\n",
      "note_on channel=1 note=69 velocity=101 time=0\n",
      "note_on channel=1 note=77 velocity=107 time=0\n",
      "note_on channel=1 note=72 velocity=107 time=0\n",
      "note_on channel=1 note=74 velocity=95 time=0\n",
      "note_on channel=1 note=69 velocity=0 time=37\n",
      "note_on channel=1 note=65 velocity=0 time=0\n",
      "note_on channel=1 note=74 velocity=0 time=1\n",
      "note_on channel=1 note=72 velocity=0 time=1\n",
      "note_on channel=1 note=77 velocity=0 time=3\n",
      "note_on channel=1 note=65 velocity=80 time=273\n",
      "note_on channel=1 note=69 velocity=90 time=0\n",
      "note_on channel=1 note=72 velocity=104 time=0\n",
      "note_on channel=1 note=74 velocity=105 time=0\n",
      "note_on channel=1 note=77 velocity=110 time=0\n",
      "note_on channel=1 note=74 velocity=0 time=37\n",
      "note_on channel=1 note=69 velocity=0 time=0\n",
      "note_on channel=1 note=65 velocity=0 time=0\n",
      "note_on channel=1 note=77 velocity=0 time=2\n",
      "note_on channel=1 note=72 velocity=0 time=1\n",
      "note_on channel=1 note=68 velocity=76 time=125\n",
      "note_on channel=1 note=65 velocity=95 time=0\n",
      "note_on channel=1 note=72 velocity=104 time=0\n",
      "note_on channel=1 note=74 velocity=112 time=0\n",
      "note_on channel=1 note=77 velocity=112 time=0\n",
      "note_on channel=1 note=68 velocity=0 time=40\n",
      "note_on channel=1 note=77 velocity=0 time=6\n",
      "note_on channel=1 note=74 velocity=0 time=4\n",
      "note_on channel=1 note=72 velocity=0 time=1\n",
      "note_on channel=1 note=65 velocity=0 time=0\n",
      "note_on channel=1 note=65 velocity=94 time=264\n",
      "note_on channel=1 note=68 velocity=93 time=0\n",
      "note_on channel=1 note=72 velocity=98 time=0\n",
      "note_on channel=1 note=74 velocity=98 time=0\n",
      "note_on channel=1 note=77 velocity=117 time=0\n",
      "note_on channel=1 note=68 velocity=0 time=27\n",
      "note_on channel=1 note=74 velocity=0 time=4\n",
      "note_on channel=1 note=65 velocity=0 time=0\n",
      "note_on channel=1 note=72 velocity=0 time=1\n",
      "note_on channel=1 note=77 velocity=0 time=2\n",
      "note_on channel=1 note=68 velocity=89 time=131\n",
      "note_on channel=1 note=65 velocity=94 time=0\n",
      "note_on channel=1 note=77 velocity=117 time=0\n",
      "note_on channel=1 note=74 velocity=99 time=0\n",
      "note_on channel=1 note=72 velocity=105 time=0\n",
      "note_on channel=1 note=68 velocity=0 time=33\n",
      "note_on channel=1 note=65 velocity=0 time=8\n",
      "note_on channel=1 note=74 velocity=0 time=4\n",
      "note_on channel=1 note=72 velocity=0 time=0\n",
      "note_on channel=1 note=77 velocity=0 time=5\n",
      "note_on channel=1 note=65 velocity=82 time=265\n",
      "note_on channel=1 note=68 velocity=71 time=0\n",
      "note_on channel=1 note=72 velocity=94 time=0\n",
      "note_on channel=1 note=74 velocity=94 time=0\n",
      "note_on channel=1 note=77 velocity=110 time=0\n",
      "note_on channel=1 note=74 velocity=0 time=42\n",
      "note_on channel=1 note=68 velocity=0 time=0\n",
      "note_on channel=1 note=72 velocity=0 time=2\n",
      "note_on channel=1 note=65 velocity=0 time=2\n",
      "note_on channel=1 note=77 velocity=0 time=0\n",
      "note_on channel=1 note=65 velocity=82 time=119\n",
      "note_on channel=1 note=69 velocity=98 time=0\n",
      "note_on channel=1 note=74 velocity=94 time=0\n",
      "note_on channel=1 note=72 velocity=98 time=0\n",
      "note_on channel=1 note=77 velocity=104 time=0\n",
      "note_on channel=1 note=74 velocity=0 time=44\n",
      "note_on channel=1 note=72 velocity=0 time=1\n",
      "note_on channel=1 note=77 velocity=0 time=2\n",
      "note_on channel=1 note=69 velocity=0 time=4\n",
      "note_on channel=1 note=65 velocity=0 time=2\n",
      "note_on channel=1 note=65 velocity=90 time=262\n",
      "note_on channel=1 note=69 velocity=95 time=0\n",
      "note_on channel=1 note=72 velocity=94 time=0\n",
      "note_on channel=1 note=74 velocity=93 time=0\n",
      "note_on channel=1 note=77 velocity=101 time=0\n",
      "note_on channel=1 note=77 velocity=0 time=39\n",
      "note_on channel=1 note=72 velocity=0 time=0\n",
      "note_on channel=1 note=74 velocity=0 time=0\n",
      "note_on channel=1 note=65 velocity=0 time=6\n",
      "note_on channel=1 note=69 velocity=0 time=5\n",
      "note_on channel=1 note=65 velocity=90 time=115\n",
      "note_on channel=1 note=69 velocity=104 time=0\n",
      "note_on channel=1 note=74 velocity=99 time=0\n",
      "note_on channel=1 note=72 velocity=105 time=0\n",
      "note_on channel=1 note=77 velocity=112 time=0\n",
      "note_on channel=1 note=69 velocity=0 time=50\n",
      "note_on channel=1 note=72 velocity=0 time=1\n",
      "note_on channel=1 note=74 velocity=0 time=1\n",
      "note_on channel=1 note=77 velocity=0 time=1\n",
      "note_on channel=1 note=65 velocity=0 time=4\n",
      "note_on channel=1 note=65 velocity=89 time=258\n",
      "note_on channel=1 note=69 velocity=89 time=0\n",
      "note_on channel=1 note=72 velocity=98 time=0\n",
      "note_on channel=1 note=74 velocity=99 time=0\n",
      "note_on channel=1 note=77 velocity=104 time=0\n",
      "note_on channel=1 note=74 velocity=0 time=30\n",
      "note_on channel=1 note=77 velocity=0 time=1\n",
      "note_on channel=1 note=72 velocity=0 time=2\n",
      "note_on channel=1 note=65 velocity=0 time=0\n",
      "note_on channel=1 note=69 velocity=0 time=3\n",
      "note_on channel=1 note=67 velocity=94 time=129\n",
      "note_on channel=1 note=70 velocity=89 time=0\n",
      "note_on channel=1 note=64 velocity=85 time=0\n",
      "note_on channel=1 note=60 velocity=82 time=0\n",
      "note_on channel=1 note=60 velocity=0 time=64\n",
      "note_on channel=1 note=64 velocity=0 time=2\n",
      "note_on channel=1 note=67 velocity=0 time=6\n",
      "note_on channel=1 note=70 velocity=0 time=1\n",
      "note_on channel=1 note=72 velocity=99 time=242\n",
      "note_on channel=1 note=70 velocity=85 time=0\n",
      "note_on channel=1 note=60 velocity=85 time=0\n",
      "note_on channel=1 note=64 velocity=89 time=0\n",
      "note_on channel=1 note=67 velocity=95 time=0\n",
      "note_on channel=1 note=60 velocity=0 time=36\n",
      "note_on channel=1 note=64 velocity=0 time=3\n",
      "note_on channel=1 note=67 velocity=0 time=12\n",
      "note_on channel=1 note=70 velocity=0 time=1\n",
      "note_on channel=1 note=72 velocity=0 time=7\n",
      "note_on channel=1 note=68 velocity=91 time=106\n",
      "note_on channel=1 note=65 velocity=99 time=0\n",
      "note_on channel=1 note=62 velocity=81 time=0\n",
      "note_on channel=1 note=60 velocity=68 time=0\n",
      "note_on channel=1 note=60 velocity=0 time=60\n",
      "note_on channel=1 note=62 velocity=0 time=1\n",
      "note_on channel=1 note=68 velocity=0 time=0\n",
      "note_on channel=1 note=65 velocity=0 time=2\n",
      "note_on channel=1 note=68 velocity=82 time=252\n",
      "note_on channel=1 note=65 velocity=99 time=0\n",
      "note_on channel=1 note=62 velocity=89 time=0\n",
      "note_on channel=1 note=60 velocity=65 time=0\n",
      "note_on channel=1 note=62 velocity=0 time=51\n",
      "note_on channel=1 note=60 velocity=0 time=6\n",
      "note_on channel=1 note=68 velocity=0 time=0\n",
      "note_on channel=1 note=65 velocity=0 time=2\n",
      "note_on channel=1 note=65 velocity=77 time=106\n",
      "note_on channel=1 note=65 velocity=0 time=59\n",
      "note_on channel=1 note=72 velocity=61 time=16\n",
      "note_on channel=1 note=77 velocity=72 time=0\n",
      "note_on channel=1 note=77 velocity=0 time=119\n",
      "note_on channel=1 note=72 velocity=0 time=0\n",
      "note_on channel=1 note=72 velocity=61 time=1\n",
      "note_on channel=1 note=77 velocity=60 time=0\n",
      "note_on channel=1 note=70 velocity=51 time=45\n",
      "note_on channel=1 note=74 velocity=77 time=0\n",
      "note_on channel=1 note=77 velocity=0 time=14\n",
      "note_on channel=1 note=72 velocity=0 time=0\n",
      "note_on channel=1 note=70 velocity=0 time=61\n",
      "note_on channel=1 note=74 velocity=0 time=0\n",
      "note_on channel=1 note=70 velocity=45 time=0\n",
      "note_on channel=1 note=74 velocity=72 time=0\n",
      "note_on channel=1 note=67 velocity=82 time=45\n",
      "note_on channel=1 note=74 velocity=0 time=14\n",
      "note_on channel=1 note=70 velocity=0 time=0\n",
      "note_on channel=1 note=67 velocity=0 time=61\n",
      "note_on channel=1 note=68 velocity=46 time=0\n",
      "note_on channel=1 note=72 velocity=82 time=0\n",
      "note_on channel=1 note=69 velocity=68 time=45\n",
      "note_on channel=1 note=65 velocity=76 time=0\n",
      "note_on channel=1 note=60 velocity=73 time=0\n",
      "note_on channel=1 note=72 velocity=0 time=14\n",
      "note_on channel=1 note=68 velocity=0 time=0\n",
      "note_on channel=1 note=65 velocity=0 time=105\n",
      "note_on channel=1 note=69 velocity=0 time=0\n",
      "note_on channel=1 note=60 velocity=0 time=0\n",
      "note_on channel=1 note=65 velocity=95 time=361\n",
      "note_on channel=1 note=69 velocity=104 time=0\n",
      "note_on channel=1 note=72 velocity=105 time=0\n",
      "note_on channel=1 note=72 velocity=0 time=75\n",
      "note_on channel=1 note=69 velocity=0 time=0\n",
      "note_on channel=1 note=65 velocity=0 time=0\n",
      "note_on channel=1 note=65 velocity=77 time=0\n",
      "note_on channel=1 note=69 velocity=89 time=0\n",
      "note_on channel=1 note=72 velocity=85 time=0\n",
      "note_on channel=1 note=72 velocity=0 time=39\n",
      "note_on channel=1 note=69 velocity=0 time=0\n",
      "note_on channel=1 note=65 velocity=0 time=0\n",
      "note_on channel=1 note=65 velocity=78 time=6\n",
      "note_on channel=1 note=69 velocity=90 time=0\n",
      "note_on channel=1 note=72 velocity=93 time=0\n",
      "note_on channel=1 note=72 velocity=0 time=75\n",
      "note_on channel=1 note=69 velocity=0 time=0\n",
      "note_on channel=1 note=65 velocity=0 time=0\n",
      "note_on channel=1 note=65 velocity=95 time=0\n",
      "note_on channel=1 note=69 velocity=105 time=0\n",
      "note_on channel=1 note=72 velocity=105 time=0\n",
      "note_on channel=1 note=72 velocity=0 time=39\n",
      "note_on channel=1 note=69 velocity=0 time=0\n",
      "note_on channel=1 note=65 velocity=0 time=0\n",
      "note_on channel=1 note=65 velocity=80 time=6\n",
      "note_on channel=1 note=69 velocity=86 time=0\n",
      "note_on channel=1 note=72 velocity=90 time=0\n",
      "note_on channel=1 note=72 velocity=0 time=75\n",
      "note_on channel=1 note=69 velocity=0 time=0\n",
      "note_on channel=1 note=65 velocity=0 time=0\n",
      "note_on channel=1 note=65 velocity=85 time=0\n",
      "note_on channel=1 note=69 velocity=99 time=0\n",
      "note_on channel=1 note=72 velocity=98 time=0\n",
      "note_on channel=1 note=72 velocity=0 time=39\n",
      "note_on channel=1 note=69 velocity=0 time=0\n",
      "note_on channel=1 note=65 velocity=0 time=0\n",
      "note_on channel=1 note=65 velocity=72 time=6\n",
      "note_on channel=1 note=69 velocity=86 time=0\n",
      "note_on channel=1 note=72 velocity=84 time=0\n",
      "note_on channel=1 note=72 velocity=0 time=75\n",
      "note_on channel=1 note=69 velocity=0 time=0\n",
      "note_on channel=1 note=65 velocity=0 time=0\n",
      "note_on channel=1 note=65 velocity=93 time=0\n",
      "note_on channel=1 note=69 velocity=104 time=0\n",
      "note_on channel=1 note=72 velocity=104 time=0\n",
      "note_on channel=1 note=72 velocity=0 time=39\n",
      "note_on channel=1 note=69 velocity=0 time=0\n",
      "note_on channel=1 note=65 velocity=0 time=0\n",
      "note_on channel=1 note=72 velocity=105 time=6\n",
      "note_on channel=1 note=69 velocity=104 time=0\n",
      "note_on channel=1 note=64 velocity=104 time=0\n",
      "note_on channel=1 note=58 velocity=64 time=0\n",
      "note_on channel=1 note=58 velocity=0 time=75\n",
      "note_on channel=1 note=72 velocity=0 time=0\n",
      "note_on channel=1 note=69 velocity=0 time=0\n",
      "note_on channel=1 note=64 velocity=0 time=0\n",
      "note_on channel=1 note=72 velocity=99 time=0\n",
      "note_on channel=1 note=58 velocity=72 time=0\n",
      "note_on channel=1 note=64 velocity=82 time=0\n",
      "note_on channel=1 note=69 velocity=99 time=0\n",
      "note_on channel=1 note=69 velocity=0 time=39\n",
      "note_on channel=1 note=72 velocity=0 time=0\n",
      "note_on channel=1 note=58 velocity=0 time=0\n",
      "note_on channel=1 note=64 velocity=0 time=0\n",
      "note_on channel=1 note=72 velocity=84 time=6\n",
      "note_on channel=1 note=58 velocity=69 time=0\n",
      "note_on channel=1 note=64 velocity=76 time=0\n",
      "note_on channel=1 note=69 velocity=84 time=0\n",
      "note_on channel=1 note=69 velocity=0 time=75\n",
      "note_on channel=1 note=72 velocity=0 time=0\n",
      "note_on channel=1 note=58 velocity=0 time=0\n",
      "note_on channel=1 note=64 velocity=0 time=0\n",
      "note_on channel=1 note=72 velocity=89 time=0\n",
      "note_on channel=1 note=58 velocity=78 time=0\n",
      "note_on channel=1 note=64 velocity=85 time=0\n",
      "note_on channel=1 note=69 velocity=89 time=0\n",
      "note_on channel=1 note=69 velocity=0 time=39\n",
      "note_on channel=1 note=72 velocity=0 time=0\n",
      "note_on channel=1 note=58 velocity=0 time=0\n",
      "note_on channel=1 note=64 velocity=0 time=0\n",
      "note_on channel=1 note=72 velocity=85 time=6\n",
      "note_on channel=1 note=58 velocity=70 time=0\n",
      "note_on channel=1 note=64 velocity=78 time=0\n",
      "note_on channel=1 note=69 velocity=94 time=0\n",
      "note_on channel=1 note=69 velocity=0 time=75\n",
      "note_on channel=1 note=72 velocity=0 time=0\n",
      "note_on channel=1 note=58 velocity=0 time=0\n",
      "note_on channel=1 note=64 velocity=0 time=0\n",
      "note_on channel=1 note=58 velocity=71 time=0\n",
      "note_on channel=1 note=64 velocity=78 time=0\n",
      "note_on channel=1 note=69 velocity=93 time=0\n",
      "note_on channel=1 note=72 velocity=86 time=0\n",
      "note_on channel=1 note=72 velocity=0 time=39\n",
      "note_on channel=1 note=58 velocity=0 time=0\n",
      "note_on channel=1 note=64 velocity=0 time=0\n",
      "note_on channel=1 note=69 velocity=0 time=0\n",
      "note_on channel=1 note=58 velocity=70 time=6\n",
      "note_on channel=1 note=64 velocity=82 time=0\n",
      "note_on channel=1 note=69 velocity=95 time=0\n",
      "note_on channel=1 note=72 velocity=95 time=0\n",
      "note_on channel=1 note=72 velocity=0 time=75\n",
      "note_on channel=1 note=58 velocity=0 time=0\n",
      "note_on channel=1 note=64 velocity=0 time=0\n",
      "note_on channel=1 note=69 velocity=0 time=0\n",
      "note_on channel=1 note=58 velocity=57 time=0\n",
      "note_on channel=1 note=64 velocity=67 time=0\n",
      "note_on channel=1 note=69 velocity=90 time=0\n",
      "note_on channel=1 note=72 velocity=84 time=0\n",
      "note_on channel=1 note=72 velocity=0 time=39\n",
      "note_on channel=1 note=58 velocity=0 time=0\n",
      "note_on channel=1 note=64 velocity=0 time=0\n",
      "note_on channel=1 note=69 velocity=0 time=0\n",
      "note_on channel=1 note=62 velocity=73 time=6\n",
      "note_on channel=1 note=60 velocity=73 time=0\n",
      "note_on channel=1 note=65 velocity=82 time=0\n",
      "note_on channel=1 note=57 velocity=85 time=0\n",
      "note_on channel=1 note=77 velocity=89 time=90\n",
      "note_on channel=1 note=77 velocity=0 time=9\n",
      "note_on channel=1 note=79 velocity=90 time=1\n",
      "note_on channel=1 note=79 velocity=0 time=9\n",
      "note_on channel=1 note=80 velocity=51 time=1\n",
      "note_on channel=1 note=80 velocity=0 time=9\n",
      "note_on channel=1 note=65 velocity=0 time=0\n",
      "note_on channel=1 note=62 velocity=0 time=0\n",
      "note_on channel=1 note=60 velocity=0 time=0\n",
      "note_on channel=1 note=57 velocity=0 time=0\n",
      "note_on channel=1 note=81 velocity=99 time=1\n",
      "note_on channel=1 note=81 velocity=0 time=119\n",
      "note_on channel=1 note=79 velocity=104 time=1\n",
      "note_on channel=1 note=79 velocity=0 time=75\n",
      "note_on channel=1 note=76 velocity=104 time=0\n",
      "note_on channel=1 note=76 velocity=0 time=39\n",
      "note_on channel=1 note=67 velocity=104 time=6\n",
      "note_on channel=1 note=67 velocity=0 time=75\n",
      "note_on channel=1 note=68 velocity=104 time=0\n",
      "note_on channel=1 note=68 velocity=0 time=39\n",
      "note_on channel=1 note=69 velocity=104 time=6\n",
      "note_on channel=1 note=69 velocity=0 time=75\n",
      "note_on channel=1 note=74 velocity=104 time=0\n",
      "note_on channel=1 note=74 velocity=0 time=39\n",
      "note_on channel=1 note=65 velocity=106 time=6\n",
      "note_on channel=1 note=65 velocity=0 time=75\n",
      "note_on channel=1 note=64 velocity=107 time=0\n",
      "note_on channel=1 note=64 velocity=0 time=39\n",
      "note_on channel=1 note=63 velocity=107 time=6\n",
      "note_on channel=1 note=69 velocity=82 time=75\n",
      "note_on channel=1 note=63 velocity=0 time=44\n",
      "note_on channel=1 note=72 velocity=107 time=1\n",
      "note_on channel=1 note=69 velocity=0 time=14\n",
      "note_on channel=1 note=72 velocity=0 time=61\n",
      "note_on channel=1 note=73 velocity=108 time=0\n",
      "note_on channel=1 note=73 velocity=0 time=39\n",
      "note_on channel=1 note=74 velocity=110 time=6\n",
      "note_on channel=1 note=74 velocity=0 time=75\n",
      "note_on channel=1 note=82 velocity=111 time=0\n",
      "note_on channel=1 note=86 velocity=111 time=0\n",
      "note_on channel=1 note=86 velocity=0 time=39\n",
      "note_on channel=1 note=82 velocity=0 time=0\n",
      "note_on channel=1 note=80 velocity=109 time=6\n",
      "note_on channel=1 note=84 velocity=109 time=0\n",
      "note_on channel=1 note=84 velocity=0 time=75\n",
      "note_on channel=1 note=80 velocity=0 time=0\n",
      "note_on channel=1 note=72 velocity=104 time=0\n",
      "note_on channel=1 note=72 velocity=0 time=39\n",
      "note_on channel=1 note=79 velocity=99 time=6\n",
      "note_on channel=1 note=82 velocity=99 time=0\n",
      "note_on channel=1 note=82 velocity=0 time=75\n",
      "note_on channel=1 note=79 velocity=0 time=0\n",
      "note_on channel=1 note=70 velocity=98 time=0\n",
      "note_on channel=1 note=70 velocity=0 time=39\n",
      "note_on channel=1 note=77 velocity=72 time=6\n",
      "note_on channel=1 note=81 velocity=76 time=0\n",
      "note_on channel=1 note=81 velocity=0 time=75\n",
      "note_on channel=1 note=77 velocity=0 time=0\n",
      "note_on channel=1 note=73 velocity=60 time=0\n",
      "note_on channel=1 note=73 velocity=0 time=39\n",
      "note_on channel=1 note=74 velocity=82 time=6\n",
      "note_on channel=1 note=74 velocity=0 time=75\n",
      "note_on channel=1 note=82 velocity=44 time=0\n",
      "note_on channel=1 note=86 velocity=69 time=0\n",
      "note_on channel=1 note=86 velocity=0 time=39\n",
      "note_on channel=1 note=82 velocity=0 time=0\n",
      "note_on channel=1 note=80 velocity=38 time=6\n",
      "note_on channel=1 note=84 velocity=74 time=0\n",
      "note_on channel=1 note=84 velocity=0 time=75\n",
      "note_on channel=1 note=80 velocity=0 time=0\n",
      "note_on channel=1 note=72 velocity=89 time=0\n",
      "note_on channel=1 note=72 velocity=0 time=39\n",
      "note_on channel=1 note=79 velocity=61 time=6\n",
      "note_on channel=1 note=82 velocity=51 time=0\n",
      "note_on channel=1 note=82 velocity=0 time=75\n",
      "note_on channel=1 note=79 velocity=0 time=0\n",
      "note_on channel=1 note=70 velocity=46 time=0\n",
      "note_on channel=1 note=70 velocity=0 time=39\n",
      "note_on channel=1 note=77 velocity=72 time=6\n",
      "note_on channel=1 note=81 velocity=76 time=0\n",
      "note_on channel=1 note=81 velocity=0 time=75\n",
      "note_on channel=1 note=77 velocity=0 time=0\n",
      "note_on channel=1 note=68 velocity=60 time=0\n",
      "note_on channel=1 note=68 velocity=0 time=39\n",
      "note_on channel=1 note=69 velocity=72 time=6\n",
      "note_on channel=1 note=69 velocity=0 time=75\n",
      "note_on channel=1 note=77 velocity=65 time=0\n",
      "note_on channel=1 note=81 velocity=78 time=0\n",
      "note_on channel=1 note=81 velocity=0 time=39\n",
      "note_on channel=1 note=77 velocity=0 time=0\n",
      "note_on channel=1 note=75 velocity=45 time=6\n",
      "note_on channel=1 note=79 velocity=76 time=0\n",
      "note_on channel=1 note=79 velocity=0 time=75\n",
      "note_on channel=1 note=75 velocity=0 time=0\n",
      "note_on channel=1 note=67 velocity=85 time=0\n",
      "note_on channel=1 note=67 velocity=0 time=39\n",
      "note_on channel=1 note=74 velocity=57 time=6\n",
      "note_on channel=1 note=77 velocity=68 time=0\n",
      "note_on channel=1 note=77 velocity=0 time=75\n",
      "note_on channel=1 note=74 velocity=0 time=0\n",
      "note_on channel=1 note=65 velocity=81 time=0\n",
      "note_on channel=1 note=65 velocity=0 time=39\n",
      "note_on channel=1 note=75 velocity=71 time=6\n",
      "note_on channel=1 note=72 velocity=61 time=0\n",
      "note_on channel=1 note=72 velocity=0 time=75\n",
      "note_on channel=1 note=75 velocity=0 time=0\n",
      "note_on channel=1 note=68 velocity=53 time=0\n",
      "note_on channel=1 note=68 velocity=0 time=39\n",
      "note_on channel=1 note=69 velocity=72 time=6\n",
      "note_on channel=1 note=69 velocity=0 time=75\n",
      "note_on channel=1 note=77 velocity=65 time=0\n",
      "note_on channel=1 note=81 velocity=78 time=0\n",
      "note_on channel=1 note=81 velocity=0 time=39\n",
      "note_on channel=1 note=77 velocity=0 time=0\n",
      "note_on channel=1 note=75 velocity=45 time=6\n",
      "note_on channel=1 note=79 velocity=76 time=0\n",
      "note_on channel=1 note=79 velocity=0 time=75\n",
      "note_on channel=1 note=75 velocity=0 time=0\n",
      "note_on channel=1 note=67 velocity=85 time=0\n",
      "note_on channel=1 note=67 velocity=0 time=39\n",
      "note_on channel=1 note=74 velocity=57 time=6\n",
      "note_on channel=1 note=77 velocity=68 time=0\n",
      "note_on channel=1 note=77 velocity=0 time=75\n",
      "note_on channel=1 note=74 velocity=0 time=0\n",
      "note_on channel=1 note=65 velocity=81 time=0\n",
      "note_on channel=1 note=65 velocity=0 time=39\n",
      "note_on channel=1 note=75 velocity=71 time=6\n",
      "note_on channel=1 note=72 velocity=61 time=0\n",
      "note_on channel=1 note=72 velocity=0 time=75\n",
      "note_on channel=1 note=75 velocity=0 time=0\n",
      "note_on channel=1 note=75 velocity=53 time=0\n",
      "note_on channel=1 note=75 velocity=0 time=39\n",
      "note_on channel=1 note=76 velocity=86 time=6\n",
      "note_on channel=1 note=76 velocity=0 time=75\n",
      "note_on channel=1 note=84 velocity=44 time=0\n",
      "note_on channel=1 note=88 velocity=65 time=0\n",
      "note_on channel=1 note=88 velocity=0 time=39\n",
      "note_on channel=1 note=84 velocity=0 time=0\n",
      "note_on channel=1 note=82 velocity=44 time=6\n",
      "note_on channel=1 note=86 velocity=76 time=0\n",
      "note_on channel=1 note=86 velocity=0 time=75\n",
      "note_on channel=1 note=82 velocity=0 time=0\n",
      "note_on channel=1 note=74 velocity=99 time=0\n",
      "note_on channel=1 note=74 velocity=0 time=39\n",
      "note_on channel=1 note=81 velocity=64 time=6\n",
      "note_on channel=1 note=84 velocity=72 time=0\n",
      "note_on channel=1 note=84 velocity=0 time=75\n",
      "note_on channel=1 note=81 velocity=0 time=0\n",
      "note_on channel=1 note=72 velocity=94 time=0\n",
      "note_on channel=1 note=72 velocity=0 time=39\n",
      "note_on channel=1 note=79 velocity=52 time=6\n",
      "note_on channel=1 note=82 velocity=43 time=0\n",
      "note_on channel=1 note=82 velocity=0 time=75\n",
      "note_on channel=1 note=79 velocity=0 time=0\n",
      "note_on channel=1 note=73 velocity=61 time=0\n",
      "note_on channel=1 note=73 velocity=0 time=39\n",
      "note_on channel=1 note=74 velocity=74 time=6\n",
      "note_on channel=1 note=74 velocity=0 time=75\n",
      "note_on channel=1 note=82 velocity=45 time=0\n",
      "note_on channel=1 note=86 velocity=77 time=0\n",
      "note_on channel=1 note=86 velocity=0 time=39\n",
      "note_on channel=1 note=82 velocity=0 time=0\n",
      "note_on channel=1 note=84 velocity=72 time=6\n",
      "note_on channel=1 note=80 velocity=42 time=0\n",
      "note_on channel=1 note=80 velocity=0 time=75\n",
      "note_on channel=1 note=84 velocity=0 time=0\n",
      "note_on channel=1 note=72 velocity=85 time=0\n",
      "note_on channel=1 note=72 velocity=0 time=39\n",
      "note_on channel=1 note=79 velocity=62 time=6\n",
      "note_on channel=1 note=82 velocity=61 time=0\n",
      "note_on channel=1 note=82 velocity=0 time=75\n",
      "note_on channel=1 note=79 velocity=0 time=0\n",
      "note_on channel=1 note=70 velocity=61 time=0\n",
      "note_on channel=1 note=70 velocity=0 time=39\n",
      "note_on channel=1 note=74 velocity=71 time=6\n",
      "note_on channel=1 note=81 velocity=78 time=0\n",
      "note_on channel=1 note=81 velocity=0 time=75\n",
      "note_on channel=1 note=74 velocity=0 time=0\n",
      "note_on channel=1 note=72 velocity=82 time=0\n",
      "note_on channel=1 note=72 velocity=0 time=39\n",
      "note_on channel=1 note=77 velocity=80 time=6\n",
      "note_on channel=1 note=72 velocity=80 time=0\n",
      "note_on channel=1 note=69 velocity=71 time=0\n",
      "note_on channel=1 note=69 velocity=0 time=119\n",
      "note_on channel=1 note=72 velocity=0 time=0\n",
      "note_on channel=1 note=77 velocity=0 time=0\n",
      "note_on channel=1 note=74 velocity=72 time=121\n",
      "note_on channel=1 note=74 velocity=0 time=29\n",
      "note_on channel=1 note=72 velocity=64 time=1\n",
      "note_on channel=1 note=72 velocity=0 time=29\n",
      "note_on channel=1 note=70 velocity=42 time=1\n",
      "note_on channel=1 note=70 velocity=0 time=29\n",
      "note_on channel=1 note=68 velocity=48 time=1\n",
      "note_on channel=1 note=68 velocity=0 time=29\n",
      "note_on channel=1 note=67 velocity=72 time=1\n",
      "note_on channel=1 note=67 velocity=0 time=75\n",
      "note_on channel=1 note=56 velocity=45 time=0\n",
      "note_on channel=1 note=62 velocity=65 time=0\n",
      "note_on channel=1 note=62 velocity=0 time=29\n",
      "note_on channel=1 note=56 velocity=0 time=0\n",
      "note_on channel=1 note=65 velocity=72 time=16\n",
      "note_on channel=1 note=60 velocity=77 time=0\n",
      "note_on channel=1 note=57 velocity=72 time=0\n",
      "note_on channel=1 note=57 velocity=0 time=119\n",
      "note_on channel=1 note=60 velocity=0 time=0\n",
      "note_on channel=1 note=65 velocity=0 time=0\n",
      "note_on channel=1 note=72 velocity=59 time=211\n",
      "note_on channel=1 note=72 velocity=0 time=9\n",
      "note_on channel=1 note=74 velocity=59 time=1\n",
      "note_on channel=1 note=74 velocity=0 time=9\n",
      "note_on channel=1 note=76 velocity=59 time=1\n",
      "note_on channel=1 note=76 velocity=0 time=9\n",
      "note_on channel=1 note=77 velocity=59 time=1\n",
      "note_on channel=1 note=77 velocity=0 time=75\n",
      "note_on channel=1 note=77 velocity=101 time=0\n",
      "note_on channel=1 note=77 velocity=0 time=359\n",
      "note_on channel=1 note=72 velocity=59 time=16\n",
      "note_on channel=1 note=74 velocity=59 time=0\n",
      "note_on channel=1 note=74 velocity=0 time=9\n",
      "note_on channel=1 note=72 velocity=0 time=0\n",
      "note_on channel=1 note=76 velocity=61 time=11\n",
      "note_on channel=1 note=76 velocity=0 time=9\n",
      "note_on channel=1 note=77 velocity=62 time=1\n",
      "note_on channel=1 note=77 velocity=0 time=75\n",
      "note_on channel=1 note=77 velocity=101 time=0\n",
      "note_on channel=1 note=77 velocity=0 time=359\n",
      "note_on channel=1 note=72 velocity=62 time=16\n",
      "note_on channel=1 note=72 velocity=0 time=9\n",
      "note_on channel=1 note=74 velocity=62 time=1\n",
      "note_on channel=1 note=74 velocity=0 time=9\n",
      "note_on channel=1 note=76 velocity=62 time=1\n",
      "note_on channel=1 note=76 velocity=0 time=9\n",
      "note_on channel=1 note=77 velocity=62 time=1\n",
      "note_on channel=1 note=77 velocity=0 time=75\n",
      "note_on channel=1 note=77 velocity=104 time=0\n",
      "note_on channel=1 note=77 velocity=0 time=359\n",
      "note_on channel=1 note=72 velocity=61 time=16\n",
      "note_on channel=1 note=72 velocity=0 time=9\n",
      "note_on channel=1 note=74 velocity=61 time=1\n",
      "note_on channel=1 note=74 velocity=0 time=9\n",
      "note_on channel=1 note=76 velocity=61 time=1\n",
      "note_on channel=1 note=76 velocity=0 time=9\n",
      "note_on channel=1 note=77 velocity=61 time=1\n",
      "note_on channel=1 note=77 velocity=0 time=75\n",
      "note_on channel=1 note=77 velocity=104 time=0\n",
      "note_on channel=1 note=77 velocity=0 time=359\n",
      "note_on channel=1 note=72 velocity=63 time=16\n",
      "note_on channel=1 note=72 velocity=0 time=9\n",
      "note_on channel=1 note=74 velocity=63 time=1\n",
      "note_on channel=1 note=74 velocity=0 time=9\n",
      "note_on channel=1 note=76 velocity=63 time=1\n",
      "note_on channel=1 note=76 velocity=0 time=9\n",
      "note_on channel=1 note=77 velocity=63 time=1\n",
      "note_on channel=1 note=77 velocity=0 time=75\n",
      "note_on channel=1 note=77 velocity=99 time=0\n",
      "note_on channel=1 note=77 velocity=0 time=359\n",
      "note_on channel=1 note=72 velocity=59 time=16\n",
      "note_on channel=1 note=72 velocity=0 time=9\n",
      "note_on channel=1 note=74 velocity=59 time=1\n",
      "note_on channel=1 note=74 velocity=0 time=9\n",
      "note_on channel=1 note=76 velocity=59 time=1\n",
      "note_on channel=1 note=76 velocity=0 time=9\n",
      "note_on channel=1 note=77 velocity=59 time=1\n",
      "note_on channel=1 note=77 velocity=0 time=75\n",
      "note_on channel=1 note=77 velocity=99 time=0\n",
      "note_on channel=1 note=77 velocity=0 time=359\n",
      "note_on channel=1 note=72 velocity=60 time=16\n",
      "note_on channel=1 note=72 velocity=0 time=9\n",
      "note_on channel=1 note=74 velocity=60 time=1\n",
      "note_on channel=1 note=74 velocity=0 time=9\n",
      "note_on channel=1 note=76 velocity=61 time=1\n",
      "note_on channel=1 note=76 velocity=0 time=9\n",
      "note_on channel=1 note=77 velocity=61 time=1\n",
      "note_on channel=1 note=77 velocity=0 time=75\n",
      "note_on channel=1 note=77 velocity=99 time=0\n",
      "note_on channel=1 note=77 velocity=0 time=359\n",
      "note_on channel=1 note=72 velocity=60 time=16\n",
      "note_on channel=1 note=72 velocity=0 time=9\n",
      "note_on channel=1 note=74 velocity=60 time=1\n",
      "note_on channel=1 note=74 velocity=0 time=9\n",
      "note_on channel=1 note=76 velocity=60 time=1\n",
      "note_on channel=1 note=76 velocity=0 time=9\n",
      "note_on channel=1 note=77 velocity=60 time=1\n",
      "note_on channel=1 note=77 velocity=0 time=75\n",
      "note_on channel=1 note=77 velocity=101 time=0\n",
      "note_on channel=1 note=77 velocity=0 time=359\n",
      "note_on channel=1 note=63 velocity=95 time=121\n",
      "note_on channel=1 note=63 velocity=0 time=29\n",
      "note_on channel=1 note=64 velocity=93 time=16\n",
      "note_on channel=1 note=64 velocity=0 time=75\n",
      "note_on channel=1 note=72 velocity=91 time=0\n",
      "note_on channel=1 note=76 velocity=91 time=0\n",
      "note_on channel=1 note=76 velocity=0 time=39\n",
      "note_on channel=1 note=72 velocity=0 time=0\n",
      "note_on channel=1 note=70 velocity=91 time=6\n",
      "note_on channel=1 note=74 velocity=91 time=0\n",
      "note_on channel=1 note=74 velocity=0 time=39\n",
      "note_on channel=1 note=70 velocity=0 time=0\n",
      "note_on channel=1 note=62 velocity=91 time=1\n",
      "note_on channel=1 note=62 velocity=0 time=39\n",
      "note_on channel=1 note=74 velocity=92 time=1\n",
      "note_on channel=1 note=70 velocity=92 time=0\n",
      "note_on channel=1 note=70 velocity=0 time=39\n",
      "note_on channel=1 note=74 velocity=0 time=0\n",
      "note_on channel=1 note=69 velocity=92 time=1\n",
      "note_on channel=1 note=72 velocity=92 time=0\n",
      "note_on channel=1 note=72 velocity=0 time=75\n",
      "note_on channel=1 note=69 velocity=0 time=0\n",
      "note_on channel=1 note=60 velocity=92 time=0\n",
      "note_on channel=1 note=60 velocity=0 time=39\n",
      "note_on channel=1 note=67 velocity=86 time=6\n",
      "note_on channel=1 note=70 velocity=86 time=0\n",
      "note_on channel=1 note=70 velocity=0 time=75\n",
      "note_on channel=1 note=67 velocity=0 time=0\n",
      "note_on channel=1 note=61 velocity=85 time=0\n",
      "note_on channel=1 note=61 velocity=0 time=39\n",
      "note_on channel=1 note=62 velocity=85 time=6\n",
      "note_on channel=1 note=62 velocity=0 time=75\n",
      "note_on channel=1 note=70 velocity=85 time=0\n",
      "note_on channel=1 note=74 velocity=85 time=0\n",
      "note_on channel=1 note=74 velocity=0 time=39\n",
      "note_on channel=1 note=70 velocity=0 time=0\n",
      "note_on channel=1 note=68 velocity=85 time=6\n",
      "note_on channel=1 note=72 velocity=85 time=0\n",
      "note_on channel=1 note=72 velocity=0 time=75\n",
      "note_on channel=1 note=68 velocity=0 time=0\n",
      "note_on channel=1 note=60 velocity=85 time=0\n",
      "note_on channel=1 note=60 velocity=0 time=39\n",
      "note_on channel=1 note=67 velocity=85 time=6\n",
      "note_on channel=1 note=70 velocity=85 time=0\n",
      "note_on channel=1 note=70 velocity=0 time=75\n",
      "note_on channel=1 note=67 velocity=0 time=0\n",
      "note_on channel=1 note=58 velocity=84 time=0\n",
      "note_on channel=1 note=58 velocity=0 time=39\n",
      "note_on channel=1 note=62 velocity=84 time=6\n",
      "note_on channel=1 note=69 velocity=84 time=0\n",
      "note_on channel=1 note=69 velocity=0 time=75\n",
      "note_on channel=1 note=62 velocity=0 time=0\n",
      "note_on channel=1 note=60 velocity=84 time=0\n",
      "note_on channel=1 note=60 velocity=0 time=39\n",
      "note_on channel=1 note=65 velocity=84 time=6\n",
      "note_on channel=1 note=60 velocity=84 time=0\n",
      "note_on channel=1 note=57 velocity=84 time=0\n",
      "note_on channel=1 note=57 velocity=0 time=119\n",
      "note_on channel=1 note=60 velocity=0 time=0\n",
      "note_on channel=1 note=65 velocity=0 time=0\n",
      "note_on channel=1 note=68 velocity=61 time=121\n",
      "note_on channel=1 note=68 velocity=0 time=39\n",
      "note_on channel=1 note=67 velocity=70 time=21\n",
      "note_on channel=1 note=65 velocity=82 time=30\n",
      "note_on channel=1 note=67 velocity=0 time=9\n",
      "note_on channel=1 note=62 velocity=84 time=21\n",
      "note_on channel=1 note=65 velocity=0 time=9\n",
      "note_on channel=1 note=62 velocity=0 time=66\n",
      "note_on channel=1 note=56 velocity=59 time=0\n",
      "note_on channel=1 note=56 velocity=0 time=39\n",
      "note_on channel=1 note=60 velocity=71 time=6\n",
      "note_on channel=1 note=57 velocity=73 time=0\n",
      "note_on channel=1 note=65 velocity=58 time=0\n",
      "note_on channel=1 note=65 velocity=0 time=119\n",
      "note_on channel=1 note=57 velocity=0 time=0\n",
      "note_on channel=1 note=60 velocity=0 time=0\n",
      "note_on channel=1 note=69 velocity=16 time=361\n",
      "note_on channel=1 note=69 velocity=0 time=19\n",
      "note_on channel=1 note=75 velocity=19 time=1\n",
      "note_on channel=1 note=75 velocity=0 time=19\n",
      "note_on channel=1 note=69 velocity=22 time=1\n",
      "note_on channel=1 note=69 velocity=0 time=19\n",
      "note_on channel=1 note=75 velocity=25 time=1\n",
      "note_on channel=1 note=75 velocity=0 time=19\n",
      "note_on channel=1 note=69 velocity=27 time=1\n",
      "note_on channel=1 note=69 velocity=0 time=19\n",
      "note_on channel=1 note=75 velocity=30 time=1\n",
      "note_on channel=1 note=75 velocity=0 time=19\n",
      "note_on channel=1 note=69 velocity=33 time=1\n",
      "note_on channel=1 note=69 velocity=0 time=19\n",
      "note_on channel=1 note=75 velocity=36 time=1\n",
      "note_on channel=1 note=75 velocity=0 time=19\n",
      "note_on channel=1 note=69 velocity=38 time=1\n",
      "note_on channel=1 note=69 velocity=0 time=19\n"
     ]
    },
    {
     "name": "stdout",
     "output_type": "stream",
     "text": [
      "note_on channel=1 note=75 velocity=41 time=1\n",
      "note_on channel=1 note=75 velocity=0 time=19\n",
      "note_on channel=1 note=69 velocity=44 time=1\n",
      "note_on channel=1 note=69 velocity=0 time=19\n",
      "note_on channel=1 note=75 velocity=47 time=1\n",
      "note_on channel=1 note=75 velocity=0 time=19\n",
      "note_on channel=1 note=69 velocity=49 time=1\n",
      "note_on channel=1 note=69 velocity=0 time=19\n",
      "note_on channel=1 note=75 velocity=52 time=1\n",
      "note_on channel=1 note=75 velocity=0 time=19\n",
      "note_on channel=1 note=69 velocity=55 time=1\n",
      "note_on channel=1 note=69 velocity=0 time=19\n",
      "note_on channel=1 note=75 velocity=58 time=1\n",
      "note_on channel=1 note=75 velocity=0 time=19\n",
      "note_on channel=1 note=69 velocity=60 time=1\n",
      "note_on channel=1 note=69 velocity=0 time=19\n",
      "note_on channel=1 note=75 velocity=63 time=1\n",
      "note_on channel=1 note=75 velocity=0 time=19\n",
      "note_on channel=1 note=69 velocity=66 time=1\n",
      "note_on channel=1 note=69 velocity=0 time=19\n",
      "note_on channel=1 note=75 velocity=69 time=1\n",
      "note_on channel=1 note=75 velocity=0 time=19\n",
      "note_on channel=1 note=69 velocity=72 time=1\n",
      "note_on channel=1 note=69 velocity=0 time=19\n",
      "note_on channel=1 note=75 velocity=74 time=1\n",
      "note_on channel=1 note=75 velocity=0 time=19\n",
      "note_on channel=1 note=69 velocity=77 time=1\n",
      "note_on channel=1 note=72 velocity=38 time=10\n",
      "note_on channel=1 note=60 velocity=1 time=0\n",
      "note_on channel=1 note=60 velocity=0 time=9\n",
      "note_on channel=1 note=72 velocity=0 time=0\n",
      "note_on channel=1 note=69 velocity=0 time=0\n",
      "note_on channel=1 note=75 velocity=80 time=1\n",
      "note_on channel=1 note=74 velocity=45 time=0\n",
      "note_on channel=1 note=62 velocity=55 time=0\n",
      "note_on channel=1 note=62 velocity=0 time=9\n",
      "note_on channel=1 note=74 velocity=0 time=0\n",
      "note_on channel=1 note=76 velocity=43 time=1\n",
      "note_on channel=1 note=64 velocity=43 time=0\n",
      "note_on channel=1 note=64 velocity=0 time=9\n",
      "note_on channel=1 note=76 velocity=0 time=0\n",
      "note_on channel=1 note=75 velocity=0 time=0\n",
      "note_on channel=1 note=77 velocity=83 time=1\n",
      "note_on channel=1 note=65 velocity=83 time=0\n",
      "note_on channel=1 note=65 velocity=0 time=79\n",
      "note_on channel=1 note=77 velocity=0 time=0\n",
      "note_on channel=1 note=65 velocity=98 time=1\n",
      "note_on channel=1 note=77 velocity=98 time=0\n",
      "note_on channel=1 note=77 velocity=0 time=79\n",
      "note_on channel=1 note=65 velocity=0 time=0\n",
      "note_on channel=1 note=75 velocity=98 time=1\n",
      "note_on channel=1 note=63 velocity=98 time=0\n",
      "note_on channel=1 note=63 velocity=0 time=79\n",
      "note_on channel=1 note=75 velocity=0 time=0\n",
      "note_on channel=1 note=72 velocity=100 time=1\n",
      "note_on channel=1 note=60 velocity=100 time=0\n",
      "note_on channel=1 note=60 velocity=0 time=79\n",
      "note_on channel=1 note=72 velocity=0 time=0\n",
      "note_on channel=1 note=63 velocity=107 time=1\n",
      "note_on channel=1 note=75 velocity=107 time=0\n",
      "note_on channel=1 note=75 velocity=0 time=79\n",
      "note_on channel=1 note=63 velocity=0 time=0\n",
      "note_on channel=1 note=60 velocity=104 time=1\n",
      "note_on channel=1 note=72 velocity=104 time=0\n",
      "note_on channel=1 note=72 velocity=0 time=79\n",
      "note_on channel=1 note=60 velocity=0 time=0\n",
      "note_on channel=1 note=69 velocity=92 time=1\n",
      "note_on channel=1 note=81 velocity=92 time=0\n",
      "note_on channel=1 note=81 velocity=0 time=75\n",
      "note_on channel=1 note=69 velocity=0 time=0\n",
      "note_on channel=1 note=65 velocity=105 time=0\n",
      "note_on channel=1 note=77 velocity=105 time=0\n",
      "note_on channel=1 note=77 velocity=0 time=79\n",
      "note_on channel=1 note=65 velocity=0 time=0\n",
      "note_on channel=1 note=63 velocity=98 time=41\n",
      "note_on channel=1 note=75 velocity=85 time=0\n",
      "note_on channel=1 note=72 velocity=86 time=45\n",
      "note_on channel=1 note=60 velocity=86 time=0\n",
      "note_on channel=1 note=75 velocity=0 time=14\n",
      "note_on channel=1 note=63 velocity=0 time=1\n",
      "note_on channel=1 note=72 velocity=0 time=44\n",
      "note_on channel=1 note=60 velocity=0 time=0\n",
      "note_on channel=1 note=63 velocity=85 time=16\n",
      "note_on channel=1 note=75 velocity=69 time=0\n",
      "note_on channel=1 note=60 velocity=87 time=45\n",
      "note_on channel=1 note=72 velocity=87 time=0\n",
      "note_on channel=1 note=75 velocity=0 time=14\n",
      "note_on channel=1 note=63 velocity=0 time=0\n",
      "note_on channel=1 note=60 velocity=0 time=105\n",
      "note_on channel=1 note=72 velocity=0 time=0\n",
      "note_on channel=1 note=69 velocity=99 time=1\n",
      "note_on channel=1 note=77 velocity=89 time=0\n",
      "note_on channel=1 note=67 velocity=95 time=0\n",
      "note_on channel=1 note=77 velocity=0 time=119\n",
      "note_on channel=1 note=73 velocity=127 time=1\n",
      "note_on channel=1 note=73 velocity=0 time=239\n",
      "note_on channel=1 note=67 velocity=0 time=0\n",
      "note_on channel=1 note=72 velocity=77 time=1\n",
      "note_on channel=1 note=72 velocity=0 time=59\n",
      "note_on channel=1 note=73 velocity=63 time=16\n",
      "note_on channel=1 note=69 velocity=0 time=44\n",
      "note_on channel=1 note=74 velocity=82 time=1\n",
      "note_on channel=1 note=73 velocity=0 time=14\n",
      "note_on channel=1 note=74 velocity=0 time=61\n",
      "note_on channel=1 note=82 velocity=44 time=0\n",
      "note_on channel=1 note=86 velocity=69 time=0\n",
      "note_on channel=1 note=86 velocity=0 time=39\n",
      "note_on channel=1 note=82 velocity=0 time=0\n",
      "note_on channel=1 note=80 velocity=38 time=6\n",
      "note_on channel=1 note=84 velocity=74 time=0\n",
      "note_on channel=1 note=84 velocity=0 time=75\n",
      "note_on channel=1 note=80 velocity=0 time=0\n",
      "note_on channel=1 note=72 velocity=89 time=0\n",
      "note_on channel=1 note=72 velocity=0 time=39\n",
      "note_on channel=1 note=79 velocity=61 time=6\n",
      "note_on channel=1 note=82 velocity=51 time=0\n",
      "note_on channel=1 note=82 velocity=0 time=75\n",
      "note_on channel=1 note=79 velocity=0 time=0\n",
      "note_on channel=1 note=70 velocity=46 time=0\n",
      "note_on channel=1 note=70 velocity=0 time=39\n",
      "note_on channel=1 note=77 velocity=72 time=6\n",
      "note_on channel=1 note=81 velocity=76 time=0\n",
      "note_on channel=1 note=81 velocity=0 time=75\n",
      "note_on channel=1 note=77 velocity=0 time=0\n",
      "note_on channel=1 note=73 velocity=60 time=0\n",
      "note_on channel=1 note=73 velocity=0 time=39\n",
      "note_on channel=1 note=74 velocity=82 time=6\n",
      "note_on channel=1 note=74 velocity=0 time=75\n",
      "note_on channel=1 note=82 velocity=44 time=0\n",
      "note_on channel=1 note=86 velocity=69 time=0\n",
      "note_on channel=1 note=86 velocity=0 time=39\n",
      "note_on channel=1 note=82 velocity=0 time=0\n",
      "note_on channel=1 note=80 velocity=38 time=6\n",
      "note_on channel=1 note=84 velocity=74 time=0\n",
      "note_on channel=1 note=84 velocity=0 time=75\n",
      "note_on channel=1 note=80 velocity=0 time=0\n",
      "note_on channel=1 note=72 velocity=89 time=0\n",
      "note_on channel=1 note=72 velocity=0 time=39\n",
      "note_on channel=1 note=79 velocity=61 time=6\n",
      "note_on channel=1 note=82 velocity=51 time=0\n",
      "note_on channel=1 note=82 velocity=0 time=75\n",
      "note_on channel=1 note=79 velocity=0 time=0\n",
      "note_on channel=1 note=70 velocity=46 time=0\n",
      "note_on channel=1 note=70 velocity=0 time=39\n",
      "note_on channel=1 note=77 velocity=72 time=6\n",
      "note_on channel=1 note=81 velocity=76 time=0\n",
      "note_on channel=1 note=81 velocity=0 time=75\n",
      "note_on channel=1 note=77 velocity=0 time=0\n",
      "note_on channel=1 note=68 velocity=60 time=0\n",
      "note_on channel=1 note=68 velocity=0 time=39\n",
      "note_on channel=1 note=69 velocity=72 time=6\n",
      "note_on channel=1 note=69 velocity=0 time=75\n",
      "note_on channel=1 note=77 velocity=65 time=0\n",
      "note_on channel=1 note=81 velocity=78 time=0\n",
      "note_on channel=1 note=81 velocity=0 time=39\n",
      "note_on channel=1 note=77 velocity=0 time=0\n",
      "note_on channel=1 note=75 velocity=45 time=6\n",
      "note_on channel=1 note=79 velocity=76 time=0\n",
      "note_on channel=1 note=79 velocity=0 time=75\n",
      "note_on channel=1 note=75 velocity=0 time=0\n",
      "note_on channel=1 note=67 velocity=85 time=0\n",
      "note_on channel=1 note=67 velocity=0 time=39\n",
      "note_on channel=1 note=74 velocity=57 time=6\n",
      "note_on channel=1 note=77 velocity=68 time=0\n",
      "note_on channel=1 note=77 velocity=0 time=75\n",
      "note_on channel=1 note=74 velocity=0 time=0\n",
      "note_on channel=1 note=65 velocity=81 time=0\n",
      "note_on channel=1 note=65 velocity=0 time=39\n",
      "note_on channel=1 note=75 velocity=71 time=6\n",
      "note_on channel=1 note=72 velocity=61 time=0\n",
      "note_on channel=1 note=72 velocity=0 time=75\n",
      "note_on channel=1 note=75 velocity=0 time=0\n",
      "note_on channel=1 note=68 velocity=53 time=0\n",
      "note_on channel=1 note=68 velocity=0 time=39\n",
      "note_on channel=1 note=69 velocity=72 time=6\n",
      "note_on channel=1 note=69 velocity=0 time=75\n",
      "note_on channel=1 note=77 velocity=65 time=0\n",
      "note_on channel=1 note=81 velocity=78 time=0\n",
      "note_on channel=1 note=81 velocity=0 time=39\n",
      "note_on channel=1 note=77 velocity=0 time=0\n",
      "note_on channel=1 note=75 velocity=45 time=6\n",
      "note_on channel=1 note=79 velocity=76 time=0\n",
      "note_on channel=1 note=79 velocity=0 time=75\n",
      "note_on channel=1 note=75 velocity=0 time=0\n",
      "note_on channel=1 note=67 velocity=85 time=0\n",
      "note_on channel=1 note=67 velocity=0 time=39\n",
      "note_on channel=1 note=74 velocity=57 time=6\n",
      "note_on channel=1 note=77 velocity=68 time=0\n",
      "note_on channel=1 note=77 velocity=0 time=75\n",
      "note_on channel=1 note=74 velocity=0 time=0\n",
      "note_on channel=1 note=65 velocity=81 time=0\n",
      "note_on channel=1 note=65 velocity=0 time=39\n",
      "note_on channel=1 note=75 velocity=71 time=6\n",
      "note_on channel=1 note=72 velocity=61 time=0\n",
      "note_on channel=1 note=72 velocity=0 time=75\n",
      "note_on channel=1 note=75 velocity=0 time=0\n",
      "note_on channel=1 note=75 velocity=53 time=0\n",
      "note_on channel=1 note=75 velocity=0 time=39\n",
      "note_on channel=1 note=76 velocity=86 time=6\n",
      "note_on channel=1 note=76 velocity=0 time=75\n",
      "note_on channel=1 note=84 velocity=44 time=0\n",
      "note_on channel=1 note=88 velocity=65 time=0\n",
      "note_on channel=1 note=88 velocity=0 time=39\n",
      "note_on channel=1 note=84 velocity=0 time=0\n",
      "note_on channel=1 note=82 velocity=44 time=6\n",
      "note_on channel=1 note=86 velocity=76 time=0\n",
      "note_on channel=1 note=86 velocity=0 time=75\n",
      "note_on channel=1 note=82 velocity=0 time=0\n",
      "note_on channel=1 note=74 velocity=99 time=0\n",
      "note_on channel=1 note=74 velocity=0 time=39\n",
      "note_on channel=1 note=81 velocity=64 time=6\n",
      "note_on channel=1 note=84 velocity=72 time=0\n",
      "note_on channel=1 note=84 velocity=0 time=75\n",
      "note_on channel=1 note=81 velocity=0 time=0\n",
      "note_on channel=1 note=72 velocity=94 time=0\n",
      "note_on channel=1 note=72 velocity=0 time=39\n",
      "note_on channel=1 note=79 velocity=52 time=6\n",
      "note_on channel=1 note=82 velocity=43 time=0\n",
      "note_on channel=1 note=82 velocity=0 time=75\n",
      "note_on channel=1 note=79 velocity=0 time=0\n",
      "note_on channel=1 note=73 velocity=61 time=0\n",
      "note_on channel=1 note=73 velocity=0 time=39\n",
      "note_on channel=1 note=74 velocity=74 time=6\n",
      "note_on channel=1 note=74 velocity=0 time=75\n",
      "note_on channel=1 note=82 velocity=45 time=0\n",
      "note_on channel=1 note=86 velocity=77 time=0\n",
      "note_on channel=1 note=86 velocity=0 time=39\n",
      "note_on channel=1 note=82 velocity=0 time=0\n",
      "note_on channel=1 note=84 velocity=72 time=6\n",
      "note_on channel=1 note=80 velocity=42 time=0\n",
      "note_on channel=1 note=80 velocity=0 time=75\n",
      "note_on channel=1 note=84 velocity=0 time=0\n",
      "note_on channel=1 note=72 velocity=85 time=0\n",
      "note_on channel=1 note=72 velocity=0 time=39\n",
      "note_on channel=1 note=79 velocity=62 time=6\n",
      "note_on channel=1 note=82 velocity=61 time=0\n",
      "note_on channel=1 note=82 velocity=0 time=75\n",
      "note_on channel=1 note=79 velocity=0 time=0\n",
      "note_on channel=1 note=70 velocity=61 time=0\n",
      "note_on channel=1 note=70 velocity=0 time=39\n",
      "note_on channel=1 note=74 velocity=71 time=6\n",
      "note_on channel=1 note=81 velocity=78 time=0\n",
      "note_on channel=1 note=81 velocity=0 time=75\n",
      "note_on channel=1 note=74 velocity=0 time=0\n",
      "note_on channel=1 note=72 velocity=82 time=0\n",
      "note_on channel=1 note=72 velocity=0 time=39\n",
      "note_on channel=1 note=77 velocity=76 time=6\n",
      "note_on channel=1 note=69 velocity=80 time=0\n",
      "note_on channel=1 note=72 velocity=86 time=0\n",
      "note_on channel=1 note=72 velocity=0 time=119\n",
      "note_on channel=1 note=69 velocity=0 time=0\n",
      "note_on channel=1 note=77 velocity=0 time=0\n",
      "note_on channel=1 note=69 velocity=72 time=1\n",
      "note_on channel=1 note=72 velocity=72 time=0\n",
      "note_on channel=1 note=72 velocity=0 time=75\n",
      "note_on channel=1 note=69 velocity=0 time=0\n",
      "note_on channel=1 note=70 velocity=46 time=0\n",
      "note_on channel=1 note=74 velocity=71 time=0\n",
      "note_on channel=1 note=74 velocity=0 time=39\n",
      "note_on channel=1 note=70 velocity=0 time=0\n",
      "note_on channel=1 note=69 velocity=72 time=6\n",
      "note_on channel=1 note=72 velocity=80 time=0\n",
      "note_on channel=1 note=72 velocity=0 time=75\n",
      "note_on channel=1 note=69 velocity=0 time=0\n",
      "note_on channel=1 note=60 velocity=94 time=0\n",
      "note_on channel=1 note=60 velocity=0 time=39\n",
      "note_on channel=1 note=68 velocity=48 time=6\n",
      "note_on channel=1 note=65 velocity=76 time=0\n",
      "note_on channel=1 note=62 velocity=68 time=0\n",
      "note_on channel=1 note=62 velocity=0 time=75\n",
      "note_on channel=1 note=65 velocity=0 time=0\n",
      "note_on channel=1 note=68 velocity=0 time=0\n",
      "note_on channel=1 note=60 velocity=81 time=0\n",
      "note_on channel=1 note=60 velocity=0 time=39\n",
      "note_on channel=1 note=65 velocity=68 time=6\n",
      "note_on channel=1 note=60 velocity=78 time=0\n",
      "note_on channel=1 note=57 velocity=78 time=0\n",
      "note_on channel=1 note=57 velocity=0 time=119\n",
      "note_on channel=1 note=60 velocity=0 time=0\n",
      "note_on channel=1 note=65 velocity=0 time=0\n",
      "note_on channel=1 note=72 velocity=93 time=201\n",
      "note_on channel=1 note=65 velocity=67 time=0\n",
      "note_on channel=1 note=74 velocity=90 time=0\n",
      "note_on channel=1 note=77 velocity=98 time=0\n",
      "note_on channel=1 note=69 velocity=74 time=0\n",
      "note_on channel=1 note=69 velocity=0 time=39\n",
      "note_on channel=1 note=74 velocity=0 time=0\n",
      "note_on channel=1 note=72 velocity=0 time=0\n",
      "note_on channel=1 note=65 velocity=0 time=0\n",
      "note_on channel=1 note=77 velocity=0 time=0\n",
      "note_on channel=1 note=69 velocity=98 time=121\n",
      "note_on channel=1 note=65 velocity=85 time=0\n",
      "note_on channel=1 note=74 velocity=94 time=0\n",
      "note_on channel=1 note=72 velocity=98 time=0\n",
      "note_on channel=1 note=77 velocity=105 time=0\n",
      "note_on channel=1 note=65 velocity=0 time=26\n",
      "note_on channel=1 note=72 velocity=0 time=4\n",
      "note_on channel=1 note=77 velocity=0 time=0\n",
      "note_on channel=1 note=74 velocity=0 time=0\n",
      "note_on channel=1 note=69 velocity=0 time=1\n",
      "note_on channel=1 note=65 velocity=86 time=284\n",
      "note_on channel=1 note=69 velocity=95 time=0\n",
      "note_on channel=1 note=72 velocity=93 time=0\n",
      "note_on channel=1 note=74 velocity=93 time=0\n",
      "note_on channel=1 note=77 velocity=99 time=0\n",
      "note_on channel=1 note=65 velocity=0 time=22\n",
      "note_on channel=1 note=74 velocity=0 time=6\n",
      "note_on channel=1 note=77 velocity=0 time=1\n",
      "note_on channel=1 note=72 velocity=0 time=0\n",
      "note_on channel=1 note=69 velocity=0 time=3\n",
      "note_on channel=1 note=65 velocity=84 time=133\n",
      "note_on channel=1 note=69 velocity=99 time=0\n",
      "note_on channel=1 note=74 velocity=95 time=0\n",
      "note_on channel=1 note=72 velocity=99 time=0\n",
      "note_on channel=1 note=77 velocity=110 time=0\n",
      "note_on channel=1 note=65 velocity=0 time=35\n",
      "note_on channel=1 note=72 velocity=0 time=8\n",
      "note_on channel=1 note=69 velocity=0 time=0\n",
      "note_on channel=1 note=74 velocity=0 time=0\n",
      "note_on channel=1 note=77 velocity=0 time=0\n",
      "note_on channel=1 note=65 velocity=84 time=272\n",
      "note_on channel=1 note=69 velocity=99 time=0\n",
      "note_on channel=1 note=72 velocity=94 time=0\n",
      "note_on channel=1 note=74 velocity=86 time=0\n",
      "note_on channel=1 note=77 velocity=98 time=0\n",
      "note_on channel=1 note=74 velocity=0 time=27\n",
      "note_on channel=1 note=65 velocity=0 time=1\n",
      "note_on channel=1 note=77 velocity=0 time=1\n",
      "note_on channel=1 note=72 velocity=0 time=0\n",
      "note_on channel=1 note=69 velocity=0 time=4\n",
      "note_on channel=1 note=65 velocity=98 time=132\n",
      "note_on channel=1 note=69 velocity=105 time=0\n",
      "note_on channel=1 note=74 velocity=99 time=0\n",
      "note_on channel=1 note=72 velocity=105 time=0\n",
      "note_on channel=1 note=77 velocity=112 time=0\n",
      "note_on channel=1 note=65 velocity=0 time=35\n",
      "note_on channel=1 note=69 velocity=0 time=1\n",
      "note_on channel=1 note=72 velocity=0 time=6\n",
      "note_on channel=1 note=74 velocity=0 time=0\n",
      "note_on channel=1 note=77 velocity=0 time=3\n",
      "note_on channel=1 note=69 velocity=90 time=270\n",
      "note_on channel=1 note=65 velocity=89 time=0\n",
      "note_on channel=1 note=72 velocity=94 time=0\n",
      "note_on channel=1 note=74 velocity=94 time=0\n",
      "note_on channel=1 note=77 velocity=107 time=0\n",
      "note_on channel=1 note=74 velocity=0 time=27\n",
      "note_on channel=1 note=72 velocity=0 time=1\n",
      "note_on channel=1 note=65 velocity=0 time=0\n",
      "note_on channel=1 note=77 velocity=0 time=2\n",
      "note_on channel=1 note=69 velocity=0 time=4\n",
      "note_on channel=1 note=65 velocity=99 time=131\n",
      "note_on channel=1 note=69 velocity=101 time=0\n",
      "note_on channel=1 note=77 velocity=107 time=0\n",
      "note_on channel=1 note=72 velocity=107 time=0\n",
      "note_on channel=1 note=74 velocity=95 time=0\n",
      "note_on channel=1 note=69 velocity=0 time=37\n",
      "note_on channel=1 note=65 velocity=0 time=0\n",
      "note_on channel=1 note=74 velocity=0 time=1\n",
      "note_on channel=1 note=72 velocity=0 time=1\n",
      "note_on channel=1 note=77 velocity=0 time=3\n",
      "note_on channel=1 note=65 velocity=80 time=273\n",
      "note_on channel=1 note=69 velocity=90 time=0\n",
      "note_on channel=1 note=72 velocity=104 time=0\n",
      "note_on channel=1 note=74 velocity=105 time=0\n",
      "note_on channel=1 note=77 velocity=110 time=0\n",
      "note_on channel=1 note=74 velocity=0 time=37\n",
      "note_on channel=1 note=69 velocity=0 time=0\n",
      "note_on channel=1 note=65 velocity=0 time=0\n",
      "note_on channel=1 note=77 velocity=0 time=2\n",
      "note_on channel=1 note=72 velocity=0 time=1\n",
      "note_on channel=1 note=68 velocity=76 time=125\n",
      "note_on channel=1 note=65 velocity=95 time=0\n",
      "note_on channel=1 note=72 velocity=104 time=0\n",
      "note_on channel=1 note=74 velocity=112 time=0\n",
      "note_on channel=1 note=77 velocity=112 time=0\n",
      "note_on channel=1 note=68 velocity=0 time=40\n",
      "note_on channel=1 note=77 velocity=0 time=6\n",
      "note_on channel=1 note=74 velocity=0 time=4\n",
      "note_on channel=1 note=72 velocity=0 time=1\n",
      "note_on channel=1 note=65 velocity=0 time=0\n",
      "note_on channel=1 note=65 velocity=94 time=264\n",
      "note_on channel=1 note=68 velocity=93 time=0\n",
      "note_on channel=1 note=72 velocity=98 time=0\n",
      "note_on channel=1 note=74 velocity=98 time=0\n",
      "note_on channel=1 note=77 velocity=117 time=0\n",
      "note_on channel=1 note=68 velocity=0 time=27\n",
      "note_on channel=1 note=74 velocity=0 time=4\n",
      "note_on channel=1 note=65 velocity=0 time=0\n",
      "note_on channel=1 note=72 velocity=0 time=1\n",
      "note_on channel=1 note=77 velocity=0 time=2\n",
      "note_on channel=1 note=68 velocity=89 time=131\n",
      "note_on channel=1 note=65 velocity=94 time=0\n",
      "note_on channel=1 note=77 velocity=117 time=0\n",
      "note_on channel=1 note=74 velocity=99 time=0\n",
      "note_on channel=1 note=72 velocity=105 time=0\n",
      "note_on channel=1 note=68 velocity=0 time=33\n",
      "note_on channel=1 note=65 velocity=0 time=8\n",
      "note_on channel=1 note=74 velocity=0 time=4\n",
      "note_on channel=1 note=72 velocity=0 time=0\n",
      "note_on channel=1 note=77 velocity=0 time=5\n",
      "note_on channel=1 note=65 velocity=82 time=265\n",
      "note_on channel=1 note=68 velocity=71 time=0\n",
      "note_on channel=1 note=72 velocity=94 time=0\n",
      "note_on channel=1 note=74 velocity=94 time=0\n",
      "note_on channel=1 note=77 velocity=110 time=0\n",
      "note_on channel=1 note=74 velocity=0 time=42\n",
      "note_on channel=1 note=68 velocity=0 time=0\n",
      "note_on channel=1 note=72 velocity=0 time=2\n",
      "note_on channel=1 note=65 velocity=0 time=2\n",
      "note_on channel=1 note=77 velocity=0 time=0\n",
      "note_on channel=1 note=65 velocity=82 time=119\n",
      "note_on channel=1 note=69 velocity=98 time=0\n",
      "note_on channel=1 note=74 velocity=94 time=0\n",
      "note_on channel=1 note=72 velocity=98 time=0\n",
      "note_on channel=1 note=77 velocity=104 time=0\n",
      "note_on channel=1 note=74 velocity=0 time=44\n",
      "note_on channel=1 note=72 velocity=0 time=1\n",
      "note_on channel=1 note=77 velocity=0 time=2\n",
      "note_on channel=1 note=69 velocity=0 time=4\n",
      "note_on channel=1 note=65 velocity=0 time=2\n",
      "note_on channel=1 note=65 velocity=90 time=262\n",
      "note_on channel=1 note=69 velocity=95 time=0\n",
      "note_on channel=1 note=72 velocity=94 time=0\n",
      "note_on channel=1 note=74 velocity=93 time=0\n",
      "note_on channel=1 note=77 velocity=101 time=0\n",
      "note_on channel=1 note=77 velocity=0 time=39\n",
      "note_on channel=1 note=72 velocity=0 time=0\n",
      "note_on channel=1 note=74 velocity=0 time=0\n",
      "note_on channel=1 note=65 velocity=0 time=6\n",
      "note_on channel=1 note=69 velocity=0 time=5\n",
      "note_on channel=1 note=65 velocity=90 time=115\n",
      "note_on channel=1 note=69 velocity=104 time=0\n",
      "note_on channel=1 note=74 velocity=99 time=0\n",
      "note_on channel=1 note=72 velocity=105 time=0\n",
      "note_on channel=1 note=77 velocity=112 time=0\n",
      "note_on channel=1 note=69 velocity=0 time=50\n",
      "note_on channel=1 note=72 velocity=0 time=1\n",
      "note_on channel=1 note=74 velocity=0 time=1\n",
      "note_on channel=1 note=77 velocity=0 time=1\n",
      "note_on channel=1 note=65 velocity=0 time=4\n",
      "note_on channel=1 note=65 velocity=89 time=258\n",
      "note_on channel=1 note=69 velocity=89 time=0\n",
      "note_on channel=1 note=72 velocity=98 time=0\n",
      "note_on channel=1 note=74 velocity=99 time=0\n",
      "note_on channel=1 note=77 velocity=104 time=0\n",
      "note_on channel=1 note=74 velocity=0 time=30\n",
      "note_on channel=1 note=77 velocity=0 time=1\n",
      "note_on channel=1 note=72 velocity=0 time=2\n",
      "note_on channel=1 note=65 velocity=0 time=0\n",
      "note_on channel=1 note=69 velocity=0 time=3\n",
      "note_on channel=1 note=67 velocity=94 time=129\n",
      "note_on channel=1 note=70 velocity=89 time=0\n",
      "note_on channel=1 note=64 velocity=85 time=0\n",
      "note_on channel=1 note=60 velocity=82 time=0\n",
      "note_on channel=1 note=60 velocity=0 time=64\n",
      "note_on channel=1 note=64 velocity=0 time=2\n",
      "note_on channel=1 note=67 velocity=0 time=6\n",
      "note_on channel=1 note=70 velocity=0 time=1\n",
      "note_on channel=1 note=72 velocity=99 time=242\n",
      "note_on channel=1 note=70 velocity=85 time=0\n",
      "note_on channel=1 note=60 velocity=85 time=0\n",
      "note_on channel=1 note=64 velocity=89 time=0\n",
      "note_on channel=1 note=67 velocity=95 time=0\n",
      "note_on channel=1 note=60 velocity=0 time=36\n",
      "note_on channel=1 note=64 velocity=0 time=3\n",
      "note_on channel=1 note=67 velocity=0 time=12\n",
      "note_on channel=1 note=70 velocity=0 time=1\n",
      "note_on channel=1 note=72 velocity=0 time=7\n",
      "note_on channel=1 note=68 velocity=91 time=106\n",
      "note_on channel=1 note=65 velocity=99 time=0\n",
      "note_on channel=1 note=62 velocity=81 time=0\n",
      "note_on channel=1 note=60 velocity=68 time=0\n",
      "note_on channel=1 note=60 velocity=0 time=60\n",
      "note_on channel=1 note=62 velocity=0 time=1\n",
      "note_on channel=1 note=68 velocity=0 time=0\n",
      "note_on channel=1 note=65 velocity=0 time=2\n",
      "note_on channel=1 note=68 velocity=82 time=252\n",
      "note_on channel=1 note=65 velocity=99 time=0\n",
      "note_on channel=1 note=62 velocity=89 time=0\n",
      "note_on channel=1 note=60 velocity=65 time=0\n",
      "note_on channel=1 note=62 velocity=0 time=51\n",
      "note_on channel=1 note=60 velocity=0 time=6\n",
      "note_on channel=1 note=68 velocity=0 time=0\n",
      "note_on channel=1 note=65 velocity=0 time=2\n",
      "note_on channel=1 note=62 velocity=78 time=106\n",
      "note_on channel=1 note=60 velocity=78 time=0\n",
      "note_on channel=1 note=65 velocity=78 time=0\n",
      "note_on channel=1 note=57 velocity=76 time=0\n",
      "note_on channel=1 note=57 velocity=0 time=75\n",
      "note_on channel=1 note=62 velocity=0 time=0\n",
      "note_on channel=1 note=60 velocity=0 time=0\n",
      "note_on channel=1 note=65 velocity=0 time=0\n",
      "note_on channel=1 note=72 velocity=71 time=0\n",
      "note_on channel=1 note=77 velocity=76 time=0\n",
      "note_on channel=1 note=77 velocity=0 time=119\n",
      "note_on channel=1 note=72 velocity=0 time=0\n",
      "note_on channel=1 note=77 velocity=68 time=1\n",
      "note_on channel=1 note=72 velocity=70 time=0\n",
      "note_on channel=1 note=72 velocity=0 time=39\n",
      "note_on channel=1 note=77 velocity=0 time=0\n",
      "note_on channel=1 note=70 velocity=44 time=6\n",
      "note_on channel=1 note=74 velocity=69 time=0\n",
      "note_on channel=1 note=74 velocity=0 time=75\n",
      "note_on channel=1 note=70 velocity=0 time=0\n",
      "note_on channel=1 note=68 velocity=42 time=0\n",
      "note_on channel=1 note=73 velocity=53 time=0\n",
      "note_on channel=1 note=73 velocity=0 time=39\n",
      "note_on channel=1 note=68 velocity=0 time=0\n",
      "note_on channel=1 note=69 velocity=54 time=6\n",
      "note_on channel=1 note=72 velocity=73 time=0\n",
      "note_on channel=1 note=72 velocity=0 time=75\n",
      "note_on channel=1 note=69 velocity=0 time=0\n",
      "note_on channel=1 note=72 velocity=68 time=0\n",
      "note_on channel=1 note=69 velocity=55 time=0\n",
      "note_on channel=1 note=69 velocity=0 time=39\n",
      "note_on channel=1 note=72 velocity=0 time=0\n",
      "note_on channel=1 note=74 velocity=80 time=6\n",
      "note_on channel=1 note=77 velocity=82 time=0\n",
      "note_on channel=1 note=72 velocity=80 time=0\n",
      "note_on channel=1 note=69 velocity=80 time=0\n",
      "note_on channel=1 note=69 velocity=0 time=75\n",
      "note_on channel=1 note=74 velocity=0 time=0\n",
      "note_on channel=1 note=77 velocity=0 time=0\n",
      "note_on channel=1 note=72 velocity=0 time=0\n",
      "note_on channel=1 note=79 velocity=81 time=0\n",
      "note_on channel=1 note=76 velocity=80 time=0\n",
      "note_on channel=1 note=74 velocity=72 time=0\n",
      "note_on channel=1 note=70 velocity=44 time=0\n",
      "note_on channel=1 note=70 velocity=0 time=119\n",
      "note_on channel=1 note=79 velocity=0 time=0\n",
      "note_on channel=1 note=76 velocity=0 time=0\n",
      "note_on channel=1 note=74 velocity=0 time=0\n",
      "note_on channel=1 note=72 velocity=73 time=1\n",
      "note_on channel=1 note=74 velocity=80 time=0\n",
      "note_on channel=1 note=77 velocity=89 time=0\n",
      "note_on channel=1 note=81 velocity=89 time=0\n",
      "note_on channel=1 note=81 velocity=0 time=479\n",
      "note_on channel=1 note=72 velocity=0 time=0\n",
      "note_on channel=1 note=74 velocity=0 time=0\n",
      "note_on channel=1 note=77 velocity=0 time=0\n",
      "<meta message end_of_track time=0>\n",
      "Track 3: BASS\n",
      "<meta message midi_port port=0 time=0>\n",
      "<meta message track_name name='BASS' time=0>\n",
      "program_change channel=2 program=32 time=0\n",
      "control_change channel=2 control=7 value=80 time=0\n",
      "control_change channel=2 control=10 value=60 time=0\n",
      "control_change channel=2 control=64 value=0 time=0\n",
      "pitchwheel channel=2 pitch=0 time=0\n",
      "note_on channel=2 note=29 velocity=90 time=3360\n",
      "note_on channel=2 note=29 velocity=0 time=119\n",
      "note_on channel=2 note=33 velocity=112 time=1\n",
      "note_on channel=2 note=33 velocity=0 time=119\n",
      "note_on channel=2 note=36 velocity=99 time=1\n",
      "note_on channel=2 note=36 velocity=0 time=119\n",
      "note_on channel=2 note=38 velocity=99 time=1\n",
      "note_on channel=2 note=38 velocity=0 time=119\n",
      "note_on channel=2 note=41 velocity=105 time=1\n",
      "note_on channel=2 note=41 velocity=0 time=119\n",
      "note_on channel=2 note=38 velocity=119 time=1\n",
      "note_on channel=2 note=38 velocity=0 time=119\n",
      "note_on channel=2 note=36 velocity=104 time=1\n",
      "note_on channel=2 note=36 velocity=0 time=119\n",
      "note_on channel=2 note=33 velocity=107 time=1\n",
      "note_on channel=2 note=33 velocity=0 time=119\n",
      "note_on channel=2 note=36 velocity=94 time=1\n",
      "note_on channel=2 note=36 velocity=0 time=119\n",
      "note_on channel=2 note=40 velocity=112 time=1\n",
      "note_on channel=2 note=40 velocity=0 time=119\n",
      "note_on channel=2 note=43 velocity=115 time=1\n",
      "note_on channel=2 note=43 velocity=0 time=119\n",
      "note_on channel=2 note=45 velocity=105 time=1\n",
      "note_on channel=2 note=45 velocity=0 time=119\n",
      "note_on channel=2 note=34 velocity=99 time=1\n",
      "note_on channel=2 note=34 velocity=0 time=119\n",
      "note_on channel=2 note=38 velocity=123 time=1\n",
      "note_on channel=2 note=38 velocity=0 time=119\n",
      "note_on channel=2 note=41 velocity=112 time=1\n",
      "note_on channel=2 note=41 velocity=0 time=119\n",
      "note_on channel=2 note=43 velocity=105 time=1\n",
      "note_on channel=2 note=43 velocity=0 time=119\n",
      "note_on channel=2 note=29 velocity=90 time=1\n",
      "note_on channel=2 note=29 velocity=0 time=119\n",
      "note_on channel=2 note=33 velocity=112 time=1\n",
      "note_on channel=2 note=33 velocity=0 time=119\n",
      "note_on channel=2 note=36 velocity=107 time=1\n",
      "note_on channel=2 note=36 velocity=0 time=119\n",
      "note_on channel=2 note=38 velocity=104 time=1\n",
      "note_on channel=2 note=38 velocity=0 time=119\n",
      "note_on channel=2 note=41 velocity=112 time=1\n",
      "note_on channel=2 note=41 velocity=0 time=119\n",
      "note_on channel=2 note=38 velocity=115 time=1\n",
      "note_on channel=2 note=38 velocity=0 time=119\n",
      "note_on channel=2 note=36 velocity=101 time=1\n",
      "note_on channel=2 note=36 velocity=0 time=119\n",
      "note_on channel=2 note=33 velocity=110 time=1\n",
      "note_on channel=2 note=33 velocity=0 time=119\n",
      "note_on channel=2 note=29 velocity=112 time=1\n",
      "note_on channel=2 note=29 velocity=0 time=119\n",
      "note_on channel=2 note=33 velocity=117 time=1\n",
      "note_on channel=2 note=33 velocity=0 time=119\n",
      "note_on channel=2 note=36 velocity=112 time=1\n",
      "note_on channel=2 note=36 velocity=0 time=119\n",
      "note_on channel=2 note=38 velocity=110 time=1\n",
      "note_on channel=2 note=38 velocity=0 time=119\n",
      "note_on channel=2 note=41 velocity=104 time=1\n",
      "note_on channel=2 note=41 velocity=0 time=119\n",
      "note_on channel=2 note=38 velocity=115 time=1\n",
      "note_on channel=2 note=38 velocity=0 time=119\n",
      "note_on channel=2 note=36 velocity=99 time=1\n",
      "note_on channel=2 note=36 velocity=0 time=119\n",
      "note_on channel=2 note=33 velocity=110 time=1\n",
      "note_on channel=2 note=33 velocity=0 time=119\n",
      "note_on channel=2 note=29 velocity=104 time=1\n",
      "note_on channel=2 note=29 velocity=0 time=119\n",
      "note_on channel=2 note=33 velocity=105 time=1\n",
      "note_on channel=2 note=33 velocity=0 time=119\n",
      "note_on channel=2 note=36 velocity=112 time=1\n",
      "note_on channel=2 note=36 velocity=0 time=119\n",
      "note_on channel=2 note=38 velocity=112 time=1\n",
      "note_on channel=2 note=38 velocity=0 time=119\n",
      "note_on channel=2 note=41 velocity=112 time=1\n",
      "note_on channel=2 note=41 velocity=0 time=119\n",
      "note_on channel=2 note=38 velocity=119 time=1\n",
      "note_on channel=2 note=38 velocity=0 time=119\n",
      "note_on channel=2 note=36 velocity=110 time=1\n",
      "note_on channel=2 note=36 velocity=0 time=119\n",
      "note_on channel=2 note=33 velocity=99 time=1\n",
      "note_on channel=2 note=33 velocity=0 time=119\n",
      "note_on channel=2 note=34 velocity=81 time=1\n",
      "note_on channel=2 note=34 velocity=0 time=119\n",
      "note_on channel=2 note=38 velocity=115 time=1\n",
      "note_on channel=2 note=38 velocity=0 time=119\n",
      "note_on channel=2 note=41 velocity=115 time=1\n",
      "note_on channel=2 note=41 velocity=0 time=119\n",
      "note_on channel=2 note=43 velocity=105 time=1\n",
      "note_on channel=2 note=43 velocity=0 time=119\n",
      "note_on channel=2 note=46 velocity=79 time=1\n",
      "note_on channel=2 note=46 velocity=0 time=119\n",
      "note_on channel=2 note=43 velocity=101 time=1\n",
      "note_on channel=2 note=43 velocity=0 time=119\n",
      "note_on channel=2 note=41 velocity=117 time=1\n",
      "note_on channel=2 note=41 velocity=0 time=119\n",
      "note_on channel=2 note=38 velocity=105 time=1\n",
      "note_on channel=2 note=38 velocity=0 time=119\n",
      "note_on channel=2 note=29 velocity=105 time=1\n",
      "note_on channel=2 note=29 velocity=0 time=119\n",
      "note_on channel=2 note=33 velocity=115 time=1\n",
      "note_on channel=2 note=33 velocity=0 time=119\n",
      "note_on channel=2 note=36 velocity=119 time=1\n",
      "note_on channel=2 note=36 velocity=0 time=119\n",
      "note_on channel=2 note=38 velocity=112 time=1\n",
      "note_on channel=2 note=38 velocity=0 time=119\n",
      "note_on channel=2 note=41 velocity=123 time=1\n",
      "note_on channel=2 note=41 velocity=0 time=119\n",
      "note_on channel=2 note=38 velocity=112 time=1\n",
      "note_on channel=2 note=38 velocity=0 time=119\n",
      "note_on channel=2 note=36 velocity=110 time=1\n",
      "note_on channel=2 note=36 velocity=0 time=119\n",
      "note_on channel=2 note=33 velocity=112 time=1\n",
      "note_on channel=2 note=33 velocity=0 time=119\n",
      "note_on channel=2 note=36 velocity=107 time=1\n",
      "note_on channel=2 note=36 velocity=0 time=119\n",
      "note_on channel=2 note=40 velocity=110 time=1\n",
      "note_on channel=2 note=40 velocity=0 time=119\n",
      "note_on channel=2 note=43 velocity=110 time=1\n",
      "note_on channel=2 note=43 velocity=0 time=119\n",
      "note_on channel=2 note=45 velocity=105 time=1\n",
      "note_on channel=2 note=45 velocity=0 time=119\n",
      "note_on channel=2 note=34 velocity=93 time=1\n",
      "note_on channel=2 note=34 velocity=0 time=119\n",
      "note_on channel=2 note=38 velocity=105 time=1\n",
      "note_on channel=2 note=38 velocity=0 time=119\n",
      "note_on channel=2 note=41 velocity=119 time=1\n",
      "note_on channel=2 note=41 velocity=0 time=119\n",
      "note_on channel=2 note=43 velocity=112 time=1\n",
      "note_on channel=2 note=43 velocity=0 time=119\n",
      "note_on channel=2 note=29 velocity=112 time=1\n",
      "note_on channel=2 note=29 velocity=0 time=119\n",
      "note_on channel=2 note=33 velocity=125 time=1\n",
      "note_on channel=2 note=33 velocity=0 time=119\n",
      "note_on channel=2 note=36 velocity=115 time=1\n",
      "note_on channel=2 note=36 velocity=0 time=119\n",
      "note_on channel=2 note=38 velocity=112 time=1\n",
      "note_on channel=2 note=38 velocity=0 time=119\n",
      "note_on channel=2 note=41 velocity=119 time=1\n",
      "note_on channel=2 note=41 velocity=0 time=119\n",
      "note_on channel=2 note=38 velocity=119 time=1\n",
      "note_on channel=2 note=38 velocity=0 time=119\n",
      "note_on channel=2 note=36 velocity=112 time=1\n",
      "note_on channel=2 note=36 velocity=0 time=119\n",
      "note_on channel=2 note=33 velocity=115 time=1\n",
      "note_on channel=2 note=33 velocity=0 time=119\n",
      "note_on channel=2 note=29 velocity=112 time=1\n",
      "note_on channel=2 note=29 velocity=0 time=119\n",
      "note_on channel=2 note=33 velocity=117 time=1\n",
      "note_on channel=2 note=33 velocity=0 time=119\n",
      "note_on channel=2 note=36 velocity=112 time=1\n",
      "note_on channel=2 note=36 velocity=0 time=119\n",
      "note_on channel=2 note=38 velocity=110 time=1\n",
      "note_on channel=2 note=38 velocity=0 time=119\n",
      "note_on channel=2 note=41 velocity=104 time=1\n",
      "note_on channel=2 note=41 velocity=0 time=119\n",
      "note_on channel=2 note=38 velocity=115 time=1\n",
      "note_on channel=2 note=38 velocity=0 time=119\n",
      "note_on channel=2 note=36 velocity=99 time=1\n",
      "note_on channel=2 note=36 velocity=0 time=119\n",
      "note_on channel=2 note=33 velocity=110 time=1\n",
      "note_on channel=2 note=33 velocity=0 time=119\n",
      "note_on channel=2 note=29 velocity=104 time=1\n",
      "note_on channel=2 note=29 velocity=0 time=119\n",
      "note_on channel=2 note=33 velocity=105 time=1\n",
      "note_on channel=2 note=33 velocity=0 time=119\n",
      "note_on channel=2 note=36 velocity=112 time=1\n",
      "note_on channel=2 note=36 velocity=0 time=119\n",
      "note_on channel=2 note=38 velocity=112 time=1\n",
      "note_on channel=2 note=38 velocity=0 time=119\n",
      "note_on channel=2 note=41 velocity=112 time=1\n",
      "note_on channel=2 note=41 velocity=0 time=119\n",
      "note_on channel=2 note=38 velocity=119 time=1\n",
      "note_on channel=2 note=38 velocity=0 time=119\n",
      "note_on channel=2 note=36 velocity=110 time=1\n",
      "note_on channel=2 note=36 velocity=0 time=119\n",
      "note_on channel=2 note=33 velocity=99 time=1\n",
      "note_on channel=2 note=33 velocity=0 time=119\n",
      "note_on channel=2 note=34 velocity=81 time=1\n",
      "note_on channel=2 note=34 velocity=0 time=119\n",
      "note_on channel=2 note=38 velocity=115 time=1\n",
      "note_on channel=2 note=38 velocity=0 time=119\n",
      "note_on channel=2 note=41 velocity=115 time=1\n",
      "note_on channel=2 note=41 velocity=0 time=119\n",
      "note_on channel=2 note=43 velocity=105 time=1\n",
      "note_on channel=2 note=43 velocity=0 time=119\n",
      "note_on channel=2 note=46 velocity=79 time=1\n",
      "note_on channel=2 note=46 velocity=0 time=119\n",
      "note_on channel=2 note=43 velocity=101 time=1\n",
      "note_on channel=2 note=43 velocity=0 time=119\n",
      "note_on channel=2 note=41 velocity=117 time=1\n",
      "note_on channel=2 note=41 velocity=0 time=119\n",
      "note_on channel=2 note=38 velocity=105 time=1\n",
      "note_on channel=2 note=38 velocity=0 time=119\n",
      "note_on channel=2 note=29 velocity=105 time=1\n",
      "note_on channel=2 note=29 velocity=0 time=119\n",
      "note_on channel=2 note=33 velocity=115 time=1\n",
      "note_on channel=2 note=33 velocity=0 time=119\n",
      "note_on channel=2 note=36 velocity=119 time=1\n",
      "note_on channel=2 note=36 velocity=0 time=119\n",
      "note_on channel=2 note=38 velocity=112 time=1\n",
      "note_on channel=2 note=38 velocity=0 time=119\n",
      "note_on channel=2 note=41 velocity=123 time=1\n",
      "note_on channel=2 note=41 velocity=0 time=119\n",
      "note_on channel=2 note=38 velocity=112 time=1\n",
      "note_on channel=2 note=38 velocity=0 time=119\n",
      "note_on channel=2 note=36 velocity=110 time=1\n",
      "note_on channel=2 note=36 velocity=0 time=119\n",
      "note_on channel=2 note=33 velocity=112 time=1\n",
      "note_on channel=2 note=33 velocity=0 time=119\n",
      "note_on channel=2 note=36 velocity=107 time=1\n",
      "note_on channel=2 note=36 velocity=0 time=119\n",
      "note_on channel=2 note=40 velocity=110 time=1\n",
      "note_on channel=2 note=40 velocity=0 time=119\n",
      "note_on channel=2 note=43 velocity=110 time=1\n",
      "note_on channel=2 note=43 velocity=0 time=119\n",
      "note_on channel=2 note=45 velocity=105 time=1\n",
      "note_on channel=2 note=45 velocity=0 time=119\n",
      "note_on channel=2 note=34 velocity=93 time=1\n",
      "note_on channel=2 note=34 velocity=0 time=119\n",
      "note_on channel=2 note=38 velocity=105 time=1\n",
      "note_on channel=2 note=38 velocity=0 time=119\n",
      "note_on channel=2 note=41 velocity=119 time=1\n",
      "note_on channel=2 note=41 velocity=0 time=119\n",
      "note_on channel=2 note=43 velocity=112 time=1\n",
      "note_on channel=2 note=43 velocity=0 time=119\n",
      "note_on channel=2 note=29 velocity=112 time=1\n",
      "note_on channel=2 note=29 velocity=0 time=119\n",
      "note_on channel=2 note=33 velocity=125 time=1\n",
      "note_on channel=2 note=33 velocity=0 time=119\n",
      "note_on channel=2 note=36 velocity=115 time=1\n",
      "note_on channel=2 note=36 velocity=0 time=119\n",
      "note_on channel=2 note=38 velocity=112 time=1\n",
      "note_on channel=2 note=38 velocity=0 time=119\n",
      "note_on channel=2 note=41 velocity=119 time=1\n",
      "note_on channel=2 note=41 velocity=0 time=119\n",
      "note_on channel=2 note=38 velocity=119 time=1\n",
      "note_on channel=2 note=38 velocity=0 time=119\n",
      "note_on channel=2 note=36 velocity=112 time=1\n",
      "note_on channel=2 note=36 velocity=0 time=119\n",
      "note_on channel=2 note=33 velocity=115 time=1\n",
      "note_on channel=2 note=33 velocity=0 time=119\n",
      "note_on channel=2 note=29 velocity=112 time=1\n",
      "note_on channel=2 note=29 velocity=0 time=119\n",
      "note_on channel=2 note=33 velocity=117 time=1\n",
      "note_on channel=2 note=33 velocity=0 time=119\n",
      "note_on channel=2 note=36 velocity=112 time=1\n",
      "note_on channel=2 note=36 velocity=0 time=119\n",
      "note_on channel=2 note=38 velocity=110 time=1\n",
      "note_on channel=2 note=38 velocity=0 time=119\n",
      "note_on channel=2 note=41 velocity=104 time=1\n",
      "note_on channel=2 note=41 velocity=0 time=119\n",
      "note_on channel=2 note=38 velocity=115 time=1\n",
      "note_on channel=2 note=38 velocity=0 time=119\n",
      "note_on channel=2 note=36 velocity=99 time=1\n",
      "note_on channel=2 note=36 velocity=0 time=119\n",
      "note_on channel=2 note=33 velocity=110 time=1\n",
      "note_on channel=2 note=33 velocity=0 time=119\n",
      "note_on channel=2 note=29 velocity=104 time=1\n",
      "note_on channel=2 note=29 velocity=0 time=119\n",
      "note_on channel=2 note=33 velocity=105 time=1\n",
      "note_on channel=2 note=33 velocity=0 time=119\n",
      "note_on channel=2 note=36 velocity=112 time=1\n",
      "note_on channel=2 note=36 velocity=0 time=119\n",
      "note_on channel=2 note=38 velocity=112 time=1\n",
      "note_on channel=2 note=38 velocity=0 time=119\n",
      "note_on channel=2 note=41 velocity=112 time=1\n",
      "note_on channel=2 note=41 velocity=0 time=119\n",
      "note_on channel=2 note=38 velocity=119 time=1\n",
      "note_on channel=2 note=38 velocity=0 time=119\n",
      "note_on channel=2 note=36 velocity=110 time=1\n",
      "note_on channel=2 note=36 velocity=0 time=119\n",
      "note_on channel=2 note=33 velocity=99 time=1\n",
      "note_on channel=2 note=33 velocity=0 time=119\n",
      "note_on channel=2 note=34 velocity=81 time=1\n",
      "note_on channel=2 note=34 velocity=0 time=119\n",
      "note_on channel=2 note=38 velocity=115 time=1\n",
      "note_on channel=2 note=38 velocity=0 time=119\n",
      "note_on channel=2 note=41 velocity=115 time=1\n",
      "note_on channel=2 note=41 velocity=0 time=119\n",
      "note_on channel=2 note=43 velocity=105 time=1\n",
      "note_on channel=2 note=43 velocity=0 time=119\n",
      "note_on channel=2 note=44 velocity=79 time=1\n",
      "note_on channel=2 note=44 velocity=0 time=119\n",
      "note_on channel=2 note=43 velocity=101 time=1\n",
      "note_on channel=2 note=43 velocity=0 time=119\n",
      "note_on channel=2 note=41 velocity=117 time=1\n",
      "note_on channel=2 note=41 velocity=0 time=119\n",
      "note_on channel=2 note=38 velocity=105 time=1\n",
      "note_on channel=2 note=38 velocity=0 time=119\n",
      "note_on channel=2 note=29 velocity=105 time=1\n",
      "note_on channel=2 note=29 velocity=0 time=119\n",
      "note_on channel=2 note=33 velocity=115 time=1\n",
      "note_on channel=2 note=33 velocity=0 time=119\n",
      "note_on channel=2 note=36 velocity=119 time=1\n",
      "note_on channel=2 note=36 velocity=0 time=119\n",
      "note_on channel=2 note=38 velocity=112 time=1\n",
      "note_on channel=2 note=38 velocity=0 time=119\n",
      "note_on channel=2 note=41 velocity=123 time=1\n",
      "note_on channel=2 note=41 velocity=0 time=119\n",
      "note_on channel=2 note=38 velocity=112 time=1\n",
      "note_on channel=2 note=38 velocity=0 time=119\n",
      "note_on channel=2 note=36 velocity=110 time=1\n",
      "note_on channel=2 note=36 velocity=0 time=119\n",
      "note_on channel=2 note=33 velocity=112 time=1\n",
      "note_on channel=2 note=33 velocity=0 time=119\n",
      "note_on channel=2 note=36 velocity=107 time=1\n",
      "note_on channel=2 note=36 velocity=0 time=119\n",
      "note_on channel=2 note=40 velocity=110 time=1\n",
      "note_on channel=2 note=40 velocity=0 time=119\n",
      "note_on channel=2 note=43 velocity=110 time=1\n",
      "note_on channel=2 note=43 velocity=0 time=119\n",
      "note_on channel=2 note=45 velocity=105 time=1\n",
      "note_on channel=2 note=45 velocity=0 time=119\n",
      "note_on channel=2 note=34 velocity=93 time=1\n",
      "note_on channel=2 note=34 velocity=0 time=119\n",
      "note_on channel=2 note=38 velocity=105 time=1\n",
      "note_on channel=2 note=38 velocity=0 time=119\n",
      "note_on channel=2 note=41 velocity=119 time=1\n",
      "note_on channel=2 note=41 velocity=0 time=119\n",
      "note_on channel=2 note=43 velocity=112 time=1\n",
      "note_on channel=2 note=43 velocity=0 time=119\n",
      "note_on channel=2 note=29 velocity=95 time=1\n",
      "note_on channel=2 note=29 velocity=0 time=75\n",
      "note_on channel=2 note=33 velocity=107 time=0\n",
      "note_on channel=2 note=34 velocity=93 time=165\n",
      "note_on channel=2 note=33 velocity=0 time=34\n",
      "note_on channel=2 note=34 velocity=0 time=45\n",
      "note_on channel=2 note=35 velocity=117 time=41\n",
      "note_on channel=2 note=35 velocity=0 time=79\n",
      "note_on channel=2 note=41 velocity=119 time=41\n",
      "note_on channel=2 note=41 velocity=0 time=119\n",
      "note_on channel=2 note=38 velocity=119 time=1\n",
      "note_on channel=2 note=38 velocity=0 time=119\n",
      "note_on channel=2 note=36 velocity=112 time=1\n",
      "note_on channel=2 note=36 velocity=0 time=119\n",
      "note_on channel=2 note=33 velocity=115 time=1\n",
      "note_on channel=2 note=33 velocity=0 time=119\n",
      "note_on channel=2 note=29 velocity=93 time=1\n",
      "note_on channel=2 note=29 velocity=0 time=479\n",
      "note_on channel=2 note=36 velocity=94 time=1\n",
      "note_on channel=2 note=36 velocity=0 time=479\n",
      "note_on channel=2 note=29 velocity=98 time=1\n",
      "note_on channel=2 note=29 velocity=0 time=59\n",
      "note_on channel=2 note=34 velocity=81 time=901\n",
      "note_on channel=2 note=34 velocity=0 time=119\n",
      "note_on channel=2 note=38 velocity=115 time=1\n",
      "note_on channel=2 note=38 velocity=0 time=119\n",
      "note_on channel=2 note=41 velocity=115 time=1\n",
      "note_on channel=2 note=41 velocity=0 time=119\n",
      "note_on channel=2 note=43 velocity=105 time=1\n",
      "note_on channel=2 note=43 velocity=0 time=119\n",
      "note_on channel=2 note=46 velocity=79 time=1\n",
      "note_on channel=2 note=46 velocity=0 time=119\n",
      "note_on channel=2 note=43 velocity=101 time=1\n",
      "note_on channel=2 note=43 velocity=0 time=119\n",
      "note_on channel=2 note=41 velocity=117 time=1\n",
      "note_on channel=2 note=41 velocity=0 time=119\n",
      "note_on channel=2 note=38 velocity=105 time=1\n",
      "note_on channel=2 note=38 velocity=0 time=119\n",
      "note_on channel=2 note=29 velocity=105 time=1\n",
      "note_on channel=2 note=29 velocity=0 time=119\n",
      "note_on channel=2 note=33 velocity=115 time=1\n",
      "note_on channel=2 note=33 velocity=0 time=119\n",
      "note_on channel=2 note=36 velocity=119 time=1\n",
      "note_on channel=2 note=36 velocity=0 time=119\n",
      "note_on channel=2 note=38 velocity=112 time=1\n",
      "note_on channel=2 note=38 velocity=0 time=119\n",
      "note_on channel=2 note=41 velocity=123 time=1\n",
      "note_on channel=2 note=41 velocity=0 time=119\n",
      "note_on channel=2 note=38 velocity=112 time=1\n",
      "note_on channel=2 note=38 velocity=0 time=119\n",
      "note_on channel=2 note=36 velocity=110 time=1\n",
      "note_on channel=2 note=36 velocity=0 time=119\n",
      "note_on channel=2 note=33 velocity=112 time=1\n",
      "note_on channel=2 note=33 velocity=0 time=119\n",
      "note_on channel=2 note=36 velocity=107 time=1\n",
      "note_on channel=2 note=36 velocity=0 time=119\n",
      "note_on channel=2 note=40 velocity=110 time=1\n",
      "note_on channel=2 note=40 velocity=0 time=119\n",
      "note_on channel=2 note=43 velocity=110 time=1\n",
      "note_on channel=2 note=43 velocity=0 time=119\n",
      "note_on channel=2 note=45 velocity=105 time=1\n",
      "note_on channel=2 note=45 velocity=0 time=119\n",
      "note_on channel=2 note=34 velocity=93 time=1\n",
      "note_on channel=2 note=34 velocity=0 time=119\n",
      "note_on channel=2 note=38 velocity=105 time=1\n",
      "note_on channel=2 note=38 velocity=0 time=119\n",
      "note_on channel=2 note=41 velocity=119 time=1\n",
      "note_on channel=2 note=41 velocity=0 time=119\n",
      "note_on channel=2 note=43 velocity=112 time=1\n",
      "note_on channel=2 note=43 velocity=0 time=119\n",
      "note_on channel=2 note=29 velocity=112 time=1\n",
      "note_on channel=2 note=29 velocity=0 time=119\n",
      "note_on channel=2 note=33 velocity=125 time=1\n",
      "note_on channel=2 note=33 velocity=0 time=119\n",
      "note_on channel=2 note=36 velocity=115 time=1\n",
      "note_on channel=2 note=36 velocity=0 time=119\n",
      "note_on channel=2 note=38 velocity=112 time=1\n",
      "note_on channel=2 note=38 velocity=0 time=119\n",
      "note_on channel=2 note=41 velocity=119 time=1\n",
      "note_on channel=2 note=41 velocity=0 time=119\n",
      "note_on channel=2 note=38 velocity=119 time=1\n",
      "note_on channel=2 note=38 velocity=0 time=119\n",
      "note_on channel=2 note=36 velocity=112 time=1\n",
      "note_on channel=2 note=36 velocity=0 time=119\n",
      "note_on channel=2 note=33 velocity=115 time=1\n",
      "note_on channel=2 note=33 velocity=0 time=119\n",
      "note_on channel=2 note=29 velocity=112 time=1\n",
      "note_on channel=2 note=29 velocity=0 time=119\n",
      "note_on channel=2 note=33 velocity=117 time=1\n",
      "note_on channel=2 note=33 velocity=0 time=119\n",
      "note_on channel=2 note=36 velocity=112 time=1\n",
      "note_on channel=2 note=36 velocity=0 time=119\n",
      "note_on channel=2 note=38 velocity=110 time=1\n",
      "note_on channel=2 note=38 velocity=0 time=119\n",
      "note_on channel=2 note=41 velocity=104 time=1\n",
      "note_on channel=2 note=41 velocity=0 time=119\n",
      "note_on channel=2 note=38 velocity=115 time=1\n",
      "note_on channel=2 note=38 velocity=0 time=119\n",
      "note_on channel=2 note=36 velocity=99 time=1\n",
      "note_on channel=2 note=36 velocity=0 time=119\n",
      "note_on channel=2 note=33 velocity=110 time=1\n",
      "note_on channel=2 note=33 velocity=0 time=119\n",
      "note_on channel=2 note=29 velocity=104 time=1\n",
      "note_on channel=2 note=29 velocity=0 time=119\n",
      "note_on channel=2 note=33 velocity=105 time=1\n",
      "note_on channel=2 note=33 velocity=0 time=119\n",
      "note_on channel=2 note=36 velocity=112 time=1\n",
      "note_on channel=2 note=36 velocity=0 time=119\n",
      "note_on channel=2 note=38 velocity=112 time=1\n",
      "note_on channel=2 note=38 velocity=0 time=119\n",
      "note_on channel=2 note=41 velocity=112 time=1\n",
      "note_on channel=2 note=41 velocity=0 time=119\n",
      "note_on channel=2 note=38 velocity=119 time=1\n",
      "note_on channel=2 note=38 velocity=0 time=119\n",
      "note_on channel=2 note=36 velocity=110 time=1\n",
      "note_on channel=2 note=36 velocity=0 time=119\n",
      "note_on channel=2 note=33 velocity=99 time=1\n",
      "note_on channel=2 note=33 velocity=0 time=119\n",
      "note_on channel=2 note=34 velocity=81 time=1\n",
      "note_on channel=2 note=34 velocity=0 time=119\n",
      "note_on channel=2 note=38 velocity=115 time=1\n",
      "note_on channel=2 note=38 velocity=0 time=119\n",
      "note_on channel=2 note=41 velocity=115 time=1\n",
      "note_on channel=2 note=41 velocity=0 time=119\n",
      "note_on channel=2 note=43 velocity=105 time=1\n",
      "note_on channel=2 note=43 velocity=0 time=119\n",
      "note_on channel=2 note=46 velocity=79 time=1\n",
      "note_on channel=2 note=46 velocity=0 time=119\n",
      "note_on channel=2 note=43 velocity=101 time=1\n",
      "note_on channel=2 note=43 velocity=0 time=119\n",
      "note_on channel=2 note=41 velocity=117 time=1\n",
      "note_on channel=2 note=41 velocity=0 time=119\n",
      "note_on channel=2 note=38 velocity=105 time=1\n",
      "note_on channel=2 note=38 velocity=0 time=119\n",
      "note_on channel=2 note=29 velocity=105 time=1\n",
      "note_on channel=2 note=29 velocity=0 time=119\n",
      "note_on channel=2 note=33 velocity=115 time=1\n",
      "note_on channel=2 note=33 velocity=0 time=119\n",
      "note_on channel=2 note=36 velocity=119 time=1\n",
      "note_on channel=2 note=36 velocity=0 time=119\n",
      "note_on channel=2 note=38 velocity=112 time=1\n",
      "note_on channel=2 note=38 velocity=0 time=119\n",
      "note_on channel=2 note=41 velocity=123 time=1\n",
      "note_on channel=2 note=41 velocity=0 time=119\n",
      "note_on channel=2 note=38 velocity=112 time=1\n",
      "note_on channel=2 note=38 velocity=0 time=119\n",
      "note_on channel=2 note=36 velocity=110 time=1\n",
      "note_on channel=2 note=36 velocity=0 time=119\n",
      "note_on channel=2 note=33 velocity=112 time=1\n",
      "note_on channel=2 note=33 velocity=0 time=119\n",
      "note_on channel=2 note=36 velocity=107 time=1\n",
      "note_on channel=2 note=36 velocity=0 time=119\n",
      "note_on channel=2 note=40 velocity=110 time=1\n",
      "note_on channel=2 note=40 velocity=0 time=119\n",
      "note_on channel=2 note=43 velocity=110 time=1\n",
      "note_on channel=2 note=43 velocity=0 time=119\n",
      "note_on channel=2 note=45 velocity=105 time=1\n",
      "note_on channel=2 note=45 velocity=0 time=119\n",
      "note_on channel=2 note=34 velocity=93 time=1\n",
      "note_on channel=2 note=34 velocity=0 time=119\n",
      "note_on channel=2 note=38 velocity=105 time=1\n",
      "note_on channel=2 note=38 velocity=0 time=119\n",
      "note_on channel=2 note=41 velocity=119 time=1\n",
      "note_on channel=2 note=41 velocity=0 time=119\n",
      "note_on channel=2 note=43 velocity=112 time=1\n",
      "note_on channel=2 note=43 velocity=0 time=119\n",
      "note_on channel=2 note=29 velocity=112 time=1\n",
      "note_on channel=2 note=29 velocity=0 time=119\n",
      "note_on channel=2 note=33 velocity=125 time=1\n",
      "note_on channel=2 note=33 velocity=0 time=119\n",
      "note_on channel=2 note=36 velocity=115 time=1\n",
      "note_on channel=2 note=36 velocity=0 time=119\n",
      "note_on channel=2 note=38 velocity=112 time=1\n",
      "note_on channel=2 note=38 velocity=0 time=119\n",
      "note_on channel=2 note=41 velocity=119 time=1\n",
      "note_on channel=2 note=41 velocity=0 time=119\n",
      "note_on channel=2 note=38 velocity=119 time=1\n",
      "note_on channel=2 note=38 velocity=0 time=119\n",
      "note_on channel=2 note=36 velocity=112 time=1\n",
      "note_on channel=2 note=36 velocity=0 time=119\n",
      "note_on channel=2 note=33 velocity=115 time=1\n",
      "note_on channel=2 note=33 velocity=0 time=119\n",
      "note_on channel=2 note=29 velocity=84 time=1\n",
      "note_on channel=2 note=29 velocity=0 time=479\n",
      "note_on channel=2 note=29 velocity=101 time=1\n",
      "note_on channel=2 note=29 velocity=0 time=59\n",
      "note_on channel=2 note=34 velocity=81 time=1381\n",
      "note_on channel=2 note=34 velocity=0 time=119\n",
      "note_on channel=2 note=38 velocity=115 time=1\n",
      "note_on channel=2 note=38 velocity=0 time=119\n",
      "note_on channel=2 note=41 velocity=115 time=1\n",
      "note_on channel=2 note=41 velocity=0 time=119\n",
      "note_on channel=2 note=43 velocity=105 time=1\n",
      "note_on channel=2 note=43 velocity=0 time=119\n",
      "note_on channel=2 note=46 velocity=79 time=1\n",
      "note_on channel=2 note=46 velocity=0 time=119\n",
      "note_on channel=2 note=43 velocity=101 time=1\n",
      "note_on channel=2 note=43 velocity=0 time=119\n",
      "note_on channel=2 note=41 velocity=117 time=1\n",
      "note_on channel=2 note=41 velocity=0 time=119\n",
      "note_on channel=2 note=38 velocity=105 time=1\n",
      "note_on channel=2 note=38 velocity=0 time=119\n",
      "note_on channel=2 note=29 velocity=105 time=1\n",
      "note_on channel=2 note=29 velocity=0 time=119\n",
      "note_on channel=2 note=33 velocity=115 time=1\n",
      "note_on channel=2 note=33 velocity=0 time=119\n",
      "note_on channel=2 note=36 velocity=119 time=1\n",
      "note_on channel=2 note=36 velocity=0 time=119\n",
      "note_on channel=2 note=38 velocity=112 time=1\n",
      "note_on channel=2 note=38 velocity=0 time=119\n",
      "note_on channel=2 note=41 velocity=123 time=1\n",
      "note_on channel=2 note=41 velocity=0 time=119\n",
      "note_on channel=2 note=38 velocity=112 time=1\n",
      "note_on channel=2 note=38 velocity=0 time=119\n",
      "note_on channel=2 note=36 velocity=110 time=1\n",
      "note_on channel=2 note=36 velocity=0 time=119\n",
      "note_on channel=2 note=33 velocity=112 time=1\n",
      "note_on channel=2 note=33 velocity=0 time=119\n",
      "note_on channel=2 note=36 velocity=107 time=1\n",
      "note_on channel=2 note=36 velocity=0 time=119\n",
      "note_on channel=2 note=40 velocity=110 time=1\n",
      "note_on channel=2 note=40 velocity=0 time=119\n",
      "note_on channel=2 note=43 velocity=110 time=1\n",
      "note_on channel=2 note=43 velocity=0 time=119\n",
      "note_on channel=2 note=45 velocity=105 time=1\n",
      "note_on channel=2 note=45 velocity=0 time=119\n",
      "note_on channel=2 note=34 velocity=93 time=1\n",
      "note_on channel=2 note=34 velocity=0 time=119\n",
      "note_on channel=2 note=38 velocity=105 time=1\n",
      "note_on channel=2 note=38 velocity=0 time=119\n",
      "note_on channel=2 note=41 velocity=119 time=1\n",
      "note_on channel=2 note=41 velocity=0 time=119\n",
      "note_on channel=2 note=43 velocity=112 time=1\n",
      "note_on channel=2 note=43 velocity=0 time=119\n",
      "note_on channel=2 note=29 velocity=73 time=1\n",
      "note_on channel=2 note=29 velocity=0 time=75\n",
      "note_on channel=2 note=29 velocity=73 time=0\n",
      "note_on channel=2 note=29 velocity=0 time=39\n",
      "note_on channel=2 note=33 velocity=89 time=6\n",
      "note_on channel=2 note=33 velocity=0 time=119\n",
      "note_on channel=2 note=34 velocity=69 time=1\n",
      "note_on channel=2 note=34 velocity=0 time=119\n",
      "note_on channel=2 note=36 velocity=98 time=1\n",
      "note_on channel=2 note=36 velocity=0 time=119\n",
      "note_on channel=2 note=29 velocity=62 time=1\n",
      "note_on channel=2 note=29 velocity=0 time=119\n",
      "note_on channel=2 note=33 velocity=90 time=1\n",
      "note_on channel=2 note=33 velocity=0 time=119\n",
      "note_on channel=2 note=36 velocity=80 time=1\n",
      "note_on channel=2 note=36 velocity=0 time=119\n",
      "note_on channel=2 note=38 velocity=84 time=1\n",
      "note_on channel=2 note=38 velocity=0 time=119\n",
      "note_on channel=2 note=29 velocity=112 time=1\n",
      "note_on channel=2 note=29 velocity=0 time=119\n",
      "note_on channel=2 note=33 velocity=117 time=1\n",
      "note_on channel=2 note=33 velocity=0 time=119\n",
      "note_on channel=2 note=36 velocity=112 time=1\n",
      "note_on channel=2 note=36 velocity=0 time=119\n",
      "note_on channel=2 note=38 velocity=110 time=1\n",
      "note_on channel=2 note=38 velocity=0 time=119\n",
      "note_on channel=2 note=41 velocity=104 time=1\n",
      "note_on channel=2 note=41 velocity=0 time=119\n",
      "note_on channel=2 note=38 velocity=115 time=1\n",
      "note_on channel=2 note=38 velocity=0 time=119\n",
      "note_on channel=2 note=36 velocity=99 time=1\n",
      "note_on channel=2 note=36 velocity=0 time=119\n",
      "note_on channel=2 note=33 velocity=110 time=1\n",
      "note_on channel=2 note=33 velocity=0 time=119\n",
      "note_on channel=2 note=29 velocity=104 time=1\n",
      "note_on channel=2 note=29 velocity=0 time=119\n",
      "note_on channel=2 note=33 velocity=105 time=1\n",
      "note_on channel=2 note=33 velocity=0 time=119\n",
      "note_on channel=2 note=36 velocity=112 time=1\n",
      "note_on channel=2 note=36 velocity=0 time=119\n",
      "note_on channel=2 note=38 velocity=112 time=1\n",
      "note_on channel=2 note=38 velocity=0 time=119\n",
      "note_on channel=2 note=41 velocity=112 time=1\n",
      "note_on channel=2 note=41 velocity=0 time=119\n",
      "note_on channel=2 note=38 velocity=119 time=1\n",
      "note_on channel=2 note=38 velocity=0 time=119\n",
      "note_on channel=2 note=36 velocity=110 time=1\n",
      "note_on channel=2 note=36 velocity=0 time=119\n",
      "note_on channel=2 note=33 velocity=99 time=1\n",
      "note_on channel=2 note=33 velocity=0 time=119\n",
      "note_on channel=2 note=34 velocity=81 time=1\n",
      "note_on channel=2 note=34 velocity=0 time=119\n",
      "note_on channel=2 note=38 velocity=115 time=1\n",
      "note_on channel=2 note=38 velocity=0 time=119\n",
      "note_on channel=2 note=41 velocity=115 time=1\n",
      "note_on channel=2 note=41 velocity=0 time=119\n",
      "note_on channel=2 note=43 velocity=105 time=1\n",
      "note_on channel=2 note=43 velocity=0 time=119\n",
      "note_on channel=2 note=44 velocity=79 time=1\n",
      "note_on channel=2 note=44 velocity=0 time=119\n",
      "note_on channel=2 note=43 velocity=101 time=1\n",
      "note_on channel=2 note=43 velocity=0 time=119\n",
      "note_on channel=2 note=41 velocity=117 time=1\n",
      "note_on channel=2 note=41 velocity=0 time=119\n",
      "note_on channel=2 note=38 velocity=105 time=1\n",
      "note_on channel=2 note=38 velocity=0 time=119\n",
      "note_on channel=2 note=29 velocity=105 time=1\n",
      "note_on channel=2 note=29 velocity=0 time=119\n",
      "note_on channel=2 note=33 velocity=115 time=1\n",
      "note_on channel=2 note=33 velocity=0 time=119\n",
      "note_on channel=2 note=36 velocity=119 time=1\n",
      "note_on channel=2 note=36 velocity=0 time=119\n",
      "note_on channel=2 note=38 velocity=112 time=1\n",
      "note_on channel=2 note=38 velocity=0 time=119\n",
      "note_on channel=2 note=41 velocity=123 time=1\n",
      "note_on channel=2 note=41 velocity=0 time=119\n",
      "note_on channel=2 note=38 velocity=112 time=1\n",
      "note_on channel=2 note=38 velocity=0 time=119\n",
      "note_on channel=2 note=36 velocity=110 time=1\n",
      "note_on channel=2 note=36 velocity=0 time=119\n",
      "note_on channel=2 note=33 velocity=112 time=1\n",
      "note_on channel=2 note=33 velocity=0 time=119\n",
      "note_on channel=2 note=36 velocity=107 time=1\n",
      "note_on channel=2 note=36 velocity=0 time=119\n",
      "note_on channel=2 note=40 velocity=110 time=1\n",
      "note_on channel=2 note=40 velocity=0 time=119\n",
      "note_on channel=2 note=43 velocity=110 time=1\n",
      "note_on channel=2 note=43 velocity=0 time=119\n",
      "note_on channel=2 note=45 velocity=105 time=1\n",
      "note_on channel=2 note=45 velocity=0 time=119\n",
      "note_on channel=2 note=34 velocity=93 time=1\n",
      "note_on channel=2 note=34 velocity=0 time=119\n",
      "note_on channel=2 note=38 velocity=105 time=1\n",
      "note_on channel=2 note=38 velocity=0 time=119\n",
      "note_on channel=2 note=41 velocity=119 time=1\n",
      "note_on channel=2 note=41 velocity=0 time=119\n",
      "note_on channel=2 note=43 velocity=112 time=1\n",
      "note_on channel=2 note=43 velocity=0 time=119\n",
      "note_on channel=2 note=29 velocity=78 time=1\n",
      "note_on channel=2 note=29 velocity=0 time=75\n",
      "note_on channel=2 note=33 velocity=99 time=0\n",
      "note_on channel=2 note=33 velocity=0 time=159\n",
      "note_on channel=2 note=34 velocity=64 time=6\n",
      "note_on channel=2 note=34 velocity=0 time=79\n",
      "note_on channel=2 note=35 velocity=105 time=41\n",
      "note_on channel=2 note=35 velocity=0 time=79\n",
      "note_on channel=2 note=36 velocity=112 time=41\n",
      "note_on channel=2 note=36 velocity=0 time=75\n",
      "note_on channel=2 note=38 velocity=90 time=0\n",
      "note_on channel=2 note=38 velocity=0 time=39\n",
      "note_on channel=2 note=40 velocity=99 time=6\n",
      "note_on channel=2 note=40 velocity=0 time=75\n",
      "note_on channel=2 note=41 velocity=104 time=0\n",
      "note_on channel=2 note=41 velocity=0 time=79\n",
      "note_on channel=2 note=29 velocity=104 time=86\n",
      "note_on channel=2 note=29 velocity=0 time=519\n",
      "<meta message end_of_track time=0>\n",
      "Track 4: DRUMS\n",
      "<meta message midi_port port=0 time=0>\n",
      "<meta message track_name name='DRUMS' time=0>\n",
      "control_change channel=9 control=7 value=60 time=0\n",
      "control_change channel=9 control=10 value=64 time=0\n",
      "control_change channel=9 control=64 value=0 time=0\n",
      "pitchwheel channel=9 pitch=0 time=0\n",
      "note_on channel=9 note=36 velocity=127 time=3360\n",
      "note_on channel=9 note=69 velocity=112 time=0\n",
      "note_on channel=9 note=49 velocity=127 time=0\n",
      "note_on channel=9 note=54 velocity=117 time=0\n",
      "note_on channel=9 note=54 velocity=0 time=39\n",
      "note_on channel=9 note=54 velocity=119 time=36\n",
      "note_on channel=9 note=54 velocity=0 time=39\n",
      "note_on channel=9 note=69 velocity=0 time=5\n",
      "note_on channel=9 note=36 velocity=0 time=0\n",
      "note_on channel=9 note=70 velocity=112 time=1\n",
      "note_on channel=9 note=54 velocity=119 time=0\n",
      "note_on channel=9 note=40 velocity=119 time=0\n",
      "note_on channel=9 note=54 velocity=0 time=39\n",
      "note_on channel=9 note=54 velocity=112 time=36\n",
      "note_on channel=9 note=54 velocity=0 time=39\n",
      "note_on channel=9 note=40 velocity=0 time=5\n",
      "note_on channel=9 note=70 velocity=0 time=0\n",
      "note_on channel=9 note=36 velocity=127 time=1\n",
      "note_on channel=9 note=69 velocity=107 time=0\n",
      "note_on channel=9 note=54 velocity=119 time=0\n",
      "note_on channel=9 note=54 velocity=0 time=39\n",
      "note_on channel=9 note=54 velocity=119 time=36\n",
      "note_on channel=9 note=54 velocity=0 time=39\n",
      "note_on channel=9 note=69 velocity=0 time=5\n",
      "note_on channel=9 note=36 velocity=0 time=0\n",
      "note_on channel=9 note=70 velocity=125 time=1\n",
      "note_on channel=9 note=54 velocity=119 time=0\n",
      "note_on channel=9 note=40 velocity=125 time=0\n",
      "note_on channel=9 note=54 velocity=0 time=39\n",
      "note_on channel=9 note=54 velocity=107 time=36\n",
      "note_on channel=9 note=40 velocity=0 time=44\n",
      "note_on channel=9 note=70 velocity=0 time=0\n",
      "note_on channel=9 note=36 velocity=127 time=1\n",
      "note_on channel=9 note=69 velocity=112 time=0\n",
      "note_on channel=9 note=54 velocity=117 time=0\n",
      "note_on channel=9 note=54 velocity=0 time=14\n",
      "note_on channel=9 note=54 velocity=0 time=25\n",
      "note_on channel=9 note=54 velocity=119 time=36\n",
      "note_on channel=9 note=54 velocity=0 time=39\n",
      "note_on channel=9 note=69 velocity=0 time=5\n",
      "note_on channel=9 note=36 velocity=0 time=0\n",
      "note_on channel=9 note=70 velocity=112 time=1\n",
      "note_on channel=9 note=54 velocity=119 time=0\n",
      "note_on channel=9 note=40 velocity=119 time=0\n",
      "note_on channel=9 note=54 velocity=0 time=39\n",
      "note_on channel=9 note=54 velocity=112 time=36\n",
      "note_on channel=9 note=54 velocity=0 time=39\n",
      "note_on channel=9 note=40 velocity=0 time=5\n",
      "note_on channel=9 note=70 velocity=0 time=0\n",
      "note_on channel=9 note=36 velocity=127 time=1\n",
      "note_on channel=9 note=69 velocity=107 time=0\n",
      "note_on channel=9 note=54 velocity=119 time=0\n",
      "note_on channel=9 note=54 velocity=0 time=39\n",
      "note_on channel=9 note=54 velocity=119 time=36\n",
      "note_on channel=9 note=54 velocity=0 time=39\n",
      "note_on channel=9 note=69 velocity=0 time=5\n",
      "note_on channel=9 note=36 velocity=0 time=0\n",
      "note_on channel=9 note=70 velocity=125 time=1\n",
      "note_on channel=9 note=54 velocity=119 time=0\n",
      "note_on channel=9 note=40 velocity=125 time=0\n",
      "note_on channel=9 note=54 velocity=0 time=39\n",
      "note_on channel=9 note=54 velocity=107 time=36\n",
      "note_on channel=9 note=40 velocity=0 time=44\n",
      "note_on channel=9 note=70 velocity=0 time=0\n",
      "note_on channel=9 note=36 velocity=127 time=1\n",
      "note_on channel=9 note=69 velocity=112 time=0\n",
      "note_on channel=9 note=54 velocity=117 time=0\n",
      "note_on channel=9 note=54 velocity=0 time=14\n",
      "note_on channel=9 note=54 velocity=0 time=25\n",
      "note_on channel=9 note=54 velocity=119 time=36\n",
      "note_on channel=9 note=54 velocity=0 time=39\n",
      "note_on channel=9 note=69 velocity=0 time=5\n",
      "note_on channel=9 note=36 velocity=0 time=0\n",
      "note_on channel=9 note=70 velocity=112 time=1\n",
      "note_on channel=9 note=54 velocity=119 time=0\n",
      "note_on channel=9 note=40 velocity=119 time=0\n",
      "note_on channel=9 note=49 velocity=0 time=17\n",
      "note_on channel=9 note=54 velocity=0 time=22\n",
      "note_on channel=9 note=54 velocity=112 time=36\n",
      "note_on channel=9 note=54 velocity=0 time=39\n",
      "note_on channel=9 note=70 velocity=0 time=5\n",
      "note_on channel=9 note=40 velocity=0 time=0\n",
      "note_on channel=9 note=36 velocity=127 time=1\n",
      "note_on channel=9 note=69 velocity=107 time=0\n",
      "note_on channel=9 note=54 velocity=119 time=0\n",
      "note_on channel=9 note=54 velocity=0 time=39\n",
      "note_on channel=9 note=54 velocity=119 time=36\n",
      "note_on channel=9 note=54 velocity=0 time=39\n",
      "note_on channel=9 note=69 velocity=0 time=5\n",
      "note_on channel=9 note=36 velocity=0 time=0\n",
      "note_on channel=9 note=70 velocity=125 time=1\n",
      "note_on channel=9 note=54 velocity=119 time=0\n",
      "note_on channel=9 note=40 velocity=125 time=0\n",
      "note_on channel=9 note=54 velocity=0 time=39\n",
      "note_on channel=9 note=54 velocity=107 time=36\n",
      "note_on channel=9 note=40 velocity=0 time=44\n",
      "note_on channel=9 note=70 velocity=0 time=0\n",
      "note_on channel=9 note=36 velocity=127 time=1\n",
      "note_on channel=9 note=69 velocity=112 time=0\n",
      "note_on channel=9 note=54 velocity=117 time=0\n",
      "note_on channel=9 note=54 velocity=0 time=14\n",
      "note_on channel=9 note=54 velocity=0 time=25\n",
      "note_on channel=9 note=54 velocity=119 time=36\n",
      "note_on channel=9 note=54 velocity=0 time=39\n",
      "note_on channel=9 note=69 velocity=0 time=5\n",
      "note_on channel=9 note=36 velocity=0 time=0\n",
      "note_on channel=9 note=70 velocity=112 time=1\n",
      "note_on channel=9 note=54 velocity=119 time=0\n",
      "note_on channel=9 note=40 velocity=119 time=0\n",
      "note_on channel=9 note=54 velocity=0 time=39\n",
      "note_on channel=9 note=54 velocity=112 time=36\n",
      "note_on channel=9 note=54 velocity=0 time=39\n",
      "note_on channel=9 note=40 velocity=0 time=5\n",
      "note_on channel=9 note=70 velocity=0 time=0\n",
      "note_on channel=9 note=36 velocity=127 time=1\n",
      "note_on channel=9 note=69 velocity=107 time=0\n",
      "note_on channel=9 note=54 velocity=119 time=0\n",
      "note_on channel=9 note=54 velocity=0 time=39\n",
      "note_on channel=9 note=54 velocity=119 time=36\n",
      "note_on channel=9 note=54 velocity=0 time=39\n",
      "note_on channel=9 note=69 velocity=0 time=5\n",
      "note_on channel=9 note=36 velocity=0 time=0\n",
      "note_on channel=9 note=70 velocity=125 time=1\n",
      "note_on channel=9 note=54 velocity=119 time=0\n",
      "note_on channel=9 note=40 velocity=125 time=0\n",
      "note_on channel=9 note=54 velocity=0 time=39\n",
      "note_on channel=9 note=54 velocity=107 time=36\n",
      "note_on channel=9 note=40 velocity=0 time=44\n",
      "note_on channel=9 note=70 velocity=0 time=0\n",
      "note_on channel=9 note=36 velocity=127 time=1\n",
      "note_on channel=9 note=69 velocity=112 time=0\n",
      "note_on channel=9 note=54 velocity=117 time=0\n",
      "note_on channel=9 note=54 velocity=0 time=14\n",
      "note_on channel=9 note=54 velocity=0 time=25\n",
      "note_on channel=9 note=54 velocity=119 time=36\n",
      "note_on channel=9 note=54 velocity=0 time=39\n",
      "note_on channel=9 note=69 velocity=0 time=5\n",
      "note_on channel=9 note=36 velocity=0 time=0\n",
      "note_on channel=9 note=70 velocity=112 time=1\n",
      "note_on channel=9 note=54 velocity=119 time=0\n",
      "note_on channel=9 note=40 velocity=119 time=0\n",
      "note_on channel=9 note=54 velocity=0 time=39\n",
      "note_on channel=9 note=54 velocity=112 time=36\n",
      "note_on channel=9 note=54 velocity=0 time=39\n",
      "note_on channel=9 note=40 velocity=0 time=5\n",
      "note_on channel=9 note=70 velocity=0 time=0\n",
      "note_on channel=9 note=36 velocity=127 time=1\n",
      "note_on channel=9 note=69 velocity=107 time=0\n",
      "note_on channel=9 note=54 velocity=119 time=0\n",
      "note_on channel=9 note=54 velocity=0 time=39\n",
      "note_on channel=9 note=54 velocity=119 time=36\n",
      "note_on channel=9 note=54 velocity=0 time=39\n",
      "note_on channel=9 note=69 velocity=0 time=5\n",
      "note_on channel=9 note=36 velocity=0 time=0\n",
      "note_on channel=9 note=70 velocity=125 time=1\n",
      "note_on channel=9 note=54 velocity=119 time=0\n",
      "note_on channel=9 note=40 velocity=125 time=0\n",
      "note_on channel=9 note=54 velocity=0 time=39\n",
      "note_on channel=9 note=54 velocity=107 time=36\n",
      "note_on channel=9 note=40 velocity=0 time=44\n",
      "note_on channel=9 note=70 velocity=0 time=0\n",
      "note_on channel=9 note=36 velocity=127 time=1\n",
      "note_on channel=9 note=69 velocity=112 time=0\n",
      "note_on channel=9 note=54 velocity=117 time=0\n",
      "note_on channel=9 note=54 velocity=0 time=14\n",
      "note_on channel=9 note=54 velocity=0 time=25\n",
      "note_on channel=9 note=54 velocity=119 time=36\n",
      "note_on channel=9 note=54 velocity=0 time=39\n",
      "note_on channel=9 note=69 velocity=0 time=5\n",
      "note_on channel=9 note=36 velocity=0 time=0\n",
      "note_on channel=9 note=70 velocity=112 time=1\n",
      "note_on channel=9 note=54 velocity=119 time=0\n",
      "note_on channel=9 note=40 velocity=119 time=0\n",
      "note_on channel=9 note=54 velocity=0 time=39\n",
      "note_on channel=9 note=54 velocity=112 time=36\n",
      "note_on channel=9 note=54 velocity=0 time=39\n",
      "note_on channel=9 note=40 velocity=0 time=5\n",
      "note_on channel=9 note=70 velocity=0 time=0\n",
      "note_on channel=9 note=36 velocity=127 time=1\n",
      "note_on channel=9 note=69 velocity=107 time=0\n",
      "note_on channel=9 note=54 velocity=119 time=0\n",
      "note_on channel=9 note=54 velocity=0 time=39\n",
      "note_on channel=9 note=54 velocity=119 time=36\n",
      "note_on channel=9 note=54 velocity=0 time=39\n",
      "note_on channel=9 note=69 velocity=0 time=5\n",
      "note_on channel=9 note=36 velocity=0 time=0\n",
      "note_on channel=9 note=70 velocity=125 time=1\n",
      "note_on channel=9 note=54 velocity=119 time=0\n",
      "note_on channel=9 note=40 velocity=125 time=0\n",
      "note_on channel=9 note=54 velocity=0 time=39\n",
      "note_on channel=9 note=54 velocity=107 time=36\n",
      "note_on channel=9 note=40 velocity=0 time=44\n",
      "note_on channel=9 note=70 velocity=0 time=0\n",
      "note_on channel=9 note=36 velocity=127 time=1\n",
      "note_on channel=9 note=69 velocity=112 time=0\n",
      "note_on channel=9 note=54 velocity=117 time=0\n",
      "note_on channel=9 note=54 velocity=0 time=14\n",
      "note_on channel=9 note=54 velocity=0 time=25\n",
      "note_on channel=9 note=54 velocity=119 time=36\n",
      "note_on channel=9 note=54 velocity=0 time=39\n",
      "note_on channel=9 note=69 velocity=0 time=5\n",
      "note_on channel=9 note=36 velocity=0 time=0\n",
      "note_on channel=9 note=70 velocity=112 time=1\n",
      "note_on channel=9 note=54 velocity=119 time=0\n",
      "note_on channel=9 note=40 velocity=119 time=0\n",
      "note_on channel=9 note=54 velocity=0 time=39\n",
      "note_on channel=9 note=54 velocity=112 time=36\n",
      "note_on channel=9 note=54 velocity=0 time=39\n",
      "note_on channel=9 note=40 velocity=0 time=5\n",
      "note_on channel=9 note=70 velocity=0 time=0\n",
      "note_on channel=9 note=36 velocity=127 time=1\n",
      "note_on channel=9 note=69 velocity=107 time=0\n",
      "note_on channel=9 note=54 velocity=119 time=0\n",
      "note_on channel=9 note=54 velocity=0 time=39\n",
      "note_on channel=9 note=54 velocity=119 time=36\n",
      "note_on channel=9 note=54 velocity=0 time=39\n",
      "note_on channel=9 note=69 velocity=0 time=5\n",
      "note_on channel=9 note=36 velocity=0 time=0\n",
      "note_on channel=9 note=70 velocity=125 time=1\n",
      "note_on channel=9 note=54 velocity=119 time=0\n",
      "note_on channel=9 note=40 velocity=125 time=0\n",
      "note_on channel=9 note=54 velocity=0 time=39\n",
      "note_on channel=9 note=54 velocity=107 time=36\n",
      "note_on channel=9 note=40 velocity=0 time=44\n",
      "note_on channel=9 note=70 velocity=0 time=0\n",
      "note_on channel=9 note=36 velocity=127 time=1\n",
      "note_on channel=9 note=69 velocity=112 time=0\n",
      "note_on channel=9 note=54 velocity=117 time=0\n",
      "note_on channel=9 note=54 velocity=0 time=14\n",
      "note_on channel=9 note=54 velocity=0 time=25\n",
      "note_on channel=9 note=54 velocity=119 time=36\n",
      "note_on channel=9 note=54 velocity=0 time=39\n",
      "note_on channel=9 note=69 velocity=0 time=5\n",
      "note_on channel=9 note=36 velocity=0 time=0\n",
      "note_on channel=9 note=70 velocity=112 time=1\n",
      "note_on channel=9 note=54 velocity=119 time=0\n",
      "note_on channel=9 note=40 velocity=119 time=0\n",
      "note_on channel=9 note=54 velocity=0 time=39\n",
      "note_on channel=9 note=54 velocity=112 time=36\n",
      "note_on channel=9 note=54 velocity=0 time=39\n",
      "note_on channel=9 note=40 velocity=0 time=5\n",
      "note_on channel=9 note=70 velocity=0 time=0\n",
      "note_on channel=9 note=36 velocity=127 time=1\n",
      "note_on channel=9 note=69 velocity=107 time=0\n",
      "note_on channel=9 note=54 velocity=119 time=0\n",
      "note_on channel=9 note=54 velocity=0 time=39\n",
      "note_on channel=9 note=54 velocity=119 time=36\n",
      "note_on channel=9 note=54 velocity=0 time=39\n",
      "note_on channel=9 note=69 velocity=0 time=5\n",
      "note_on channel=9 note=36 velocity=0 time=0\n",
      "note_on channel=9 note=70 velocity=125 time=1\n",
      "note_on channel=9 note=54 velocity=119 time=0\n",
      "note_on channel=9 note=40 velocity=125 time=0\n",
      "note_on channel=9 note=54 velocity=0 time=39\n",
      "note_on channel=9 note=54 velocity=107 time=36\n",
      "note_on channel=9 note=40 velocity=0 time=44\n",
      "note_on channel=9 note=70 velocity=0 time=0\n",
      "note_on channel=9 note=36 velocity=127 time=1\n",
      "note_on channel=9 note=69 velocity=112 time=0\n",
      "note_on channel=9 note=54 velocity=117 time=0\n",
      "note_on channel=9 note=54 velocity=0 time=14\n",
      "note_on channel=9 note=54 velocity=0 time=25\n",
      "note_on channel=9 note=54 velocity=119 time=36\n",
      "note_on channel=9 note=54 velocity=0 time=39\n",
      "note_on channel=9 note=69 velocity=0 time=5\n",
      "note_on channel=9 note=36 velocity=0 time=0\n",
      "note_on channel=9 note=70 velocity=112 time=1\n",
      "note_on channel=9 note=54 velocity=119 time=0\n",
      "note_on channel=9 note=40 velocity=119 time=0\n",
      "note_on channel=9 note=54 velocity=0 time=39\n",
      "note_on channel=9 note=54 velocity=112 time=36\n",
      "note_on channel=9 note=54 velocity=0 time=39\n",
      "note_on channel=9 note=40 velocity=0 time=5\n",
      "note_on channel=9 note=70 velocity=0 time=0\n",
      "note_on channel=9 note=36 velocity=127 time=1\n",
      "note_on channel=9 note=69 velocity=107 time=0\n",
      "note_on channel=9 note=54 velocity=119 time=0\n",
      "note_on channel=9 note=54 velocity=0 time=39\n",
      "note_on channel=9 note=54 velocity=119 time=36\n",
      "note_on channel=9 note=54 velocity=0 time=39\n",
      "note_on channel=9 note=69 velocity=0 time=5\n",
      "note_on channel=9 note=36 velocity=0 time=0\n",
      "note_on channel=9 note=70 velocity=125 time=1\n",
      "note_on channel=9 note=54 velocity=119 time=0\n",
      "note_on channel=9 note=40 velocity=125 time=0\n",
      "note_on channel=9 note=54 velocity=0 time=39\n",
      "note_on channel=9 note=54 velocity=107 time=36\n",
      "note_on channel=9 note=40 velocity=0 time=44\n",
      "note_on channel=9 note=70 velocity=0 time=0\n",
      "note_on channel=9 note=36 velocity=127 time=1\n",
      "note_on channel=9 note=69 velocity=112 time=0\n",
      "note_on channel=9 note=54 velocity=117 time=0\n",
      "note_on channel=9 note=54 velocity=0 time=14\n",
      "note_on channel=9 note=54 velocity=0 time=25\n",
      "note_on channel=9 note=54 velocity=119 time=36\n",
      "note_on channel=9 note=54 velocity=0 time=39\n",
      "note_on channel=9 note=69 velocity=0 time=5\n",
      "note_on channel=9 note=36 velocity=0 time=0\n",
      "note_on channel=9 note=70 velocity=112 time=1\n",
      "note_on channel=9 note=54 velocity=119 time=0\n",
      "note_on channel=9 note=40 velocity=119 time=0\n",
      "note_on channel=9 note=54 velocity=0 time=39\n",
      "note_on channel=9 note=54 velocity=112 time=36\n",
      "note_on channel=9 note=54 velocity=0 time=39\n",
      "note_on channel=9 note=40 velocity=0 time=5\n",
      "note_on channel=9 note=70 velocity=0 time=0\n",
      "note_on channel=9 note=36 velocity=127 time=1\n",
      "note_on channel=9 note=69 velocity=107 time=0\n",
      "note_on channel=9 note=54 velocity=119 time=0\n",
      "note_on channel=9 note=54 velocity=0 time=39\n",
      "note_on channel=9 note=54 velocity=119 time=36\n",
      "note_on channel=9 note=54 velocity=0 time=39\n",
      "note_on channel=9 note=69 velocity=0 time=5\n",
      "note_on channel=9 note=36 velocity=0 time=0\n",
      "note_on channel=9 note=70 velocity=125 time=1\n",
      "note_on channel=9 note=54 velocity=119 time=0\n",
      "note_on channel=9 note=40 velocity=125 time=0\n",
      "note_on channel=9 note=54 velocity=0 time=39\n",
      "note_on channel=9 note=54 velocity=107 time=36\n",
      "note_on channel=9 note=40 velocity=0 time=44\n",
      "note_on channel=9 note=70 velocity=0 time=0\n",
      "note_on channel=9 note=36 velocity=127 time=1\n",
      "note_on channel=9 note=69 velocity=112 time=0\n",
      "note_on channel=9 note=54 velocity=117 time=0\n",
      "note_on channel=9 note=54 velocity=0 time=14\n",
      "note_on channel=9 note=54 velocity=0 time=25\n",
      "note_on channel=9 note=54 velocity=119 time=36\n",
      "note_on channel=9 note=54 velocity=0 time=39\n",
      "note_on channel=9 note=69 velocity=0 time=5\n",
      "note_on channel=9 note=36 velocity=0 time=0\n",
      "note_on channel=9 note=70 velocity=112 time=1\n",
      "note_on channel=9 note=54 velocity=119 time=0\n",
      "note_on channel=9 note=40 velocity=119 time=0\n",
      "note_on channel=9 note=54 velocity=0 time=39\n",
      "note_on channel=9 note=54 velocity=112 time=36\n",
      "note_on channel=9 note=54 velocity=0 time=39\n",
      "note_on channel=9 note=40 velocity=0 time=5\n",
      "note_on channel=9 note=70 velocity=0 time=0\n",
      "note_on channel=9 note=36 velocity=127 time=1\n",
      "note_on channel=9 note=69 velocity=107 time=0\n",
      "note_on channel=9 note=54 velocity=119 time=0\n",
      "note_on channel=9 note=54 velocity=0 time=39\n",
      "note_on channel=9 note=54 velocity=119 time=36\n",
      "note_on channel=9 note=54 velocity=0 time=39\n",
      "note_on channel=9 note=69 velocity=0 time=5\n",
      "note_on channel=9 note=36 velocity=0 time=0\n",
      "note_on channel=9 note=70 velocity=125 time=1\n",
      "note_on channel=9 note=54 velocity=119 time=0\n",
      "note_on channel=9 note=40 velocity=125 time=0\n",
      "note_on channel=9 note=54 velocity=0 time=39\n",
      "note_on channel=9 note=54 velocity=107 time=36\n",
      "note_on channel=9 note=40 velocity=0 time=44\n",
      "note_on channel=9 note=70 velocity=0 time=0\n",
      "note_on channel=9 note=36 velocity=127 time=1\n",
      "note_on channel=9 note=69 velocity=112 time=0\n",
      "note_on channel=9 note=54 velocity=117 time=0\n",
      "note_on channel=9 note=54 velocity=0 time=14\n",
      "note_on channel=9 note=54 velocity=0 time=25\n",
      "note_on channel=9 note=54 velocity=119 time=36\n",
      "note_on channel=9 note=54 velocity=0 time=39\n",
      "note_on channel=9 note=69 velocity=0 time=5\n",
      "note_on channel=9 note=36 velocity=0 time=0\n",
      "note_on channel=9 note=70 velocity=112 time=1\n",
      "note_on channel=9 note=54 velocity=119 time=0\n",
      "note_on channel=9 note=40 velocity=119 time=0\n",
      "note_on channel=9 note=54 velocity=0 time=39\n",
      "note_on channel=9 note=54 velocity=112 time=36\n",
      "note_on channel=9 note=54 velocity=0 time=39\n",
      "note_on channel=9 note=40 velocity=0 time=5\n",
      "note_on channel=9 note=70 velocity=0 time=0\n",
      "note_on channel=9 note=36 velocity=127 time=1\n",
      "note_on channel=9 note=69 velocity=107 time=0\n",
      "note_on channel=9 note=54 velocity=119 time=0\n",
      "note_on channel=9 note=54 velocity=0 time=39\n",
      "note_on channel=9 note=54 velocity=119 time=36\n",
      "note_on channel=9 note=54 velocity=0 time=39\n",
      "note_on channel=9 note=69 velocity=0 time=5\n",
      "note_on channel=9 note=36 velocity=0 time=0\n",
      "note_on channel=9 note=70 velocity=125 time=1\n",
      "note_on channel=9 note=54 velocity=119 time=0\n",
      "note_on channel=9 note=40 velocity=125 time=0\n",
      "note_on channel=9 note=54 velocity=0 time=39\n",
      "note_on channel=9 note=54 velocity=107 time=36\n",
      "note_on channel=9 note=40 velocity=0 time=44\n",
      "note_on channel=9 note=70 velocity=0 time=0\n",
      "note_on channel=9 note=36 velocity=127 time=1\n",
      "note_on channel=9 note=69 velocity=112 time=0\n",
      "note_on channel=9 note=54 velocity=117 time=0\n",
      "note_on channel=9 note=54 velocity=0 time=14\n",
      "note_on channel=9 note=54 velocity=0 time=25\n",
      "note_on channel=9 note=54 velocity=119 time=36\n",
      "note_on channel=9 note=54 velocity=0 time=39\n",
      "note_on channel=9 note=69 velocity=0 time=5\n",
      "note_on channel=9 note=36 velocity=0 time=0\n",
      "note_on channel=9 note=70 velocity=112 time=1\n",
      "note_on channel=9 note=54 velocity=119 time=0\n",
      "note_on channel=9 note=40 velocity=119 time=0\n",
      "note_on channel=9 note=54 velocity=0 time=39\n",
      "note_on channel=9 note=54 velocity=112 time=36\n",
      "note_on channel=9 note=54 velocity=0 time=39\n",
      "note_on channel=9 note=40 velocity=0 time=5\n",
      "note_on channel=9 note=70 velocity=0 time=0\n",
      "note_on channel=9 note=36 velocity=127 time=1\n",
      "note_on channel=9 note=69 velocity=107 time=0\n",
      "note_on channel=9 note=54 velocity=119 time=0\n",
      "note_on channel=9 note=54 velocity=0 time=39\n",
      "note_on channel=9 note=54 velocity=119 time=36\n",
      "note_on channel=9 note=54 velocity=0 time=39\n",
      "note_on channel=9 note=69 velocity=0 time=5\n",
      "note_on channel=9 note=36 velocity=0 time=0\n",
      "note_on channel=9 note=70 velocity=125 time=1\n",
      "note_on channel=9 note=54 velocity=119 time=0\n",
      "note_on channel=9 note=40 velocity=125 time=0\n",
      "note_on channel=9 note=54 velocity=0 time=39\n",
      "note_on channel=9 note=54 velocity=107 time=36\n",
      "note_on channel=9 note=40 velocity=0 time=44\n",
      "note_on channel=9 note=70 velocity=0 time=0\n",
      "note_on channel=9 note=36 velocity=127 time=1\n",
      "note_on channel=9 note=69 velocity=112 time=0\n",
      "note_on channel=9 note=54 velocity=117 time=0\n",
      "note_on channel=9 note=54 velocity=0 time=14\n",
      "note_on channel=9 note=54 velocity=0 time=25\n",
      "note_on channel=9 note=54 velocity=119 time=36\n",
      "note_on channel=9 note=54 velocity=0 time=39\n",
      "note_on channel=9 note=69 velocity=0 time=5\n",
      "note_on channel=9 note=36 velocity=0 time=0\n",
      "note_on channel=9 note=70 velocity=112 time=1\n",
      "note_on channel=9 note=54 velocity=119 time=0\n",
      "note_on channel=9 note=40 velocity=119 time=0\n",
      "note_on channel=9 note=54 velocity=0 time=39\n",
      "note_on channel=9 note=54 velocity=112 time=36\n",
      "note_on channel=9 note=54 velocity=0 time=39\n",
      "note_on channel=9 note=40 velocity=0 time=5\n",
      "note_on channel=9 note=70 velocity=0 time=0\n",
      "note_on channel=9 note=36 velocity=127 time=1\n",
      "note_on channel=9 note=69 velocity=107 time=0\n",
      "note_on channel=9 note=54 velocity=119 time=0\n",
      "note_on channel=9 note=54 velocity=0 time=39\n",
      "note_on channel=9 note=54 velocity=119 time=36\n",
      "note_on channel=9 note=54 velocity=0 time=39\n",
      "note_on channel=9 note=69 velocity=0 time=5\n",
      "note_on channel=9 note=36 velocity=0 time=0\n",
      "note_on channel=9 note=70 velocity=125 time=1\n",
      "note_on channel=9 note=54 velocity=119 time=0\n",
      "note_on channel=9 note=40 velocity=125 time=0\n",
      "note_on channel=9 note=54 velocity=0 time=39\n",
      "note_on channel=9 note=54 velocity=107 time=36\n",
      "note_on channel=9 note=40 velocity=0 time=44\n",
      "note_on channel=9 note=70 velocity=0 time=0\n",
      "note_on channel=9 note=36 velocity=127 time=1\n",
      "note_on channel=9 note=69 velocity=112 time=0\n",
      "note_on channel=9 note=54 velocity=117 time=0\n",
      "note_on channel=9 note=54 velocity=0 time=14\n",
      "note_on channel=9 note=54 velocity=0 time=25\n",
      "note_on channel=9 note=54 velocity=119 time=36\n",
      "note_on channel=9 note=54 velocity=0 time=39\n",
      "note_on channel=9 note=69 velocity=0 time=5\n",
      "note_on channel=9 note=36 velocity=0 time=0\n",
      "note_on channel=9 note=70 velocity=112 time=1\n",
      "note_on channel=9 note=54 velocity=119 time=0\n",
      "note_on channel=9 note=40 velocity=119 time=0\n",
      "note_on channel=9 note=54 velocity=0 time=39\n",
      "note_on channel=9 note=54 velocity=112 time=36\n",
      "note_on channel=9 note=54 velocity=0 time=39\n",
      "note_on channel=9 note=40 velocity=0 time=5\n",
      "note_on channel=9 note=70 velocity=0 time=0\n",
      "note_on channel=9 note=36 velocity=127 time=1\n",
      "note_on channel=9 note=69 velocity=107 time=0\n",
      "note_on channel=9 note=54 velocity=119 time=0\n",
      "note_on channel=9 note=54 velocity=0 time=39\n",
      "note_on channel=9 note=54 velocity=119 time=36\n",
      "note_on channel=9 note=54 velocity=0 time=39\n",
      "note_on channel=9 note=69 velocity=0 time=5\n",
      "note_on channel=9 note=36 velocity=0 time=0\n",
      "note_on channel=9 note=70 velocity=125 time=1\n",
      "note_on channel=9 note=54 velocity=119 time=0\n",
      "note_on channel=9 note=40 velocity=125 time=0\n",
      "note_on channel=9 note=54 velocity=0 time=39\n",
      "note_on channel=9 note=54 velocity=107 time=36\n",
      "note_on channel=9 note=40 velocity=0 time=44\n",
      "note_on channel=9 note=70 velocity=0 time=0\n",
      "note_on channel=9 note=36 velocity=127 time=1\n",
      "note_on channel=9 note=69 velocity=112 time=0\n",
      "note_on channel=9 note=54 velocity=117 time=0\n",
      "note_on channel=9 note=54 velocity=0 time=14\n",
      "note_on channel=9 note=54 velocity=0 time=25\n",
      "note_on channel=9 note=54 velocity=119 time=36\n",
      "note_on channel=9 note=54 velocity=0 time=39\n",
      "note_on channel=9 note=69 velocity=0 time=5\n",
      "note_on channel=9 note=36 velocity=0 time=0\n",
      "note_on channel=9 note=70 velocity=112 time=1\n",
      "note_on channel=9 note=54 velocity=119 time=0\n",
      "note_on channel=9 note=40 velocity=119 time=0\n",
      "note_on channel=9 note=54 velocity=0 time=39\n",
      "note_on channel=9 note=54 velocity=112 time=36\n",
      "note_on channel=9 note=54 velocity=0 time=39\n",
      "note_on channel=9 note=40 velocity=0 time=5\n",
      "note_on channel=9 note=70 velocity=0 time=0\n",
      "note_on channel=9 note=36 velocity=127 time=1\n",
      "note_on channel=9 note=69 velocity=107 time=0\n",
      "note_on channel=9 note=54 velocity=119 time=0\n",
      "note_on channel=9 note=54 velocity=0 time=39\n",
      "note_on channel=9 note=54 velocity=119 time=36\n",
      "note_on channel=9 note=54 velocity=0 time=39\n",
      "note_on channel=9 note=69 velocity=0 time=5\n",
      "note_on channel=9 note=36 velocity=0 time=0\n",
      "note_on channel=9 note=70 velocity=125 time=1\n",
      "note_on channel=9 note=54 velocity=119 time=0\n",
      "note_on channel=9 note=40 velocity=125 time=0\n",
      "note_on channel=9 note=54 velocity=0 time=39\n",
      "note_on channel=9 note=54 velocity=107 time=36\n",
      "note_on channel=9 note=40 velocity=0 time=44\n",
      "note_on channel=9 note=70 velocity=0 time=0\n",
      "note_on channel=9 note=36 velocity=127 time=1\n",
      "note_on channel=9 note=69 velocity=112 time=0\n",
      "note_on channel=9 note=54 velocity=117 time=0\n",
      "note_on channel=9 note=54 velocity=0 time=14\n",
      "note_on channel=9 note=54 velocity=0 time=25\n",
      "note_on channel=9 note=54 velocity=119 time=36\n",
      "note_on channel=9 note=54 velocity=0 time=39\n",
      "note_on channel=9 note=69 velocity=0 time=5\n",
      "note_on channel=9 note=36 velocity=0 time=0\n",
      "note_on channel=9 note=70 velocity=112 time=1\n",
      "note_on channel=9 note=54 velocity=119 time=0\n",
      "note_on channel=9 note=40 velocity=119 time=0\n",
      "note_on channel=9 note=54 velocity=0 time=39\n",
      "note_on channel=9 note=54 velocity=112 time=36\n",
      "note_on channel=9 note=54 velocity=0 time=39\n",
      "note_on channel=9 note=40 velocity=0 time=5\n",
      "note_on channel=9 note=70 velocity=0 time=0\n",
      "note_on channel=9 note=36 velocity=127 time=1\n",
      "note_on channel=9 note=69 velocity=107 time=0\n",
      "note_on channel=9 note=54 velocity=119 time=0\n",
      "note_on channel=9 note=54 velocity=0 time=39\n",
      "note_on channel=9 note=54 velocity=119 time=36\n",
      "note_on channel=9 note=54 velocity=0 time=39\n",
      "note_on channel=9 note=69 velocity=0 time=5\n",
      "note_on channel=9 note=36 velocity=0 time=0\n",
      "note_on channel=9 note=70 velocity=125 time=1\n",
      "note_on channel=9 note=54 velocity=119 time=0\n",
      "note_on channel=9 note=40 velocity=125 time=0\n",
      "note_on channel=9 note=54 velocity=0 time=39\n",
      "note_on channel=9 note=54 velocity=107 time=36\n",
      "note_on channel=9 note=40 velocity=0 time=44\n",
      "note_on channel=9 note=70 velocity=0 time=0\n",
      "note_on channel=9 note=36 velocity=127 time=1\n",
      "note_on channel=9 note=69 velocity=112 time=0\n",
      "note_on channel=9 note=54 velocity=117 time=0\n",
      "note_on channel=9 note=54 velocity=0 time=14\n",
      "note_on channel=9 note=54 velocity=0 time=25\n",
      "note_on channel=9 note=54 velocity=119 time=36\n",
      "note_on channel=9 note=54 velocity=0 time=39\n",
      "note_on channel=9 note=69 velocity=0 time=5\n",
      "note_on channel=9 note=36 velocity=0 time=0\n",
      "note_on channel=9 note=70 velocity=112 time=1\n",
      "note_on channel=9 note=54 velocity=119 time=0\n",
      "note_on channel=9 note=40 velocity=119 time=0\n",
      "note_on channel=9 note=54 velocity=0 time=39\n",
      "note_on channel=9 note=54 velocity=112 time=36\n",
      "note_on channel=9 note=54 velocity=0 time=39\n",
      "note_on channel=9 note=40 velocity=0 time=5\n",
      "note_on channel=9 note=70 velocity=0 time=0\n",
      "note_on channel=9 note=36 velocity=127 time=1\n",
      "note_on channel=9 note=69 velocity=107 time=0\n",
      "note_on channel=9 note=54 velocity=119 time=0\n",
      "note_on channel=9 note=54 velocity=0 time=39\n",
      "note_on channel=9 note=54 velocity=119 time=36\n",
      "note_on channel=9 note=54 velocity=0 time=39\n",
      "note_on channel=9 note=69 velocity=0 time=5\n",
      "note_on channel=9 note=36 velocity=0 time=0\n",
      "note_on channel=9 note=70 velocity=125 time=1\n",
      "note_on channel=9 note=54 velocity=119 time=0\n",
      "note_on channel=9 note=40 velocity=125 time=0\n",
      "note_on channel=9 note=54 velocity=0 time=39\n",
      "note_on channel=9 note=54 velocity=107 time=36\n",
      "note_on channel=9 note=40 velocity=0 time=44\n",
      "note_on channel=9 note=70 velocity=0 time=0\n",
      "note_on channel=9 note=36 velocity=127 time=1\n",
      "note_on channel=9 note=69 velocity=112 time=0\n",
      "note_on channel=9 note=49 velocity=127 time=0\n",
      "note_on channel=9 note=54 velocity=117 time=0\n",
      "note_on channel=9 note=54 velocity=0 time=14\n",
      "note_on channel=9 note=54 velocity=0 time=25\n",
      "note_on channel=9 note=54 velocity=119 time=36\n",
      "note_on channel=9 note=54 velocity=0 time=39\n",
      "note_on channel=9 note=36 velocity=0 time=5\n",
      "note_on channel=9 note=69 velocity=0 time=0\n",
      "note_on channel=9 note=70 velocity=112 time=1\n",
      "note_on channel=9 note=54 velocity=119 time=0\n",
      "note_on channel=9 note=40 velocity=119 time=0\n",
      "note_on channel=9 note=54 velocity=0 time=39\n",
      "note_on channel=9 note=54 velocity=112 time=36\n",
      "note_on channel=9 note=54 velocity=0 time=39\n",
      "note_on channel=9 note=40 velocity=0 time=5\n",
      "note_on channel=9 note=70 velocity=0 time=0\n",
      "note_on channel=9 note=36 velocity=127 time=1\n",
      "note_on channel=9 note=69 velocity=107 time=0\n",
      "note_on channel=9 note=54 velocity=119 time=0\n",
      "note_on channel=9 note=54 velocity=0 time=39\n",
      "note_on channel=9 note=54 velocity=119 time=36\n",
      "note_on channel=9 note=54 velocity=0 time=39\n",
      "note_on channel=9 note=69 velocity=0 time=5\n",
      "note_on channel=9 note=36 velocity=0 time=0\n",
      "note_on channel=9 note=70 velocity=125 time=1\n",
      "note_on channel=9 note=54 velocity=119 time=0\n",
      "note_on channel=9 note=40 velocity=125 time=0\n",
      "note_on channel=9 note=54 velocity=0 time=39\n",
      "note_on channel=9 note=54 velocity=107 time=36\n",
      "note_on channel=9 note=40 velocity=0 time=44\n",
      "note_on channel=9 note=70 velocity=0 time=0\n",
      "note_on channel=9 note=36 velocity=127 time=1\n",
      "note_on channel=9 note=69 velocity=112 time=0\n",
      "note_on channel=9 note=54 velocity=117 time=0\n",
      "note_on channel=9 note=54 velocity=0 time=14\n",
      "note_on channel=9 note=54 velocity=0 time=25\n",
      "note_on channel=9 note=54 velocity=119 time=36\n",
      "note_on channel=9 note=54 velocity=0 time=39\n",
      "note_on channel=9 note=69 velocity=0 time=5\n",
      "note_on channel=9 note=36 velocity=0 time=0\n",
      "note_on channel=9 note=70 velocity=112 time=1\n",
      "note_on channel=9 note=54 velocity=119 time=0\n",
      "note_on channel=9 note=40 velocity=119 time=0\n",
      "note_on channel=9 note=54 velocity=0 time=39\n",
      "note_on channel=9 note=54 velocity=112 time=36\n",
      "note_on channel=9 note=54 velocity=0 time=39\n",
      "note_on channel=9 note=40 velocity=0 time=5\n",
      "note_on channel=9 note=70 velocity=0 time=0\n",
      "note_on channel=9 note=36 velocity=127 time=1\n",
      "note_on channel=9 note=69 velocity=107 time=0\n",
      "note_on channel=9 note=54 velocity=119 time=0\n",
      "note_on channel=9 note=54 velocity=0 time=39\n",
      "note_on channel=9 note=54 velocity=119 time=36\n",
      "note_on channel=9 note=54 velocity=0 time=39\n",
      "note_on channel=9 note=69 velocity=0 time=5\n",
      "note_on channel=9 note=36 velocity=0 time=0\n",
      "note_on channel=9 note=70 velocity=125 time=1\n",
      "note_on channel=9 note=54 velocity=119 time=0\n",
      "note_on channel=9 note=40 velocity=125 time=0\n",
      "note_on channel=9 note=49 velocity=0 time=23\n",
      "note_on channel=9 note=54 velocity=0 time=16\n",
      "note_on channel=9 note=54 velocity=107 time=36\n",
      "note_on channel=9 note=70 velocity=0 time=44\n",
      "note_on channel=9 note=40 velocity=0 time=0\n",
      "note_on channel=9 note=36 velocity=127 time=1\n",
      "note_on channel=9 note=69 velocity=112 time=0\n",
      "note_on channel=9 note=49 velocity=127 time=0\n",
      "note_on channel=9 note=54 velocity=117 time=0\n",
      "note_on channel=9 note=54 velocity=0 time=14\n",
      "note_on channel=9 note=54 velocity=0 time=25\n",
      "note_on channel=9 note=54 velocity=119 time=36\n",
      "note_on channel=9 note=54 velocity=0 time=39\n",
      "note_on channel=9 note=36 velocity=0 time=5\n",
      "note_on channel=9 note=69 velocity=0 time=0\n",
      "note_on channel=9 note=70 velocity=112 time=1\n",
      "note_on channel=9 note=54 velocity=119 time=0\n",
      "note_on channel=9 note=40 velocity=119 time=0\n",
      "note_on channel=9 note=54 velocity=0 time=39\n",
      "note_on channel=9 note=54 velocity=112 time=36\n",
      "note_on channel=9 note=54 velocity=0 time=39\n",
      "note_on channel=9 note=40 velocity=0 time=5\n",
      "note_on channel=9 note=70 velocity=0 time=0\n",
      "note_on channel=9 note=36 velocity=127 time=1\n",
      "note_on channel=9 note=69 velocity=107 time=0\n",
      "note_on channel=9 note=54 velocity=119 time=0\n",
      "note_on channel=9 note=54 velocity=0 time=39\n",
      "note_on channel=9 note=54 velocity=119 time=36\n",
      "note_on channel=9 note=54 velocity=0 time=39\n",
      "note_on channel=9 note=69 velocity=0 time=5\n",
      "note_on channel=9 note=36 velocity=0 time=0\n",
      "note_on channel=9 note=70 velocity=125 time=1\n",
      "note_on channel=9 note=54 velocity=119 time=0\n",
      "note_on channel=9 note=40 velocity=125 time=0\n",
      "note_on channel=9 note=54 velocity=0 time=39\n",
      "note_on channel=9 note=54 velocity=107 time=36\n",
      "note_on channel=9 note=40 velocity=0 time=44\n",
      "note_on channel=9 note=70 velocity=0 time=0\n",
      "note_on channel=9 note=36 velocity=127 time=1\n",
      "note_on channel=9 note=69 velocity=112 time=0\n",
      "note_on channel=9 note=54 velocity=117 time=0\n",
      "note_on channel=9 note=54 velocity=0 time=14\n",
      "note_on channel=9 note=54 velocity=0 time=25\n",
      "note_on channel=9 note=54 velocity=119 time=36\n",
      "note_on channel=9 note=54 velocity=0 time=39\n",
      "note_on channel=9 note=69 velocity=0 time=5\n",
      "note_on channel=9 note=36 velocity=0 time=0\n",
      "note_on channel=9 note=70 velocity=112 time=1\n",
      "note_on channel=9 note=54 velocity=119 time=0\n",
      "note_on channel=9 note=40 velocity=119 time=0\n",
      "note_on channel=9 note=54 velocity=0 time=39\n",
      "note_on channel=9 note=54 velocity=112 time=36\n",
      "note_on channel=9 note=54 velocity=0 time=39\n",
      "note_on channel=9 note=40 velocity=0 time=5\n",
      "note_on channel=9 note=70 velocity=0 time=0\n",
      "note_on channel=9 note=36 velocity=127 time=1\n",
      "note_on channel=9 note=69 velocity=107 time=0\n",
      "note_on channel=9 note=54 velocity=119 time=0\n",
      "note_on channel=9 note=54 velocity=0 time=39\n",
      "note_on channel=9 note=54 velocity=119 time=36\n",
      "note_on channel=9 note=54 velocity=0 time=39\n",
      "note_on channel=9 note=69 velocity=0 time=5\n",
      "note_on channel=9 note=36 velocity=0 time=0\n",
      "note_on channel=9 note=70 velocity=125 time=1\n",
      "note_on channel=9 note=54 velocity=119 time=0\n",
      "note_on channel=9 note=40 velocity=125 time=0\n",
      "note_on channel=9 note=49 velocity=0 time=17\n",
      "note_on channel=9 note=54 velocity=0 time=22\n",
      "note_on channel=9 note=54 velocity=107 time=36\n",
      "note_on channel=9 note=70 velocity=0 time=44\n",
      "note_on channel=9 note=40 velocity=0 time=0\n",
      "note_on channel=9 note=36 velocity=127 time=1\n",
      "note_on channel=9 note=69 velocity=112 time=0\n",
      "note_on channel=9 note=49 velocity=127 time=0\n",
      "note_on channel=9 note=54 velocity=117 time=0\n",
      "note_on channel=9 note=54 velocity=0 time=14\n",
      "note_on channel=9 note=54 velocity=0 time=25\n",
      "note_on channel=9 note=54 velocity=119 time=36\n",
      "note_on channel=9 note=54 velocity=0 time=39\n",
      "note_on channel=9 note=36 velocity=0 time=5\n",
      "note_on channel=9 note=69 velocity=0 time=0\n",
      "note_on channel=9 note=70 velocity=112 time=1\n",
      "note_on channel=9 note=54 velocity=119 time=0\n",
      "note_on channel=9 note=40 velocity=119 time=0\n",
      "note_on channel=9 note=54 velocity=0 time=39\n",
      "note_on channel=9 note=54 velocity=112 time=36\n",
      "note_on channel=9 note=54 velocity=0 time=39\n",
      "note_on channel=9 note=40 velocity=0 time=5\n",
      "note_on channel=9 note=70 velocity=0 time=0\n",
      "note_on channel=9 note=36 velocity=127 time=1\n",
      "note_on channel=9 note=69 velocity=107 time=0\n",
      "note_on channel=9 note=54 velocity=119 time=0\n",
      "note_on channel=9 note=54 velocity=0 time=39\n",
      "note_on channel=9 note=54 velocity=119 time=36\n",
      "note_on channel=9 note=54 velocity=0 time=39\n",
      "note_on channel=9 note=69 velocity=0 time=5\n",
      "note_on channel=9 note=36 velocity=0 time=0\n",
      "note_on channel=9 note=70 velocity=125 time=1\n",
      "note_on channel=9 note=54 velocity=119 time=0\n",
      "note_on channel=9 note=40 velocity=125 time=0\n",
      "note_on channel=9 note=54 velocity=0 time=39\n",
      "note_on channel=9 note=54 velocity=107 time=36\n",
      "note_on channel=9 note=40 velocity=0 time=44\n",
      "note_on channel=9 note=70 velocity=0 time=0\n",
      "note_on channel=9 note=36 velocity=127 time=1\n",
      "note_on channel=9 note=69 velocity=112 time=0\n",
      "note_on channel=9 note=54 velocity=117 time=0\n",
      "note_on channel=9 note=54 velocity=0 time=14\n",
      "note_on channel=9 note=54 velocity=0 time=25\n",
      "note_on channel=9 note=54 velocity=119 time=36\n",
      "note_on channel=9 note=54 velocity=0 time=39\n",
      "note_on channel=9 note=69 velocity=0 time=5\n",
      "note_on channel=9 note=36 velocity=0 time=0\n",
      "note_on channel=9 note=70 velocity=112 time=1\n",
      "note_on channel=9 note=54 velocity=119 time=0\n",
      "note_on channel=9 note=40 velocity=119 time=0\n",
      "note_on channel=9 note=54 velocity=0 time=39\n",
      "note_on channel=9 note=54 velocity=112 time=36\n",
      "note_on channel=9 note=54 velocity=0 time=39\n",
      "note_on channel=9 note=40 velocity=0 time=5\n",
      "note_on channel=9 note=70 velocity=0 time=0\n",
      "note_on channel=9 note=36 velocity=127 time=1\n",
      "note_on channel=9 note=69 velocity=107 time=0\n",
      "note_on channel=9 note=54 velocity=119 time=0\n",
      "note_on channel=9 note=54 velocity=0 time=39\n",
      "note_on channel=9 note=54 velocity=119 time=36\n",
      "note_on channel=9 note=54 velocity=0 time=39\n",
      "note_on channel=9 note=69 velocity=0 time=5\n",
      "note_on channel=9 note=36 velocity=0 time=0\n",
      "note_on channel=9 note=70 velocity=125 time=1\n",
      "note_on channel=9 note=54 velocity=119 time=0\n",
      "note_on channel=9 note=40 velocity=125 time=0\n",
      "note_on channel=9 note=49 velocity=0 time=27\n",
      "note_on channel=9 note=54 velocity=0 time=12\n",
      "note_on channel=9 note=54 velocity=107 time=36\n",
      "note_on channel=9 note=70 velocity=0 time=44\n",
      "note_on channel=9 note=40 velocity=0 time=0\n",
      "note_on channel=9 note=36 velocity=127 time=1\n",
      "note_on channel=9 note=69 velocity=112 time=0\n",
      "note_on channel=9 note=49 velocity=127 time=0\n",
      "note_on channel=9 note=54 velocity=117 time=0\n",
      "note_on channel=9 note=54 velocity=0 time=14\n",
      "note_on channel=9 note=54 velocity=0 time=25\n",
      "note_on channel=9 note=54 velocity=119 time=36\n",
      "note_on channel=9 note=54 velocity=0 time=39\n",
      "note_on channel=9 note=36 velocity=0 time=5\n",
      "note_on channel=9 note=69 velocity=0 time=0\n",
      "note_on channel=9 note=70 velocity=112 time=1\n",
      "note_on channel=9 note=54 velocity=119 time=0\n",
      "note_on channel=9 note=40 velocity=119 time=0\n",
      "note_on channel=9 note=54 velocity=0 time=39\n",
      "note_on channel=9 note=54 velocity=112 time=36\n",
      "note_on channel=9 note=54 velocity=0 time=39\n",
      "note_on channel=9 note=40 velocity=0 time=5\n",
      "note_on channel=9 note=70 velocity=0 time=0\n",
      "note_on channel=9 note=36 velocity=127 time=1\n",
      "note_on channel=9 note=69 velocity=107 time=0\n",
      "note_on channel=9 note=54 velocity=119 time=0\n",
      "note_on channel=9 note=54 velocity=0 time=39\n",
      "note_on channel=9 note=54 velocity=119 time=36\n",
      "note_on channel=9 note=54 velocity=0 time=39\n",
      "note_on channel=9 note=69 velocity=0 time=5\n",
      "note_on channel=9 note=36 velocity=0 time=0\n",
      "note_on channel=9 note=70 velocity=125 time=1\n",
      "note_on channel=9 note=54 velocity=119 time=0\n",
      "note_on channel=9 note=40 velocity=125 time=0\n",
      "note_on channel=9 note=54 velocity=0 time=39\n",
      "note_on channel=9 note=54 velocity=107 time=36\n",
      "note_on channel=9 note=40 velocity=0 time=44\n",
      "note_on channel=9 note=70 velocity=0 time=0\n",
      "note_on channel=9 note=36 velocity=127 time=1\n",
      "note_on channel=9 note=69 velocity=112 time=0\n",
      "note_on channel=9 note=54 velocity=117 time=0\n",
      "note_on channel=9 note=54 velocity=0 time=14\n",
      "note_on channel=9 note=54 velocity=0 time=25\n",
      "note_on channel=9 note=54 velocity=119 time=36\n",
      "note_on channel=9 note=54 velocity=0 time=39\n",
      "note_on channel=9 note=69 velocity=0 time=5\n",
      "note_on channel=9 note=36 velocity=0 time=0\n",
      "note_on channel=9 note=70 velocity=112 time=1\n",
      "note_on channel=9 note=54 velocity=119 time=0\n",
      "note_on channel=9 note=40 velocity=119 time=0\n",
      "note_on channel=9 note=54 velocity=0 time=39\n",
      "note_on channel=9 note=54 velocity=112 time=36\n",
      "note_on channel=9 note=54 velocity=0 time=39\n",
      "note_on channel=9 note=40 velocity=0 time=5\n",
      "note_on channel=9 note=70 velocity=0 time=0\n",
      "note_on channel=9 note=36 velocity=127 time=1\n",
      "note_on channel=9 note=69 velocity=107 time=0\n",
      "note_on channel=9 note=54 velocity=119 time=0\n",
      "note_on channel=9 note=54 velocity=0 time=39\n",
      "note_on channel=9 note=54 velocity=119 time=36\n",
      "note_on channel=9 note=54 velocity=0 time=39\n",
      "note_on channel=9 note=69 velocity=0 time=5\n",
      "note_on channel=9 note=36 velocity=0 time=0\n",
      "note_on channel=9 note=70 velocity=125 time=1\n",
      "note_on channel=9 note=54 velocity=119 time=0\n",
      "note_on channel=9 note=40 velocity=125 time=0\n",
      "note_on channel=9 note=49 velocity=0 time=36\n",
      "note_on channel=9 note=54 velocity=0 time=3\n",
      "note_on channel=9 note=54 velocity=107 time=36\n",
      "note_on channel=9 note=70 velocity=0 time=44\n",
      "note_on channel=9 note=40 velocity=0 time=0\n",
      "note_on channel=9 note=36 velocity=127 time=1\n",
      "note_on channel=9 note=69 velocity=112 time=0\n",
      "note_on channel=9 note=49 velocity=127 time=0\n",
      "note_on channel=9 note=54 velocity=117 time=0\n",
      "note_on channel=9 note=54 velocity=0 time=14\n",
      "note_on channel=9 note=54 velocity=0 time=25\n",
      "note_on channel=9 note=54 velocity=119 time=36\n",
      "note_on channel=9 note=54 velocity=0 time=39\n",
      "note_on channel=9 note=36 velocity=0 time=5\n",
      "note_on channel=9 note=69 velocity=0 time=0\n",
      "note_on channel=9 note=70 velocity=112 time=1\n",
      "note_on channel=9 note=54 velocity=119 time=0\n",
      "note_on channel=9 note=40 velocity=119 time=0\n",
      "note_on channel=9 note=54 velocity=0 time=39\n",
      "note_on channel=9 note=54 velocity=112 time=36\n",
      "note_on channel=9 note=54 velocity=0 time=39\n",
      "note_on channel=9 note=40 velocity=0 time=5\n",
      "note_on channel=9 note=70 velocity=0 time=0\n",
      "note_on channel=9 note=36 velocity=127 time=1\n",
      "note_on channel=9 note=69 velocity=107 time=0\n",
      "note_on channel=9 note=54 velocity=119 time=0\n",
      "note_on channel=9 note=54 velocity=0 time=39\n",
      "note_on channel=9 note=54 velocity=119 time=36\n",
      "note_on channel=9 note=54 velocity=0 time=39\n",
      "note_on channel=9 note=69 velocity=0 time=5\n",
      "note_on channel=9 note=36 velocity=0 time=0\n",
      "note_on channel=9 note=70 velocity=125 time=1\n",
      "note_on channel=9 note=54 velocity=119 time=0\n",
      "note_on channel=9 note=40 velocity=125 time=0\n",
      "note_on channel=9 note=54 velocity=0 time=39\n",
      "note_on channel=9 note=54 velocity=107 time=36\n",
      "note_on channel=9 note=40 velocity=0 time=44\n",
      "note_on channel=9 note=70 velocity=0 time=0\n",
      "note_on channel=9 note=36 velocity=127 time=1\n",
      "note_on channel=9 note=69 velocity=112 time=0\n",
      "note_on channel=9 note=54 velocity=117 time=0\n",
      "note_on channel=9 note=54 velocity=0 time=14\n",
      "note_on channel=9 note=54 velocity=0 time=25\n",
      "note_on channel=9 note=54 velocity=119 time=36\n",
      "note_on channel=9 note=54 velocity=0 time=39\n",
      "note_on channel=9 note=69 velocity=0 time=5\n",
      "note_on channel=9 note=36 velocity=0 time=0\n",
      "note_on channel=9 note=70 velocity=112 time=1\n",
      "note_on channel=9 note=54 velocity=119 time=0\n",
      "note_on channel=9 note=40 velocity=119 time=0\n",
      "note_on channel=9 note=54 velocity=0 time=39\n",
      "note_on channel=9 note=54 velocity=112 time=36\n",
      "note_on channel=9 note=54 velocity=0 time=39\n",
      "note_on channel=9 note=40 velocity=0 time=5\n",
      "note_on channel=9 note=70 velocity=0 time=0\n",
      "note_on channel=9 note=36 velocity=127 time=1\n",
      "note_on channel=9 note=69 velocity=107 time=0\n",
      "note_on channel=9 note=54 velocity=119 time=0\n",
      "note_on channel=9 note=54 velocity=0 time=39\n",
      "note_on channel=9 note=54 velocity=119 time=36\n",
      "note_on channel=9 note=54 velocity=0 time=39\n",
      "note_on channel=9 note=69 velocity=0 time=5\n",
      "note_on channel=9 note=36 velocity=0 time=0\n",
      "note_on channel=9 note=70 velocity=125 time=1\n",
      "note_on channel=9 note=54 velocity=119 time=0\n",
      "note_on channel=9 note=40 velocity=125 time=0\n",
      "note_on channel=9 note=49 velocity=0 time=19\n",
      "note_on channel=9 note=54 velocity=0 time=20\n",
      "note_on channel=9 note=54 velocity=107 time=36\n",
      "note_on channel=9 note=70 velocity=0 time=44\n",
      "note_on channel=9 note=40 velocity=0 time=0\n",
      "note_on channel=9 note=36 velocity=127 time=1\n",
      "note_on channel=9 note=69 velocity=112 time=0\n",
      "note_on channel=9 note=49 velocity=127 time=0\n",
      "note_on channel=9 note=54 velocity=117 time=0\n",
      "note_on channel=9 note=54 velocity=0 time=14\n",
      "note_on channel=9 note=54 velocity=0 time=25\n",
      "note_on channel=9 note=54 velocity=119 time=36\n",
      "note_on channel=9 note=54 velocity=0 time=39\n",
      "note_on channel=9 note=36 velocity=0 time=5\n",
      "note_on channel=9 note=69 velocity=0 time=0\n",
      "note_on channel=9 note=70 velocity=112 time=1\n",
      "note_on channel=9 note=54 velocity=119 time=0\n",
      "note_on channel=9 note=40 velocity=119 time=0\n",
      "note_on channel=9 note=54 velocity=0 time=39\n",
      "note_on channel=9 note=54 velocity=112 time=36\n",
      "note_on channel=9 note=54 velocity=0 time=39\n",
      "note_on channel=9 note=40 velocity=0 time=5\n",
      "note_on channel=9 note=70 velocity=0 time=0\n",
      "note_on channel=9 note=36 velocity=127 time=1\n",
      "note_on channel=9 note=69 velocity=107 time=0\n",
      "note_on channel=9 note=54 velocity=119 time=0\n",
      "note_on channel=9 note=54 velocity=0 time=39\n",
      "note_on channel=9 note=54 velocity=119 time=36\n",
      "note_on channel=9 note=54 velocity=0 time=39\n",
      "note_on channel=9 note=69 velocity=0 time=5\n",
      "note_on channel=9 note=36 velocity=0 time=0\n",
      "note_on channel=9 note=70 velocity=125 time=1\n",
      "note_on channel=9 note=54 velocity=119 time=0\n",
      "note_on channel=9 note=40 velocity=125 time=0\n",
      "note_on channel=9 note=54 velocity=0 time=39\n",
      "note_on channel=9 note=54 velocity=107 time=36\n",
      "note_on channel=9 note=49 velocity=0 time=44\n",
      "note_on channel=9 note=40 velocity=0 time=0\n",
      "note_on channel=9 note=70 velocity=0 time=0\n",
      "note_on channel=9 note=36 velocity=127 time=1\n",
      "note_on channel=9 note=69 velocity=112 time=0\n",
      "note_on channel=9 note=54 velocity=117 time=0\n",
      "note_on channel=9 note=54 velocity=0 time=14\n",
      "note_on channel=9 note=54 velocity=0 time=25\n",
      "note_on channel=9 note=54 velocity=119 time=36\n",
      "note_on channel=9 note=54 velocity=0 time=39\n",
      "note_on channel=9 note=69 velocity=0 time=5\n",
      "note_on channel=9 note=36 velocity=0 time=0\n",
      "note_on channel=9 note=70 velocity=112 time=1\n",
      "note_on channel=9 note=54 velocity=119 time=0\n",
      "note_on channel=9 note=40 velocity=119 time=0\n",
      "note_on channel=9 note=54 velocity=0 time=39\n",
      "note_on channel=9 note=54 velocity=112 time=36\n",
      "note_on channel=9 note=54 velocity=0 time=39\n",
      "note_on channel=9 note=40 velocity=0 time=5\n",
      "note_on channel=9 note=70 velocity=0 time=0\n",
      "note_on channel=9 note=36 velocity=127 time=1\n",
      "note_on channel=9 note=69 velocity=107 time=0\n",
      "note_on channel=9 note=54 velocity=119 time=0\n",
      "note_on channel=9 note=54 velocity=0 time=39\n",
      "note_on channel=9 note=49 velocity=119 time=36\n",
      "note_on channel=9 note=54 velocity=119 time=0\n",
      "note_on channel=9 note=54 velocity=0 time=39\n",
      "note_on channel=9 note=36 velocity=0 time=5\n",
      "note_on channel=9 note=69 velocity=0 time=0\n",
      "note_on channel=9 note=70 velocity=125 time=1\n",
      "note_on channel=9 note=54 velocity=119 time=0\n",
      "note_on channel=9 note=40 velocity=125 time=0\n",
      "note_on channel=9 note=49 velocity=0 time=22\n",
      "note_on channel=9 note=54 velocity=0 time=17\n",
      "note_on channel=9 note=54 velocity=107 time=36\n",
      "note_on channel=9 note=70 velocity=0 time=44\n",
      "note_on channel=9 note=40 velocity=0 time=0\n",
      "note_on channel=9 note=36 velocity=127 time=1\n",
      "note_on channel=9 note=69 velocity=112 time=0\n",
      "note_on channel=9 note=49 velocity=127 time=0\n",
      "note_on channel=9 note=54 velocity=117 time=0\n",
      "note_on channel=9 note=54 velocity=0 time=14\n",
      "note_on channel=9 note=49 velocity=0 time=16\n",
      "note_on channel=9 note=54 velocity=0 time=9\n",
      "note_on channel=9 note=54 velocity=119 time=36\n",
      "note_on channel=9 note=54 velocity=0 time=39\n",
      "note_on channel=9 note=69 velocity=0 time=5\n",
      "note_on channel=9 note=36 velocity=0 time=0\n",
      "note_on channel=9 note=70 velocity=112 time=1\n",
      "note_on channel=9 note=54 velocity=119 time=0\n",
      "note_on channel=9 note=40 velocity=119 time=0\n",
      "note_on channel=9 note=54 velocity=0 time=39\n",
      "note_on channel=9 note=54 velocity=112 time=36\n",
      "note_on channel=9 note=54 velocity=0 time=39\n",
      "note_on channel=9 note=40 velocity=0 time=5\n",
      "note_on channel=9 note=70 velocity=0 time=0\n",
      "note_on channel=9 note=36 velocity=127 time=1\n",
      "note_on channel=9 note=69 velocity=107 time=0\n",
      "note_on channel=9 note=54 velocity=119 time=0\n",
      "note_on channel=9 note=54 velocity=0 time=39\n",
      "note_on channel=9 note=54 velocity=119 time=36\n",
      "note_on channel=9 note=49 velocity=127 time=5\n",
      "note_on channel=9 note=54 velocity=0 time=34\n",
      "note_on channel=9 note=36 velocity=0 time=5\n",
      "note_on channel=9 note=69 velocity=0 time=0\n",
      "note_on channel=9 note=70 velocity=125 time=1\n",
      "note_on channel=9 note=54 velocity=119 time=0\n",
      "note_on channel=9 note=40 velocity=125 time=0\n",
      "note_on channel=9 note=49 velocity=0 time=17\n",
      "note_on channel=9 note=54 velocity=0 time=22\n",
      "note_on channel=9 note=54 velocity=107 time=36\n",
      "note_on channel=9 note=70 velocity=0 time=44\n",
      "note_on channel=9 note=40 velocity=0 time=0\n",
      "note_on channel=9 note=36 velocity=127 time=1\n",
      "note_on channel=9 note=69 velocity=112 time=0\n",
      "note_on channel=9 note=49 velocity=127 time=0\n",
      "note_on channel=9 note=54 velocity=117 time=0\n",
      "note_on channel=9 note=54 velocity=0 time=14\n",
      "note_on channel=9 note=49 velocity=0 time=19\n",
      "note_on channel=9 note=54 velocity=0 time=6\n",
      "note_on channel=9 note=54 velocity=119 time=36\n",
      "note_on channel=9 note=54 velocity=0 time=39\n",
      "note_on channel=9 note=69 velocity=0 time=5\n",
      "note_on channel=9 note=36 velocity=0 time=0\n",
      "note_on channel=9 note=70 velocity=112 time=1\n",
      "note_on channel=9 note=54 velocity=119 time=0\n",
      "note_on channel=9 note=40 velocity=119 time=0\n",
      "note_on channel=9 note=54 velocity=0 time=39\n",
      "note_on channel=9 note=54 velocity=112 time=36\n",
      "note_on channel=9 note=54 velocity=0 time=39\n",
      "note_on channel=9 note=40 velocity=0 time=5\n",
      "note_on channel=9 note=70 velocity=0 time=0\n",
      "note_on channel=9 note=36 velocity=127 time=1\n",
      "note_on channel=9 note=69 velocity=107 time=0\n",
      "note_on channel=9 note=54 velocity=119 time=0\n",
      "note_on channel=9 note=54 velocity=0 time=39\n",
      "note_on channel=9 note=54 velocity=119 time=36\n",
      "note_on channel=9 note=49 velocity=127 time=5\n",
      "note_on channel=9 note=49 velocity=0 time=31\n",
      "note_on channel=9 note=54 velocity=0 time=3\n",
      "note_on channel=9 note=69 velocity=0 time=5\n",
      "note_on channel=9 note=36 velocity=0 time=0\n",
      "note_on channel=9 note=70 velocity=125 time=1\n",
      "note_on channel=9 note=54 velocity=119 time=0\n",
      "note_on channel=9 note=40 velocity=125 time=0\n",
      "note_on channel=9 note=54 velocity=0 time=39\n",
      "note_on channel=9 note=54 velocity=107 time=36\n",
      "note_on channel=9 note=40 velocity=0 time=44\n",
      "note_on channel=9 note=70 velocity=0 time=0\n",
      "note_on channel=9 note=36 velocity=127 time=1\n",
      "note_on channel=9 note=69 velocity=112 time=0\n",
      "note_on channel=9 note=49 velocity=127 time=0\n",
      "note_on channel=9 note=54 velocity=117 time=0\n",
      "note_on channel=9 note=54 velocity=0 time=14\n",
      "note_on channel=9 note=49 velocity=0 time=13\n",
      "note_on channel=9 note=54 velocity=0 time=12\n",
      "note_on channel=9 note=54 velocity=119 time=36\n",
      "note_on channel=9 note=54 velocity=0 time=39\n",
      "note_on channel=9 note=69 velocity=0 time=5\n",
      "note_on channel=9 note=36 velocity=0 time=0\n",
      "note_on channel=9 note=70 velocity=112 time=1\n",
      "note_on channel=9 note=54 velocity=119 time=0\n",
      "note_on channel=9 note=40 velocity=119 time=0\n",
      "note_on channel=9 note=54 velocity=0 time=39\n",
      "note_on channel=9 note=54 velocity=112 time=36\n",
      "note_on channel=9 note=54 velocity=0 time=39\n",
      "note_on channel=9 note=40 velocity=0 time=5\n",
      "note_on channel=9 note=70 velocity=0 time=0\n",
      "note_on channel=9 note=36 velocity=127 time=1\n",
      "note_on channel=9 note=69 velocity=107 time=0\n",
      "note_on channel=9 note=54 velocity=119 time=0\n",
      "note_on channel=9 note=54 velocity=0 time=39\n",
      "note_on channel=9 note=54 velocity=119 time=36\n",
      "note_on channel=9 note=49 velocity=127 time=5\n",
      "note_on channel=9 note=49 velocity=0 time=26\n",
      "note_on channel=9 note=54 velocity=0 time=8\n",
      "note_on channel=9 note=69 velocity=0 time=5\n",
      "note_on channel=9 note=36 velocity=0 time=0\n",
      "note_on channel=9 note=70 velocity=125 time=1\n",
      "note_on channel=9 note=54 velocity=119 time=0\n",
      "note_on channel=9 note=40 velocity=125 time=0\n",
      "note_on channel=9 note=54 velocity=0 time=39\n",
      "note_on channel=9 note=54 velocity=107 time=36\n",
      "note_on channel=9 note=40 velocity=0 time=44\n",
      "note_on channel=9 note=70 velocity=0 time=0\n",
      "note_on channel=9 note=36 velocity=127 time=1\n",
      "note_on channel=9 note=69 velocity=112 time=0\n",
      "note_on channel=9 note=49 velocity=127 time=0\n",
      "note_on channel=9 note=54 velocity=117 time=0\n",
      "note_on channel=9 note=54 velocity=0 time=14\n",
      "note_on channel=9 note=49 velocity=0 time=9\n",
      "note_on channel=9 note=54 velocity=0 time=16\n",
      "note_on channel=9 note=54 velocity=119 time=36\n",
      "note_on channel=9 note=54 velocity=0 time=39\n",
      "note_on channel=9 note=69 velocity=0 time=5\n",
      "note_on channel=9 note=36 velocity=0 time=0\n",
      "note_on channel=9 note=70 velocity=112 time=1\n",
      "note_on channel=9 note=54 velocity=119 time=0\n",
      "note_on channel=9 note=40 velocity=119 time=0\n",
      "note_on channel=9 note=54 velocity=0 time=39\n",
      "note_on channel=9 note=54 velocity=112 time=36\n",
      "note_on channel=9 note=54 velocity=0 time=39\n",
      "note_on channel=9 note=40 velocity=0 time=5\n",
      "note_on channel=9 note=70 velocity=0 time=0\n",
      "note_on channel=9 note=36 velocity=127 time=1\n",
      "note_on channel=9 note=69 velocity=107 time=0\n",
      "note_on channel=9 note=54 velocity=119 time=0\n",
      "note_on channel=9 note=54 velocity=0 time=39\n",
      "note_on channel=9 note=54 velocity=119 time=36\n",
      "note_on channel=9 note=49 velocity=127 time=5\n",
      "note_on channel=9 note=49 velocity=0 time=25\n",
      "note_on channel=9 note=54 velocity=0 time=9\n",
      "note_on channel=9 note=69 velocity=0 time=5\n",
      "note_on channel=9 note=36 velocity=0 time=0\n",
      "note_on channel=9 note=70 velocity=125 time=1\n",
      "note_on channel=9 note=54 velocity=119 time=0\n",
      "note_on channel=9 note=40 velocity=125 time=0\n",
      "note_on channel=9 note=54 velocity=0 time=39\n",
      "note_on channel=9 note=54 velocity=107 time=36\n",
      "note_on channel=9 note=40 velocity=0 time=44\n",
      "note_on channel=9 note=70 velocity=0 time=0\n",
      "note_on channel=9 note=36 velocity=127 time=1\n",
      "note_on channel=9 note=69 velocity=112 time=0\n",
      "note_on channel=9 note=49 velocity=127 time=0\n",
      "note_on channel=9 note=54 velocity=117 time=0\n",
      "note_on channel=9 note=54 velocity=0 time=14\n",
      "note_on channel=9 note=49 velocity=0 time=11\n",
      "note_on channel=9 note=54 velocity=0 time=14\n",
      "note_on channel=9 note=54 velocity=119 time=36\n",
      "note_on channel=9 note=54 velocity=0 time=39\n",
      "note_on channel=9 note=69 velocity=0 time=5\n",
      "note_on channel=9 note=36 velocity=0 time=0\n",
      "note_on channel=9 note=70 velocity=112 time=1\n",
      "note_on channel=9 note=54 velocity=119 time=0\n",
      "note_on channel=9 note=40 velocity=119 time=0\n",
      "note_on channel=9 note=54 velocity=0 time=39\n",
      "note_on channel=9 note=54 velocity=112 time=36\n",
      "note_on channel=9 note=54 velocity=0 time=39\n",
      "note_on channel=9 note=40 velocity=0 time=5\n",
      "note_on channel=9 note=70 velocity=0 time=0\n",
      "note_on channel=9 note=36 velocity=127 time=1\n",
      "note_on channel=9 note=69 velocity=107 time=0\n",
      "note_on channel=9 note=54 velocity=119 time=0\n",
      "note_on channel=9 note=54 velocity=0 time=39\n",
      "note_on channel=9 note=54 velocity=119 time=36\n",
      "note_on channel=9 note=49 velocity=127 time=5\n",
      "note_on channel=9 note=49 velocity=0 time=24\n",
      "note_on channel=9 note=54 velocity=0 time=10\n",
      "note_on channel=9 note=69 velocity=0 time=5\n",
      "note_on channel=9 note=36 velocity=0 time=0\n",
      "note_on channel=9 note=70 velocity=125 time=1\n",
      "note_on channel=9 note=54 velocity=119 time=0\n",
      "note_on channel=9 note=40 velocity=125 time=0\n",
      "note_on channel=9 note=54 velocity=0 time=39\n",
      "note_on channel=9 note=54 velocity=107 time=36\n",
      "note_on channel=9 note=40 velocity=0 time=44\n",
      "note_on channel=9 note=70 velocity=0 time=0\n",
      "note_on channel=9 note=36 velocity=127 time=1\n",
      "note_on channel=9 note=69 velocity=112 time=0\n",
      "note_on channel=9 note=49 velocity=127 time=0\n",
      "note_on channel=9 note=54 velocity=117 time=0\n",
      "note_on channel=9 note=54 velocity=0 time=14\n",
      "note_on channel=9 note=49 velocity=0 time=10\n",
      "note_on channel=9 note=54 velocity=0 time=15\n",
      "note_on channel=9 note=54 velocity=119 time=36\n",
      "note_on channel=9 note=54 velocity=0 time=39\n",
      "note_on channel=9 note=69 velocity=0 time=5\n",
      "note_on channel=9 note=36 velocity=0 time=0\n",
      "note_on channel=9 note=70 velocity=112 time=1\n",
      "note_on channel=9 note=54 velocity=119 time=0\n",
      "note_on channel=9 note=40 velocity=119 time=0\n",
      "note_on channel=9 note=54 velocity=0 time=39\n",
      "note_on channel=9 note=54 velocity=112 time=36\n",
      "note_on channel=9 note=54 velocity=0 time=39\n",
      "note_on channel=9 note=40 velocity=0 time=5\n",
      "note_on channel=9 note=70 velocity=0 time=0\n",
      "note_on channel=9 note=36 velocity=127 time=1\n",
      "note_on channel=9 note=69 velocity=107 time=0\n",
      "note_on channel=9 note=54 velocity=119 time=0\n",
      "note_on channel=9 note=54 velocity=0 time=39\n",
      "note_on channel=9 note=54 velocity=119 time=36\n",
      "note_on channel=9 note=49 velocity=127 time=5\n",
      "note_on channel=9 note=49 velocity=0 time=24\n",
      "note_on channel=9 note=54 velocity=0 time=10\n",
      "note_on channel=9 note=69 velocity=0 time=5\n",
      "note_on channel=9 note=36 velocity=0 time=0\n",
      "note_on channel=9 note=70 velocity=125 time=1\n",
      "note_on channel=9 note=54 velocity=119 time=0\n",
      "note_on channel=9 note=40 velocity=125 time=0\n",
      "note_on channel=9 note=54 velocity=0 time=39\n",
      "note_on channel=9 note=54 velocity=107 time=36\n",
      "note_on channel=9 note=40 velocity=0 time=44\n",
      "note_on channel=9 note=70 velocity=0 time=0\n",
      "note_on channel=9 note=36 velocity=127 time=1\n",
      "note_on channel=9 note=69 velocity=112 time=0\n",
      "note_on channel=9 note=49 velocity=127 time=0\n",
      "note_on channel=9 note=54 velocity=117 time=0\n",
      "note_on channel=9 note=54 velocity=0 time=14\n",
      "note_on channel=9 note=49 velocity=0 time=9\n",
      "note_on channel=9 note=54 velocity=0 time=16\n",
      "note_on channel=9 note=54 velocity=119 time=36\n",
      "note_on channel=9 note=54 velocity=0 time=39\n",
      "note_on channel=9 note=69 velocity=0 time=5\n",
      "note_on channel=9 note=36 velocity=0 time=0\n",
      "note_on channel=9 note=70 velocity=112 time=1\n",
      "note_on channel=9 note=54 velocity=119 time=0\n",
      "note_on channel=9 note=40 velocity=119 time=0\n",
      "note_on channel=9 note=54 velocity=0 time=39\n",
      "note_on channel=9 note=54 velocity=112 time=36\n",
      "note_on channel=9 note=54 velocity=0 time=39\n",
      "note_on channel=9 note=40 velocity=0 time=5\n",
      "note_on channel=9 note=70 velocity=0 time=0\n",
      "note_on channel=9 note=36 velocity=127 time=1\n",
      "note_on channel=9 note=69 velocity=107 time=0\n",
      "note_on channel=9 note=54 velocity=119 time=0\n",
      "note_on channel=9 note=54 velocity=0 time=39\n",
      "note_on channel=9 note=54 velocity=119 time=36\n",
      "note_on channel=9 note=49 velocity=117 time=5\n",
      "note_on channel=9 note=54 velocity=0 time=34\n",
      "note_on channel=9 note=36 velocity=0 time=5\n",
      "note_on channel=9 note=69 velocity=0 time=0\n",
      "note_on channel=9 note=70 velocity=125 time=1\n",
      "note_on channel=9 note=54 velocity=119 time=0\n",
      "note_on channel=9 note=40 velocity=125 time=0\n",
      "note_on channel=9 note=49 velocity=0 time=9\n",
      "note_on channel=9 note=54 velocity=0 time=30\n",
      "note_on channel=9 note=54 velocity=107 time=36\n",
      "note_on channel=9 note=70 velocity=0 time=44\n",
      "note_on channel=9 note=40 velocity=0 time=0\n",
      "note_on channel=9 note=36 velocity=127 time=1\n",
      "note_on channel=9 note=69 velocity=112 time=0\n",
      "note_on channel=9 note=49 velocity=127 time=0\n",
      "note_on channel=9 note=54 velocity=117 time=0\n",
      "note_on channel=9 note=54 velocity=0 time=14\n",
      "note_on channel=9 note=54 velocity=0 time=25\n",
      "note_on channel=9 note=49 velocity=0 time=6\n",
      "note_on channel=9 note=54 velocity=119 time=30\n",
      "note_on channel=9 note=54 velocity=0 time=39\n",
      "note_on channel=9 note=69 velocity=0 time=5\n",
      "note_on channel=9 note=36 velocity=0 time=0\n",
      "note_on channel=9 note=70 velocity=112 time=1\n",
      "note_on channel=9 note=54 velocity=119 time=0\n",
      "note_on channel=9 note=40 velocity=119 time=0\n",
      "note_on channel=9 note=54 velocity=0 time=39\n",
      "note_on channel=9 note=54 velocity=112 time=36\n",
      "note_on channel=9 note=54 velocity=0 time=39\n",
      "note_on channel=9 note=40 velocity=0 time=5\n",
      "note_on channel=9 note=70 velocity=0 time=0\n",
      "note_on channel=9 note=36 velocity=127 time=1\n",
      "note_on channel=9 note=69 velocity=107 time=0\n",
      "note_on channel=9 note=54 velocity=119 time=0\n",
      "note_on channel=9 note=54 velocity=0 time=39\n",
      "note_on channel=9 note=54 velocity=119 time=36\n",
      "note_on channel=9 note=49 velocity=127 time=5\n",
      "note_on channel=9 note=49 velocity=0 time=29\n",
      "note_on channel=9 note=54 velocity=0 time=5\n",
      "note_on channel=9 note=69 velocity=0 time=5\n",
      "note_on channel=9 note=36 velocity=0 time=0\n",
      "note_on channel=9 note=70 velocity=125 time=1\n",
      "note_on channel=9 note=54 velocity=119 time=0\n",
      "note_on channel=9 note=40 velocity=125 time=0\n",
      "note_on channel=9 note=54 velocity=0 time=39\n",
      "note_on channel=9 note=54 velocity=107 time=36\n",
      "note_on channel=9 note=40 velocity=0 time=44\n",
      "note_on channel=9 note=70 velocity=0 time=0\n",
      "note_on channel=9 note=36 velocity=127 time=1\n",
      "note_on channel=9 note=69 velocity=112 time=0\n",
      "note_on channel=9 note=49 velocity=127 time=0\n",
      "note_on channel=9 note=54 velocity=117 time=0\n",
      "note_on channel=9 note=54 velocity=0 time=14\n",
      "note_on channel=9 note=49 velocity=0 time=12\n",
      "note_on channel=9 note=54 velocity=0 time=13\n",
      "note_on channel=9 note=54 velocity=119 time=36\n",
      "note_on channel=9 note=54 velocity=0 time=39\n",
      "note_on channel=9 note=69 velocity=0 time=5\n",
      "note_on channel=9 note=36 velocity=0 time=0\n",
      "note_on channel=9 note=70 velocity=112 time=1\n",
      "note_on channel=9 note=54 velocity=119 time=0\n",
      "note_on channel=9 note=40 velocity=119 time=0\n",
      "note_on channel=9 note=54 velocity=0 time=39\n",
      "note_on channel=9 note=54 velocity=112 time=36\n",
      "note_on channel=9 note=54 velocity=0 time=39\n",
      "note_on channel=9 note=40 velocity=0 time=5\n",
      "note_on channel=9 note=70 velocity=0 time=0\n",
      "note_on channel=9 note=36 velocity=127 time=1\n",
      "note_on channel=9 note=69 velocity=107 time=0\n",
      "note_on channel=9 note=54 velocity=119 time=0\n",
      "note_on channel=9 note=54 velocity=0 time=39\n",
      "note_on channel=9 note=54 velocity=119 time=36\n",
      "note_on channel=9 note=49 velocity=127 time=5\n",
      "note_on channel=9 note=49 velocity=0 time=28\n",
      "note_on channel=9 note=54 velocity=0 time=6\n",
      "note_on channel=9 note=69 velocity=0 time=5\n",
      "note_on channel=9 note=36 velocity=0 time=0\n",
      "note_on channel=9 note=70 velocity=125 time=1\n",
      "note_on channel=9 note=54 velocity=119 time=0\n",
      "note_on channel=9 note=40 velocity=125 time=0\n",
      "note_on channel=9 note=54 velocity=0 time=39\n",
      "note_on channel=9 note=54 velocity=107 time=36\n",
      "note_on channel=9 note=40 velocity=0 time=44\n",
      "note_on channel=9 note=70 velocity=0 time=0\n",
      "note_on channel=9 note=36 velocity=127 time=1\n",
      "note_on channel=9 note=69 velocity=112 time=0\n",
      "note_on channel=9 note=49 velocity=127 time=0\n",
      "note_on channel=9 note=54 velocity=117 time=0\n",
      "note_on channel=9 note=54 velocity=0 time=14\n",
      "note_on channel=9 note=49 velocity=0 time=12\n",
      "note_on channel=9 note=54 velocity=0 time=13\n",
      "note_on channel=9 note=54 velocity=119 time=36\n",
      "note_on channel=9 note=54 velocity=0 time=39\n",
      "note_on channel=9 note=69 velocity=0 time=5\n",
      "note_on channel=9 note=36 velocity=0 time=0\n",
      "note_on channel=9 note=70 velocity=112 time=1\n",
      "note_on channel=9 note=54 velocity=119 time=0\n",
      "note_on channel=9 note=40 velocity=119 time=0\n",
      "note_on channel=9 note=54 velocity=0 time=39\n",
      "note_on channel=9 note=54 velocity=112 time=36\n",
      "note_on channel=9 note=54 velocity=0 time=39\n",
      "note_on channel=9 note=40 velocity=0 time=5\n",
      "note_on channel=9 note=70 velocity=0 time=0\n",
      "note_on channel=9 note=36 velocity=127 time=1\n",
      "note_on channel=9 note=69 velocity=107 time=0\n",
      "note_on channel=9 note=54 velocity=119 time=0\n",
      "note_on channel=9 note=54 velocity=0 time=39\n",
      "note_on channel=9 note=54 velocity=119 time=36\n",
      "note_on channel=9 note=49 velocity=127 time=5\n",
      "note_on channel=9 note=49 velocity=0 time=27\n",
      "note_on channel=9 note=54 velocity=0 time=7\n",
      "note_on channel=9 note=69 velocity=0 time=5\n",
      "note_on channel=9 note=36 velocity=0 time=0\n",
      "note_on channel=9 note=70 velocity=125 time=1\n",
      "note_on channel=9 note=54 velocity=119 time=0\n",
      "note_on channel=9 note=40 velocity=125 time=0\n",
      "note_on channel=9 note=54 velocity=0 time=39\n",
      "note_on channel=9 note=54 velocity=107 time=36\n",
      "note_on channel=9 note=40 velocity=0 time=44\n",
      "note_on channel=9 note=70 velocity=0 time=0\n",
      "note_on channel=9 note=36 velocity=127 time=1\n",
      "note_on channel=9 note=69 velocity=112 time=0\n",
      "note_on channel=9 note=49 velocity=127 time=0\n",
      "note_on channel=9 note=54 velocity=117 time=0\n",
      "note_on channel=9 note=54 velocity=0 time=14\n",
      "note_on channel=9 note=49 velocity=0 time=11\n",
      "note_on channel=9 note=54 velocity=0 time=14\n",
      "note_on channel=9 note=54 velocity=119 time=36\n",
      "note_on channel=9 note=54 velocity=0 time=39\n",
      "note_on channel=9 note=69 velocity=0 time=5\n",
      "note_on channel=9 note=36 velocity=0 time=0\n",
      "note_on channel=9 note=70 velocity=112 time=1\n",
      "note_on channel=9 note=54 velocity=119 time=0\n",
      "note_on channel=9 note=40 velocity=119 time=0\n",
      "note_on channel=9 note=54 velocity=0 time=39\n",
      "note_on channel=9 note=54 velocity=112 time=36\n",
      "note_on channel=9 note=54 velocity=0 time=39\n",
      "note_on channel=9 note=40 velocity=0 time=5\n",
      "note_on channel=9 note=70 velocity=0 time=0\n",
      "note_on channel=9 note=36 velocity=127 time=1\n",
      "note_on channel=9 note=69 velocity=107 time=0\n",
      "note_on channel=9 note=54 velocity=119 time=0\n",
      "note_on channel=9 note=54 velocity=0 time=39\n",
      "note_on channel=9 note=54 velocity=119 time=36\n",
      "note_on channel=9 note=54 velocity=0 time=39\n",
      "note_on channel=9 note=69 velocity=0 time=5\n",
      "note_on channel=9 note=36 velocity=0 time=0\n",
      "note_on channel=9 note=70 velocity=125 time=1\n",
      "note_on channel=9 note=54 velocity=119 time=0\n",
      "note_on channel=9 note=40 velocity=125 time=0\n",
      "note_on channel=9 note=54 velocity=0 time=39\n",
      "note_on channel=9 note=54 velocity=107 time=36\n",
      "note_on channel=9 note=40 velocity=0 time=44\n",
      "note_on channel=9 note=70 velocity=0 time=0\n",
      "note_on channel=9 note=36 velocity=127 time=1\n",
      "note_on channel=9 note=69 velocity=112 time=0\n",
      "note_on channel=9 note=54 velocity=117 time=0\n",
      "note_on channel=9 note=54 velocity=0 time=14\n",
      "note_on channel=9 note=54 velocity=0 time=25\n",
      "note_on channel=9 note=54 velocity=119 time=36\n",
      "note_on channel=9 note=54 velocity=0 time=39\n",
      "note_on channel=9 note=69 velocity=0 time=5\n",
      "note_on channel=9 note=36 velocity=0 time=0\n",
      "note_on channel=9 note=70 velocity=112 time=1\n",
      "note_on channel=9 note=54 velocity=119 time=0\n",
      "note_on channel=9 note=40 velocity=119 time=0\n",
      "note_on channel=9 note=54 velocity=0 time=39\n",
      "note_on channel=9 note=54 velocity=112 time=36\n",
      "note_on channel=9 note=54 velocity=0 time=39\n",
      "note_on channel=9 note=40 velocity=0 time=5\n",
      "note_on channel=9 note=70 velocity=0 time=0\n",
      "note_on channel=9 note=36 velocity=127 time=1\n",
      "note_on channel=9 note=69 velocity=107 time=0\n",
      "note_on channel=9 note=54 velocity=119 time=0\n",
      "note_on channel=9 note=54 velocity=0 time=39\n",
      "note_on channel=9 note=54 velocity=119 time=36\n",
      "note_on channel=9 note=54 velocity=0 time=39\n",
      "note_on channel=9 note=69 velocity=0 time=5\n",
      "note_on channel=9 note=36 velocity=0 time=0\n",
      "note_on channel=9 note=70 velocity=125 time=1\n",
      "note_on channel=9 note=54 velocity=119 time=0\n",
      "note_on channel=9 note=40 velocity=125 time=0\n",
      "note_on channel=9 note=54 velocity=0 time=39\n",
      "note_on channel=9 note=54 velocity=107 time=36\n",
      "note_on channel=9 note=40 velocity=0 time=44\n",
      "note_on channel=9 note=70 velocity=0 time=0\n",
      "note_on channel=9 note=36 velocity=112 time=1\n",
      "note_on channel=9 note=49 velocity=127 time=0\n",
      "note_on channel=9 note=54 velocity=105 time=0\n",
      "note_on channel=9 note=40 velocity=119 time=0\n",
      "note_on channel=9 note=54 velocity=0 time=14\n",
      "note_on channel=9 note=54 velocity=0 time=105\n",
      "note_on channel=9 note=36 velocity=0 time=0\n",
      "note_on channel=9 note=40 velocity=0 time=0\n",
      "note_on channel=9 note=49 velocity=0 time=269\n",
      "note_on channel=9 note=36 velocity=107 time=92\n",
      "note_on channel=9 note=48 velocity=127 time=0\n",
      "note_on channel=9 note=54 velocity=110 time=0\n",
      "note_on channel=9 note=40 velocity=119 time=0\n",
      "note_on channel=9 note=40 velocity=0 time=119\n",
      "note_on channel=9 note=54 velocity=0 time=0\n",
      "note_on channel=9 note=36 velocity=0 time=0\n",
      "note_on channel=9 note=48 velocity=0 time=247\n",
      "note_on channel=9 note=36 velocity=110 time=114\n",
      "note_on channel=9 note=47 velocity=115 time=0\n",
      "note_on channel=9 note=54 velocity=93 time=0\n",
      "note_on channel=9 note=40 velocity=119 time=0\n",
      "note_on channel=9 note=47 velocity=0 time=20\n",
      "note_on channel=9 note=36 velocity=0 time=99\n",
      "note_on channel=9 note=54 velocity=0 time=0\n",
      "note_on channel=9 note=40 velocity=0 time=0\n",
      "note_on channel=9 note=36 velocity=127 time=841\n",
      "note_on channel=9 note=69 velocity=112 time=0\n",
      "note_on channel=9 note=49 velocity=127 time=0\n",
      "note_on channel=9 note=54 velocity=117 time=0\n",
      "note_on channel=9 note=54 velocity=0 time=39\n",
      "note_on channel=9 note=54 velocity=119 time=36\n",
      "note_on channel=9 note=54 velocity=0 time=39\n",
      "note_on channel=9 note=69 velocity=0 time=5\n",
      "note_on channel=9 note=36 velocity=0 time=0\n",
      "note_on channel=9 note=70 velocity=112 time=1\n",
      "note_on channel=9 note=54 velocity=119 time=0\n",
      "note_on channel=9 note=40 velocity=119 time=0\n",
      "note_on channel=9 note=54 velocity=0 time=39\n",
      "note_on channel=9 note=54 velocity=112 time=36\n",
      "note_on channel=9 note=54 velocity=0 time=39\n",
      "note_on channel=9 note=40 velocity=0 time=5\n",
      "note_on channel=9 note=70 velocity=0 time=0\n",
      "note_on channel=9 note=36 velocity=127 time=1\n",
      "note_on channel=9 note=69 velocity=107 time=0\n",
      "note_on channel=9 note=54 velocity=119 time=0\n",
      "note_on channel=9 note=54 velocity=0 time=39\n",
      "note_on channel=9 note=54 velocity=119 time=36\n",
      "note_on channel=9 note=54 velocity=0 time=39\n",
      "note_on channel=9 note=69 velocity=0 time=5\n",
      "note_on channel=9 note=36 velocity=0 time=0\n",
      "note_on channel=9 note=70 velocity=125 time=1\n",
      "note_on channel=9 note=54 velocity=119 time=0\n",
      "note_on channel=9 note=40 velocity=125 time=0\n",
      "note_on channel=9 note=54 velocity=0 time=39\n",
      "note_on channel=9 note=54 velocity=107 time=36\n",
      "note_on channel=9 note=40 velocity=0 time=44\n",
      "note_on channel=9 note=70 velocity=0 time=0\n",
      "note_on channel=9 note=36 velocity=127 time=1\n",
      "note_on channel=9 note=69 velocity=112 time=0\n",
      "note_on channel=9 note=54 velocity=117 time=0\n",
      "note_on channel=9 note=54 velocity=0 time=14\n",
      "note_on channel=9 note=54 velocity=0 time=25\n",
      "note_on channel=9 note=54 velocity=119 time=36\n",
      "note_on channel=9 note=54 velocity=0 time=39\n",
      "note_on channel=9 note=69 velocity=0 time=5\n",
      "note_on channel=9 note=36 velocity=0 time=0\n",
      "note_on channel=9 note=70 velocity=112 time=1\n",
      "note_on channel=9 note=54 velocity=119 time=0\n",
      "note_on channel=9 note=40 velocity=119 time=0\n",
      "note_on channel=9 note=54 velocity=0 time=39\n",
      "note_on channel=9 note=54 velocity=112 time=36\n",
      "note_on channel=9 note=54 velocity=0 time=39\n",
      "note_on channel=9 note=40 velocity=0 time=5\n",
      "note_on channel=9 note=70 velocity=0 time=0\n",
      "note_on channel=9 note=36 velocity=127 time=1\n",
      "note_on channel=9 note=69 velocity=107 time=0\n",
      "note_on channel=9 note=54 velocity=119 time=0\n",
      "note_on channel=9 note=54 velocity=0 time=39\n",
      "note_on channel=9 note=54 velocity=119 time=36\n",
      "note_on channel=9 note=54 velocity=0 time=39\n",
      "note_on channel=9 note=69 velocity=0 time=5\n",
      "note_on channel=9 note=36 velocity=0 time=0\n",
      "note_on channel=9 note=70 velocity=125 time=1\n",
      "note_on channel=9 note=54 velocity=119 time=0\n",
      "note_on channel=9 note=40 velocity=125 time=0\n",
      "note_on channel=9 note=49 velocity=0 time=26\n",
      "note_on channel=9 note=54 velocity=0 time=13\n",
      "note_on channel=9 note=54 velocity=107 time=36\n",
      "note_on channel=9 note=70 velocity=0 time=44\n",
      "note_on channel=9 note=40 velocity=0 time=0\n"
     ]
    },
    {
     "name": "stdout",
     "output_type": "stream",
     "text": [
      "note_on channel=9 note=36 velocity=127 time=1\n",
      "note_on channel=9 note=69 velocity=112 time=0\n",
      "note_on channel=9 note=48 velocity=127 time=0\n",
      "note_on channel=9 note=54 velocity=117 time=0\n",
      "note_on channel=9 note=54 velocity=0 time=14\n",
      "note_on channel=9 note=54 velocity=0 time=25\n",
      "note_on channel=9 note=54 velocity=119 time=36\n",
      "note_on channel=9 note=54 velocity=0 time=39\n",
      "note_on channel=9 note=36 velocity=0 time=5\n",
      "note_on channel=9 note=69 velocity=0 time=0\n",
      "note_on channel=9 note=70 velocity=112 time=1\n",
      "note_on channel=9 note=54 velocity=119 time=0\n",
      "note_on channel=9 note=40 velocity=119 time=0\n",
      "note_on channel=9 note=54 velocity=0 time=39\n",
      "note_on channel=9 note=54 velocity=112 time=36\n",
      "note_on channel=9 note=54 velocity=0 time=39\n",
      "note_on channel=9 note=40 velocity=0 time=5\n",
      "note_on channel=9 note=70 velocity=0 time=0\n",
      "note_on channel=9 note=36 velocity=127 time=1\n",
      "note_on channel=9 note=69 velocity=107 time=0\n",
      "note_on channel=9 note=54 velocity=119 time=0\n",
      "note_on channel=9 note=54 velocity=0 time=39\n",
      "note_on channel=9 note=54 velocity=119 time=36\n",
      "note_on channel=9 note=54 velocity=0 time=39\n",
      "note_on channel=9 note=69 velocity=0 time=5\n",
      "note_on channel=9 note=36 velocity=0 time=0\n",
      "note_on channel=9 note=70 velocity=125 time=1\n",
      "note_on channel=9 note=54 velocity=119 time=0\n",
      "note_on channel=9 note=40 velocity=125 time=0\n",
      "note_on channel=9 note=54 velocity=0 time=39\n",
      "note_on channel=9 note=54 velocity=107 time=36\n",
      "note_on channel=9 note=40 velocity=0 time=44\n",
      "note_on channel=9 note=70 velocity=0 time=0\n",
      "note_on channel=9 note=36 velocity=127 time=1\n",
      "note_on channel=9 note=69 velocity=112 time=0\n",
      "note_on channel=9 note=54 velocity=117 time=0\n",
      "note_on channel=9 note=54 velocity=0 time=14\n",
      "note_on channel=9 note=54 velocity=0 time=25\n",
      "note_on channel=9 note=54 velocity=119 time=36\n",
      "note_on channel=9 note=54 velocity=0 time=39\n",
      "note_on channel=9 note=69 velocity=0 time=5\n",
      "note_on channel=9 note=36 velocity=0 time=0\n",
      "note_on channel=9 note=70 velocity=112 time=1\n",
      "note_on channel=9 note=54 velocity=119 time=0\n",
      "note_on channel=9 note=40 velocity=119 time=0\n",
      "note_on channel=9 note=54 velocity=0 time=39\n",
      "note_on channel=9 note=54 velocity=112 time=36\n",
      "note_on channel=9 note=54 velocity=0 time=39\n",
      "note_on channel=9 note=40 velocity=0 time=5\n",
      "note_on channel=9 note=70 velocity=0 time=0\n",
      "note_on channel=9 note=36 velocity=127 time=1\n",
      "note_on channel=9 note=69 velocity=107 time=0\n",
      "note_on channel=9 note=54 velocity=119 time=0\n",
      "note_on channel=9 note=54 velocity=0 time=39\n",
      "note_on channel=9 note=54 velocity=119 time=36\n",
      "note_on channel=9 note=54 velocity=0 time=39\n",
      "note_on channel=9 note=69 velocity=0 time=5\n",
      "note_on channel=9 note=36 velocity=0 time=0\n",
      "note_on channel=9 note=70 velocity=125 time=1\n",
      "note_on channel=9 note=54 velocity=119 time=0\n",
      "note_on channel=9 note=40 velocity=125 time=0\n",
      "note_on channel=9 note=48 velocity=0 time=18\n",
      "note_on channel=9 note=54 velocity=0 time=21\n",
      "note_on channel=9 note=54 velocity=107 time=36\n",
      "note_on channel=9 note=70 velocity=0 time=44\n",
      "note_on channel=9 note=40 velocity=0 time=0\n",
      "note_on channel=9 note=36 velocity=127 time=1\n",
      "note_on channel=9 note=69 velocity=112 time=0\n",
      "note_on channel=9 note=49 velocity=127 time=0\n",
      "note_on channel=9 note=54 velocity=117 time=0\n",
      "note_on channel=9 note=54 velocity=0 time=14\n",
      "note_on channel=9 note=54 velocity=0 time=25\n",
      "note_on channel=9 note=54 velocity=119 time=36\n",
      "note_on channel=9 note=54 velocity=0 time=39\n",
      "note_on channel=9 note=36 velocity=0 time=5\n",
      "note_on channel=9 note=69 velocity=0 time=0\n",
      "note_on channel=9 note=70 velocity=112 time=1\n",
      "note_on channel=9 note=54 velocity=119 time=0\n",
      "note_on channel=9 note=40 velocity=119 time=0\n",
      "note_on channel=9 note=54 velocity=0 time=39\n",
      "note_on channel=9 note=54 velocity=112 time=36\n",
      "note_on channel=9 note=54 velocity=0 time=39\n",
      "note_on channel=9 note=40 velocity=0 time=5\n",
      "note_on channel=9 note=70 velocity=0 time=0\n",
      "note_on channel=9 note=36 velocity=127 time=1\n",
      "note_on channel=9 note=69 velocity=107 time=0\n",
      "note_on channel=9 note=54 velocity=119 time=0\n",
      "note_on channel=9 note=54 velocity=0 time=39\n",
      "note_on channel=9 note=54 velocity=119 time=36\n",
      "note_on channel=9 note=54 velocity=0 time=39\n",
      "note_on channel=9 note=69 velocity=0 time=5\n",
      "note_on channel=9 note=36 velocity=0 time=0\n",
      "note_on channel=9 note=70 velocity=125 time=1\n",
      "note_on channel=9 note=54 velocity=119 time=0\n",
      "note_on channel=9 note=40 velocity=125 time=0\n",
      "note_on channel=9 note=49 velocity=0 time=35\n",
      "note_on channel=9 note=54 velocity=0 time=4\n",
      "note_on channel=9 note=54 velocity=107 time=36\n",
      "note_on channel=9 note=70 velocity=0 time=44\n",
      "note_on channel=9 note=40 velocity=0 time=0\n",
      "note_on channel=9 note=36 velocity=127 time=1\n",
      "note_on channel=9 note=69 velocity=112 time=0\n",
      "note_on channel=9 note=47 velocity=110 time=0\n",
      "note_on channel=9 note=54 velocity=117 time=0\n",
      "note_on channel=9 note=54 velocity=0 time=14\n",
      "note_on channel=9 note=54 velocity=0 time=25\n",
      "note_on channel=9 note=54 velocity=119 time=36\n",
      "note_on channel=9 note=54 velocity=0 time=39\n",
      "note_on channel=9 note=36 velocity=0 time=5\n",
      "note_on channel=9 note=69 velocity=0 time=0\n",
      "note_on channel=9 note=70 velocity=112 time=1\n",
      "note_on channel=9 note=54 velocity=119 time=0\n",
      "note_on channel=9 note=40 velocity=119 time=0\n",
      "note_on channel=9 note=54 velocity=0 time=39\n",
      "note_on channel=9 note=54 velocity=112 time=36\n",
      "note_on channel=9 note=54 velocity=0 time=39\n",
      "note_on channel=9 note=40 velocity=0 time=5\n",
      "note_on channel=9 note=70 velocity=0 time=0\n",
      "note_on channel=9 note=36 velocity=127 time=1\n",
      "note_on channel=9 note=69 velocity=107 time=0\n",
      "note_on channel=9 note=54 velocity=119 time=0\n",
      "note_on channel=9 note=54 velocity=0 time=39\n",
      "note_on channel=9 note=54 velocity=119 time=36\n",
      "note_on channel=9 note=54 velocity=0 time=39\n",
      "note_on channel=9 note=69 velocity=0 time=5\n",
      "note_on channel=9 note=36 velocity=0 time=0\n",
      "note_on channel=9 note=70 velocity=125 time=1\n",
      "note_on channel=9 note=54 velocity=119 time=0\n",
      "note_on channel=9 note=40 velocity=125 time=0\n",
      "note_on channel=9 note=54 velocity=0 time=39\n",
      "note_on channel=9 note=47 velocity=0 time=1\n",
      "note_on channel=9 note=54 velocity=107 time=35\n",
      "note_on channel=9 note=70 velocity=0 time=44\n",
      "note_on channel=9 note=40 velocity=0 time=0\n",
      "note_on channel=9 note=36 velocity=127 time=1\n",
      "note_on channel=9 note=69 velocity=112 time=0\n",
      "note_on channel=9 note=49 velocity=127 time=0\n",
      "note_on channel=9 note=54 velocity=117 time=0\n",
      "note_on channel=9 note=54 velocity=0 time=14\n",
      "note_on channel=9 note=54 velocity=0 time=25\n",
      "note_on channel=9 note=54 velocity=119 time=36\n",
      "note_on channel=9 note=54 velocity=0 time=39\n",
      "note_on channel=9 note=36 velocity=0 time=5\n",
      "note_on channel=9 note=69 velocity=0 time=0\n",
      "note_on channel=9 note=70 velocity=112 time=1\n",
      "note_on channel=9 note=54 velocity=119 time=0\n",
      "note_on channel=9 note=40 velocity=119 time=0\n",
      "note_on channel=9 note=54 velocity=0 time=39\n",
      "note_on channel=9 note=54 velocity=112 time=36\n",
      "note_on channel=9 note=54 velocity=0 time=39\n",
      "note_on channel=9 note=40 velocity=0 time=5\n",
      "note_on channel=9 note=70 velocity=0 time=0\n",
      "note_on channel=9 note=36 velocity=127 time=1\n",
      "note_on channel=9 note=69 velocity=107 time=0\n",
      "note_on channel=9 note=54 velocity=119 time=0\n",
      "note_on channel=9 note=54 velocity=0 time=39\n",
      "note_on channel=9 note=54 velocity=119 time=36\n",
      "note_on channel=9 note=54 velocity=0 time=39\n",
      "note_on channel=9 note=69 velocity=0 time=5\n",
      "note_on channel=9 note=36 velocity=0 time=0\n",
      "note_on channel=9 note=70 velocity=125 time=1\n",
      "note_on channel=9 note=54 velocity=119 time=0\n",
      "note_on channel=9 note=40 velocity=125 time=0\n",
      "note_on channel=9 note=54 velocity=0 time=39\n",
      "note_on channel=9 note=54 velocity=107 time=36\n",
      "note_on channel=9 note=40 velocity=0 time=44\n",
      "note_on channel=9 note=70 velocity=0 time=0\n",
      "note_on channel=9 note=36 velocity=127 time=1\n",
      "note_on channel=9 note=69 velocity=112 time=0\n",
      "note_on channel=9 note=54 velocity=117 time=0\n",
      "note_on channel=9 note=54 velocity=0 time=14\n",
      "note_on channel=9 note=54 velocity=0 time=25\n",
      "note_on channel=9 note=54 velocity=119 time=36\n",
      "note_on channel=9 note=54 velocity=0 time=39\n",
      "note_on channel=9 note=69 velocity=0 time=5\n",
      "note_on channel=9 note=36 velocity=0 time=0\n",
      "note_on channel=9 note=70 velocity=112 time=1\n",
      "note_on channel=9 note=54 velocity=119 time=0\n",
      "note_on channel=9 note=40 velocity=119 time=0\n",
      "note_on channel=9 note=54 velocity=0 time=39\n",
      "note_on channel=9 note=54 velocity=112 time=36\n",
      "note_on channel=9 note=54 velocity=0 time=39\n",
      "note_on channel=9 note=40 velocity=0 time=5\n",
      "note_on channel=9 note=70 velocity=0 time=0\n",
      "note_on channel=9 note=36 velocity=127 time=1\n",
      "note_on channel=9 note=69 velocity=107 time=0\n",
      "note_on channel=9 note=54 velocity=119 time=0\n",
      "note_on channel=9 note=54 velocity=0 time=39\n",
      "note_on channel=9 note=54 velocity=119 time=36\n",
      "note_on channel=9 note=54 velocity=0 time=39\n",
      "note_on channel=9 note=69 velocity=0 time=5\n",
      "note_on channel=9 note=36 velocity=0 time=0\n",
      "note_on channel=9 note=70 velocity=125 time=1\n",
      "note_on channel=9 note=54 velocity=119 time=0\n",
      "note_on channel=9 note=40 velocity=125 time=0\n",
      "note_on channel=9 note=49 velocity=0 time=18\n",
      "note_on channel=9 note=54 velocity=0 time=21\n",
      "note_on channel=9 note=49 velocity=119 time=36\n",
      "note_on channel=9 note=54 velocity=107 time=0\n",
      "note_on channel=9 note=70 velocity=0 time=44\n",
      "note_on channel=9 note=40 velocity=0 time=0\n",
      "note_on channel=9 note=36 velocity=127 time=1\n",
      "note_on channel=9 note=69 velocity=112 time=0\n",
      "note_on channel=9 note=54 velocity=117 time=0\n",
      "note_on channel=9 note=54 velocity=0 time=14\n",
      "note_on channel=9 note=54 velocity=0 time=25\n",
      "note_on channel=9 note=54 velocity=119 time=36\n",
      "note_on channel=9 note=54 velocity=0 time=39\n",
      "note_on channel=9 note=69 velocity=0 time=5\n",
      "note_on channel=9 note=36 velocity=0 time=0\n",
      "note_on channel=9 note=70 velocity=112 time=1\n",
      "note_on channel=9 note=54 velocity=119 time=0\n",
      "note_on channel=9 note=40 velocity=119 time=0\n",
      "note_on channel=9 note=54 velocity=0 time=39\n",
      "note_on channel=9 note=54 velocity=112 time=36\n",
      "note_on channel=9 note=54 velocity=0 time=39\n",
      "note_on channel=9 note=40 velocity=0 time=5\n",
      "note_on channel=9 note=70 velocity=0 time=0\n",
      "note_on channel=9 note=36 velocity=127 time=1\n",
      "note_on channel=9 note=69 velocity=107 time=0\n",
      "note_on channel=9 note=54 velocity=119 time=0\n",
      "note_on channel=9 note=54 velocity=0 time=39\n",
      "note_on channel=9 note=54 velocity=119 time=36\n",
      "note_on channel=9 note=54 velocity=0 time=39\n",
      "note_on channel=9 note=69 velocity=0 time=5\n",
      "note_on channel=9 note=36 velocity=0 time=0\n",
      "note_on channel=9 note=70 velocity=125 time=1\n",
      "note_on channel=9 note=54 velocity=119 time=0\n",
      "note_on channel=9 note=40 velocity=125 time=0\n",
      "note_on channel=9 note=49 velocity=0 time=2\n",
      "note_on channel=9 note=54 velocity=0 time=37\n",
      "note_on channel=9 note=49 velocity=117 time=36\n",
      "note_on channel=9 note=54 velocity=107 time=0\n",
      "note_on channel=9 note=70 velocity=0 time=44\n",
      "note_on channel=9 note=40 velocity=0 time=0\n",
      "note_on channel=9 note=36 velocity=127 time=1\n",
      "note_on channel=9 note=69 velocity=112 time=0\n",
      "note_on channel=9 note=54 velocity=117 time=0\n",
      "note_on channel=9 note=54 velocity=0 time=14\n",
      "note_on channel=9 note=54 velocity=0 time=25\n",
      "note_on channel=9 note=54 velocity=119 time=36\n",
      "note_on channel=9 note=54 velocity=0 time=39\n",
      "note_on channel=9 note=69 velocity=0 time=5\n",
      "note_on channel=9 note=36 velocity=0 time=0\n",
      "note_on channel=9 note=70 velocity=112 time=1\n",
      "note_on channel=9 note=54 velocity=119 time=0\n",
      "note_on channel=9 note=40 velocity=119 time=0\n",
      "note_on channel=9 note=54 velocity=0 time=39\n",
      "note_on channel=9 note=54 velocity=112 time=36\n",
      "note_on channel=9 note=54 velocity=0 time=39\n",
      "note_on channel=9 note=40 velocity=0 time=5\n",
      "note_on channel=9 note=70 velocity=0 time=0\n",
      "note_on channel=9 note=36 velocity=127 time=1\n",
      "note_on channel=9 note=69 velocity=107 time=0\n",
      "note_on channel=9 note=54 velocity=119 time=0\n",
      "note_on channel=9 note=54 velocity=0 time=39\n",
      "note_on channel=9 note=54 velocity=119 time=36\n",
      "note_on channel=9 note=54 velocity=0 time=39\n",
      "note_on channel=9 note=49 velocity=0 time=4\n",
      "note_on channel=9 note=69 velocity=0 time=1\n",
      "note_on channel=9 note=36 velocity=0 time=0\n",
      "note_on channel=9 note=70 velocity=125 time=1\n",
      "note_on channel=9 note=54 velocity=119 time=0\n",
      "note_on channel=9 note=40 velocity=125 time=0\n",
      "note_on channel=9 note=54 velocity=0 time=39\n",
      "note_on channel=9 note=49 velocity=119 time=36\n",
      "note_on channel=9 note=54 velocity=107 time=0\n",
      "note_on channel=9 note=40 velocity=0 time=44\n",
      "note_on channel=9 note=70 velocity=0 time=0\n",
      "note_on channel=9 note=36 velocity=127 time=1\n",
      "note_on channel=9 note=69 velocity=112 time=0\n",
      "note_on channel=9 note=54 velocity=117 time=0\n",
      "note_on channel=9 note=54 velocity=0 time=14\n",
      "note_on channel=9 note=54 velocity=0 time=25\n",
      "note_on channel=9 note=54 velocity=119 time=36\n",
      "note_on channel=9 note=54 velocity=0 time=39\n",
      "note_on channel=9 note=69 velocity=0 time=5\n",
      "note_on channel=9 note=36 velocity=0 time=0\n",
      "note_on channel=9 note=70 velocity=112 time=1\n",
      "note_on channel=9 note=54 velocity=119 time=0\n",
      "note_on channel=9 note=40 velocity=119 time=0\n",
      "note_on channel=9 note=54 velocity=0 time=39\n",
      "note_on channel=9 note=54 velocity=112 time=36\n",
      "note_on channel=9 note=54 velocity=0 time=39\n",
      "note_on channel=9 note=40 velocity=0 time=5\n",
      "note_on channel=9 note=70 velocity=0 time=0\n",
      "note_on channel=9 note=36 velocity=127 time=1\n",
      "note_on channel=9 note=69 velocity=107 time=0\n",
      "note_on channel=9 note=54 velocity=119 time=0\n",
      "note_on channel=9 note=54 velocity=0 time=39\n",
      "note_on channel=9 note=54 velocity=119 time=36\n",
      "note_on channel=9 note=54 velocity=0 time=39\n",
      "note_on channel=9 note=69 velocity=0 time=5\n",
      "note_on channel=9 note=36 velocity=0 time=0\n",
      "note_on channel=9 note=70 velocity=125 time=1\n",
      "note_on channel=9 note=54 velocity=119 time=0\n",
      "note_on channel=9 note=40 velocity=125 time=0\n",
      "note_on channel=9 note=49 velocity=0 time=12\n",
      "note_on channel=9 note=54 velocity=0 time=27\n",
      "note_on channel=9 note=49 velocity=119 time=36\n",
      "note_on channel=9 note=54 velocity=107 time=0\n",
      "note_on channel=9 note=70 velocity=0 time=44\n",
      "note_on channel=9 note=40 velocity=0 time=0\n",
      "note_on channel=9 note=36 velocity=127 time=1\n",
      "note_on channel=9 note=69 velocity=112 time=0\n",
      "note_on channel=9 note=54 velocity=117 time=0\n",
      "note_on channel=9 note=54 velocity=0 time=14\n",
      "note_on channel=9 note=54 velocity=0 time=25\n",
      "note_on channel=9 note=54 velocity=119 time=36\n",
      "note_on channel=9 note=54 velocity=0 time=39\n",
      "note_on channel=9 note=69 velocity=0 time=5\n",
      "note_on channel=9 note=36 velocity=0 time=0\n",
      "note_on channel=9 note=70 velocity=112 time=1\n",
      "note_on channel=9 note=54 velocity=119 time=0\n",
      "note_on channel=9 note=40 velocity=119 time=0\n",
      "note_on channel=9 note=54 velocity=0 time=39\n",
      "note_on channel=9 note=54 velocity=112 time=36\n",
      "note_on channel=9 note=54 velocity=0 time=39\n",
      "note_on channel=9 note=40 velocity=0 time=5\n",
      "note_on channel=9 note=70 velocity=0 time=0\n",
      "note_on channel=9 note=36 velocity=127 time=1\n",
      "note_on channel=9 note=69 velocity=107 time=0\n",
      "note_on channel=9 note=54 velocity=119 time=0\n",
      "note_on channel=9 note=54 velocity=0 time=39\n",
      "note_on channel=9 note=54 velocity=119 time=36\n",
      "note_on channel=9 note=54 velocity=0 time=39\n",
      "note_on channel=9 note=69 velocity=0 time=5\n",
      "note_on channel=9 note=36 velocity=0 time=0\n",
      "note_on channel=9 note=70 velocity=125 time=1\n",
      "note_on channel=9 note=54 velocity=119 time=0\n",
      "note_on channel=9 note=40 velocity=125 time=0\n",
      "note_on channel=9 note=49 velocity=0 time=2\n",
      "note_on channel=9 note=54 velocity=0 time=37\n",
      "note_on channel=9 note=49 velocity=115 time=36\n",
      "note_on channel=9 note=54 velocity=107 time=0\n",
      "note_on channel=9 note=70 velocity=0 time=44\n",
      "note_on channel=9 note=40 velocity=0 time=0\n",
      "note_on channel=9 note=36 velocity=127 time=1\n",
      "note_on channel=9 note=69 velocity=112 time=0\n",
      "note_on channel=9 note=54 velocity=117 time=0\n",
      "note_on channel=9 note=54 velocity=0 time=14\n",
      "note_on channel=9 note=54 velocity=0 time=25\n",
      "note_on channel=9 note=54 velocity=119 time=36\n",
      "note_on channel=9 note=54 velocity=0 time=39\n",
      "note_on channel=9 note=69 velocity=0 time=5\n",
      "note_on channel=9 note=36 velocity=0 time=0\n",
      "note_on channel=9 note=70 velocity=112 time=1\n",
      "note_on channel=9 note=54 velocity=119 time=0\n",
      "note_on channel=9 note=40 velocity=119 time=0\n",
      "note_on channel=9 note=54 velocity=0 time=39\n",
      "note_on channel=9 note=54 velocity=112 time=36\n",
      "note_on channel=9 note=54 velocity=0 time=39\n",
      "note_on channel=9 note=40 velocity=0 time=5\n",
      "note_on channel=9 note=70 velocity=0 time=0\n",
      "note_on channel=9 note=36 velocity=127 time=1\n",
      "note_on channel=9 note=69 velocity=107 time=0\n",
      "note_on channel=9 note=54 velocity=119 time=0\n",
      "note_on channel=9 note=54 velocity=0 time=39\n",
      "note_on channel=9 note=54 velocity=119 time=36\n",
      "note_on channel=9 note=54 velocity=0 time=39\n",
      "note_on channel=9 note=69 velocity=0 time=5\n",
      "note_on channel=9 note=36 velocity=0 time=0\n",
      "note_on channel=9 note=70 velocity=125 time=1\n",
      "note_on channel=9 note=54 velocity=119 time=0\n",
      "note_on channel=9 note=40 velocity=125 time=0\n",
      "note_on channel=9 note=49 velocity=0 time=15\n",
      "note_on channel=9 note=54 velocity=0 time=24\n",
      "note_on channel=9 note=49 velocity=119 time=36\n",
      "note_on channel=9 note=54 velocity=107 time=0\n",
      "note_on channel=9 note=70 velocity=0 time=44\n",
      "note_on channel=9 note=40 velocity=0 time=0\n",
      "note_on channel=9 note=36 velocity=127 time=1\n",
      "note_on channel=9 note=69 velocity=112 time=0\n",
      "note_on channel=9 note=54 velocity=117 time=0\n",
      "note_on channel=9 note=54 velocity=0 time=14\n",
      "note_on channel=9 note=54 velocity=0 time=25\n",
      "note_on channel=9 note=54 velocity=119 time=36\n",
      "note_on channel=9 note=54 velocity=0 time=39\n",
      "note_on channel=9 note=69 velocity=0 time=5\n",
      "note_on channel=9 note=36 velocity=0 time=0\n",
      "note_on channel=9 note=70 velocity=112 time=1\n",
      "note_on channel=9 note=54 velocity=119 time=0\n",
      "note_on channel=9 note=40 velocity=119 time=0\n",
      "note_on channel=9 note=54 velocity=0 time=39\n",
      "note_on channel=9 note=54 velocity=112 time=36\n",
      "note_on channel=9 note=54 velocity=0 time=39\n",
      "note_on channel=9 note=40 velocity=0 time=5\n",
      "note_on channel=9 note=70 velocity=0 time=0\n",
      "note_on channel=9 note=36 velocity=127 time=1\n",
      "note_on channel=9 note=69 velocity=107 time=0\n",
      "note_on channel=9 note=54 velocity=119 time=0\n",
      "note_on channel=9 note=54 velocity=0 time=39\n",
      "note_on channel=9 note=54 velocity=119 time=36\n",
      "note_on channel=9 note=54 velocity=0 time=39\n",
      "note_on channel=9 note=49 velocity=0 time=4\n",
      "note_on channel=9 note=69 velocity=0 time=1\n",
      "note_on channel=9 note=36 velocity=0 time=0\n",
      "note_on channel=9 note=70 velocity=125 time=1\n",
      "note_on channel=9 note=54 velocity=119 time=0\n",
      "note_on channel=9 note=40 velocity=125 time=0\n",
      "note_on channel=9 note=54 velocity=0 time=39\n",
      "note_on channel=9 note=49 velocity=119 time=36\n",
      "note_on channel=9 note=54 velocity=107 time=0\n",
      "note_on channel=9 note=40 velocity=0 time=44\n",
      "note_on channel=9 note=70 velocity=0 time=0\n",
      "note_on channel=9 note=36 velocity=127 time=1\n",
      "note_on channel=9 note=69 velocity=112 time=0\n",
      "note_on channel=9 note=54 velocity=117 time=0\n",
      "note_on channel=9 note=54 velocity=0 time=14\n",
      "note_on channel=9 note=54 velocity=0 time=25\n",
      "note_on channel=9 note=54 velocity=119 time=36\n",
      "note_on channel=9 note=54 velocity=0 time=39\n",
      "note_on channel=9 note=69 velocity=0 time=5\n",
      "note_on channel=9 note=36 velocity=0 time=0\n",
      "note_on channel=9 note=70 velocity=112 time=1\n",
      "note_on channel=9 note=54 velocity=119 time=0\n",
      "note_on channel=9 note=40 velocity=119 time=0\n",
      "note_on channel=9 note=54 velocity=0 time=39\n",
      "note_on channel=9 note=54 velocity=112 time=36\n",
      "note_on channel=9 note=54 velocity=0 time=39\n",
      "note_on channel=9 note=40 velocity=0 time=5\n",
      "note_on channel=9 note=70 velocity=0 time=0\n",
      "note_on channel=9 note=36 velocity=127 time=1\n",
      "note_on channel=9 note=69 velocity=107 time=0\n",
      "note_on channel=9 note=54 velocity=119 time=0\n",
      "note_on channel=9 note=54 velocity=0 time=39\n",
      "note_on channel=9 note=54 velocity=119 time=36\n",
      "note_on channel=9 note=54 velocity=0 time=39\n",
      "note_on channel=9 note=69 velocity=0 time=5\n",
      "note_on channel=9 note=36 velocity=0 time=0\n",
      "note_on channel=9 note=70 velocity=125 time=1\n",
      "note_on channel=9 note=54 velocity=119 time=0\n",
      "note_on channel=9 note=40 velocity=125 time=0\n",
      "note_on channel=9 note=49 velocity=0 time=2\n",
      "note_on channel=9 note=54 velocity=0 time=37\n",
      "note_on channel=9 note=49 velocity=115 time=36\n",
      "note_on channel=9 note=54 velocity=107 time=0\n",
      "note_on channel=9 note=70 velocity=0 time=44\n",
      "note_on channel=9 note=40 velocity=0 time=0\n",
      "note_on channel=9 note=36 velocity=127 time=1\n",
      "note_on channel=9 note=69 velocity=112 time=0\n",
      "note_on channel=9 note=54 velocity=117 time=0\n",
      "note_on channel=9 note=54 velocity=0 time=14\n",
      "note_on channel=9 note=54 velocity=0 time=25\n",
      "note_on channel=9 note=54 velocity=119 time=36\n",
      "note_on channel=9 note=54 velocity=0 time=39\n",
      "note_on channel=9 note=69 velocity=0 time=5\n",
      "note_on channel=9 note=36 velocity=0 time=0\n",
      "note_on channel=9 note=70 velocity=112 time=1\n",
      "note_on channel=9 note=54 velocity=119 time=0\n",
      "note_on channel=9 note=40 velocity=119 time=0\n",
      "note_on channel=9 note=54 velocity=0 time=39\n",
      "note_on channel=9 note=54 velocity=112 time=36\n",
      "note_on channel=9 note=54 velocity=0 time=39\n",
      "note_on channel=9 note=40 velocity=0 time=5\n",
      "note_on channel=9 note=70 velocity=0 time=0\n",
      "note_on channel=9 note=36 velocity=127 time=1\n",
      "note_on channel=9 note=69 velocity=107 time=0\n",
      "note_on channel=9 note=54 velocity=119 time=0\n",
      "note_on channel=9 note=54 velocity=0 time=39\n",
      "note_on channel=9 note=54 velocity=119 time=36\n",
      "note_on channel=9 note=54 velocity=0 time=39\n",
      "note_on channel=9 note=69 velocity=0 time=5\n",
      "note_on channel=9 note=36 velocity=0 time=0\n",
      "note_on channel=9 note=70 velocity=125 time=1\n",
      "note_on channel=9 note=54 velocity=119 time=0\n",
      "note_on channel=9 note=40 velocity=125 time=0\n",
      "note_on channel=9 note=49 velocity=0 time=24\n",
      "note_on channel=9 note=54 velocity=0 time=15\n",
      "note_on channel=9 note=54 velocity=107 time=36\n",
      "note_on channel=9 note=70 velocity=0 time=44\n",
      "note_on channel=9 note=40 velocity=0 time=0\n",
      "note_on channel=9 note=36 velocity=127 time=1\n",
      "note_on channel=9 note=69 velocity=112 time=0\n",
      "note_on channel=9 note=49 velocity=115 time=0\n",
      "note_on channel=9 note=54 velocity=117 time=0\n",
      "note_on channel=9 note=54 velocity=0 time=14\n",
      "note_on channel=9 note=54 velocity=0 time=25\n",
      "note_on channel=9 note=54 velocity=119 time=36\n",
      "note_on channel=9 note=54 velocity=0 time=39\n",
      "note_on channel=9 note=36 velocity=0 time=5\n",
      "note_on channel=9 note=69 velocity=0 time=0\n",
      "note_on channel=9 note=70 velocity=112 time=1\n",
      "note_on channel=9 note=54 velocity=119 time=0\n",
      "note_on channel=9 note=40 velocity=119 time=0\n",
      "note_on channel=9 note=54 velocity=0 time=39\n",
      "note_on channel=9 note=54 velocity=112 time=36\n",
      "note_on channel=9 note=54 velocity=0 time=39\n",
      "note_on channel=9 note=40 velocity=0 time=5\n",
      "note_on channel=9 note=70 velocity=0 time=0\n",
      "note_on channel=9 note=36 velocity=127 time=1\n",
      "note_on channel=9 note=69 velocity=107 time=0\n",
      "note_on channel=9 note=54 velocity=119 time=0\n",
      "note_on channel=9 note=54 velocity=0 time=39\n",
      "note_on channel=9 note=54 velocity=119 time=36\n",
      "note_on channel=9 note=54 velocity=0 time=39\n",
      "note_on channel=9 note=69 velocity=0 time=5\n",
      "note_on channel=9 note=36 velocity=0 time=0\n",
      "note_on channel=9 note=70 velocity=125 time=1\n",
      "note_on channel=9 note=54 velocity=119 time=0\n",
      "note_on channel=9 note=40 velocity=125 time=0\n",
      "note_on channel=9 note=54 velocity=0 time=39\n",
      "note_on channel=9 note=54 velocity=107 time=36\n",
      "note_on channel=9 note=40 velocity=0 time=44\n",
      "note_on channel=9 note=70 velocity=0 time=0\n",
      "note_on channel=9 note=36 velocity=127 time=1\n",
      "note_on channel=9 note=69 velocity=112 time=0\n",
      "note_on channel=9 note=54 velocity=117 time=0\n",
      "note_on channel=9 note=54 velocity=0 time=14\n",
      "note_on channel=9 note=54 velocity=0 time=25\n",
      "note_on channel=9 note=54 velocity=119 time=36\n",
      "note_on channel=9 note=54 velocity=0 time=39\n",
      "note_on channel=9 note=69 velocity=0 time=5\n",
      "note_on channel=9 note=36 velocity=0 time=0\n",
      "note_on channel=9 note=70 velocity=112 time=1\n",
      "note_on channel=9 note=54 velocity=119 time=0\n",
      "note_on channel=9 note=40 velocity=119 time=0\n",
      "note_on channel=9 note=54 velocity=0 time=39\n",
      "note_on channel=9 note=54 velocity=112 time=36\n",
      "note_on channel=9 note=54 velocity=0 time=39\n",
      "note_on channel=9 note=40 velocity=0 time=5\n",
      "note_on channel=9 note=70 velocity=0 time=0\n",
      "note_on channel=9 note=36 velocity=127 time=1\n",
      "note_on channel=9 note=69 velocity=107 time=0\n",
      "note_on channel=9 note=54 velocity=119 time=0\n",
      "note_on channel=9 note=54 velocity=0 time=39\n",
      "note_on channel=9 note=54 velocity=119 time=36\n",
      "note_on channel=9 note=54 velocity=0 time=39\n",
      "note_on channel=9 note=69 velocity=0 time=5\n",
      "note_on channel=9 note=36 velocity=0 time=0\n",
      "note_on channel=9 note=70 velocity=125 time=1\n",
      "note_on channel=9 note=54 velocity=119 time=0\n",
      "note_on channel=9 note=40 velocity=125 time=0\n",
      "note_on channel=9 note=54 velocity=0 time=39\n",
      "note_on channel=9 note=54 velocity=107 time=36\n",
      "note_on channel=9 note=40 velocity=0 time=44\n",
      "note_on channel=9 note=70 velocity=0 time=0\n",
      "note_on channel=9 note=36 velocity=127 time=1\n",
      "note_on channel=9 note=69 velocity=112 time=0\n",
      "note_on channel=9 note=54 velocity=117 time=0\n",
      "note_on channel=9 note=54 velocity=0 time=14\n",
      "note_on channel=9 note=54 velocity=0 time=25\n",
      "note_on channel=9 note=54 velocity=119 time=36\n",
      "note_on channel=9 note=54 velocity=0 time=39\n",
      "note_on channel=9 note=69 velocity=0 time=5\n",
      "note_on channel=9 note=36 velocity=0 time=0\n",
      "note_on channel=9 note=70 velocity=112 time=1\n",
      "note_on channel=9 note=54 velocity=119 time=0\n",
      "note_on channel=9 note=40 velocity=119 time=0\n",
      "note_on channel=9 note=54 velocity=0 time=39\n",
      "note_on channel=9 note=54 velocity=112 time=36\n",
      "note_on channel=9 note=54 velocity=0 time=39\n",
      "note_on channel=9 note=40 velocity=0 time=5\n",
      "note_on channel=9 note=70 velocity=0 time=0\n",
      "note_on channel=9 note=36 velocity=127 time=1\n",
      "note_on channel=9 note=69 velocity=107 time=0\n",
      "note_on channel=9 note=54 velocity=119 time=0\n",
      "note_on channel=9 note=54 velocity=0 time=39\n",
      "note_on channel=9 note=54 velocity=119 time=36\n",
      "note_on channel=9 note=54 velocity=0 time=39\n",
      "note_on channel=9 note=69 velocity=0 time=5\n",
      "note_on channel=9 note=36 velocity=0 time=0\n",
      "note_on channel=9 note=70 velocity=125 time=1\n",
      "note_on channel=9 note=54 velocity=119 time=0\n",
      "note_on channel=9 note=40 velocity=125 time=0\n",
      "note_on channel=9 note=54 velocity=0 time=39\n",
      "note_on channel=9 note=54 velocity=107 time=36\n",
      "note_on channel=9 note=40 velocity=0 time=44\n",
      "note_on channel=9 note=70 velocity=0 time=0\n",
      "note_on channel=9 note=36 velocity=127 time=1\n",
      "note_on channel=9 note=69 velocity=112 time=0\n",
      "note_on channel=9 note=54 velocity=117 time=0\n",
      "note_on channel=9 note=54 velocity=0 time=14\n",
      "note_on channel=9 note=54 velocity=0 time=25\n",
      "note_on channel=9 note=54 velocity=119 time=36\n",
      "note_on channel=9 note=54 velocity=0 time=39\n",
      "note_on channel=9 note=69 velocity=0 time=5\n",
      "note_on channel=9 note=36 velocity=0 time=0\n",
      "note_on channel=9 note=70 velocity=112 time=1\n",
      "note_on channel=9 note=54 velocity=119 time=0\n",
      "note_on channel=9 note=40 velocity=119 time=0\n",
      "note_on channel=9 note=54 velocity=0 time=39\n",
      "note_on channel=9 note=54 velocity=112 time=36\n",
      "note_on channel=9 note=54 velocity=0 time=39\n",
      "note_on channel=9 note=40 velocity=0 time=5\n",
      "note_on channel=9 note=70 velocity=0 time=0\n",
      "note_on channel=9 note=36 velocity=127 time=1\n",
      "note_on channel=9 note=69 velocity=107 time=0\n",
      "note_on channel=9 note=54 velocity=119 time=0\n",
      "note_on channel=9 note=54 velocity=0 time=39\n",
      "note_on channel=9 note=54 velocity=119 time=36\n",
      "note_on channel=9 note=54 velocity=0 time=39\n",
      "note_on channel=9 note=69 velocity=0 time=5\n",
      "note_on channel=9 note=36 velocity=0 time=0\n",
      "note_on channel=9 note=70 velocity=125 time=1\n",
      "note_on channel=9 note=54 velocity=119 time=0\n",
      "note_on channel=9 note=40 velocity=125 time=0\n",
      "note_on channel=9 note=49 velocity=0 time=14\n",
      "note_on channel=9 note=54 velocity=0 time=25\n",
      "note_on channel=9 note=54 velocity=107 time=36\n",
      "note_on channel=9 note=70 velocity=0 time=44\n",
      "note_on channel=9 note=40 velocity=0 time=0\n",
      "note_on channel=9 note=36 velocity=125 time=1\n",
      "note_on channel=9 note=49 velocity=115 time=0\n",
      "note_on channel=9 note=54 velocity=0 time=14\n",
      "note_on channel=9 note=36 velocity=0 time=105\n",
      "note_on channel=9 note=36 velocity=112 time=361\n",
      "note_on channel=9 note=40 velocity=127 time=0\n",
      "note_on channel=9 note=36 velocity=0 time=59\n",
      "note_on channel=9 note=40 velocity=0 time=346\n",
      "note_on channel=9 note=49 velocity=0 time=910\n",
      "note_on channel=9 note=36 velocity=127 time=125\n",
      "note_on channel=9 note=69 velocity=112 time=0\n",
      "note_on channel=9 note=49 velocity=127 time=0\n",
      "note_on channel=9 note=54 velocity=117 time=0\n",
      "note_on channel=9 note=54 velocity=0 time=39\n",
      "note_on channel=9 note=54 velocity=119 time=36\n",
      "note_on channel=9 note=54 velocity=0 time=39\n",
      "note_on channel=9 note=69 velocity=0 time=5\n",
      "note_on channel=9 note=36 velocity=0 time=0\n",
      "note_on channel=9 note=70 velocity=112 time=1\n",
      "note_on channel=9 note=54 velocity=119 time=0\n",
      "note_on channel=9 note=40 velocity=119 time=0\n",
      "note_on channel=9 note=54 velocity=0 time=39\n",
      "note_on channel=9 note=54 velocity=112 time=36\n",
      "note_on channel=9 note=54 velocity=0 time=39\n",
      "note_on channel=9 note=40 velocity=0 time=5\n",
      "note_on channel=9 note=70 velocity=0 time=0\n",
      "note_on channel=9 note=36 velocity=127 time=1\n",
      "note_on channel=9 note=69 velocity=107 time=0\n",
      "note_on channel=9 note=54 velocity=119 time=0\n",
      "note_on channel=9 note=54 velocity=0 time=39\n",
      "note_on channel=9 note=54 velocity=119 time=36\n",
      "note_on channel=9 note=54 velocity=0 time=39\n",
      "note_on channel=9 note=69 velocity=0 time=5\n",
      "note_on channel=9 note=36 velocity=0 time=0\n",
      "note_on channel=9 note=70 velocity=125 time=1\n",
      "note_on channel=9 note=54 velocity=119 time=0\n",
      "note_on channel=9 note=40 velocity=125 time=0\n",
      "note_on channel=9 note=54 velocity=0 time=39\n",
      "note_on channel=9 note=54 velocity=107 time=36\n",
      "note_on channel=9 note=40 velocity=0 time=44\n",
      "note_on channel=9 note=70 velocity=0 time=0\n",
      "note_on channel=9 note=36 velocity=127 time=1\n",
      "note_on channel=9 note=69 velocity=112 time=0\n",
      "note_on channel=9 note=54 velocity=117 time=0\n",
      "note_on channel=9 note=54 velocity=0 time=14\n",
      "note_on channel=9 note=54 velocity=0 time=25\n",
      "note_on channel=9 note=54 velocity=119 time=36\n",
      "note_on channel=9 note=54 velocity=0 time=39\n",
      "note_on channel=9 note=69 velocity=0 time=5\n",
      "note_on channel=9 note=36 velocity=0 time=0\n",
      "note_on channel=9 note=70 velocity=112 time=1\n",
      "note_on channel=9 note=54 velocity=119 time=0\n",
      "note_on channel=9 note=40 velocity=119 time=0\n",
      "note_on channel=9 note=54 velocity=0 time=39\n",
      "note_on channel=9 note=54 velocity=112 time=36\n",
      "note_on channel=9 note=54 velocity=0 time=39\n",
      "note_on channel=9 note=40 velocity=0 time=5\n",
      "note_on channel=9 note=70 velocity=0 time=0\n",
      "note_on channel=9 note=36 velocity=127 time=1\n",
      "note_on channel=9 note=69 velocity=107 time=0\n",
      "note_on channel=9 note=54 velocity=119 time=0\n",
      "note_on channel=9 note=54 velocity=0 time=39\n",
      "note_on channel=9 note=54 velocity=119 time=36\n",
      "note_on channel=9 note=54 velocity=0 time=39\n",
      "note_on channel=9 note=69 velocity=0 time=5\n",
      "note_on channel=9 note=36 velocity=0 time=0\n",
      "note_on channel=9 note=70 velocity=125 time=1\n",
      "note_on channel=9 note=54 velocity=119 time=0\n",
      "note_on channel=9 note=40 velocity=125 time=0\n",
      "note_on channel=9 note=54 velocity=0 time=39\n",
      "note_on channel=9 note=54 velocity=107 time=36\n",
      "note_on channel=9 note=40 velocity=0 time=44\n",
      "note_on channel=9 note=70 velocity=0 time=0\n",
      "note_on channel=9 note=36 velocity=127 time=1\n",
      "note_on channel=9 note=69 velocity=112 time=0\n",
      "note_on channel=9 note=54 velocity=117 time=0\n",
      "note_on channel=9 note=54 velocity=0 time=14\n",
      "note_on channel=9 note=54 velocity=0 time=25\n",
      "note_on channel=9 note=54 velocity=119 time=36\n",
      "note_on channel=9 note=54 velocity=0 time=39\n",
      "note_on channel=9 note=69 velocity=0 time=5\n",
      "note_on channel=9 note=36 velocity=0 time=0\n",
      "note_on channel=9 note=70 velocity=112 time=1\n",
      "note_on channel=9 note=54 velocity=119 time=0\n",
      "note_on channel=9 note=40 velocity=119 time=0\n",
      "note_on channel=9 note=54 velocity=0 time=39\n",
      "note_on channel=9 note=54 velocity=112 time=36\n",
      "note_on channel=9 note=54 velocity=0 time=39\n",
      "note_on channel=9 note=40 velocity=0 time=5\n",
      "note_on channel=9 note=70 velocity=0 time=0\n",
      "note_on channel=9 note=36 velocity=127 time=1\n",
      "note_on channel=9 note=69 velocity=107 time=0\n",
      "note_on channel=9 note=54 velocity=119 time=0\n",
      "note_on channel=9 note=54 velocity=0 time=39\n",
      "note_on channel=9 note=54 velocity=119 time=36\n",
      "note_on channel=9 note=54 velocity=0 time=39\n",
      "note_on channel=9 note=69 velocity=0 time=5\n",
      "note_on channel=9 note=36 velocity=0 time=0\n",
      "note_on channel=9 note=70 velocity=125 time=1\n",
      "note_on channel=9 note=54 velocity=119 time=0\n",
      "note_on channel=9 note=40 velocity=125 time=0\n",
      "note_on channel=9 note=49 velocity=0 time=1\n",
      "note_on channel=9 note=54 velocity=0 time=38\n",
      "note_on channel=9 note=54 velocity=107 time=36\n",
      "note_on channel=9 note=70 velocity=0 time=44\n",
      "note_on channel=9 note=40 velocity=0 time=0\n",
      "note_on channel=9 note=36 velocity=127 time=1\n",
      "note_on channel=9 note=69 velocity=112 time=0\n",
      "note_on channel=9 note=54 velocity=117 time=0\n",
      "note_on channel=9 note=54 velocity=0 time=14\n",
      "note_on channel=9 note=54 velocity=0 time=25\n",
      "note_on channel=9 note=54 velocity=119 time=36\n",
      "note_on channel=9 note=54 velocity=0 time=39\n",
      "note_on channel=9 note=69 velocity=0 time=5\n",
      "note_on channel=9 note=36 velocity=0 time=0\n",
      "note_on channel=9 note=70 velocity=112 time=1\n",
      "note_on channel=9 note=54 velocity=119 time=0\n",
      "note_on channel=9 note=40 velocity=119 time=0\n",
      "note_on channel=9 note=54 velocity=0 time=39\n",
      "note_on channel=9 note=54 velocity=112 time=36\n",
      "note_on channel=9 note=54 velocity=0 time=39\n",
      "note_on channel=9 note=40 velocity=0 time=5\n",
      "note_on channel=9 note=70 velocity=0 time=0\n",
      "note_on channel=9 note=36 velocity=127 time=1\n",
      "note_on channel=9 note=69 velocity=107 time=0\n",
      "note_on channel=9 note=54 velocity=119 time=0\n",
      "note_on channel=9 note=54 velocity=0 time=39\n",
      "note_on channel=9 note=54 velocity=119 time=36\n",
      "note_on channel=9 note=54 velocity=0 time=39\n",
      "note_on channel=9 note=69 velocity=0 time=5\n",
      "note_on channel=9 note=36 velocity=0 time=0\n",
      "note_on channel=9 note=70 velocity=125 time=1\n",
      "note_on channel=9 note=54 velocity=119 time=0\n",
      "note_on channel=9 note=40 velocity=125 time=0\n",
      "note_on channel=9 note=54 velocity=0 time=39\n",
      "note_on channel=9 note=54 velocity=107 time=36\n",
      "note_on channel=9 note=40 velocity=0 time=44\n",
      "note_on channel=9 note=70 velocity=0 time=0\n",
      "note_on channel=9 note=36 velocity=127 time=1\n",
      "note_on channel=9 note=69 velocity=112 time=0\n",
      "note_on channel=9 note=54 velocity=117 time=0\n",
      "note_on channel=9 note=54 velocity=0 time=14\n",
      "note_on channel=9 note=54 velocity=0 time=25\n",
      "note_on channel=9 note=54 velocity=119 time=36\n",
      "note_on channel=9 note=54 velocity=0 time=39\n",
      "note_on channel=9 note=69 velocity=0 time=5\n",
      "note_on channel=9 note=36 velocity=0 time=0\n",
      "note_on channel=9 note=70 velocity=112 time=1\n",
      "note_on channel=9 note=54 velocity=119 time=0\n",
      "note_on channel=9 note=40 velocity=119 time=0\n",
      "note_on channel=9 note=54 velocity=0 time=39\n",
      "note_on channel=9 note=54 velocity=112 time=36\n",
      "note_on channel=9 note=54 velocity=0 time=39\n",
      "note_on channel=9 note=40 velocity=0 time=5\n",
      "note_on channel=9 note=70 velocity=0 time=0\n",
      "note_on channel=9 note=36 velocity=127 time=1\n",
      "note_on channel=9 note=69 velocity=107 time=0\n",
      "note_on channel=9 note=54 velocity=119 time=0\n",
      "note_on channel=9 note=54 velocity=0 time=39\n",
      "note_on channel=9 note=54 velocity=119 time=36\n",
      "note_on channel=9 note=54 velocity=0 time=39\n",
      "note_on channel=9 note=69 velocity=0 time=5\n",
      "note_on channel=9 note=36 velocity=0 time=0\n",
      "note_on channel=9 note=70 velocity=125 time=1\n",
      "note_on channel=9 note=54 velocity=119 time=0\n",
      "note_on channel=9 note=40 velocity=125 time=0\n",
      "note_on channel=9 note=54 velocity=0 time=39\n",
      "note_on channel=9 note=54 velocity=107 time=36\n",
      "note_on channel=9 note=40 velocity=0 time=44\n",
      "note_on channel=9 note=70 velocity=0 time=0\n",
      "note_on channel=9 note=36 velocity=127 time=1\n",
      "note_on channel=9 note=69 velocity=112 time=0\n",
      "note_on channel=9 note=54 velocity=117 time=0\n",
      "note_on channel=9 note=54 velocity=0 time=14\n",
      "note_on channel=9 note=54 velocity=0 time=25\n",
      "note_on channel=9 note=54 velocity=119 time=36\n",
      "note_on channel=9 note=54 velocity=0 time=39\n",
      "note_on channel=9 note=69 velocity=0 time=5\n",
      "note_on channel=9 note=36 velocity=0 time=0\n",
      "note_on channel=9 note=70 velocity=112 time=1\n",
      "note_on channel=9 note=54 velocity=119 time=0\n",
      "note_on channel=9 note=40 velocity=119 time=0\n",
      "note_on channel=9 note=54 velocity=0 time=39\n",
      "note_on channel=9 note=54 velocity=112 time=36\n",
      "note_on channel=9 note=54 velocity=0 time=39\n",
      "note_on channel=9 note=40 velocity=0 time=5\n",
      "note_on channel=9 note=70 velocity=0 time=0\n",
      "note_on channel=9 note=36 velocity=127 time=1\n",
      "note_on channel=9 note=69 velocity=107 time=0\n",
      "note_on channel=9 note=54 velocity=119 time=0\n",
      "note_on channel=9 note=54 velocity=0 time=39\n",
      "note_on channel=9 note=54 velocity=119 time=36\n",
      "note_on channel=9 note=54 velocity=0 time=39\n",
      "note_on channel=9 note=69 velocity=0 time=5\n",
      "note_on channel=9 note=36 velocity=0 time=0\n",
      "note_on channel=9 note=70 velocity=125 time=1\n",
      "note_on channel=9 note=54 velocity=119 time=0\n",
      "note_on channel=9 note=40 velocity=125 time=0\n",
      "note_on channel=9 note=54 velocity=0 time=39\n",
      "note_on channel=9 note=54 velocity=107 time=36\n",
      "note_on channel=9 note=40 velocity=0 time=44\n",
      "note_on channel=9 note=70 velocity=0 time=0\n",
      "note_on channel=9 note=36 velocity=127 time=1\n",
      "note_on channel=9 note=69 velocity=112 time=0\n",
      "note_on channel=9 note=54 velocity=117 time=0\n",
      "note_on channel=9 note=54 velocity=0 time=14\n",
      "note_on channel=9 note=54 velocity=0 time=25\n",
      "note_on channel=9 note=54 velocity=119 time=36\n",
      "note_on channel=9 note=54 velocity=0 time=39\n",
      "note_on channel=9 note=69 velocity=0 time=5\n",
      "note_on channel=9 note=36 velocity=0 time=0\n",
      "note_on channel=9 note=70 velocity=112 time=1\n",
      "note_on channel=9 note=54 velocity=119 time=0\n",
      "note_on channel=9 note=40 velocity=119 time=0\n",
      "note_on channel=9 note=54 velocity=0 time=39\n",
      "note_on channel=9 note=54 velocity=112 time=36\n",
      "note_on channel=9 note=54 velocity=0 time=39\n",
      "note_on channel=9 note=40 velocity=0 time=5\n",
      "note_on channel=9 note=70 velocity=0 time=0\n",
      "note_on channel=9 note=36 velocity=127 time=1\n",
      "note_on channel=9 note=69 velocity=107 time=0\n",
      "note_on channel=9 note=54 velocity=119 time=0\n",
      "note_on channel=9 note=54 velocity=0 time=39\n",
      "note_on channel=9 note=54 velocity=119 time=36\n",
      "note_on channel=9 note=54 velocity=0 time=39\n",
      "note_on channel=9 note=69 velocity=0 time=5\n",
      "note_on channel=9 note=36 velocity=0 time=0\n",
      "note_on channel=9 note=70 velocity=125 time=1\n",
      "note_on channel=9 note=54 velocity=119 time=0\n",
      "note_on channel=9 note=40 velocity=125 time=0\n",
      "note_on channel=9 note=54 velocity=0 time=39\n",
      "note_on channel=9 note=54 velocity=107 time=36\n",
      "note_on channel=9 note=40 velocity=0 time=44\n",
      "note_on channel=9 note=70 velocity=0 time=0\n",
      "note_on channel=9 note=36 velocity=127 time=1\n",
      "note_on channel=9 note=69 velocity=112 time=0\n",
      "note_on channel=9 note=54 velocity=117 time=0\n",
      "note_on channel=9 note=54 velocity=0 time=14\n",
      "note_on channel=9 note=54 velocity=0 time=25\n",
      "note_on channel=9 note=54 velocity=119 time=36\n",
      "note_on channel=9 note=54 velocity=0 time=39\n",
      "note_on channel=9 note=69 velocity=0 time=5\n",
      "note_on channel=9 note=36 velocity=0 time=0\n",
      "note_on channel=9 note=70 velocity=112 time=1\n",
      "note_on channel=9 note=54 velocity=119 time=0\n",
      "note_on channel=9 note=40 velocity=119 time=0\n",
      "note_on channel=9 note=54 velocity=0 time=39\n",
      "note_on channel=9 note=54 velocity=112 time=36\n",
      "note_on channel=9 note=54 velocity=0 time=39\n",
      "note_on channel=9 note=40 velocity=0 time=5\n",
      "note_on channel=9 note=70 velocity=0 time=0\n",
      "note_on channel=9 note=36 velocity=127 time=1\n",
      "note_on channel=9 note=69 velocity=107 time=0\n",
      "note_on channel=9 note=54 velocity=119 time=0\n",
      "note_on channel=9 note=54 velocity=0 time=39\n",
      "note_on channel=9 note=54 velocity=119 time=36\n",
      "note_on channel=9 note=49 velocity=127 time=5\n",
      "note_on channel=9 note=54 velocity=0 time=34\n",
      "note_on channel=9 note=36 velocity=0 time=5\n",
      "note_on channel=9 note=69 velocity=0 time=0\n",
      "note_on channel=9 note=70 velocity=125 time=1\n",
      "note_on channel=9 note=54 velocity=119 time=0\n",
      "note_on channel=9 note=40 velocity=125 time=0\n",
      "note_on channel=9 note=49 velocity=0 time=14\n",
      "note_on channel=9 note=54 velocity=0 time=25\n",
      "note_on channel=9 note=54 velocity=107 time=36\n",
      "note_on channel=9 note=70 velocity=0 time=44\n",
      "note_on channel=9 note=40 velocity=0 time=0\n",
      "note_on channel=9 note=36 velocity=127 time=1\n",
      "note_on channel=9 note=69 velocity=112 time=0\n",
      "note_on channel=9 note=49 velocity=127 time=0\n",
      "note_on channel=9 note=54 velocity=117 time=0\n",
      "note_on channel=9 note=54 velocity=0 time=14\n",
      "note_on channel=9 note=54 velocity=0 time=25\n",
      "note_on channel=9 note=54 velocity=119 time=36\n",
      "note_on channel=9 note=54 velocity=0 time=39\n",
      "note_on channel=9 note=36 velocity=0 time=5\n",
      "note_on channel=9 note=69 velocity=0 time=0\n",
      "note_on channel=9 note=70 velocity=112 time=1\n",
      "note_on channel=9 note=54 velocity=119 time=0\n",
      "note_on channel=9 note=40 velocity=119 time=0\n",
      "note_on channel=9 note=54 velocity=0 time=39\n",
      "note_on channel=9 note=54 velocity=112 time=36\n",
      "note_on channel=9 note=54 velocity=0 time=39\n",
      "note_on channel=9 note=40 velocity=0 time=5\n",
      "note_on channel=9 note=70 velocity=0 time=0\n",
      "note_on channel=9 note=36 velocity=127 time=1\n",
      "note_on channel=9 note=69 velocity=107 time=0\n",
      "note_on channel=9 note=54 velocity=119 time=0\n",
      "note_on channel=9 note=54 velocity=0 time=39\n",
      "note_on channel=9 note=49 velocity=127 time=36\n",
      "note_on channel=9 note=54 velocity=119 time=0\n",
      "note_on channel=9 note=49 velocity=0 time=26\n",
      "note_on channel=9 note=54 velocity=0 time=13\n",
      "note_on channel=9 note=36 velocity=0 time=5\n",
      "note_on channel=9 note=69 velocity=0 time=0\n",
      "note_on channel=9 note=49 velocity=0 time=0\n",
      "note_on channel=9 note=70 velocity=125 time=1\n",
      "note_on channel=9 note=54 velocity=119 time=0\n",
      "note_on channel=9 note=40 velocity=125 time=0\n",
      "note_on channel=9 note=54 velocity=0 time=39\n",
      "note_on channel=9 note=54 velocity=107 time=36\n",
      "note_on channel=9 note=40 velocity=0 time=44\n",
      "note_on channel=9 note=70 velocity=0 time=0\n",
      "note_on channel=9 note=36 velocity=127 time=1\n",
      "note_on channel=9 note=69 velocity=112 time=0\n",
      "note_on channel=9 note=49 velocity=127 time=0\n",
      "note_on channel=9 note=54 velocity=117 time=0\n",
      "note_on channel=9 note=54 velocity=0 time=14\n",
      "note_on channel=9 note=54 velocity=0 time=25\n",
      "note_on channel=9 note=54 velocity=119 time=36\n",
      "note_on channel=9 note=54 velocity=0 time=39\n",
      "note_on channel=9 note=36 velocity=0 time=5\n",
      "note_on channel=9 note=69 velocity=0 time=0\n",
      "note_on channel=9 note=70 velocity=112 time=1\n",
      "note_on channel=9 note=54 velocity=119 time=0\n",
      "note_on channel=9 note=40 velocity=119 time=0\n",
      "note_on channel=9 note=54 velocity=0 time=39\n",
      "note_on channel=9 note=54 velocity=112 time=36\n",
      "note_on channel=9 note=54 velocity=0 time=39\n",
      "note_on channel=9 note=40 velocity=0 time=5\n",
      "note_on channel=9 note=70 velocity=0 time=0\n",
      "note_on channel=9 note=36 velocity=127 time=1\n",
      "note_on channel=9 note=69 velocity=107 time=0\n",
      "note_on channel=9 note=54 velocity=119 time=0\n",
      "note_on channel=9 note=54 velocity=0 time=39\n",
      "note_on channel=9 note=49 velocity=127 time=36\n",
      "note_on channel=9 note=54 velocity=119 time=0\n",
      "note_on channel=9 note=49 velocity=0 time=26\n",
      "note_on channel=9 note=54 velocity=0 time=13\n",
      "note_on channel=9 note=36 velocity=0 time=5\n",
      "note_on channel=9 note=69 velocity=0 time=0\n",
      "note_on channel=9 note=49 velocity=0 time=0\n",
      "note_on channel=9 note=70 velocity=125 time=1\n",
      "note_on channel=9 note=54 velocity=119 time=0\n",
      "note_on channel=9 note=40 velocity=125 time=0\n",
      "note_on channel=9 note=54 velocity=0 time=39\n",
      "note_on channel=9 note=54 velocity=107 time=36\n",
      "note_on channel=9 note=40 velocity=0 time=44\n",
      "note_on channel=9 note=70 velocity=0 time=0\n",
      "note_on channel=9 note=36 velocity=127 time=1\n",
      "note_on channel=9 note=69 velocity=112 time=0\n",
      "note_on channel=9 note=49 velocity=127 time=0\n",
      "note_on channel=9 note=54 velocity=117 time=0\n",
      "note_on channel=9 note=54 velocity=0 time=14\n",
      "note_on channel=9 note=54 velocity=0 time=25\n",
      "note_on channel=9 note=54 velocity=119 time=36\n",
      "note_on channel=9 note=54 velocity=0 time=39\n",
      "note_on channel=9 note=36 velocity=0 time=5\n",
      "note_on channel=9 note=69 velocity=0 time=0\n",
      "note_on channel=9 note=70 velocity=112 time=1\n",
      "note_on channel=9 note=54 velocity=119 time=0\n",
      "note_on channel=9 note=40 velocity=119 time=0\n",
      "note_on channel=9 note=54 velocity=0 time=39\n",
      "note_on channel=9 note=54 velocity=112 time=36\n",
      "note_on channel=9 note=54 velocity=0 time=39\n",
      "note_on channel=9 note=40 velocity=0 time=5\n",
      "note_on channel=9 note=70 velocity=0 time=0\n",
      "note_on channel=9 note=36 velocity=127 time=1\n",
      "note_on channel=9 note=69 velocity=107 time=0\n",
      "note_on channel=9 note=54 velocity=119 time=0\n",
      "note_on channel=9 note=54 velocity=0 time=39\n",
      "note_on channel=9 note=49 velocity=127 time=36\n",
      "note_on channel=9 note=54 velocity=119 time=0\n",
      "note_on channel=9 note=49 velocity=0 time=25\n",
      "note_on channel=9 note=54 velocity=0 time=14\n",
      "note_on channel=9 note=36 velocity=0 time=5\n",
      "note_on channel=9 note=69 velocity=0 time=0\n",
      "note_on channel=9 note=49 velocity=0 time=0\n",
      "note_on channel=9 note=70 velocity=125 time=1\n",
      "note_on channel=9 note=54 velocity=119 time=0\n",
      "note_on channel=9 note=40 velocity=125 time=0\n",
      "note_on channel=9 note=54 velocity=0 time=39\n",
      "note_on channel=9 note=54 velocity=107 time=36\n",
      "note_on channel=9 note=40 velocity=0 time=44\n",
      "note_on channel=9 note=70 velocity=0 time=0\n",
      "note_on channel=9 note=36 velocity=127 time=1\n",
      "note_on channel=9 note=69 velocity=112 time=0\n",
      "note_on channel=9 note=49 velocity=127 time=0\n",
      "note_on channel=9 note=54 velocity=117 time=0\n",
      "note_on channel=9 note=54 velocity=0 time=14\n",
      "note_on channel=9 note=54 velocity=0 time=25\n",
      "note_on channel=9 note=54 velocity=119 time=36\n",
      "note_on channel=9 note=54 velocity=0 time=39\n",
      "note_on channel=9 note=36 velocity=0 time=5\n",
      "note_on channel=9 note=69 velocity=0 time=0\n",
      "note_on channel=9 note=70 velocity=112 time=1\n",
      "note_on channel=9 note=54 velocity=119 time=0\n",
      "note_on channel=9 note=40 velocity=119 time=0\n",
      "note_on channel=9 note=54 velocity=0 time=39\n",
      "note_on channel=9 note=54 velocity=112 time=36\n",
      "note_on channel=9 note=54 velocity=0 time=39\n",
      "note_on channel=9 note=40 velocity=0 time=5\n",
      "note_on channel=9 note=70 velocity=0 time=0\n",
      "note_on channel=9 note=36 velocity=127 time=1\n",
      "note_on channel=9 note=69 velocity=107 time=0\n",
      "note_on channel=9 note=54 velocity=119 time=0\n",
      "note_on channel=9 note=54 velocity=0 time=39\n",
      "note_on channel=9 note=49 velocity=127 time=36\n",
      "note_on channel=9 note=54 velocity=119 time=0\n",
      "note_on channel=9 note=49 velocity=0 time=25\n",
      "note_on channel=9 note=54 velocity=0 time=14\n",
      "note_on channel=9 note=36 velocity=0 time=5\n",
      "note_on channel=9 note=69 velocity=0 time=0\n",
      "note_on channel=9 note=49 velocity=0 time=0\n",
      "note_on channel=9 note=70 velocity=125 time=1\n",
      "note_on channel=9 note=54 velocity=119 time=0\n",
      "note_on channel=9 note=40 velocity=125 time=0\n",
      "note_on channel=9 note=54 velocity=0 time=39\n",
      "note_on channel=9 note=54 velocity=107 time=36\n",
      "note_on channel=9 note=40 velocity=0 time=44\n",
      "note_on channel=9 note=70 velocity=0 time=0\n",
      "note_on channel=9 note=36 velocity=127 time=1\n",
      "note_on channel=9 note=69 velocity=112 time=0\n",
      "note_on channel=9 note=49 velocity=127 time=0\n",
      "note_on channel=9 note=54 velocity=117 time=0\n",
      "note_on channel=9 note=54 velocity=0 time=14\n",
      "note_on channel=9 note=54 velocity=0 time=25\n",
      "note_on channel=9 note=54 velocity=119 time=36\n",
      "note_on channel=9 note=54 velocity=0 time=39\n",
      "note_on channel=9 note=36 velocity=0 time=5\n",
      "note_on channel=9 note=69 velocity=0 time=0\n",
      "note_on channel=9 note=70 velocity=112 time=1\n",
      "note_on channel=9 note=54 velocity=119 time=0\n",
      "note_on channel=9 note=40 velocity=119 time=0\n",
      "note_on channel=9 note=54 velocity=0 time=39\n",
      "note_on channel=9 note=54 velocity=112 time=36\n",
      "note_on channel=9 note=54 velocity=0 time=39\n",
      "note_on channel=9 note=40 velocity=0 time=5\n",
      "note_on channel=9 note=70 velocity=0 time=0\n",
      "note_on channel=9 note=36 velocity=127 time=1\n",
      "note_on channel=9 note=69 velocity=107 time=0\n",
      "note_on channel=9 note=54 velocity=119 time=0\n",
      "note_on channel=9 note=54 velocity=0 time=39\n",
      "note_on channel=9 note=49 velocity=119 time=36\n",
      "note_on channel=9 note=54 velocity=119 time=0\n",
      "note_on channel=9 note=49 velocity=0 time=25\n",
      "note_on channel=9 note=54 velocity=0 time=14\n",
      "note_on channel=9 note=36 velocity=0 time=5\n",
      "note_on channel=9 note=69 velocity=0 time=0\n",
      "note_on channel=9 note=49 velocity=0 time=0\n",
      "note_on channel=9 note=70 velocity=125 time=1\n",
      "note_on channel=9 note=54 velocity=119 time=0\n",
      "note_on channel=9 note=40 velocity=125 time=0\n",
      "note_on channel=9 note=54 velocity=0 time=39\n",
      "note_on channel=9 note=54 velocity=107 time=36\n",
      "note_on channel=9 note=40 velocity=0 time=44\n",
      "note_on channel=9 note=70 velocity=0 time=0\n",
      "note_on channel=9 note=36 velocity=127 time=1\n",
      "note_on channel=9 note=69 velocity=112 time=0\n",
      "note_on channel=9 note=49 velocity=127 time=0\n",
      "note_on channel=9 note=54 velocity=117 time=0\n",
      "note_on channel=9 note=54 velocity=0 time=14\n",
      "note_on channel=9 note=54 velocity=0 time=25\n",
      "note_on channel=9 note=54 velocity=119 time=36\n",
      "note_on channel=9 note=54 velocity=0 time=39\n",
      "note_on channel=9 note=36 velocity=0 time=5\n",
      "note_on channel=9 note=69 velocity=0 time=0\n",
      "note_on channel=9 note=70 velocity=112 time=1\n",
      "note_on channel=9 note=54 velocity=119 time=0\n",
      "note_on channel=9 note=40 velocity=119 time=0\n",
      "note_on channel=9 note=54 velocity=0 time=39\n",
      "note_on channel=9 note=54 velocity=112 time=36\n",
      "note_on channel=9 note=54 velocity=0 time=39\n",
      "note_on channel=9 note=40 velocity=0 time=5\n",
      "note_on channel=9 note=70 velocity=0 time=0\n",
      "note_on channel=9 note=36 velocity=127 time=1\n",
      "note_on channel=9 note=69 velocity=107 time=0\n",
      "note_on channel=9 note=54 velocity=119 time=0\n",
      "note_on channel=9 note=54 velocity=0 time=39\n",
      "note_on channel=9 note=49 velocity=123 time=36\n",
      "note_on channel=9 note=54 velocity=119 time=0\n",
      "note_on channel=9 note=49 velocity=0 time=26\n",
      "note_on channel=9 note=54 velocity=0 time=13\n",
      "note_on channel=9 note=36 velocity=0 time=5\n",
      "note_on channel=9 note=69 velocity=0 time=0\n",
      "note_on channel=9 note=49 velocity=0 time=0\n",
      "note_on channel=9 note=70 velocity=125 time=1\n",
      "note_on channel=9 note=54 velocity=119 time=0\n",
      "note_on channel=9 note=40 velocity=125 time=0\n",
      "note_on channel=9 note=54 velocity=0 time=39\n",
      "note_on channel=9 note=54 velocity=107 time=36\n",
      "note_on channel=9 note=40 velocity=0 time=44\n",
      "note_on channel=9 note=70 velocity=0 time=0\n",
      "note_on channel=9 note=36 velocity=127 time=1\n",
      "note_on channel=9 note=69 velocity=112 time=0\n",
      "note_on channel=9 note=49 velocity=125 time=0\n",
      "note_on channel=9 note=54 velocity=117 time=0\n",
      "note_on channel=9 note=54 velocity=0 time=14\n",
      "note_on channel=9 note=54 velocity=0 time=25\n",
      "note_on channel=9 note=54 velocity=119 time=36\n",
      "note_on channel=9 note=54 velocity=0 time=39\n",
      "note_on channel=9 note=36 velocity=0 time=5\n",
      "note_on channel=9 note=69 velocity=0 time=0\n",
      "note_on channel=9 note=70 velocity=112 time=1\n",
      "note_on channel=9 note=54 velocity=119 time=0\n",
      "note_on channel=9 note=40 velocity=119 time=0\n",
      "note_on channel=9 note=54 velocity=0 time=39\n",
      "note_on channel=9 note=54 velocity=112 time=36\n",
      "note_on channel=9 note=54 velocity=0 time=39\n",
      "note_on channel=9 note=40 velocity=0 time=5\n",
      "note_on channel=9 note=70 velocity=0 time=0\n",
      "note_on channel=9 note=36 velocity=127 time=1\n",
      "note_on channel=9 note=69 velocity=107 time=0\n",
      "note_on channel=9 note=54 velocity=119 time=0\n",
      "note_on channel=9 note=54 velocity=0 time=39\n",
      "note_on channel=9 note=49 velocity=123 time=36\n",
      "note_on channel=9 note=54 velocity=119 time=0\n",
      "note_on channel=9 note=49 velocity=0 time=26\n",
      "note_on channel=9 note=54 velocity=0 time=13\n",
      "note_on channel=9 note=36 velocity=0 time=5\n",
      "note_on channel=9 note=69 velocity=0 time=0\n",
      "note_on channel=9 note=49 velocity=0 time=0\n",
      "note_on channel=9 note=70 velocity=125 time=1\n",
      "note_on channel=9 note=54 velocity=119 time=0\n",
      "note_on channel=9 note=40 velocity=125 time=0\n",
      "note_on channel=9 note=54 velocity=0 time=39\n",
      "note_on channel=9 note=54 velocity=107 time=36\n",
      "note_on channel=9 note=40 velocity=0 time=44\n",
      "note_on channel=9 note=70 velocity=0 time=0\n",
      "note_on channel=9 note=36 velocity=127 time=1\n",
      "note_on channel=9 note=69 velocity=112 time=0\n",
      "note_on channel=9 note=49 velocity=125 time=0\n",
      "note_on channel=9 note=54 velocity=117 time=0\n",
      "note_on channel=9 note=54 velocity=0 time=14\n",
      "note_on channel=9 note=54 velocity=0 time=25\n",
      "note_on channel=9 note=54 velocity=119 time=36\n",
      "note_on channel=9 note=54 velocity=0 time=39\n",
      "note_on channel=9 note=36 velocity=0 time=5\n",
      "note_on channel=9 note=69 velocity=0 time=0\n",
      "note_on channel=9 note=70 velocity=112 time=1\n",
      "note_on channel=9 note=54 velocity=119 time=0\n",
      "note_on channel=9 note=40 velocity=119 time=0\n",
      "note_on channel=9 note=54 velocity=0 time=39\n",
      "note_on channel=9 note=54 velocity=112 time=36\n",
      "note_on channel=9 note=54 velocity=0 time=39\n",
      "note_on channel=9 note=40 velocity=0 time=5\n",
      "note_on channel=9 note=70 velocity=0 time=0\n",
      "note_on channel=9 note=36 velocity=127 time=1\n",
      "note_on channel=9 note=69 velocity=107 time=0\n",
      "note_on channel=9 note=54 velocity=119 time=0\n",
      "note_on channel=9 note=54 velocity=0 time=39\n",
      "note_on channel=9 note=49 velocity=127 time=36\n",
      "note_on channel=9 note=54 velocity=119 time=0\n",
      "note_on channel=9 note=49 velocity=0 time=26\n",
      "note_on channel=9 note=54 velocity=0 time=13\n",
      "note_on channel=9 note=36 velocity=0 time=5\n",
      "note_on channel=9 note=69 velocity=0 time=0\n",
      "note_on channel=9 note=49 velocity=0 time=0\n",
      "note_on channel=9 note=70 velocity=125 time=1\n",
      "note_on channel=9 note=54 velocity=119 time=0\n",
      "note_on channel=9 note=40 velocity=125 time=0\n",
      "note_on channel=9 note=54 velocity=0 time=39\n",
      "note_on channel=9 note=54 velocity=107 time=36\n",
      "note_on channel=9 note=40 velocity=0 time=44\n",
      "note_on channel=9 note=70 velocity=0 time=0\n",
      "note_on channel=9 note=36 velocity=127 time=1\n",
      "note_on channel=9 note=69 velocity=112 time=0\n",
      "note_on channel=9 note=49 velocity=119 time=0\n",
      "note_on channel=9 note=54 velocity=117 time=0\n",
      "note_on channel=9 note=54 velocity=0 time=14\n",
      "note_on channel=9 note=54 velocity=0 time=25\n",
      "note_on channel=9 note=54 velocity=119 time=36\n",
      "note_on channel=9 note=54 velocity=0 time=39\n",
      "note_on channel=9 note=36 velocity=0 time=5\n",
      "note_on channel=9 note=69 velocity=0 time=0\n",
      "note_on channel=9 note=70 velocity=112 time=1\n",
      "note_on channel=9 note=54 velocity=119 time=0\n",
      "note_on channel=9 note=40 velocity=119 time=0\n",
      "note_on channel=9 note=54 velocity=0 time=39\n",
      "note_on channel=9 note=54 velocity=112 time=36\n",
      "note_on channel=9 note=54 velocity=0 time=39\n",
      "note_on channel=9 note=40 velocity=0 time=5\n",
      "note_on channel=9 note=70 velocity=0 time=0\n",
      "note_on channel=9 note=36 velocity=127 time=1\n",
      "note_on channel=9 note=69 velocity=107 time=0\n",
      "note_on channel=9 note=54 velocity=119 time=0\n",
      "note_on channel=9 note=54 velocity=0 time=39\n",
      "note_on channel=9 note=49 velocity=125 time=36\n",
      "note_on channel=9 note=54 velocity=119 time=0\n",
      "note_on channel=9 note=49 velocity=0 time=27\n",
      "note_on channel=9 note=54 velocity=0 time=12\n",
      "note_on channel=9 note=36 velocity=0 time=5\n",
      "note_on channel=9 note=69 velocity=0 time=0\n",
      "note_on channel=9 note=49 velocity=0 time=0\n",
      "note_on channel=9 note=70 velocity=125 time=1\n",
      "note_on channel=9 note=54 velocity=119 time=0\n",
      "note_on channel=9 note=40 velocity=125 time=0\n",
      "note_on channel=9 note=54 velocity=0 time=39\n",
      "note_on channel=9 note=54 velocity=107 time=36\n",
      "note_on channel=9 note=40 velocity=0 time=44\n",
      "note_on channel=9 note=70 velocity=0 time=0\n",
      "note_on channel=9 note=36 velocity=127 time=1\n",
      "note_on channel=9 note=69 velocity=112 time=0\n",
      "note_on channel=9 note=49 velocity=127 time=0\n",
      "note_on channel=9 note=54 velocity=117 time=0\n",
      "note_on channel=9 note=54 velocity=0 time=14\n",
      "note_on channel=9 note=54 velocity=0 time=25\n",
      "note_on channel=9 note=54 velocity=119 time=36\n",
      "note_on channel=9 note=54 velocity=0 time=39\n",
      "note_on channel=9 note=36 velocity=0 time=5\n",
      "note_on channel=9 note=69 velocity=0 time=0\n",
      "note_on channel=9 note=70 velocity=112 time=1\n",
      "note_on channel=9 note=54 velocity=119 time=0\n",
      "note_on channel=9 note=40 velocity=119 time=0\n",
      "note_on channel=9 note=54 velocity=0 time=39\n",
      "note_on channel=9 note=54 velocity=112 time=36\n",
      "note_on channel=9 note=54 velocity=0 time=39\n",
      "note_on channel=9 note=40 velocity=0 time=5\n",
      "note_on channel=9 note=70 velocity=0 time=0\n",
      "note_on channel=9 note=36 velocity=127 time=1\n",
      "note_on channel=9 note=69 velocity=107 time=0\n",
      "note_on channel=9 note=54 velocity=119 time=0\n",
      "note_on channel=9 note=54 velocity=0 time=39\n",
      "note_on channel=9 note=49 velocity=119 time=36\n",
      "note_on channel=9 note=54 velocity=119 time=0\n",
      "note_on channel=9 note=49 velocity=0 time=22\n",
      "note_on channel=9 note=54 velocity=0 time=17\n",
      "note_on channel=9 note=36 velocity=0 time=5\n",
      "note_on channel=9 note=69 velocity=0 time=0\n",
      "note_on channel=9 note=49 velocity=0 time=0\n",
      "note_on channel=9 note=70 velocity=125 time=1\n",
      "note_on channel=9 note=54 velocity=119 time=0\n",
      "note_on channel=9 note=40 velocity=125 time=0\n",
      "note_on channel=9 note=54 velocity=0 time=39\n",
      "note_on channel=9 note=54 velocity=107 time=36\n",
      "note_on channel=9 note=40 velocity=0 time=44\n",
      "note_on channel=9 note=70 velocity=0 time=0\n",
      "note_on channel=9 note=36 velocity=127 time=1\n",
      "note_on channel=9 note=69 velocity=99 time=0\n",
      "note_on channel=9 note=49 velocity=127 time=3\n",
      "note_on channel=9 note=54 velocity=0 time=11\n",
      "note_on channel=9 note=49 velocity=0 time=7\n",
      "note_on channel=9 note=36 velocity=0 time=18\n",
      "note_on channel=9 note=36 velocity=127 time=36\n",
      "note_on channel=9 note=49 velocity=127 time=0\n",
      "note_on channel=9 note=54 velocity=112 time=0\n",
      "note_on channel=9 note=40 velocity=127 time=0\n",
      "note_on channel=9 note=49 velocity=0 time=23\n",
      "note_on channel=9 note=54 velocity=0 time=16\n",
      "note_on channel=9 note=40 velocity=0 time=0\n",
      "note_on channel=9 note=36 velocity=0 time=0\n",
      "note_on channel=9 note=69 velocity=0 time=5\n",
      "note_on channel=9 note=36 velocity=127 time=121\n",
      "note_on channel=9 note=49 velocity=127 time=0\n",
      "note_on channel=9 note=54 velocity=119 time=0\n",
      "note_on channel=9 note=40 velocity=127 time=0\n",
      "note_on channel=9 note=49 velocity=0 time=22\n",
      "note_on channel=9 note=36 velocity=0 time=17\n",
      "note_on channel=9 note=54 velocity=0 time=0\n",
      "note_on channel=9 note=40 velocity=0 time=0\n",
      "note_on channel=9 note=36 velocity=127 time=81\n",
      "note_on channel=9 note=49 velocity=127 time=0\n",
      "note_on channel=9 note=54 velocity=112 time=0\n",
      "note_on channel=9 note=40 velocity=127 time=0\n",
      "note_on channel=9 note=49 velocity=0 time=27\n",
      "note_on channel=9 note=36 velocity=0 time=12\n",
      "note_on channel=9 note=54 velocity=0 time=0\n",
      "note_on channel=9 note=40 velocity=0 time=0\n",
      "note_on channel=9 note=36 velocity=127 time=81\n",
      "note_on channel=9 note=49 velocity=127 time=0\n",
      "note_on channel=9 note=54 velocity=123 time=0\n",
      "note_on channel=9 note=40 velocity=127 time=0\n",
      "note_on channel=9 note=40 velocity=0 time=39\n",
      "note_on channel=9 note=54 velocity=0 time=0\n",
      "note_on channel=9 note=49 velocity=0 time=36\n",
      "note_on channel=9 note=48 velocity=119 time=0\n",
      "note_on channel=9 note=48 velocity=0 time=19\n",
      "note_on channel=9 note=49 velocity=112 time=26\n",
      "note_on channel=9 note=49 velocity=0 time=75\n",
      "note_on channel=9 note=49 velocity=127 time=5\n",
      "note_on channel=9 note=49 velocity=0 time=21\n",
      "note_on channel=9 note=36 velocity=0 time=18\n",
      "note_on channel=9 note=36 velocity=127 time=121\n",
      "note_on channel=9 note=47 velocity=123 time=0\n",
      "note_on channel=9 note=54 velocity=110 time=0\n",
      "note_on channel=9 note=54 velocity=0 time=39\n",
      "note_on channel=9 note=36 velocity=0 time=400\n",
      "note_on channel=9 note=47 velocity=0 time=294\n",
      "<meta message end_of_track time=0>\n",
      "Track 5: sequenced by:\n",
      "<meta message midi_port port=0 time=0>\n",
      "<meta message track_name name='sequenced by:' time=0>\n",
      "<meta message end_of_track time=0>\n",
      "Track 6: Don Carroll\n",
      "<meta message midi_port port=0 time=0>\n",
      "<meta message track_name name='Don Carroll' time=0>\n",
      "<meta message end_of_track time=0>\n",
      "Track 7: Houston, Texas\n",
      "<meta message midi_port port=0 time=0>\n",
      "<meta message track_name name='Houston, Texas' time=0>\n",
      "<meta message end_of_track time=0>\n",
      "Track 8: donniec@ix.netcom.com\n",
      "<meta message midi_port port=0 time=0>\n",
      "<meta message track_name name='donniec@ix.netcom.com' time=0>\n",
      "<meta message end_of_track time=0>\n"
     ]
    }
   ],
   "source": [
    "for i, track in enumerate(mid.tracks):\n",
    "    print('Track {}: {}'.format(i, track.name))\n",
    "    for msg in track:\n",
    "        print(msg)"
   ]
  },
  {
   "cell_type": "code",
   "execution_count": null,
   "metadata": {
    "collapsed": true
   },
   "outputs": [],
   "source": []
  },
  {
   "cell_type": "markdown",
   "metadata": {},
   "source": [
    "Para criar um arquivo .mid"
   ]
  },
  {
   "cell_type": "code",
   "execution_count": 6,
   "metadata": {
    "collapsed": true
   },
   "outputs": [],
   "source": [
    "from mido import Message, MidiFile, MidiTrack\n",
    "\n",
    "mid = MidiFile()\n",
    "track = MidiTrack()\n",
    "mid.tracks.append(track)\n",
    "\n",
    "track.append(Message('program_change', program=12, time=0))\n",
    "track.append(Message('note_on', note=64, velocity=64, time=32))\n",
    "track.append(Message('note_off', note=64, velocity=127, time=32))\n",
    "\n",
    "mid.save('new_song.mid')\n"
   ]
  },
  {
   "cell_type": "code",
   "execution_count": 7,
   "metadata": {},
   "outputs": [
    {
     "name": "stdout",
     "output_type": "stream",
     "text": [
      "Track 0: \n",
      "program_change channel=0 program=12 time=0\n",
      "note_on channel=0 note=64 velocity=64 time=32\n",
      "note_off channel=0 note=64 velocity=127 time=32\n",
      "<meta message end_of_track time=0>\n"
     ]
    }
   ],
   "source": [
    "\n",
    "mid2 = MidiFile('new_song.mid')\n",
    "for i, track in enumerate(mid2.tracks):\n",
    "    print('Track {}: {}'.format(i, track.name))\n",
    "    for msg in track:\n",
    "        print(msg)"
   ]
  },
  {
   "cell_type": "code",
   "execution_count": 8,
   "metadata": {},
   "outputs": [
    {
     "data": {
      "text/plain": [
       "480"
      ]
     },
     "execution_count": 8,
     "metadata": {},
     "output_type": "execute_result"
    }
   ],
   "source": [
    "mid2.ticks_per_beat"
   ]
  },
  {
   "cell_type": "code",
   "execution_count": null,
   "metadata": {
    "collapsed": true
   },
   "outputs": [],
   "source": []
  }
 ],
 "metadata": {
  "kernelspec": {
   "display_name": "Python 3",
   "language": "python",
   "name": "python3"
  },
  "language_info": {
   "codemirror_mode": {
    "name": "ipython",
    "version": 3
   },
   "file_extension": ".py",
   "mimetype": "text/x-python",
   "name": "python",
   "nbconvert_exporter": "python",
   "pygments_lexer": "ipython3",
   "version": "3.6.0"
  }
 },
 "nbformat": 4,
 "nbformat_minor": 2
}
